<?xml version="1.0" encoding="UTF-8" standalone="no"?>
<!-- Created with Inkscape (http://www.inkscape.org/) -->

<svg
   width="210mm"
   height="297mm"
   viewBox="0 0 210 297"
   version="1.1"
   id="svg1"
   xml:space="preserve"
   xmlns:inkscape="http://www.inkscape.org/namespaces/inkscape"
   xmlns:sodipodi="http://sodipodi.sourceforge.net/DTD/sodipodi-0.dtd"
   xmlns="http://www.w3.org/2000/svg"
   xmlns:svg="http://www.w3.org/2000/svg"><sodipodi:namedview
     id="namedview1"
     pagecolor="#ffffff"
     bordercolor="#000000"
     borderopacity="0.25"
     inkscape:showpageshadow="2"
     inkscape:pageopacity="0.0"
     inkscape:pagecheckerboard="0"
     inkscape:deskcolor="#d1d1d1"
     inkscape:document-units="mm" /><defs
     id="defs1"><inkscape:path-effect
       effect="bspline"
       id="path-effect2"
       is_visible="true"
       lpeversion="1.3"
       weight="33.333333"
       steps="2"
       helper_size="0"
       apply_no_weight="true"
       apply_with_weight="true"
       only_selected="false"
       uniform="false" /><inkscape:path-effect
       effect="bspline"
       id="path-effect1"
       is_visible="true"
       lpeversion="1.3"
       weight="33.333333"
       steps="2"
       helper_size="0"
       apply_no_weight="true"
       apply_with_weight="true"
       only_selected="false"
       uniform="false" /></defs><g
     inkscape:label="Camada 1"
     inkscape:groupmode="layer"
     id="layer1"><path
       style="fill:#000000;fill-opacity:1;stroke:#000000;stroke-width:3.13834;stroke-linecap:round;stroke-dasharray:none;stroke-opacity:1;paint-order:markers fill stroke"
       id="path3"
       sodipodi:type="arc"
       sodipodi:cx="110.21445"
       sodipodi:cy="107.44185"
       sodipodi:rx="8.7725077"
       sodipodi:ry="13.145048"
       sodipodi:start="3.1264799"
       sodipodi:end="2.9503334"
       sodipodi:arc-type="slice"
       d="m 101.44294,107.6405 a 8.7725077,13.145048 0 0 1 8.25292,-13.320711 8.7725077,13.145048 0 0 1 9.24443,11.768081 8.7725077,13.145048 0 0 1 -7.43899,14.35683 8.7725077,13.145048 0 0 1 -9.8994,-10.50404 l 8.61255,-2.49881 z"
       transform="matrix(0.99972028,0.02365102,0,1,0,0)" /><rect
       style="fill:#000000;fill-opacity:1;stroke:#000000;stroke-width:4.65633;stroke-linecap:round;stroke-dasharray:none;stroke-opacity:1;paint-order:markers fill stroke"
       id="rect3"
       width="0.48132703"
       height="13.888011"
       x="192.21992"
       y="74.457695"
       rx="0.088714272"
       transform="matrix(0.49990141,0.86608232,-0.89407367,0.44791994,0,0)" /><rect
       style="fill:#000000;fill-opacity:1;stroke:#000000;stroke-width:4.65251;stroke-linecap:round;stroke-dasharray:none;stroke-opacity:1;paint-order:markers fill stroke"
       id="rect4"
       width="0.48101342"
       height="13.874273"
       x="73.027878"
       y="-265.62024"
       rx="0.08865647"
       transform="matrix(-0.47445662,0.88027888,-0.87338305,-0.48703393,0,0)"
       inkscape:label="rect4" /></g><g
     inkscape:groupmode="layer"
     id="layer2"
     inkscape:label="cadarço"
     style="stroke:#000000;stroke-width:6.4;stroke-linecap:round;stroke-dasharray:none;stroke-opacity:1"><path
       style="fill:none;stroke:#000000;stroke-width:6.4;stroke-linecap:round;stroke-linejoin:miter;stroke-dasharray:none;stroke-opacity:1"
       d="m 43.357876,201.44145 c 2.557985,-1.70532 5.11597,-3.41064 8.057687,-5.54232 2.941718,-2.13169 6.267036,-4.68962 9.357966,-7.37554 3.090931,-2.68591 5.947293,-5.49964 8.505303,-8.29213 2.558009,-2.7925 4.81752,-5.5636 6.885244,-8.33478 2.067724,-2.77118 3.943544,-5.54228 5.798101,-8.24951 1.854557,-2.70722 3.687743,-5.35042 5.329133,-7.88712 1.641389,-2.53669 3.090887,-4.96673 4.497795,-7.35421 1.406908,-2.38748 2.771139,-4.73225 4.588893,-7.63367 1.817754,-2.90141 4.088912,-6.35929 6.068632,-8.78164 1.97971,-2.42235 3.66786,-3.80904 6.50164,-5.37666 2.83378,-1.56762 6.813,-3.31606 10.6416,-4.82338 3.8286,-1.50733 7.50635,-2.77344 11.69671,-3.88886 4.19037,-1.11541 8.89308,-2.08007 12.99299,-2.71314 4.09992,-0.63308 7.5968,-0.93453 10.82247,-0.75365 3.22567,0.18089 6.17993,0.84409 8.83282,1.92936 2.65289,1.08528 5.00424,2.59256 6.72258,4.3712 1.71834,1.77865 2.80359,3.82855 3.43666,5.63733 0.63307,1.80879 0.81394,3.37636 0.78379,5.30574 -0.0301,1.92937 -0.27131,4.22043 -0.93454,6.33069 -0.66323,2.11025 -1.74847,4.03956 -3.31609,5.63732 -1.56762,1.59776 -3.61752,2.86388 -5.39615,3.67782 -1.77864,0.81395 -3.28592,1.1757 -5.24545,0.90437 -1.95952,-0.27132 -4.37117,-1.17569 -6.51156,-2.23081 -2.1404,-1.05513 -4.00942,-2.26095 -5.8785,-3.43666 -1.86908,-1.17572 -3.73811,-2.32125 -5.69763,-3.31608 -1.95952,-0.99483 -4.00942,-1.83891 -6.3307,-2.65286 -2.32128,-0.81396 -4.9138,-1.59774 -7.50639,-2.26096 -2.5926,-0.66322 -5.18512,-1.20584 -6.84316,-1.5676 -1.65805,-0.36175 -2.38154,-0.54263 -6.39106,-1.65806 -4.00951,-1.11543 -11.30474,-3.16532 -14.982568,-4.19029 -3.677829,-1.02497 -3.738124,-1.02497 -7.024121,-2.11025 -3.285997,-1.08529 -9.797438,-3.25577 -13.053224,-4.40132 -3.255785,-1.14556 -3.255785,-1.26614 -5.366059,-1.89922 -2.110274,-0.63309 -6.330653,-1.77862 -8.471031,-2.38154 -2.140378,-0.60293 -2.200669,-0.66322 -4.582263,-0.87424 -2.381593,-0.21103 -7.0843,-0.57278 -10.460691,-0.66321 -3.376391,-0.0904 -5.426289,0.0904 -7.446102,0.45219 -2.019813,0.36176 -4.009419,0.90438 -5.667473,1.71834 -1.658053,0.81396 -2.984458,1.8992 -4.130019,3.07491 -1.145562,1.17571 -2.110222,2.44183 -2.803588,3.85872 -0.693365,1.41688 -1.115404,2.98445 -1.356574,4.55206 -0.241169,1.56762 -0.301461,3.13519 -0.120579,4.82339 0.180882,1.68821 0.602919,3.49694 1.145556,4.94397 0.542637,1.44702 1.20584,2.53226 2.080089,3.64768 0.87425,1.11542 1.959488,2.26095 3.225642,3.19549 1.266154,0.93454 2.713141,1.65803 4.46164,2.32125 1.748499,0.66323 3.798397,1.26614 6.45129,1.26613 2.652894,-10e-6 5.908617,-0.60292 9.285021,-1.53746 3.376404,-0.93454 6.87329,-2.20066 10.581308,-3.43666 3.708018,-1.23601 7.626941,-2.44183 13.716548,-4.55209 6.089608,-2.11026 14.349493,-5.12481 18.931716,-6.8733 4.582222,-1.74848 5.486592,-2.23081 6.390982,-2.71315"
       id="path1"
       inkscape:path-effect="#path-effect1"
       inkscape:original-d="m 43.357876,201.44145 c 2.557986,-1.70532 5.115973,-3.41064 7.673959,-5.11597 3.32545,-2.55803 6.650765,-5.11597 9.976149,-7.67396 2.856476,-2.81384 5.712836,-5.62757 8.569256,-8.44135 2.2596,-2.77121 4.51911,-5.54231 6.778665,-8.31346 1.875893,-2.77121 3.751712,-5.54231 5.627571,-8.31346 1.833261,-2.6433 3.666447,-5.2865 5.499671,-7.92976 1.449554,-2.43013 2.89905,-4.86017 4.348578,-7.29026 1.364287,-2.34487 2.728519,-4.68964 4.092779,-7.03446 2.271252,-3.45801 4.542416,-6.91589 6.813616,-10.37384 1.68822,-1.38675 3.37637,-2.77344 5.06456,-4.16017 3.97937,-1.74851 7.95859,-3.49695 11.93788,-5.24543 3.67791,-1.26616 7.35566,-2.53228 11.0335,-3.79842 4.70289,-0.96469 9.4056,-1.92935 14.1084,-2.89403 3.49703,-0.30147 6.99391,-0.60292 10.49087,-0.90438 2.95438,0.66323 5.90864,1.32643 8.86297,1.98964 2.35145,1.50734 4.7028,3.01462 7.0542,4.52193 1.08528,2.04998 2.17052,4.09988 3.25579,6.14982 0.18088,1.56763 0.36175,3.1352 0.54263,4.7028 -0.24118,2.29115 -0.48234,4.58221 -0.72351,6.87332 -1.08529,1.9294 -2.17053,3.85871 -3.25579,5.78807 -2.04998,1.26616 -4.09988,2.53227 -6.14981,3.79841 -1.50734,0.36176 -3.01462,0.72351 -4.52193,1.08526 -2.41174,-0.9044 -4.82339,-1.80877 -7.23508,-2.71315 -1.8691,-1.20587 -3.73812,-2.41169 -5.60718,-3.61754 -1.8691,-1.14558 -3.73813,-2.29111 -5.60719,-3.43666 -2.04998,-0.84411 -4.09988,-1.68819 -6.14982,-2.53228 -2.59262,-0.78382 -5.18514,-1.5676 -7.77771,-2.3514 -2.59262,-0.54264 -5.18514,-1.08526 -7.77771,-1.62789 -0.72352,-0.18088 -1.44701,-0.36176 -2.17052,-0.54264 -7.29552,-2.04998 -14.59075,-4.09987 -21.886117,-6.14981 -0.06029,0 -0.120585,0 -0.180877,0 -6.511701,-2.17057 -13.023142,-4.34105 -19.534714,-6.51157 0,-0.12059 0,-0.24117 0,-0.36176 -4.220547,-1.14558 -8.440926,-2.29111 -12.661388,-3.43666 -0.06029,-0.0603 -0.120585,-0.12059 -0.180877,-0.18088 -4.702896,-0.36176 -9.405603,-0.72351 -14.108405,-1.08526 -2.04998,0.18088 -4.099878,0.36175 -6.149817,0.54263 -1.989687,0.54264 -3.979293,1.08526 -5.96894,1.62789 -1.326458,1.08529 -2.652863,2.17053 -3.979294,3.25579 -0.964696,1.26616 -1.929354,2.53228 -2.894031,3.79842 -0.422055,1.56763 -0.844093,3.1352 -1.266139,4.7028 -0.06029,1.56763 -0.120585,3.1352 -0.180877,4.7028 0.422055,1.80881 0.844092,3.61754 1.266139,5.42631 0.663228,1.08528 1.326431,2.17052 1.989646,3.25578 1.085284,1.14558 2.170524,2.29111 3.255786,3.43667 1.447045,0.72352 2.894032,1.44701 4.341047,2.17052 2.049981,0.60294 4.099879,1.20585 6.149818,1.80877 3.25585,-0.60293 6.511571,-1.20585 9.767357,-1.80877 3.497025,-1.26616 6.993909,-2.53228 10.490864,-3.79842 3.91908,-1.20587 7.838003,-2.41169 11.757004,-3.61753 8.260214,-3.01468 16.520098,-6.02924 24.780145,-9.04385 0.9044,-0.48235 1.80877,-0.96468 2.71316,-1.44702"
       inkscape:label="path1"
       transform="matrix(1.2630851,0,0,1.2298521,-24.363179,-48.021325)" /><path
       style="fill:none;stroke:#000000;stroke-width:6.4;stroke-linecap:round;stroke-linejoin:miter;stroke-dasharray:none;stroke-opacity:1"
       d="m 165.32156,190.64433 c -2.83374,-2.04994 -5.66748,-4.09987 -8.44096,-6.63218 -2.77347,-2.53231 -5.48658,-5.54687 -8.56152,-9.04386 -3.07494,-3.497 -6.51153,-7.47621 -9.46588,-11.18422 -2.95435,-3.70801 -5.42628,-7.14461 -7.50639,-10.09895 -2.0801,-2.95435 -3.76825,-5.42629 -5.60718,-7.92845 -1.83894,-2.50215 -3.82855,-5.03438 -5.66748,-7.08434 -1.83893,-2.04995 -3.52708,-3.61752 -5.81822,-5.0344 -2.29114,-1.41689 -5.18511,-2.683 -8.07914,-3.94914"
       id="path2"
       inkscape:path-effect="#path-effect2"
       inkscape:original-d="m 165.32156,190.64433 c -2.83374,-2.04994 -5.66748,-4.09987 -8.50122,-6.14981 -2.71321,-3.01468 -5.42631,-6.02924 -8.13947,-9.04385 -3.43673,-3.97938 -6.87332,-7.95859 -10.30998,-11.93788 -2.47204,-3.43673 -4.94397,-6.87333 -7.41596,-10.30999 -1.68822,-2.47203 -3.37637,-4.94397 -5.06455,-7.41595 -1.98969,-2.53233 -3.9793,-5.06456 -5.96894,-7.59684 -1.68822,-1.56763 -3.37637,-3.1352 -5.06456,-4.7028 -2.89409,-1.26616 -5.78806,-2.53228 -8.68209,-3.79842"
       transform="matrix(1.2630851,0,0,1.2298521,-24.363179,-48.021325)" /></g></svg>
