<?xml version="1.0" encoding="UTF-8" standalone="no"?>
<!-- Created with Inkscape (http://www.inkscape.org/) -->

<svg
   width="210mm"
   height="297mm"
   viewBox="0 0 210 297"
   version="1.1"
   id="svg1"
   xml:space="preserve"
   xmlns:inkscape="http://www.inkscape.org/namespaces/inkscape"
   xmlns:sodipodi="http://sodipodi.sourceforge.net/DTD/sodipodi-0.dtd"
   xmlns="http://www.w3.org/2000/svg"
   xmlns:svg="http://www.w3.org/2000/svg"><sodipodi:namedview
     id="namedview1"
     pagecolor="#ffffff"
     bordercolor="#000000"
     borderopacity="0.25"
     inkscape:showpageshadow="2"
     inkscape:pageopacity="0.0"
     inkscape:pagecheckerboard="0"
     inkscape:deskcolor="#d1d1d1"
     inkscape:document-units="mm" /><defs
     id="defs1"><inkscape:path-effect
       effect="bspline"
       id="path-effect101"
       is_visible="true"
       lpeversion="1.3"
       weight="33.333333"
       steps="2"
       helper_size="0"
       apply_no_weight="true"
       apply_with_weight="true"
       only_selected="false"
       uniform="false" /><inkscape:path-effect
       effect="bspline"
       id="path-effect100"
       is_visible="true"
       lpeversion="1.3"
       weight="33.333333"
       steps="2"
       helper_size="0"
       apply_no_weight="true"
       apply_with_weight="true"
       only_selected="false"
       uniform="false" /><inkscape:path-effect
       effect="bspline"
       id="path-effect99"
       is_visible="true"
       lpeversion="1.3"
       weight="33.333333"
       steps="2"
       helper_size="0"
       apply_no_weight="true"
       apply_with_weight="true"
       only_selected="false"
       uniform="false" /><inkscape:path-effect
       effect="bspline"
       id="path-effect98"
       is_visible="true"
       lpeversion="1.3"
       weight="33.333333"
       steps="2"
       helper_size="0"
       apply_no_weight="true"
       apply_with_weight="true"
       only_selected="false"
       uniform="false" /><inkscape:path-effect
       effect="bspline"
       id="path-effect97"
       is_visible="true"
       lpeversion="1.3"
       weight="33.333333"
       steps="2"
       helper_size="0"
       apply_no_weight="true"
       apply_with_weight="true"
       only_selected="false"
       uniform="false" /><inkscape:path-effect
       effect="bspline"
       id="path-effect96"
       is_visible="true"
       lpeversion="1.3"
       weight="33.333333"
       steps="2"
       helper_size="0"
       apply_no_weight="true"
       apply_with_weight="true"
       only_selected="false"
       uniform="false" /><inkscape:path-effect
       effect="bspline"
       id="path-effect4"
       is_visible="true"
       lpeversion="1.3"
       weight="33.333333"
       steps="2"
       helper_size="0"
       apply_no_weight="true"
       apply_with_weight="true"
       only_selected="false"
       uniform="false" /><linearGradient
       id="swatch3"
       inkscape:swatch="solid"><stop
         style="stop-color:#000000;stop-opacity:1;"
         offset="0"
         id="stop3" /></linearGradient><inkscape:path-effect
       effect="bspline"
       id="path-effect3"
       is_visible="true"
       lpeversion="1.3"
       weight="33.333333"
       steps="2"
       helper_size="0"
       apply_no_weight="true"
       apply_with_weight="true"
       only_selected="false"
       uniform="false" /></defs><g
     inkscape:label="Camada 1"
     inkscape:groupmode="layer"
     id="layer1"
     style="display:inline;mix-blend-mode:normal"><path
       style="fill:none;stroke:#000000;stroke-width:0.264583px;stroke-linecap:butt;stroke-linejoin:miter;stroke-opacity:1"
       d="m 80.309378,88.629719 c 2.532278,-5.667478 5.064505,-11.334844 7.657127,-16.881848 2.592621,-5.547005 5.245431,-10.973207 7.838026,-15.434874 2.592595,-4.461667 5.124819,-7.958551 7.476239,-10.9129 2.35143,-2.95435 4.52191,-5.365995 7.59685,-8.018884 3.07495,-2.65289 7.05417,-5.546867 10.91291,-7.958579 3.85875,-2.411712 7.5968,-4.341028 10.85261,-5.667466 3.25582,-1.326439 6.02921,-2.049931 9.40562,-2.652859 3.37641,-0.602928 7.35562,-1.085256 11.45554,-1.145545 4.09992,-0.06029 8.3203,0.301457 11.93787,0.783801 3.61757,0.482345 6.63213,1.085257 9.34531,1.869068 2.71318,0.783812 5.12482,1.748468 7.41595,2.773448 2.29113,1.024981 4.46161,2.110222 6.57186,3.617548 2.11025,1.507326 4.16015,3.436643 5.54688,5.185135 1.38673,1.748492 2.11023,3.316063 2.71316,5.004265 0.60293,1.688202 1.08525,3.496937 1.32642,5.546899 0.24117,2.049961 0.24117,4.341025 0.0603,6.511569 -0.18088,2.170544 -0.54263,4.220444 -1.08526,6.330696 -0.54264,2.110253 -1.26613,4.280736 -2.29112,6.993921 -1.02498,2.713186 -2.35139,5.968909 -3.79842,9.164432 -1.44703,3.195523 -3.0146,6.330661 -4.40134,9.22472 -1.38673,2.894059 -2.59255,5.546867 -4.03959,8.380638 -1.44703,2.833771 -3.13518,5.848328 -4.76308,8.501212 -1.62791,2.652884 -3.19548,4.943944 -5.06457,7.657134 -1.86908,2.71319 -4.03956,5.84832 -6.2704,8.68208 -2.23084,2.83377 -4.5219,5.366 -6.75274,7.83801 -2.23084,2.47201 -4.40131,4.88365 -6.51157,7.0542 -2.11025,2.17054 -4.16015,4.09986 -6.08952,6.02923 -1.92937,1.92937 -3.73811,3.85869 -5.72778,5.96894 -1.98967,2.11026 -4.16015,4.40132 -6.39099,6.99392 -2.23083,2.5926 -4.5219,5.48657 -6.33068,8.01887 -1.80878,2.5323 -3.13519,4.70278 -5.00427,7.59685 -1.86909,2.89407 -4.28073,6.51153 -6.51157,9.94822 -2.23084,3.4367 -4.28074,6.69243 -5.90864,9.40561 -1.6279,2.71317 -2.83373,4.88365 -4.34105,8.26007 -1.50733,3.37641 -3.31606,7.95854 -5.12485,12.05845 -1.80879,4.09991 -3.617522,7.71738 -5.546897,11.51584 -1.929375,3.79845 -3.979275,7.77767 -5.78806,11.21436 -1.808785,3.43669 -3.376356,6.33067 -5.004265,9.40561 -1.627909,3.07494 -3.316061,6.33066 -5.185145,9.3453 -1.869084,3.01465 -3.918982,5.78804 -6.029235,7.95858 -2.110253,2.17054 -4.280732,3.73811 -6.692451,4.94396 -2.411719,1.20586 -5.064528,2.04993 -7.95859,2.17051 -2.894063,0.12057 -6.029201,-0.48234 -8.682086,-1.20585 -2.652885,-0.72352 -4.823364,-1.56759 -7.17479,-2.59257 -2.351426,-1.02498 -4.883656,-2.2308 -7.717426,-3.97931 -2.833771,-1.7485 -5.968907,-4.03956 -8.199737,-5.84834 -2.230831,-1.80879 -3.557233,-3.13519 -4.220449,-3.8587 -0.663216,-0.72351 -0.663216,-0.84409 -1.326445,-2.17055 -0.66323,-1.32646 -1.989632,-3.85868 -2.713141,-6.21011 -0.72351,-2.35142 -0.844093,-4.5219 -0.723504,-6.87332 0.120589,-2.35143 0.482336,-4.88366 1.085267,-7.35566 0.602931,-2.47201 1.447008,-4.88366 2.592576,-7.77772 1.145569,-2.89407 2.592555,-6.27037 4.039585,-9.4056 1.44703,-3.13523 2.894019,-6.02921 4.582222,-9.28503 1.688203,-3.25582 3.61752,-6.87329 5.426308,-10.1894 1.808787,-3.31611 3.496936,-6.33066 5.245431,-9.94824 1.748496,-3.61758 3.557231,-7.83796 5.426314,-11.757 1.869083,-3.91904 3.798396,-7.5365 5.788062,-11.39525 1.989667,-3.85875 4.039566,-7.95855 5.788058,-11.45553 1.748493,-3.49699 3.195479,-6.39096 5.064564,-10.12913 1.869086,-3.73817 4.16015,-8.3203 6.149813,-13.14373 1.989662,-4.82344 3.677812,-9.88789 5.305721,-14.71132 1.627909,-4.823438 3.195478,-9.405564 3.979278,-11.696673 0.7838,-2.291108 0.7838,-2.291108 0.7838,-2.291108"
       id="path3"
       sodipodi:nodetypes="cccccccccccccccccccccccccccccccccccccccccccccccccccccccccccssccsc"
       inkscape:original-d="m 80.309378,88.629719 c 2.532278,-5.667478 5.064505,-11.334844 7.596833,-17.002435 2.652915,-5.426418 5.305725,-10.85262 7.958587,-16.278928 2.532327,-3.497027 5.064552,-6.993911 7.596832,-10.490866 2.17057,-2.411741 4.34105,-4.823386 6.51157,-7.235079 3.97937,-2.894089 7.95859,-5.788062 11.93788,-8.682096 3.7382,-1.929392 7.47625,-3.858707 11.21437,-5.788062 2.77351,-0.723522 5.5469,-1.447016 8.32035,-2.170524 3.97937,-0.482348 7.95858,-0.964677 11.93788,-1.447015 4.22054,0.361761 8.44092,0.723507 12.66139,1.085261 3.01467,0.602936 6.02923,1.205847 9.04384,1.80877 2.41175,0.964697 4.82339,1.929355 7.23508,2.894032 2.17057,1.085283 4.34105,2.170524 6.51157,3.255787 2.04998,1.929391 4.09988,3.858707 6.14982,5.788062 0.72352,1.567632 1.44702,3.135201 2.17053,4.702802 0.48234,1.808805 0.96467,3.617539 1.44701,5.426307 0,2.291154 0,4.582218 0,6.873328 -0.36176,2.049978 -0.72351,4.099877 -1.08526,6.149816 -0.72352,2.170567 -1.44702,4.341048 -2.17052,6.51157 -1.32646,3.255851 -2.65287,6.511573 -3.9793,9.767358 -1.56763,3.135262 -3.1352,6.2704 -4.7028,9.405602 -1.20587,2.652916 -2.41169,5.305725 -3.61754,7.958587 -1.68822,3.014677 -3.37637,6.029234 -5.06455,9.043854 -1.56763,2.29115 -3.1352,4.58221 -4.7028,6.87332 -2.17057,3.13527 -4.34105,6.2704 -6.51158,9.4056 -2.29115,2.53233 -4.58221,5.06456 -6.87332,7.59684 -2.17057,2.41174 -4.34105,4.82338 -6.51157,7.23508 -2.04998,1.92939 -4.09988,3.85871 -6.14982,5.78806 -1.8088,1.92939 -3.61754,3.85871 -5.42631,5.78806 -2.17057,2.29116 -4.34105,4.58222 -6.51157,6.87333 -2.29115,2.89409 -4.58222,5.78806 -6.87332,8.68209 -1.32646,2.17057 -2.65287,4.34105 -3.9793,6.51158 -2.41174,3.61761 -4.82338,7.23507 -7.23508,10.85261 -2.04998,3.25585 -4.09988,6.51158 -6.14981,9.76736 -1.20588,2.17057 -2.4117,4.34105 -3.61754,6.51157 -1.80881,4.58231 -3.61754,9.16444 -5.42631,13.74665 -1.80881,3.61761 -3.617543,7.23508 -5.426313,10.85262 -2.04998,3.97937 -4.099878,7.95859 -6.149817,11.93788 -1.567632,2.89409 -3.135201,5.78807 -4.702802,8.6821 -1.688219,3.25585 -3.37637,6.51157 -5.064555,9.76735 -2.04998,2.77351 -4.099878,5.5469 -6.149818,8.32034 -2.170567,1.56764 -4.341047,3.13521 -6.511571,4.70281 -2.652915,0.84411 -5.305725,1.68818 -7.958587,2.53227 -3.135264,-0.60293 -6.270402,-1.20584 -9.405603,-1.80877 -2.170567,-0.84411 -4.341047,-1.68818 -6.511571,-2.53227 -2.532328,-1.20587 -5.064555,-2.4117 -7.596833,-3.61754 -3.135264,-2.29116 -6.270402,-4.58222 -9.405603,-6.87333 -1.326458,-1.32646 -2.652862,-2.65286 -3.979294,-3.97929 0,-0.12059 0,-0.24117 0,-0.36176 -1.326458,-2.53233 -2.652862,-5.06455 -3.979293,-7.59683 -0.120587,-2.17057 -0.24117,-4.34105 -0.361754,-6.51157 0.361761,-2.53233 0.723508,-5.06456 1.085262,-7.59683 0.844109,-2.41174 1.688185,-4.82339 2.532277,-7.23508 1.447045,-3.37644 2.894032,-6.75274 4.341048,-10.12911 1.447045,-2.89409 2.894032,-5.78807 4.341047,-8.6821 1.929393,-3.61761 3.858709,-7.23508 5.788064,-10.85262 1.688219,-3.01468 3.37637,-6.02923 5.064555,-9.04385 1.808806,-4.22054 3.61754,-8.44092 5.42631,-12.66138 1.929393,-3.61762 3.858709,-7.23508 5.788063,-10.85262 2.04998,-4.09996 4.099878,-8.19976 6.149817,-12.29964 1.447045,-2.89409 2.894032,-5.78806 4.341048,-8.68209 2.291154,-4.58231 4.582217,-9.16444 6.873325,-13.74665 1.688219,-5.06466 3.37637,-10.12911 5.064555,-15.19367 1.567632,-4.582308 3.135201,-9.164434 4.702801,-13.746651 v 0"
       inkscape:path-effect="#path-effect3"
       transform="matrix(1.1206757,0,0,1.1762486,-15.297784,-17.243252)" /><path
       style="display:inline;fill:none;stroke:#000000;stroke-width:0.264583px;stroke-linecap:butt;stroke-linejoin:miter;stroke-opacity:1"
       d="M 105.2704,138.19001 Z"
       id="path4"
       inkscape:original-d="M 105.2704,138.19001 Z"
       inkscape:path-effect="#path-effect4"
       transform="matrix(1.1206757,0,0,1.1762486,-15.297784,-17.243252)" /><path
       style="fill:none;stroke:#000000;stroke-width:0.415993;stroke-opacity:1"
       d="m 46.12166,289.96128 c -10.083864,-1.93389 -23.581035,-9.36836 -31.874198,-17.55684 -3.260421,-3.21927 -4.199849,-4.71326 -6.2087693,-9.87393 -4.413212,-11.33697 -0.436027,-25.13769 17.2509393,-59.86021 3.162486,-6.20849 7.539161,-15.29335 9.725943,-20.18857 2.186784,-4.89523 8.075321,-17.36942 13.085631,-27.72042 13.798165,-28.50619 15.858335,-33.34778 21.135125,-49.66968 5.42011,-16.765247 6.19117,-18.874345 10.69221,-29.246819 10.876863,-25.065286 16.802803,-35.485758 25.552089,-44.932125 7.71506,-8.329717 21.3685,-17.610846 30.71169,-20.876712 10.52931,-3.6804667 26.47067,-4.2965794 39.3277,-1.519961 7.1567,1.545571 15.2989,4.983254 20.35854,8.595489 7.6999,5.497201 11.43593,13.953957 10.85643,24.574251 -0.50575,9.268551 -3.65547,18.39365 -14.02813,40.640938 -6.28213,13.473948 -8.70952,17.881849 -15.3484,27.871089 -7.20056,10.83438 -11.75125,16.39246 -25.42967,31.05905 -17.40819,18.66581 -19.91638,21.91237 -31.89011,41.27809 -12.70615,20.55028 -13.22929,21.53665 -19.06984,35.95581 -5.625686,13.88873 -22.509979,48.22368 -27.824309,56.58199 -7.54094,11.86027 -16.64847,16.87818 -27.022871,14.88856 z"
       id="path5" /><path
       style="display:inline;fill:#000000;fill-opacity:1;stroke:#000000;stroke-width:0.415993;stroke-opacity:1"
       d="m 43.516159,288.88974 c -7.437001,-2.04391 -16.777224,-6.93532 -23.855293,-12.49285 -5.571539,-4.37465 -8.323044,-7.56824 -10.2003003,-11.83921 -2.015767,-4.58611 -2.509918,-6.8757 -2.497691,-11.57283 0.02452,-9.41931 4.9065783,-22.58276 18.2170743,-49.11856 7.51128,-14.97447 37.180982,-78.2728 39.317722,-83.88172 1.11444,-2.9254 3.79802,-10.68037 5.96351,-17.23327 4.63778,-14.034125 5.96696,-17.612151 10.0752,-27.121507 7.141213,-16.52978 13.755793,-29.352568 18.771343,-36.389412 3.011726,-4.225466 8.806896,-10.546137 12.692856,-13.843814 6.26022,-5.312506 16.41227,-11.696147 22.7029,-14.275664 11.10261,-4.552702 30.08948,-5.127549 43.98686,-1.3317469 4.31989,1.1798959 11.34903,4.1906029 14.78286,6.3317589 10.06264,6.274551 14.31574,16.335417 12.41688,29.372607 -1.17575,8.07237 -5.07835,18.470202 -14.14399,37.684202 -5.60675,11.883134 -7.89574,16.097225 -13.1743,24.254216 -7.80942,12.06794 -11.62245,16.7723 -28.46278,35.11628 -15.80902,17.2206 -18.64016,20.86166 -28.49998,36.65324 -13.08485,20.95681 -15.02906,24.55563 -20.99553,38.86376 -5.810066,13.93305 -19.053509,41.26936 -25.618299,52.87964 -5.79477,10.24849 -11.66439,15.87611 -18.91326,18.13351 -3.034401,0.94494 -8.753528,0.85909 -12.565782,-0.18863 z"
       id="path87" /><ellipse
       id="path88"
       style="fill:#ffffff;fill-opacity:0.99;stroke:#000000;stroke-width:0.303775"
       cx="99.432938"
       cy="127.43103"
       rx="0.054085098"
       ry="0.05676711" /></g><g
     inkscape:groupmode="layer"
     id="layer2"
     inkscape:label="correia"
     style="fill:#ffffff;fill-opacity:1"><path
       style="fill:#ffffff;fill-opacity:1;stroke:#000000;stroke-width:0.264583px;stroke-linecap:butt;stroke-linejoin:miter;stroke-opacity:1"
       d="m 80.218938,91.222288 c 0.994824,-0.844092 2.98447,-2.532277 5.064578,-4.099892 2.080107,-1.567615 4.250588,-3.014603 6.571866,-4.371193 2.321279,-1.356589 4.793215,-2.622703 7.687281,-3.949148 2.894067,-1.326445 6.210077,-2.713139 9.435747,-3.979289 3.22567,-1.26615 6.36081,-2.411683 9.16443,-3.436661 2.80361,-1.024978 5.27555,-1.929345 7.95859,-2.743299 2.68304,-0.813955 5.57701,-1.537447 8.56151,-2.140375 2.9845,-0.602928 6.05935,-1.085257 8.68209,-1.356573 2.62274,-0.271316 4.79322,-0.331607 6.42112,-0.361753 1.6279,-0.03015 2.71314,-0.03015 3.73812,-0.512493 1.02498,-0.482347 1.98964,-1.447006 2.89404,-2.230814 0.90439,-0.783808 1.74846,-1.386718 2.41168,-1.718326 0.66322,-0.331609 1.14555,-0.3919 1.53745,-0.361752 0.39191,0.03015 0.69337,0.15073 1.05512,0.331609 0.36176,0.180878 0.7838,0.422045 1.11541,0.783804 0.33161,0.361759 0.57277,0.844086 0.66321,1.356577 0.0904,0.512491 0.0301,1.05511 -0.15073,1.65804 -0.18088,0.60293 -0.48234,1.266133 -0.87424,1.838915 -0.39191,0.572781 -0.87424,1.055109 -1.47717,1.567599 -0.60293,0.51249 -1.32642,1.055109 -1.8992,1.477158 -0.57278,0.422049 -0.99482,0.723506 -1.05511,1.266145 -0.0603,0.54264 0.24117,1.326426 0.45219,2.14038 0.21103,0.813953 0.33161,1.65803 0.57278,3.16536 0.24117,1.507329 0.60292,3.677811 0.87423,5.818209 0.27132,2.140398 0.45219,4.250589 0.66322,6.511575 0.21102,2.260986 0.45219,4.67263 0.57278,7.506402 0.12058,2.833772 0.12058,6.089497 0.0603,9.315167 -0.0603,3.22567 -0.18088,6.4211 -0.36176,9.01369 -0.18088,2.59259 -0.42204,4.58219 -0.72351,6.42112 -0.30146,1.83894 -0.66321,3.52709 -1.32643,4.82339 -0.66323,1.29629 -1.62789,2.20066 -2.86389,3.34623 -1.23601,1.14556 -2.74329,2.53226 -4.06974,3.94914 -1.32644,1.41689 -2.47197,2.86387 -3.82856,4.3712 -1.35659,1.50732 -2.92416,3.07489 -3.55723,2.65282 -0.63306,-0.42207 -0.33161,-2.83372 -0.15073,-5.45646 0.18087,-2.62274 0.24117,-5.45643 0.33161,-8.13946 0.0904,-2.68303 0.21102,-5.21526 0.27131,-7.41595 0.0603,-2.20069 0.0603,-4.06971 0,-6.3307 -0.0603,-2.26099 -0.18088,-4.9138 -0.21102,-7.08434 -0.0302,-2.17054 0.0301,-3.85869 0.0904,-5.697628 0.0603,-1.838937 0.12058,-3.828544 0.15073,-5.63733 0.0301,-1.808786 0.0301,-3.436646 -0.0904,-4.763087 -0.12058,-1.326442 -0.36174,-2.351393 -0.54262,-3.255785 -0.18088,-0.904392 -0.30146,-1.688175 -0.99484,-2.170516 -0.69337,-0.48234 -1.95949,-0.663215 -3.28593,-0.633065 -1.32645,0.03015 -2.71314,0.271312 -4.06973,0.512483 -1.35659,0.241172 -2.683,0.482337 -4.49179,0.994829 -1.80879,0.512492 -4.09986,1.29628 -6.87333,2.381554 -2.77348,1.085275 -6.02921,2.471974 -8.62179,3.557242 -2.59259,1.085268 -4.52191,1.869054 -7.02407,2.954329 -2.50216,1.085275 -5.57701,2.471971 -8.10931,3.587388 -2.532297,1.115417 -4.521904,1.959492 -6.752744,3.014621 -2.23084,1.055125 -4.702777,2.321245 -6.903466,3.496955 -2.200689,1.17571 -4.130006,2.26095 -5.818205,3.31608 -1.6882,1.05512 -3.135187,2.08007 -4.28075,2.92417 -1.145562,0.8441 -1.989636,1.5073 -2.80359,2.23082 -0.813953,0.72351 -1.597741,1.5073 -1.446999,0.72348 0.150741,-0.78383 1.235979,-3.13518 2.110225,-5.45646 0.874246,-2.32128 1.537448,-4.61234 1.869057,-5.7579 0.331608,-1.14555 2.683007,-9.104139 3.67783,-9.948232 z"
       id="path95"
       inkscape:path-effect="#path-effect96"
       inkscape:original-d="m 79.224115,92.066381 c 1.989647,-1.688185 3.979294,-3.376369 5.968942,-5.064556 2.170567,-1.447043 4.341048,-2.894031 6.51157,-4.341048 2.472034,-1.266163 4.94397,-2.532276 7.415956,-3.798416 3.316147,-1.38675 6.632157,-2.773447 9.948237,-4.160168 3.13526,-1.14558 6.2704,-2.291109 9.4056,-3.436665 2.47203,-0.904402 4.94397,-1.808769 7.41596,-2.713154 2.89409,-0.723522 5.78806,-1.447015 8.68209,-2.170523 3.07497,-0.482348 6.14982,-0.964677 9.22473,-1.447015 2.17057,-0.06029 4.34105,-0.120585 6.51157,-0.180877 1.08528,0 2.17052,0 3.25579,0 0.96469,-0.964697 1.92935,-1.929355 2.89403,-2.894032 0.84411,-0.602935 1.68818,-1.205847 2.53227,-1.80877 0.48235,-0.06029 0.96468,-0.120584 1.44702,-0.180877 0.30147,0.120587 0.60293,0.241169 0.90439,0.361754 0.42205,0.241174 0.84409,0.482339 1.26613,0.723508 0.24118,0.482348 0.48234,0.964677 0.72351,1.447016 -0.0603,0.542642 -0.12058,1.085262 -0.18087,1.627893 -0.30147,0.663229 -0.60293,1.326431 -0.90439,1.989646 -0.48235,0.482349 -0.96468,0.964677 -1.44702,1.447016 -0.72352,0.542642 -1.44701,1.085262 -2.17052,1.627893 -0.42205,0.301468 -0.84409,0.602923 -1.26614,0.904385 0.30147,0.783816 0.60293,1.567601 0.90439,2.351401 0.12058,0.844109 0.24117,1.688185 0.36175,2.532277 0.36176,2.170567 0.72351,4.341048 1.08526,6.511572 0.18088,2.110273 0.36176,4.220463 0.54263,6.330694 0.24118,2.411741 0.48234,4.823386 0.72351,7.235079 0,3.255851 0,6.511576 0,9.767356 -0.12059,3.19556 -0.24117,6.39099 -0.36175,9.58648 -0.24118,1.98969 -0.48234,3.97929 -0.72351,5.96894 -0.36176,1.68822 -0.72351,3.37637 -1.08526,5.06456 -0.9647,0.9044 -1.92936,1.80877 -2.89403,2.71315 -1.50734,1.38675 -3.01462,2.77345 -4.52193,4.16017 -1.14558,1.44705 -2.29111,2.89403 -3.43666,4.34105 -1.56763,1.56763 -3.1352,3.1352 -4.7028,4.7028 0.30147,-2.41174 0.60292,-4.82339 0.90438,-7.23508 0.0603,-2.83379 0.12059,-5.66748 0.18088,-8.50122 0.12059,-2.53232 0.24117,-5.06455 0.36175,-7.59683 0,-1.8691 0,-3.73812 0,-5.60719 -0.12058,-2.65291 -0.24117,-5.30572 -0.36175,-7.95858 0.0603,-1.68822 0.12058,-3.37637 0.18088,-5.064558 0.0603,-1.989687 0.12058,-3.979294 0.18087,-5.968941 0,-1.627925 0,-3.255785 0,-4.883678 -0.24117,-1.02499 -0.48234,-2.049939 -0.7235,-3.074909 -0.12059,-0.783816 -0.24117,-1.5676 -0.36176,-2.3514 -1.26616,-0.180881 -2.53228,-0.361754 -3.79841,-0.542631 -1.38676,0.241174 -2.77345,0.482338 -4.16018,0.723508 -1.32645,0.241174 -2.65286,0.482338 -3.97929,0.723507 -2.29115,0.783816 -4.58222,1.567601 -6.87332,2.351401 -3.25585,1.386751 -6.51158,2.773447 -9.76736,4.160171 -1.92939,0.783816 -3.85871,1.5676 -5.78806,2.3514 -3.07497,1.386752 -6.14982,2.773447 -9.22473,4.160171 -1.989687,0.844109 -3.979294,1.688185 -5.968941,2.532278 -2.472035,1.266161 -4.94397,2.532281 -7.415956,3.798421 -1.929393,1.08528 -3.858709,2.17052 -5.788063,3.25578 -1.447045,1.02499 -2.894032,2.04994 -4.341048,3.07491 -0.844109,0.66323 -1.688185,1.32643 -2.532277,1.98965 -0.783816,0.78381 -1.567601,1.5676 -2.351401,2.3514 1.085283,-2.35145 2.170524,-4.7028 3.255785,-7.05421 0.663229,-2.29115 1.326431,-4.58221 1.989647,-6.87332 z"
       transform="matrix(1.1206757,0,0,1.1762486,-15.297784,-17.243252)" /><path
       style="fill:#ffffff;fill-opacity:1;stroke:#000000;stroke-width:0.264583px;stroke-linecap:butt;stroke-linejoin:miter;stroke-opacity:1"
       d="m 78.018269,96.829475 c 0.783801,-2.230817 0,0.301463 -0.693368,2.381564 -0.693367,2.080101 -1.296279,3.707961 -1.748474,5.094691 -0.452195,1.38674 -0.753649,2.53227 -1.145554,3.70799 -0.391905,1.17571 -0.874234,2.38153 -1.205843,3.22563 -0.331609,0.84409 -0.512484,1.32642 0.572801,-1.92943 1.085284,-3.25586 3.436637,-10.249629 4.220438,-12.480445 z"
       id="path96"
       inkscape:path-effect="#path-effect97"
       inkscape:original-d="m 79.585869,92.066381 c -0.783799,2.532277 -1.5676,5.064557 -2.351399,7.596833 -0.602936,1.627926 -1.205847,3.255786 -1.808771,4.883676 -0.301467,1.14558 -0.602922,2.29111 -0.904383,3.43667 -0.482349,1.20587 -0.964679,2.41169 -1.447017,3.61754 -0.18088,0.48234 -0.361754,0.96467 -0.542631,1.44701 2.351447,-6.99405 4.702802,-13.987818 7.054201,-20.981729 z"
       transform="matrix(1.1206757,0,0,1.1762486,-15.297784,-17.243252)" /><path
       style="fill:#ffffff;fill-opacity:1;stroke:#000000;stroke-width:0.264583px;stroke-linecap:butt;stroke-linejoin:miter;stroke-opacity:1"
       d="m 122.78532,166.10536 c -0.72351,0.42204 -2.29111,1.26614 -3.78336,2.09517 -1.49225,0.82902 -2.90909,1.64295 -4.19031,2.38154 -1.28122,0.73859 -2.42676,1.40179 -3.84364,2.23082 -1.41689,0.82903 -3.10504,1.82383 -4.82339,2.9091 -1.71835,1.08528 -3.46679,2.26096 -4.88367,3.24071 -1.416878,0.97976 -2.502121,1.76355 -3.557246,2.51721 -1.055125,0.75366 -2.080074,1.47715 -3.195496,2.36648 -1.115421,0.88932 -2.321241,1.94441 -3.316072,2.9091 -0.99483,0.96468 -1.778616,1.8389 -2.381544,2.69808 -0.602928,0.85917 -1.024967,1.70325 -1.32643,2.66793 -0.301463,0.96469 -0.482338,2.04994 -0.482336,3.13521 2e-6,1.08527 0.180876,2.17051 0.572782,3.02968 0.391905,0.85917 0.994818,1.49223 1.718334,1.92935 0.723516,0.43712 1.567593,0.67829 2.381544,0.84409 0.813952,0.16581 1.597743,0.25624 2.502137,0.1658 0.904394,-0.0904 1.929346,-0.36175 3.05984,-0.90439 1.130494,-0.54264 2.366461,-1.35657 3.376367,-2.1253 1.0099,-0.76873 1.79368,-1.49223 2.63779,-2.26096 0.8441,-0.76874 1.74846,-1.58266 2.47198,-2.21574 0.72351,-0.63308 1.26613,-1.08526 1.92935,-2.15546 0.66323,-1.07021 1.44701,-2.75836 2.27604,-4.38627 0.82903,-1.62791 1.70325,-3.19548 2.5172,-4.56714 0.81396,-1.37166 1.5676,-2.54734 2.33633,-3.7532 0.76874,-1.20586 1.55252,-2.44182 2.33633,-3.64768 0.78381,-1.20586 1.56759,-2.38154 2.33632,-3.52711 0.76874,-1.14556 1.52238,-2.26095 2.21575,-3.25578 0.69337,-0.99483 1.32642,-1.86905 1.95949,-2.74329 0,0 0,0 0,0 0,0 0,0 0,0 -0.12058,0 -0.24116,0 -0.24116,0 0,0 0.12058,0 -0.60293,0.42205 z"
       id="path97"
       inkscape:path-effect="#path-effect98"
       inkscape:original-d="m 123.62941,165.68331 c -1.5676,0.84409 -3.1352,1.68819 -4.7028,2.53228 -1.4169,0.81396 -2.83374,1.62789 -4.25061,2.44184 -1.14557,0.66323 -2.29111,1.32643 -3.43666,1.98965 -1.68822,0.99484 -3.37637,1.98964 -5.06456,2.98446 -1.74851,1.17573 -3.49695,2.35141 -5.24543,3.52711 -1.08528,0.78381 -2.170521,1.5676 -3.255781,2.3514 -1.024991,0.72352 -2.049941,1.44701 -3.074911,2.17052 -1.20587,1.05514 -2.411693,2.11023 -3.617539,3.16535 -0.783815,0.87425 -1.567601,1.74847 -2.3514,2.62271 -0.422055,0.84411 -0.844092,1.68819 -1.26614,2.53228 -0.180879,1.08528 -0.361754,2.17053 -0.542631,3.25579 0.180882,1.08528 0.361754,2.17052 0.542631,3.25578 0.602935,0.63308 1.205847,1.26614 1.808771,1.89921 0.844109,0.24117 1.688185,0.48234 2.532277,0.72351 0.783815,0.0904 1.567601,0.18088 2.3514,0.27131 1.02499,-0.27132 2.049941,-0.54263 3.074911,-0.81394 1.236016,-0.81397 2.471983,-1.6279 3.707972,-2.44184 0.78382,-0.72352 1.5676,-1.44702 2.35141,-2.17053 0.9044,-0.81396 1.80876,-1.62789 2.71315,-2.44183 0.54264,-0.45221 1.08526,-0.90439 1.62789,-1.35658 0.78382,-1.68822 1.5676,-3.37637 2.3514,-5.06456 0.87426,-1.56763 1.74848,-3.1352 2.62272,-4.7028 0.75367,-1.17572 1.50731,-2.3514 2.26096,-3.5271 0.78382,-1.23602 1.5676,-2.47198 2.3514,-3.70798 0.78382,-1.17572 1.5676,-2.3514 2.3514,-3.5271 0.75367,-1.11543 1.50731,-2.23082 2.26096,-3.34622 0.63309,-0.87426 1.26614,-1.74848 1.89921,-2.62272 0,0 0,0 0,0 0,0 0,0 0,0 0,0 -0.24116,0 -0.36175,0 0.12059,0 0.24117,0 0.36175,0 z"
       transform="matrix(1.1206757,0,0,1.1762486,-15.297784,-17.243252)" /><path
       style="fill:#ffffff;fill-opacity:1;stroke:#000000;stroke-width:0.264583px;stroke-linecap:butt;stroke-linejoin:miter;stroke-opacity:1"
       d="m 70.270705,118.74574 c -0.331608,0.93453 -0.663215,1.86906 -0.934533,2.8036 -0.271317,0.93454 -0.482335,1.86905 -0.64814,3.18043 -0.165805,1.31137 -0.286387,2.99952 -0.316533,5.26051 -0.03015,2.26099 0.03015,5.09468 0.06029,8.13947 0.03015,3.04479 0.03015,6.30052 0.03015,9.49604 0,3.19552 0,6.33066 -0.04522,9.02876 -0.04522,2.69811 -0.135657,4.95903 -0.346684,6.8884 -0.211027,1.92937 -0.542629,3.52709 -1.009899,5.01933 -0.467271,1.49225 -1.070184,2.87895 -1.688186,4.05466 -0.618002,1.17571 -1.251059,2.14037 -1.718327,2.69808 -0.467268,0.5577 -0.768724,0.70843 -1.356582,0.90438 -0.587859,0.19595 -1.462082,0.43712 -2.321256,0.55771 -0.859174,0.12058 -1.703249,0.12058 -2.471985,-0.0603 -0.768735,-0.18089 -1.462079,-0.54263 -2.110228,-1.22093 -0.648148,-0.6783 -1.251058,-1.6731 -1.763548,-2.8036 -0.51249,-1.13049 -0.934528,-2.3966 -1.160625,-3.90393 -0.226097,-1.50733 -0.256243,-3.25577 -0.24117,-4.80831 0.01507,-1.55254 0.07537,-2.90909 0.211025,-4.34105 0.13566,-1.43196 0.346678,-2.93923 0.482336,-4.09986 0.135658,-1.16064 0.195949,-1.97457 0.798884,-3.49698 0.602935,-1.5224 1.748465,-3.75317 2.75837,-5.72776 1.009905,-1.97459 1.884128,-3.69289 2.728229,-5.30572 0.8441,-1.61284 1.658031,-3.12012 2.426765,-4.65759 0.768734,-1.53747 1.492228,-3.10504 2.200669,-4.56714 0.708441,-1.4621 1.401789,-2.81865 1.989645,-4.02451 0.587856,-1.20586 1.070183,-2.26095 1.537453,-3.28593 0.46727,-1.02498 0.919452,-2.01978 1.401797,-2.9694 0.482344,-0.94961 0.99482,-1.85398 1.507303,-2.75836 0,0 0,0 0,0"
       id="path98"
       inkscape:path-effect="#path-effect99"
       inkscape:original-d="m 70.270705,118.74574 c -0.331608,0.93453 -0.663215,1.86906 -0.994823,2.80359 -0.211026,0.93455 -0.422047,1.86906 -0.633068,2.80359 -0.120589,1.68822 -0.24117,3.37637 -0.361754,5.06456 0.06029,2.83379 0.120584,5.66748 0.180877,8.50122 0,3.25584 0,6.51157 0,9.76735 0,3.13526 0,6.2704 0,9.40561 -0.09044,2.261 -0.180877,4.52192 -0.271316,6.78288 -0.331614,1.59778 -0.663215,3.1955 -0.994823,4.79324 -0.602935,1.38675 -1.205847,2.77345 -1.80877,4.16017 -0.633082,0.9647 -1.266139,1.92936 -1.899208,2.89404 -0.301468,0.15073 -0.602923,0.30146 -0.904385,0.45219 -0.874256,0.24117 -1.748478,0.48234 -2.622716,0.72351 -0.84411,0 -1.688185,0 -2.532278,0 -0.693376,-0.36177 -1.386724,-0.72351 -2.080085,-1.08527 -0.602936,-0.99484 -1.205847,-1.98964 -1.80877,-2.98447 -0.422055,-1.26616 -0.844093,-2.53227 -1.266139,-3.79841 -0.03015,-1.74852 -0.06029,-3.49696 -0.09044,-5.24544 0.06029,-1.3566 0.120584,-2.71315 0.180877,-4.06973 0.211027,-1.50734 0.422046,-3.01461 0.633069,-4.52192 0.06029,-0.81396 0.120585,-1.62789 0.180877,-2.44184 1.145577,-2.23086 2.291108,-4.46163 3.436663,-6.69245 0.874256,-1.71836 1.748477,-3.43666 2.622716,-5.15499 0.813962,-1.50734 1.627893,-3.01462 2.441839,-4.52193 0.723522,-1.56763 1.447016,-3.1352 2.170524,-4.7028 0.693375,-1.3566 1.386723,-2.71315 2.080085,-4.06973 0.482348,-1.05514 0.964677,-2.11023 1.447016,-3.16535 0.452201,-0.99484 0.904385,-1.98964 1.356577,-2.98447 0.512495,-0.9044 1.024969,-1.80877 1.537453,-2.71315 0,0 0,0 0,0"
       transform="matrix(1.1206757,0,0,1.1762486,-15.297784,-17.243252)" /><path
       style="fill:#000000;fill-opacity:1;stroke:#000000;stroke-width:0.264583px;stroke-linecap:butt;stroke-linejoin:miter;stroke-opacity:1"
       d="m 78.952801,92.78989 c -0.542631,0.572777 -1.085262,1.145554 -1.642972,1.808777 -0.55771,0.663223 -1.130475,1.416861 -1.838918,2.456917 -0.708443,1.040056 -1.552518,2.366461 -2.276033,3.632616 -0.723514,1.26615 -1.326425,2.47197 -1.929354,3.6929 -0.602929,1.22093 -1.205842,2.4569 -1.778625,3.66276 -0.572783,1.20586 -1.115403,2.38154 -1.688186,3.5271 -0.572783,1.14557 -1.175692,2.26095 -1.778621,3.55725 -0.60293,1.2963 -1.20584,2.77343 -1.929357,4.47671 -0.723517,1.70328 -1.567591,3.63259 -2.441839,5.68255 -0.874247,2.04996 -1.778614,4.22044 -2.456909,5.8785 -0.678295,1.65805 -1.130479,2.80358 -1.612823,4.1451 -0.482345,1.34152 -0.994818,2.87894 -1.447015,4.28075 -0.452196,1.40181 -0.844087,2.66792 -1.205843,3.93407 -0.361757,1.26615 -0.693359,2.53227 -0.919457,3.76827 -0.226097,1.23601 -0.346679,2.44183 -0.422045,3.16534 -0.07537,0.72351 -0.105512,0.96468 0.376836,0.12057 0.482349,-0.84412 1.477149,-2.77343 2.471983,-4.74803 0.994835,-1.97459 1.98964,-3.99434 2.848815,-5.78805 0.859174,-1.79372 1.582667,-3.36129 2.396622,-5.06456 0.813955,-1.70328 1.718323,-3.54216 2.532276,-5.13992 0.813954,-1.59776 1.537446,-2.95431 2.155446,-4.11495 0.618,-1.16063 1.130476,-2.12529 1.703261,-3.27086 0.572785,-1.14557 1.20584,-2.47197 1.80877,-3.85871 0.60293,-1.38674 1.175693,-2.83372 1.778622,-4.28075 0.602929,-1.44703 1.235986,-2.89402 1.763549,-4.38627 0.527562,-1.49225 0.949602,-3.02968 1.477164,-4.61237 0.527563,-1.58268 1.160623,-3.21055 1.627891,-4.65758 0.467267,-1.447022 0.768723,-2.713136 1.145555,-3.994361 0.376832,-1.281225 0.829015,-2.577484 1.281207,-3.873769"
       id="path99"
       inkscape:path-effect="#path-effect100"
       inkscape:original-d="m 78.952801,92.78989 c -0.542631,0.572777 -1.085263,1.145553 -1.627894,1.718331 -0.572789,0.753668 -1.145553,1.507307 -1.718331,2.260962 -0.844108,1.326457 -1.688185,2.652861 -2.532277,3.979297 -0.602935,1.20587 -1.205847,2.41169 -1.808771,3.61754 -0.602935,1.23601 -1.205847,2.47198 -1.808769,3.70797 -0.542641,1.17573 -1.085262,2.35141 -1.627893,3.52711 -0.602936,1.11543 -1.205847,2.23081 -1.808769,3.34622 -0.602935,1.47719 -1.205846,2.95432 -1.808771,4.43149 -0.844108,1.92939 -1.688184,3.8587 -2.532277,5.78806 -0.904404,2.17056 -1.808771,4.34104 -2.713153,6.51157 -0.452202,1.14558 -0.904386,2.29111 -1.35658,3.43666 -0.512493,1.53749 -1.024969,3.07491 -1.537454,4.61236 -0.391906,1.26617 -0.783799,2.53228 -1.1757,3.79842 -0.331613,1.26616 -0.663215,2.53228 -0.994823,3.79842 -0.120586,1.20587 -0.24117,2.41169 -0.361754,3.61754 -0.03015,0.24117 -0.06029,0.48234 -0.09044,0.72351 0.994841,-1.9294 1.989645,-3.85871 2.984468,-5.78807 0.994845,-2.01983 1.98965,-4.03958 2.984475,-6.05937 0.723522,-1.56764 1.447016,-3.13521 2.170524,-4.70281 0.904402,-1.83895 1.808769,-3.67783 2.713154,-5.51674 0.723523,-1.35661 1.447016,-2.71316 2.170524,-4.06974 0.512495,-0.96469 1.02497,-1.92935 1.537454,-2.89403 0.633082,-1.32646 1.266139,-2.65286 1.899209,-3.97929 0.572788,-1.44705 1.145554,-2.89403 1.718331,-4.34105 0.633082,-1.44704 1.266139,-2.89403 1.899208,-4.34105 0.422055,-1.53748 0.844093,-3.07491 1.266139,-4.61236 0.633082,-1.62792 1.266139,-3.25579 1.899208,-4.88368 0.301468,-1.266162 0.602924,-2.532276 0.904385,-3.798414 0.452202,-1.296312 0.904385,-2.592571 1.356577,-3.888856"
       transform="matrix(1.1206757,0,0,1.1762486,-15.297784,-17.243252)" /><path
       style="fill:#000000;fill-opacity:1;stroke:#000000;stroke-width:0.264583px;stroke-linecap:butt;stroke-linejoin:miter;stroke-opacity:1"
       d="m 143.67359,141.47798 c -0.55423,1.04451 -0.68213,2.23824 -0.8953,3.21881 -0.21317,0.98057 -0.5116,1.74795 -0.78871,2.57931 -0.27712,0.83135 -0.53291,1.72663 -1.0232,2.77115 -0.49029,1.04452 -1.21504,2.23823 -2.00376,3.36802 -0.78872,1.12978 -1.64137,2.19559 -2.49404,3.15485 -0.85267,0.95925 -1.70531,1.81189 -2.66457,2.62193 -0.95925,0.81003 -2.02506,1.57742 -3.02695,2.30218 -1.00188,0.72477 -1.93979,1.40689 -2.92037,1.98244 -0.98057,0.57556 -2.00374,1.04451 -2.72851,1.47085 -0.72477,0.42633 -1.15109,0.81002 -2.1743,2.19562 -1.02321,1.3856 -2.64324,3.77301 -3.90093,5.7981 -1.25768,2.02509 -2.15295,3.68774 -3.09089,5.20123 -0.93794,1.51349 -1.91849,2.87772 -2.81379,4.17804 -0.8953,1.30033 -1.70532,2.53667 -2.36613,3.66645 -0.66082,1.12979 -1.17241,2.15296 -1.59875,3.13354 -0.42633,0.98057 -0.76739,1.91848 -0.42631,2.04637 0.34108,0.12789 1.36425,-0.55422 2.36614,-1.36426 1.00189,-0.81004 1.98243,-1.74795 3.51724,-2.89906 1.53481,-1.15111 3.62379,-2.51534 5.39308,-3.83698 1.76929,-1.32164 3.21879,-2.60061 4.49779,-3.83698 1.27901,-1.23637 2.38745,-2.43007 3.73041,-3.87961 1.34295,-1.44955 2.92035,-3.15484 4.30593,-4.86018 1.38559,-1.70534 2.57929,-3.41063 3.66645,-4.98807 1.08715,-1.57744 2.0677,-3.02694 3.13354,-4.6257 1.06584,-1.59876 2.21691,-3.34668 3.21879,-4.81754 1.00189,-1.47085 1.85453,-2.66455 2.62194,-3.70907 0.7674,-1.04452 1.44952,-1.9398 2.17429,-2.89905 0.72477,-0.95926 1.49215,-1.98244 2.36614,-3.3254 0.87398,-1.34295 1.85453,-3.00561 2.66456,-4.3912 0.81004,-1.38558 1.44952,-2.49403 2.04639,-3.62381 0.59687,-1.12979 1.15109,-2.28086 1.57742,-3.36802 0.42634,-1.08715 0.72476,-2.11033 1.0232,-3.13353 0.29843,-1.02321 0.59686,-2.04638 0.85266,-3.11222 0.2558,-1.06584 0.46896,-2.17428 0.12789,-2.25953 -0.34108,-0.0853 -1.23635,0.85265 -2.15297,1.8119 -0.91662,0.95926 -1.85453,1.9398 -2.89906,3.11222 -1.04452,1.17243 -2.19559,2.53666 -3.3467,3.81566 -1.1511,1.27901 -2.30217,2.47271 -3.36801,3.51723 -1.06584,1.04452 -2.04638,1.9398 -2.60061,2.98431 z"
       id="path100"
       inkscape:path-effect="#path-effect101"
       inkscape:original-d="m 143.24726,141.32877 c -0.1279,1.19372 -0.2558,2.38745 -0.3837,3.58118 -0.29844,0.76741 -0.59687,1.53479 -0.8953,2.30219 -0.2558,0.89531 -0.51159,1.79059 -0.76739,2.68588 -0.72478,1.19375 -1.44953,2.38746 -2.17429,3.58118 -0.85268,1.06585 -1.70533,2.13166 -2.55799,3.19749 -0.85268,0.85268 -1.70532,1.70532 -2.55798,2.55798 -1.06585,0.76742 -2.13166,1.5348 -3.19749,2.30219 -0.93794,0.68215 -1.87585,1.36426 -2.81378,2.04639 -1.02322,0.46898 -2.04639,0.93793 -3.06959,1.4069 -0.42634,0.3837 -0.85266,0.76739 -1.27899,1.15109 -1.62009,2.3875 -3.24012,4.77491 -4.86018,7.16236 -0.89531,1.66273 -1.79059,3.32538 -2.68588,4.98808 -0.98058,1.36428 -1.96113,2.72851 -2.94169,4.09277 -0.81004,1.23639 -1.62005,2.47273 -2.43008,3.70908 -0.51161,1.02322 -1.0232,2.04639 -1.5348,3.06959 -0.34107,0.93795 -0.68213,1.87586 -1.02319,2.81378 1.02322,-0.68214 2.04639,-1.36425 3.06958,-2.04638 0.98059,-0.93795 1.96113,-1.87586 2.94169,-2.81379 2.08906,-1.36429 4.17804,-2.72852 6.26707,-4.09278 1.44955,-1.27902 2.89905,-2.55798 4.34857,-3.83698 1.10849,-1.19375 2.21693,-2.38745 3.32539,-3.58118 1.57745,-1.70536 3.15485,-3.41065 4.73227,-5.11597 1.19375,-1.70536 2.38746,-3.41065 3.58118,-5.11598 0.98059,-1.44955 1.96113,-2.89905 2.94169,-4.34857 1.15111,-1.748 2.30219,-3.49592 3.45328,-5.24388 0.85268,-1.19375 1.70532,-2.38745 2.55799,-3.58118 0.68214,-0.89531 1.36426,-1.79059 2.04639,-2.68588 0.76741,-1.02322 1.53479,-2.0464 2.30218,-3.06959 0.98059,-1.66272 1.96113,-3.32538 2.94169,-4.98807 0.63951,-1.10848 1.27899,-2.21693 1.91849,-3.32539 0.55424,-1.15111 1.10846,-2.30218 1.66269,-3.45328 0.29844,-1.02321 0.59686,-2.04639 0.89529,-3.06958 0.29844,-1.02322 0.59687,-2.04639 0.8953,-3.06959 0.21317,-1.10848 0.42633,-2.21692 0.6395,-3.32538 -0.89532,0.93795 -1.79059,1.87586 -2.68589,2.81379 -0.93794,0.98058 -1.87585,1.96112 -2.81378,2.94168 -1.15112,1.36429 -2.30219,2.72852 -3.45329,4.09278 -1.15111,1.19375 -2.30218,2.38745 -3.45328,3.58118 -0.98058,0.89531 -1.96112,1.79059 -2.94168,2.68589 z"
       transform="matrix(1.1206757,0,0,1.1762486,-15.297784,-17.243252)" /></g></svg>
