<?xml version="1.0" encoding="UTF-8" standalone="no"?>
<!-- Created with Inkscape (http://www.inkscape.org/) -->

<svg
   width="210mm"
   height="297mm"
   viewBox="0 0 210 297"
   version="1.1"
   id="svg1"
   xml:space="preserve"
   xmlns:inkscape="http://www.inkscape.org/namespaces/inkscape"
   xmlns:sodipodi="http://sodipodi.sourceforge.net/DTD/sodipodi-0.dtd"
   xmlns="http://www.w3.org/2000/svg"
   xmlns:svg="http://www.w3.org/2000/svg"><sodipodi:namedview
     id="namedview1"
     pagecolor="#ffffff"
     bordercolor="#000000"
     borderopacity="0.25"
     inkscape:showpageshadow="2"
     inkscape:pageopacity="0.0"
     inkscape:pagecheckerboard="0"
     inkscape:deskcolor="#d1d1d1"
     inkscape:document-units="mm" /><defs
     id="defs1"><inkscape:path-effect
       effect="bspline"
       id="path-effect1"
       is_visible="true"
       lpeversion="1.3"
       weight="33.333333"
       steps="2"
       helper_size="0"
       apply_no_weight="true"
       apply_with_weight="true"
       only_selected="false"
       uniform="false" /></defs><g
     inkscape:groupmode="layer"
     id="layer2"
     inkscape:label="chuteira"><path
       style="fill:#000000;fill-opacity:1;stroke:#000000;stroke-width:0.264583px;stroke-linecap:butt;stroke-linejoin:miter;stroke-opacity:1"
       d="m 72.35079,100.74848 c 1.507308,0.45219 3.014618,0.90438 4.763114,1.50731 1.748496,0.60293 3.738104,1.35657 5.697624,2.29112 1.959521,0.93454 3.888835,2.04992 5.215273,2.92417 1.326439,0.87424 2.049934,1.5073 2.788522,2.14038 0.738588,0.63307 1.492228,1.26613 2.321256,1.94443 0.829028,0.67829 1.733395,1.40178 2.562423,1.97456 0.829029,0.57279 1.582664,0.99482 2.577502,1.55254 0.994837,0.55771 2.230806,1.25106 3.828566,2.15545 1.59777,0.9044 3.55723,2.01978 6.02924,3.45174 2.47202,1.43196 5.45643,3.1804 7.31042,4.23552 1.854,1.05512 2.5775,1.41687 4.94402,2.36649 2.36651,0.94962 6.37586,2.48704 11.39526,4.11495 5.0194,1.62792 11.04851,3.34621 14.86201,4.50684 3.81351,1.16064 5.41123,1.76355 6.85825,2.23082 1.44703,0.46726 2.74329,0.79886 4.03959,1.19077 1.2963,0.3919 2.59256,0.84409 4.03959,1.37165 1.44703,0.52757 3.04475,1.13048 4.53699,1.68819 1.49225,0.5577 2.87895,1.07018 4.68774,1.64296 1.80879,0.57278 4.03957,1.20584 6.25534,1.82384 2.21576,0.61801 4.41638,1.22092 6.24024,1.7937 1.82385,0.57278 3.27084,1.1154 5.33588,1.95951 2.06504,0.84411 4.74799,1.98963 6.81302,2.95432 2.06503,0.96469 3.51201,1.74847 4.58221,2.45691 1.0702,0.70844 1.76354,1.3415 2.32125,2.04994 0.55771,0.70844 0.97975,1.49223 1.26614,2.27604 0.28639,0.7838 0.43712,1.56759 0.48234,2.41169 0.0452,0.8441 -0.0151,1.74847 -0.15074,2.47198 -0.13566,0.72351 -0.34667,1.26613 -0.79887,1.92936 -0.4522,0.66323 -1.14555,1.44701 -2.2459,2.27604 -1.10035,0.82902 -2.60763,1.70324 -3.94914,2.33631 -1.34152,0.63308 -2.5172,1.02497 -3.49696,1.34151 -0.97976,0.31654 -1.76354,0.5577 -2.54735,0.82902 -0.78381,0.27132 -1.56759,0.57278 -2.14037,0.84409 -0.57278,0.27132 -0.93453,0.51248 -1.19077,0.8441 -0.25625,0.33161 -0.40698,0.75365 -0.46728,1.31136 -0.0603,0.55771 -0.0302,1.25105 0.0151,1.91428 0.0452,0.66322 0.10551,1.29628 0.0301,1.71833 -0.0754,0.42204 -0.28639,0.63306 -0.3919,0.67828 -0.10551,0.0452 -0.10551,-0.0754 -0.58785,0.0301 -0.48234,0.10552 -1.44699,0.43712 -2.53225,0.79888 -1.08527,0.36176 -2.29109,0.75365 -2.98445,0.81394 -0.69337,0.0603 -0.87424,-0.21102 -1.08527,-0.60292 -0.21102,-0.39191 -0.45219,-0.90439 -0.67829,-1.47717 -0.2261,-0.57279 -0.43712,-1.20584 -0.79887,-1.65803 -0.36176,-0.4522 -0.87424,-0.72351 -1.43195,-0.94961 -0.55771,-0.2261 -1.16062,-0.40697 -1.76355,-0.49741 -0.60293,-0.0904 -1.20584,-0.0904 -1.85399,0.0754 -0.64815,0.1658 -1.34149,0.4974 -2.11023,0.85916 -0.76874,0.36176 -1.61281,0.75365 -2.32125,1.13048 -0.70844,0.37684 -1.28121,0.73859 -1.77862,1.10034 -0.49742,0.36176 -0.91945,0.72351 -1.22092,1.20585 -0.30146,0.48234 -0.48233,1.08525 -0.57277,1.80877 -0.0904,0.72352 -0.0904,1.56759 -0.33161,2.20067 -0.24118,0.63307 -0.72351,1.05511 -1.25108,1.3415 -0.52756,0.28639 -1.10032,0.43712 -1.83891,0.60292 -0.73859,0.16581 -1.64296,0.34668 -2.39662,0.45219 -0.75366,0.1055 -1.35657,0.13564 -1.98965,0.10548 -0.63307,-0.0301 -1.29628,-0.12059 -1.65803,-0.2864 -0.36175,-0.1658 -0.42205,-0.40697 -0.52756,-0.88932 -0.10551,-0.48234 -0.25624,-1.20583 -0.3919,-1.74847 -0.13566,-0.54263 -0.25624,-0.90438 -0.52756,-1.28121 -0.27132,-0.37683 -0.69336,-0.76872 -1.19078,-1.1154 -0.49741,-0.34669 -1.07018,-0.64815 -1.65804,-0.85917 -0.58785,-0.21102 -1.19076,-0.33161 -1.76354,-0.40696 -0.57279,-0.0754 -1.11541,-0.1055 -1.74849,0.0302 -0.63307,0.13567 -1.35657,0.43712 -1.98964,0.72351 -0.63307,0.28639 -1.17569,0.5577 -1.76355,0.85917 -0.58786,0.30147 -1.22091,0.63306 -1.59774,1.34151 -0.37683,0.70845 -0.49741,1.79369 -0.57277,2.53227 -0.0754,0.73859 -0.1055,1.13048 -0.48232,1.43194 -0.37683,0.30147 -1.10032,0.51249 -2.00472,0.64815 -0.90439,0.13565 -1.98963,0.19595 -2.96939,0.15073 -0.97976,-0.0452 -1.85398,-0.19596 -2.63779,-0.40698 -0.78381,-0.21103 -1.47716,-0.48234 -1.82384,-0.76873 -0.34668,-0.28639 -0.34668,-0.58785 -0.37683,-1.11541 -0.0301,-0.52757 -0.0905,-1.28121 -0.31656,-2.04995 -0.22611,-0.76873 -0.618,-1.55251 -1.11542,-2.12529 -0.49742,-0.57278 -1.10033,-0.93453 -1.82384,-1.16063 -0.72352,-0.22609 -1.5676,-0.31653 -2.53229,-0.36175 -0.96469,-0.0452 -2.04993,-0.0452 -3.10505,-0.0301 -1.05513,0.0151 -2.08008,0.0452 -2.84881,0.19592 -0.76873,0.15073 -1.28121,0.42204 -1.76355,0.8441 -0.48234,0.42205 -0.93453,0.99481 -1.23599,1.62789 -0.30146,0.63307 -0.45219,1.32642 -0.64814,2.00471 -0.19595,0.6783 -0.43712,1.34151 -0.72351,1.68818 -0.28639,0.34667 -0.61799,0.37681 -1.25107,0.36173 -0.63308,-0.0151 -1.56759,-0.0754 -2.62272,-0.13567 -1.05513,-0.0603 -2.23081,-0.12058 -2.83373,-0.43712 -0.60291,-0.31654 -0.63305,-0.88931 -0.69333,-1.53746 -0.0603,-0.64816 -0.15073,-1.37164 -0.33161,-2.04993 -0.18088,-0.6783 -0.45219,-1.31136 -0.87425,-1.71833 -0.42205,-0.40698 -0.99481,-0.58785 -1.79369,-0.90439 -0.79889,-0.31654 -1.82384,-0.76873 -3.37638,-1.11541 -1.55255,-0.34668 -3.632597,-0.58784 -5.667482,-0.75365 -2.034885,-0.1658 -4.024494,-0.25624 -5.818206,-0.3919 -1.793713,-0.13566 -3.391428,-0.31653 -5.109777,-0.52756 -1.718349,-0.21102 -3.55723,-0.45219 -5.290651,-0.60292 -1.73342,-0.15073 -3.36128,-0.21103 -4.657575,-0.21103 -1.296295,0 -2.260952,0.0603 -3.089979,0.24118 -0.829026,0.18088 -1.522372,0.48234 -2.78853,0.88931 -1.266158,0.40698 -3.105039,0.91946 -4.672652,1.37165 -1.567614,0.4522 -2.863872,0.84409 -4.099877,1.23599 -1.236005,0.39191 -2.411681,0.7838 -3.150265,1.13048 -0.738584,0.34669 -1.040036,0.64814 -1.235989,1.11542 -0.195952,0.46727 -0.28639,1.10033 -0.391902,1.85399 -0.105512,0.75366 -0.226094,1.62788 -0.406967,2.11022 -0.180872,0.48234 -0.422051,0.57278 -1.00991,0.70844 -0.58786,0.13566 -1.522371,0.31653 -2.517205,0.42204 -0.994834,0.1055 -2.049931,0.13564 -2.924176,0.12056 -0.874245,-0.0151 -1.567593,-0.0754 -2.336329,-0.19596 -0.768735,-0.12059 -1.612812,-0.30146 -2.049931,-0.57278 -0.437119,-0.27132 -0.467266,-0.63307 -0.587852,-1.236 -0.120587,-0.60293 -0.331607,-1.44701 -0.572779,-2.21574 -0.241172,-0.76874 -0.512482,-1.46209 -0.949606,-2.11024 -0.437124,-0.64814 -1.040034,-1.25105 -1.612817,-1.76354 -0.572783,-0.51249 -1.115404,-0.93453 -1.642966,-1.25107 -0.527562,-0.31654 -1.040038,-0.52756 -1.778632,-0.58785 -0.738594,-0.0603 -1.703247,0.0302 -2.848814,0.2864 -1.145567,0.25624 -2.471972,0.67828 -3.496948,1.05511 -1.024977,0.37683 -1.748471,0.70843 -2.306179,1.02497 -0.557709,0.31654 -0.949603,0.618 -1.326433,1.10034 -0.376831,0.48235 -0.738577,1.14555 -1.055114,1.80877 -0.316537,0.66322 -0.587849,1.32643 -0.768726,1.88413 -0.180876,0.55771 -0.271314,1.0099 -0.738588,1.16063 -0.467274,0.15073 -1.311349,0 -2.29111,-0.16581 -0.979761,-0.1658 -2.095148,-0.34668 -3.074906,-0.51249 -0.979758,-0.1658 -1.823835,-0.31653 -2.637789,-0.45219 -0.813953,-0.13566 -1.597739,-0.25624 -2.065006,-0.54263 -0.467266,-0.28639 -0.617996,-0.73858 -0.70844,-1.34149 -0.09044,-0.60291 -0.120599,-1.35651 -0.195971,-2.20059 -0.07537,-0.84408 -0.195954,-1.77859 -0.467274,-2.57747 -0.27132,-0.79888 -0.693361,-1.46209 -1.220923,-2.01979 -0.527562,-0.55771 -1.160621,-1.0099 -1.733402,-1.49224 -0.5727804,-0.48234 -1.0852584,-0.99482 -1.5977478,-1.86907 -0.5124894,-0.87425 -1.0249644,-2.11022 -1.4319398,-3.46681 -0.4069753,-1.35659 -0.7084302,-2.83372 -0.9646754,-4.13002 -0.2562452,-1.2963 -0.4672634,-2.41168 -0.6330687,-4.50687 -0.1658054,-2.09519 -0.2863877,-5.17004 -0.3014598,-7.46116 -0.015072,-2.29113 0.075364,-3.7984 0.2411705,-5.51675 0.1658063,-1.71835 0.4069714,-3.64767 0.6029231,-5.30572 0.1959516,-1.65806 0.3466784,-3.04475 0.4823374,-4.41642 0.1356589,-1.37166 0.2562412,-2.72821 0.4974146,-4.34105 0.2411733,-1.61284 0.6029195,-3.48186 1.0400449,-5.18513 0.4371254,-1.70328 0.9495991,-3.2407 1.5073093,-5.09471 0.5577107,-1.85401 1.1606217,-4.02449 1.7635517,-6.13475 0.60293,-2.11025 1.205841,-4.16015 1.62789,-5.78806 0.422049,-1.6279 0.663213,-2.83372 0.949605,-4.4767 0.286392,-1.64299 0.617994,-3.72304 0.783798,-5.17006 0.165803,-1.44702 0.165803,-2.26095 0.256243,-2.863879 0.09044,-0.602929 0.271314,-0.994821 0.633073,-1.311358 0.36176,-0.316537 0.90438,-0.557702 1.658044,-0.557699 0.753663,2e-6 1.718321,0.241167 2.607641,0.572779 0.88932,0.331612 1.70325,0.75365 2.547351,1.190774 0.844101,0.437125 1.71832,0.889303 2.848816,1.567603 1.130496,0.6783 2.517194,1.58267 3.934078,2.45691 1.416883,0.87425 2.863871,1.71833 4.26568,2.59257 1.401809,0.87425 2.758362,1.77862 4.325979,2.56242 1.567618,0.78381 3.346205,1.44701 4.928893,1.88414 1.582688,0.43712 2.969384,0.64814 4.26568,0.79887 1.296295,0.15073 2.50212,0.24116 3.738126,0.19594 1.236005,-0.0452 2.502118,-0.22609 3.723049,-0.48234 1.220931,-0.25624 2.396608,-0.58784 3.602467,-1.08526 1.20586,-0.49742 2.441826,-1.16062 3.180409,-1.64296 0.738583,-0.48234 0.97975,-0.7838 1.145556,-0.96468 0.165806,-0.18088 0.256242,-0.24117 1.130497,-0.88932 0.874255,-0.64816 2.532257,-1.88412 3.692893,-2.81866 1.160635,-0.93454 1.82384,-1.5676 2.456916,-2.01979 0.633075,-0.45219 1.235985,-0.7235 1.642964,-0.84409 0.406978,-0.12059 0.617992,-0.0905 0.82901,-0.0603 0,0 0,0 0,0"
       id="path1"
       inkscape:path-effect="#path-effect1"
       inkscape:original-d="m 72.35079,100.74848 c 1.507308,0.45219 3.014618,0.90438 4.521925,1.35657 1.989686,0.75367 3.979294,1.50731 5.968939,2.26097 1.929395,1.11543 3.85871,2.23081 5.788065,3.34622 0.723522,0.63308 1.447017,1.26614 2.170523,1.89921 0.753671,0.63308 1.50731,1.26614 2.260962,1.89921 0.904404,0.72352 1.808771,1.44701 2.713157,2.17052 0.753668,0.42206 1.507307,0.84409 2.260959,1.26614 1.23602,0.69338 2.47199,1.38672 3.70798,2.08009 1.95954,1.11542 3.919,2.23081 5.8785,3.34622 2.98453,1.74851 5.96894,3.49695 8.95341,5.24543 0.72352,0.36176 1.44702,0.72351 2.17053,1.08526 4.00952,1.53749 8.01887,3.07491 12.02831,4.61237 6.02936,1.71836 12.05847,3.43666 18.0877,5.15499 1.59778,0.60293 3.1955,1.20585 4.79324,1.80877 1.29631,0.33161 2.59257,0.66322 3.88886,0.99482 1.29631,0.45221 2.59257,0.90439 3.88885,1.35658 1.59778,0.60294 3.1955,1.20585 4.79324,1.80877 1.38675,0.51249 2.77345,1.02497 4.16017,1.53745 2.23086,0.63309 4.46164,1.26614 6.69245,1.89921 2.20072,0.60294 4.40134,1.20585 6.60201,1.80877 1.44704,0.54264 2.89403,1.08526 4.34105,1.6279 2.68306,1.14557 5.36601,2.2911 8.04902,3.43666 1.44705,0.78381 2.89403,1.5676 4.34105,2.3514 0.69338,0.63308 1.38672,1.26614 2.08009,1.89921 0.42205,0.78381 0.84409,1.5676 1.26613,2.3514 0.15074,0.78381 0.30147,1.5676 0.4522,2.3514 -0.0603,0.9044 -0.12059,1.80877 -0.18088,2.71315 -0.21103,0.54264 -0.42205,1.08526 -0.63307,1.6279 -0.69338,0.78381 -1.38672,1.5676 -2.08008,2.3514 -1.50734,0.87425 -3.01462,1.74847 -4.52193,2.62271 -1.17572,0.39191 -2.3514,0.7838 -3.5271,1.1757 -0.78382,0.24118 -1.5676,0.48234 -2.3514,0.72351 -0.78382,0.30147 -1.5676,0.60292 -2.3514,0.90439 -0.36176,0.24117 -0.72351,0.48233 -1.08526,0.7235 -0.15074,0.42206 -0.30147,0.8441 -0.4522,1.26614 0.0301,0.69338 0.0603,1.38672 0.0904,2.08009 0.0603,0.63308 0.12059,1.26614 0.18088,1.8992 -0.21103,0.21103 -0.42205,0.42205 -0.63307,0.63307 0,-0.12058 0,-0.24117 0,-0.36175 -0.96468,0.33162 -1.92933,0.66322 -2.89399,0.99483 -1.20587,0.3919 -2.41169,0.7838 -3.61754,1.1757 -0.18088,-0.27132 -0.36175,-0.54263 -0.54263,-0.81395 -0.24117,-0.51249 -0.48234,-1.02497 -0.72351,-1.53745 -0.21102,-0.63309 -0.42204,-1.26614 -0.63307,-1.89921 -0.51249,-0.27132 -1.02497,-0.54263 -1.53745,-0.81395 -0.60294,-0.18088 -1.20585,-0.36175 -1.80877,-0.54263 -0.60294,0 -1.20585,0 -1.80877,0 -0.69338,0.33161 -1.38672,0.66322 -2.08009,0.99482 -0.84411,0.39191 -1.68818,0.7838 -2.53227,1.1757 -0.57279,0.36177 -1.14556,0.72351 -1.71833,1.08527 -0.42206,0.36176 -0.8441,0.7235 -1.26614,1.08526 -0.18088,0.60293 -0.36176,1.20584 -0.54263,1.80877 0,0.84411 0,1.68818 0,2.53228 -0.48235,0.42205 -0.96468,0.84409 -1.44702,1.26613 -0.57279,0.15074 -1.14555,0.30147 -1.71833,0.4522 -0.9044,0.18088 -1.80877,0.36175 -2.71316,0.54263 -0.60293,0.0301 -1.20584,0.0603 -1.80877,0.0904 -0.66323,-0.0904 -1.32643,-0.18088 -1.98964,-0.27132 -0.0603,-0.24117 -0.12059,-0.48234 -0.18088,-0.72351 -0.15073,-0.72352 -0.30146,-1.44701 -0.45219,-2.17052 -0.12059,-0.36176 -0.24117,-0.72351 -0.36176,-1.08526 -0.42205,-0.39191 -0.84409,-0.7838 -1.26614,-1.1757 -0.57278,-0.30147 -1.14555,-0.60293 -1.71833,-0.90439 -0.60293,-0.12059 -1.20584,-0.24117 -1.80877,-0.36175 -0.54264,-0.0301 -1.08526,-0.0603 -1.62789,-0.0904 -0.72352,0.30147 -1.44702,0.60292 -2.17052,0.90438 -0.54264,0.27133 -1.08526,0.54264 -1.6279,0.81395 -0.63308,0.33162 -1.26613,0.66322 -1.8992,0.99482 -0.12059,1.08529 -0.24117,2.17053 -0.36176,3.25579 -0.0301,0.39191 -0.0603,0.7838 -0.0904,1.1757 -0.72352,0.21103 -1.44701,0.42205 -2.17052,0.63307 -1.08528,0.0603 -2.17052,0.12058 -3.25579,0.18088 -0.87425,-0.15074 -1.74847,-0.30147 -2.62271,-0.4522 -0.69338,-0.27132 -1.38673,-0.54263 -2.08009,-0.81394 0,-0.30147 0,-0.60293 0,-0.90439 -0.0603,-0.75367 -0.12061,-1.50731 -0.18091,-2.26096 -0.39191,-0.78382 -0.7838,-1.5676 -1.1757,-2.3514 -0.60294,-0.36176 -1.20585,-0.72351 -1.80877,-1.08526 -0.84411,-0.0904 -1.68819,-0.18088 -2.53228,-0.27132 -1.08529,0 -2.17053,0 -3.25579,0 -1.02499,0.0301 -2.04994,0.0603 -3.07491,0.0904 -0.51249,0.27132 -1.02497,0.54263 -1.53745,0.81395 -0.4522,0.57279 -0.90439,1.14555 -1.35658,1.71833 -0.15073,0.69337 -0.30146,1.38672 -0.45219,2.08008 -0.24117,0.66323 -0.48234,1.32644 -0.72351,1.98965 -0.33161,0.0301 -0.66321,0.0603 -0.99482,0.0904 -0.93455,-0.0603 -1.86906,-0.12059 -2.8036,-0.18088 -1.17572,-0.0603 -2.3514,-0.12058 -3.5271,-0.18087 -0.0301,-0.57279 -0.0603,-1.14556 -0.0904,-1.71834 -0.0905,-0.72352 -0.18088,-1.44701 -0.27132,-2.17052 -0.27132,-0.63308 -0.54263,-1.26614 -0.81395,-1.89921 -0.57279,-0.18088 -1.14555,-0.36175 -1.71833,-0.54263 -1.02499,-0.4522 -2.04994,-0.90438 -3.07491,-1.35658 -2.08012,-0.24117 -4.160167,-0.48233 -6.240252,-0.7235 -1.989687,-0.0904 -3.979294,-0.18088 -5.968941,-0.27132 -1.597778,-0.18088 -3.195493,-0.36175 -4.79324,-0.54263 -1.838952,-0.24117 -3.677832,-0.48234 -5.516748,-0.72351 -1.627925,-0.0603 -3.255785,-0.12058 -4.883678,-0.18088 -0.964697,0.0603 -1.929354,0.12059 -2.894032,0.18088 -0.693375,0.30147 -1.386723,0.60292 -2.080085,0.90439 -1.838953,0.51249 -3.677832,1.02497 -5.516748,1.53745 -1.296311,0.39191 -2.59257,0.7838 -3.888855,1.1757 -1.175724,0.39191 -2.351401,0.7838 -3.527101,1.1757 -0.301468,0.30147 -0.602923,0.60292 -0.904385,0.90439 -0.09044,0.63308 -0.180877,1.26614 -0.271315,1.8992 -0.120587,0.87426 -0.24117,1.74848 -0.361754,2.62272 -0.241174,0.0904 -0.482339,0.18088 -0.723508,0.27132 -0.93455,0.18088 -1.869062,0.36175 -2.803593,0.54263 -1.055137,0.0301 -2.110232,0.0603 -3.165348,0.0904 -0.693375,-0.0603 -1.386723,-0.12059 -2.080085,-0.18088 -0.844109,-0.18088 -1.688185,-0.36176 -2.532277,-0.54263 -0.03015,-0.36176 -0.06029,-0.72351 -0.09044,-1.08526 -0.211027,-0.84411 -0.422046,-1.68819 -0.633069,-2.53228 -0.271321,-0.69338 -0.542631,-1.38673 -0.813947,-2.08009 -0.602935,-0.60293 -1.205846,-1.20584 -1.80877,-1.80877 -0.542641,-0.42205 -1.085261,-0.84409 -1.627892,-1.26614 -0.512495,-0.21102 -1.02497,-0.42204 -1.537455,-0.63307 -0.964696,0.0905 -1.929354,0.18088 -2.894031,0.27132 -1.326458,0.42205 -2.652863,0.84409 -3.979294,1.26614 -0.723522,0.33161 -1.447016,0.66321 -2.170524,0.99482 -0.391908,0.30147 -0.7838,0.60293 -1.1757,0.90439 -0.361761,0.66323 -0.723508,1.32643 -1.085262,1.98964 -0.271321,0.66323 -0.542631,1.32644 -0.813946,1.98965 -0.09044,0.4522 -0.180877,0.90439 -0.271316,1.35658 -0.844109,-0.15074 -1.688185,-0.30146 -2.532278,-0.45219 -1.11543,-0.18088 -2.230816,-0.36176 -3.346224,-0.54264 -0.844109,-0.15073 -1.688185,-0.30146 -2.532277,-0.45219 -0.783816,-0.12058 -1.567601,-0.24117 -2.351401,-0.36175 -0.150734,-0.4522 -0.301462,-0.90439 -0.452193,-1.35658 -0.03016,-0.75363 -0.06031,-1.50723 -0.09047,-2.26084 -0.120587,-0.93455 -0.241169,-1.86906 -0.361754,-2.80359 -0.422055,-0.66323 -0.844093,-1.32644 -1.266139,-1.98965 -0.633082,-0.4522 -1.266139,-0.90439 -1.899208,-1.35658 -0.5124952,-0.51249 -1.0249697,-1.02497 -1.5374545,-1.53745 -0.512495,-1.23602 -1.0249695,-2.47199 -1.5374543,-3.70798 -0.3014677,-1.47719 -0.6029233,-2.95432 -0.9043849,-4.43149 -0.2110274,-1.11543 -0.4220463,-2.23081 -0.6330694,-3.34622 -0.1205871,-3.07497 -0.2411694,-6.14982 -0.361754,-9.22473 0.09044,-1.50734 0.180877,-3.01461 0.2713155,-4.52192 0.2411741,-1.92939 0.4823386,-3.85871 0.7235079,-5.78806 0.1507338,-1.38676 0.3014616,-2.77345 0.4521924,-4.16018 0.1205871,-1.3566 0.2411693,-2.71315 0.361754,-4.06973 0.3617612,-1.8691 0.7235079,-3.73812 1.0852619,-5.60718 0.512496,-1.53749 1.0249715,-3.07491 1.5374573,-4.61237 0.6029351,-2.17056 1.2058461,-4.34104 1.8087701,-6.51157 0.602935,-2.04998 1.205846,-4.09988 1.808769,-6.14982 0.241175,-1.20587 0.482339,-2.41169 0.723508,-3.61753 0.331615,-2.08013 0.663216,-4.16018 0.994824,-6.24026 0,-0.81396 0,-1.62789 0,-2.44184 0.18088,-0.391908 0.361754,-0.7838 0.542631,-1.1757 0.542642,-0.241174 1.085262,-0.482339 1.627893,-0.723508 0.964696,0.241174 1.929354,0.482339 2.894031,0.723508 0.813963,0.422055 1.627893,0.844092 2.441839,1.266139 0.874257,0.452201 1.748478,0.904381 2.622717,1.356581 1.386751,0.9044 2.773447,1.80877 4.16017,2.71315 1.447045,0.84411 2.894032,1.68819 4.341048,2.53228 1.356604,0.9044 2.713154,1.80877 4.069732,2.71315 1.778659,0.66323 3.557247,1.32643 5.335871,1.98965 1.386751,0.21103 2.773447,0.42205 4.16017,0.63307 1.205871,0.0904 2.411693,0.18088 3.61754,0.27131 1.266164,-0.18088 2.532277,-0.36175 3.798416,-0.54263 1.175724,-0.33161 2.351401,-0.66321 3.527101,-0.99482 1.236018,-0.66323 2.471986,-1.32643 3.707978,-1.98965 0.241175,-0.30146 0.482339,-0.60292 0.723508,-0.90438 0.09044,-0.0603 0.180877,-0.12059 0.271316,-0.18088 1.658072,-1.23602 3.316078,-2.47198 4.974117,-3.70798 0.663229,-0.63308 1.326431,-1.26614 1.989647,-1.8992 0.602935,-0.27133 1.205846,-0.54264 1.808769,-0.81395 0.211027,0.0302 0.422045,0.0603 0.633068,0.0904 0,0 0,0 0,0" /></g></svg>
