<?xml version="1.0" encoding="UTF-8" standalone="no"?>
<!-- Created with Inkscape (http://www.inkscape.org/) -->

<svg
   width="210mm"
   height="297.10593mm"
   viewBox="0 0 210 297.10593"
   version="1.1"
   id="svg1"
   xml:space="preserve"
   xmlns:inkscape="http://www.inkscape.org/namespaces/inkscape"
   xmlns:sodipodi="http://sodipodi.sourceforge.net/DTD/sodipodi-0.dtd"
   xmlns="http://www.w3.org/2000/svg"
   xmlns:svg="http://www.w3.org/2000/svg"><sodipodi:namedview
     id="namedview1"
     pagecolor="#ffffff"
     bordercolor="#000000"
     borderopacity="0.25"
     inkscape:showpageshadow="2"
     inkscape:pageopacity="0.0"
     inkscape:pagecheckerboard="0"
     inkscape:deskcolor="#d1d1d1"
     inkscape:document-units="mm" /><defs
     id="defs1"><inkscape:path-effect
       effect="bspline"
       id="path-effect6"
       is_visible="true"
       lpeversion="1.3"
       weight="33.333333"
       steps="2"
       helper_size="0"
       apply_no_weight="true"
       apply_with_weight="true"
       only_selected="false"
       uniform="false" /><inkscape:path-effect
       effect="bspline"
       id="path-effect4"
       is_visible="true"
       lpeversion="1.3"
       weight="33.333333"
       steps="2"
       helper_size="0"
       apply_no_weight="true"
       apply_with_weight="true"
       only_selected="false"
       uniform="false" /><inkscape:path-effect
       effect="bspline"
       id="path-effect3"
       is_visible="true"
       lpeversion="1.3"
       weight="33.333333"
       steps="2"
       helper_size="0"
       apply_no_weight="true"
       apply_with_weight="true"
       only_selected="false"
       uniform="false" /><inkscape:path-effect
       effect="bspline"
       id="path-effect2"
       is_visible="true"
       lpeversion="1.3"
       weight="33.333333"
       steps="2"
       helper_size="0"
       apply_no_weight="true"
       apply_with_weight="true"
       only_selected="false"
       uniform="false" /><inkscape:path-effect
       effect="bspline"
       id="path-effect1"
       is_visible="true"
       lpeversion="1.3"
       weight="33.333333"
       steps="2"
       helper_size="0"
       apply_no_weight="true"
       apply_with_weight="true"
       only_selected="false"
       uniform="false" /></defs><g
     inkscape:groupmode="layer"
     id="layer2"
     inkscape:label="EPI"><path
       style="fill:#000000;fill-opacity:1;stroke:#000000;stroke-width:0.264583px;stroke-linecap:butt;stroke-linejoin:miter;stroke-opacity:1"
       d="m 108.38403,108.7251 c 0.69279,0.9699 2.07837,2.90971 3.82634,5.36114 1.74798,2.45143 3.85828,5.41438 4.91345,6.89588 1.05517,1.4815 -9.43258,-13.22693 -8.73979,-12.25702 z m 8.57992,12.07581 c 1.08714,1.30031 2.17429,2.60062 3.51724,4.2207 1.34296,1.62007 2.94167,3.55984 4.09687,4.9261 1.1552,1.36626 1.86682,2.15894 3.0366,3.39186 1.16978,1.23292 2.79765,2.906 4.39541,4.35303 1.59776,1.44702 3.16533,2.66792 4.59728,3.75319 1.43196,1.08527 2.72822,2.03486 3.82856,2.78852 1.10034,0.75365 2.00471,1.31135 2.84881,1.83137 0.8441,0.52003 1.62789,1.00236 2.50968,1.50731 0.88178,0.50496 1.86151,1.0325 2.64531,1.41687 0.78381,0.38436 1.37165,0.62553 1.89168,0.81394 0.52002,0.18842 0.97221,0.32407 1.74848,0.55017 0.77628,0.2261 1.87659,0.54263 2.76591,0.76119 0.88931,0.21856 1.56759,0.33914 2.45691,0.51249 0.88933,0.17334 1.98964,0.39943 3.07491,0.58031 1.08527,0.18088 2.15544,0.31653 3.98685,0.55771 1.8314,0.24117 4.42392,0.58784 6.41358,0.8064 1.98966,0.21856 3.37636,0.309 4.98166,0.49742 1.6053,0.18841 3.42911,0.47479 5.07209,0.83655 1.64298,0.36176 3.10504,0.79887 4.12247,1.15309 1.01744,0.35422 1.59021,0.62553 2.14792,0.97222 0.55771,0.34668 1.10033,0.76872 1.64296,1.26614 0.54264,0.49742 1.08526,1.07018 1.51485,1.60528 0.42958,0.5351 0.74611,1.0325 1.02497,1.59775 0.27885,0.56525 0.52001,1.1983 0.88177,2.29865 0.36176,1.10035 0.84409,2.66792 1.22091,3.4065 0.37683,0.73859 0.64816,0.64814 0.88932,0.62554 0.24117,-0.0226 0.45218,0.0226 0.66321,0.1432 0.21103,0.12058 0.42205,0.31653 0.70844,0.67075 0.28639,0.35422 0.64814,0.8667 0.90439,1.37165 0.25624,0.50495 0.40697,1.00236 0.48234,1.20586 0.0754,0.20351 0.0754,0.11299 0.0452,0.21099 -0.0301,0.098 -0.0904,0.38438 0.008,0.67077 0.098,0.28639 0.35422,0.57277 0.45219,0.97222 0.098,0.39944 0.0377,0.91191 0.0528,1.3641 0.0151,0.45219 0.10551,0.84411 0.24117,1.13803 0.13566,0.29392 0.31653,0.48987 0.36175,1.66559 0.0452,1.17572 -0.0452,3.33113 -0.12812,4.57466 -0.0829,1.24354 -0.15826,1.57512 -0.60293,2.15545 -0.44466,0.58033 -1.2586,1.40933 -2.42677,2.4117 -1.16818,1.00237 -2.69054,2.17805 -4.31845,3.26332 -1.62791,1.08527 -3.36128,2.08008 -5.90866,3.17289 -2.54738,1.09281 -5.90861,2.28356 -8.96848,3.16534 -3.05986,0.88178 -5.81818,1.45454 -8.87051,1.98964 -3.05233,0.5351 -6.39849,1.03251 -8.15451,1.30382 -1.75601,0.27132 -1.9218,0.31654 -1.99718,0.18088 -0.0754,-0.13566 -0.0603,-0.45219 -0.098,-0.93453 -0.0377,-0.48234 -0.12812,-1.13049 -0.35422,-1.43195 -0.2261,-0.30146 -0.58784,-0.25624 -1.17569,-0.14319 -0.58786,0.11305 -1.40179,0.29392 -1.80123,0.57278 -0.39943,0.27886 -0.38437,0.65568 -0.38437,1.07019 0,0.41452 -0.0151,0.8667 -0.0302,1.09279 -0.0151,0.2261 -0.0301,0.2261 -0.41447,0.34669 -0.38439,0.12058 -1.13804,0.36175 -2.29115,0.5577 -1.15311,0.19595 -2.7056,0.34668 -5.00427,0.46727 -2.29868,0.12058 -5.34339,0.21102 -6.89592,0.13565 -1.55252,-0.0754 -1.61281,-0.31653 -1.64295,-0.73104 -0.0301,-0.41452 -0.0301,-1.00236 -0.24872,-1.32643 -0.21856,-0.32407 -0.65567,-0.38437 -1.28121,-0.41451 -0.62554,-0.0301 -1.43947,-0.0301 -1.86906,0.0904 -0.42958,0.12059 -0.4748,0.36174 -0.52002,0.76119 -0.0452,0.39945 -0.0904,0.95714 -0.20349,1.24352 -0.11305,0.28639 -0.29392,0.30145 -2.74334,0.15072 -2.44943,-0.15074 -7.16721,-0.46727 -9.56383,-0.70844 -2.39662,-0.24118 -2.47198,-0.40696 -2.53228,-0.57277 -0.0603,-0.16582 -0.10551,-0.33162 -0.14318,-0.5351 -0.0377,-0.20348 -0.0678,-0.44463 -0.0829,-0.829 -0.0151,-0.38437 -0.0151,-0.91192 -0.0151,-1.19075 -10e-6,-0.27883 -10e-6,-0.30903 -0.23365,-0.39945 -0.23364,-0.0904 -0.70089,-0.24114 -1.31889,-0.33911 -0.61801,-0.098 -1.38672,-0.1432 -1.78615,-0.0151 -0.39943,0.12813 -0.42957,0.42956 -0.45972,0.93451 -0.0302,0.50495 -0.0603,1.21337 -0.17337,1.56005 -0.11306,0.34668 -0.30901,0.33162 -1.97461,0.12813 -1.66561,-0.20349 -4.80074,-0.59539 -6.35327,-1.00237 -1.55253,-0.40698 -1.52239,-0.82902 -1.51486,-1.22093 0.008,-0.3919 -0.008,-0.75365 -0.0151,-1.34904 -0.008,-0.5954 -0.008,-1.4244 -0.0151,-1.85397 -0.008,-0.42957 -0.0226,-0.45973 -0.12058,-0.61046 -0.098,-0.15072 -0.27886,-0.42204 -0.97223,-0.73859 -0.69338,-0.31654 -1.8992,-0.67829 -3.210575,-1.0099 -1.311374,-0.33161 -2.728217,-0.63307 -4.077269,-0.91192 -1.349053,-0.27885 -2.63024,-0.53509 -3.994369,-0.7838 -1.364129,-0.2487 -2.811115,-0.48987 -3.881312,-0.57277 -1.070198,-0.0829 -1.763538,-0.008 -2.479518,0.0528 -0.715981,0.0603 -1.454546,0.10551 -2.072548,0.12812 -0.618002,0.0226 -1.115404,0.0226 -1.57514,0.0377 -0.459736,0.0151 -0.881771,0.0452 -1.100328,0.0603 -0.218557,0.0151 -0.233637,0.0151 -0.437125,0.21857 -0.203487,0.20349 -0.59538,0.61047 -2.283596,2.37406 -1.688215,1.76359 -4.672624,4.88365 -6.292982,6.42865 -1.620357,1.545 -1.876603,1.51486 -3.278423,1.46965 -1.40182,-0.0452 -3.94912,-0.1055 -5.230332,-0.2713 -1.281212,-0.16581 -1.296284,-0.43712 -1.318895,-1.30384 -0.02261,-0.86672 -0.05276,-2.32878 -0.211026,-3.12766 -0.15827,-0.79888 -0.444653,-0.93455 -1.032512,-1.00992 -0.58786,-0.0754 -1.477152,-0.0904 -1.951953,-0.098 -0.474801,-0.008 -0.535098,-0.008 -0.565243,0.26379 -0.03015,0.27132 -0.03015,0.81393 -0.07537,1.59773 -0.04522,0.78381 -0.135657,1.80876 -0.226105,2.35894 -0.09045,0.55017 -0.18085,0.62551 -0.339133,0.64813 -0.158283,0.0226 -0.384366,-0.008 -0.610462,-0.0376 0,0 0.180877,0.0452 0.180877,0.0452 0,0 0,0 0,0 -2.954324,0 -5.908648,0 -7.38581,-0.0754 -1.477162,-0.0754 -1.477162,-0.2261 -1.484699,-0.52756 -0.0075,-0.30147 -0.02261,-0.75366 -0.02261,-1.2963 10e-7,-0.54263 0.01507,-1.17569 0.01507,-1.72586 -1e-6,-0.55017 -0.01507,-1.01743 -0.09797,-1.27367 -0.0829,-0.25624 -0.233623,-0.30146 -0.467259,-0.36929 -0.233636,-0.0678 -0.550175,-0.15827 -0.889324,-0.21102 -0.339148,-0.0528 -0.700893,-0.0678 -0.979747,-0.0754 -0.278855,-0.008 -0.474801,-0.008 -0.58785,0.19596 -0.113048,0.20349 -0.143195,0.61046 -0.188414,1.07773 -0.04522,0.46727 -0.105512,0.99482 -0.173341,1.52992 -0.06783,0.5351 -0.143194,1.07772 -0.203487,1.49977 -0.06029,0.42205 -0.105511,0.7235 -0.293926,0.85916 -0.188416,0.13567 -0.520023,0.10553 -1.424421,0.0905 -0.904398,-0.0151 -2.381531,-0.0151 -4.182785,-0.0829 -1.801254,-0.0678 -3.926515,-0.20351 -5.034381,-0.28642 -1.107867,-0.0829 -1.198324,-0.11304 -2.351432,-0.31653 -1.153108,-0.20349 -3.368807,-0.58032 -5.026857,-0.9873 -1.65805,-0.40699 -2.758363,-0.8441 -3.316074,-1.0702 -0.557711,-0.2261 -0.572755,-0.24114 -0.715959,-0.77625 -0.143205,-0.53511 -0.414515,-1.59021 -0.685833,-1.6505 -0.271318,-0.0603 -0.542628,0.87423 -0.836557,1.18323 -0.293928,0.30899 -0.610458,-0.008 -1.092801,-0.48234 -0.482344,-0.47481 -1.130475,-1.10787 -1.718331,-1.77109 -0.587856,-0.66323 -1.115399,-1.35657 -1.597741,-1.98965 -0.482343,-0.63307 -0.919456,-1.20584 -1.273676,-1.70326 -0.35422,-0.49741 -0.62553,-0.91945 -0.776262,-1.41687 -0.150732,-0.49741 -0.180878,-1.07018 -0.203488,-2.76593 -0.02261,-1.69575 -0.03768,-4.51436 -0.0075,-6.09704 0.03015,-1.58267 0.105512,-1.92935 0.211025,-2.34386 0.105513,-0.41452 0.241166,-0.89684 0.301459,-1.60529 0.06029,-0.70844 0.04522,-1.64296 0.02261,-3.07492 -0.02261,-1.43196 -0.05276,-3.36128 -0.03015,-4.65004 0.02261,-1.28875 0.09797,-1.93688 0.218561,-2.47951 0.120587,-0.54264 0.286389,-0.97975 0.452195,-1.29629 0.165805,-0.31653 0.331607,-0.51248 0.527559,-0.7009 0.195953,-0.18841 0.422043,-0.36928 0.64814,-0.47479 0.226098,-0.1055 0.452197,-0.13564 0.580317,-0.3768 0.12812,-0.24117 0.158266,-0.69335 0.17334,-1.22091 0.01507,-0.52757 0.01507,-1.13048 0.03768,-1.83892 0.02261,-0.70845 0.06783,-1.52238 0.128122,-2.44185 0.06029,-0.91946 0.135657,-1.94441 0.241169,-2.96939 0.105513,-1.02498 0.241168,-2.04993 0.346681,-3.06738 0.105512,-1.01744 0.180876,-2.02731 0.278852,-3.05229 0.09798,-1.02498 0.218558,-2.065 0.316534,-3.09752 0.09798,-1.03252 0.17334,-2.05747 0.256243,-3.09753 0.0829,-1.04006 0.173339,-2.09517 0.286388,-3.64772 0.113048,-1.55255 0.248703,-3.60245 0.331606,-5.64488 0.0829,-2.04242 0.113048,-4.07724 0.09044,-5.26048 -0.02261,-1.18324 -0.09797,-1.51484 -0.180877,-1.74094 -0.0829,-0.2261 -0.173339,-0.34668 -0.226096,-0.55017 -0.05276,-0.20349 -0.06783,-0.48987 -0.04522,-0.80641 0.02261,-0.31654 0.0829,-0.66321 0.120591,-0.84409 0.03769,-0.18088 0.05273,-0.19592 0.165791,-0.36173 0.113058,-0.16582 0.324079,-0.48236 0.474818,-0.67832 0.150739,-0.19596 0.241161,-0.27131 0.444644,-0.35421 0.203483,-0.0829 0.520022,-0.17334 0.731055,-0.23363 0.211033,-0.0603 0.316534,-0.0904 0.497408,-0.0829 0.180875,0.008 0.437112,0.0527 0.753651,0.1884 0.316539,0.13565 0.693358,0.36174 1.160629,0.63306 0.467272,0.27132 1.024966,0.58785 2.042415,1.10788 1.017448,0.52003 2.494578,1.24352 4.680205,2.35894 2.185626,1.11543 5.079597,2.6227 7.822924,3.96422 2.743327,1.34151 5.335846,2.51719 7.913368,3.42158 2.577522,0.90439 5.139896,1.53745 7.295364,1.98965 2.155468,0.45219 3.90391,0.7235 5.426304,0.91945 1.522394,0.19596 2.818654,0.31654 4.145098,0.33161 1.326443,0.0151 2.682996,-0.0754 4.205395,-0.28639 1.522398,-0.21103 3.210549,-0.54263 4.793238,-0.94961 1.582688,-0.40698 3.059822,-0.8893 4.325972,-1.44701 1.26615,-0.55771 2.321241,-1.19077 3.361295,-1.95951 1.040055,-0.76874 2.064999,-1.6731 3.346226,-2.60764 1.281227,-0.93454 2.818652,-1.8992 4.461636,-2.89404 1.642984,-0.99483 3.391427,-2.01978 4.853527,-2.80359 1.462101,-0.7838 2.637778,-1.32642 3.557242,-1.82384 0.919464,-0.49741 1.582669,-0.9496 1.989643,-1.32643 0.406975,-0.37683 0.557701,-0.67828 0.608927,-1.0631 0.05123,-0.38482 0.0029,-0.85299 -0.02119,-1.08173 -0.02414,-0.22873 -0.02414,-0.21813 0.07179,-0.28206 0.09593,-0.0639 0.287769,-0.2025 0.389033,-0.27713 0.101264,-0.0746 0.11189,-0.0853 1.636063,-1.52949 1.524177,-1.44423 4.561717,-4.3219 6.139147,-5.75543 1.57742,-1.43353 1.69466,-1.42287 1.81723,-1.32693 0.12258,0.0959 0.25047,0.27711 0.37304,0.46364 0.12257,0.18652 0.23981,0.37836 0.35705,0.57021"
       id="path1"
       inkscape:path-effect="#path-effect1"
       inkscape:original-d="m 107.69124,107.75519 c 1.38558,1.93981 2.77115,3.87962 4.15673,5.81942 2.11038,2.96306 4.22068,5.92601 6.33102,8.88901 z m 9.27271,13.04572 c 1.08714,1.30031 2.17429,2.60062 3.26143,3.90093 1.59877,1.93984 3.19748,3.87961 4.79622,5.81942 0.71166,0.79271 1.42328,1.58539 2.13492,2.37808 1.62792,1.67315 3.25579,3.34623 4.88368,5.01934 1.56763,1.22094 3.1352,2.44184 4.7028,3.66276 1.29631,0.94962 2.59257,1.89921 3.88885,2.84881 0.9044,0.55771 1.80877,1.11541 2.71316,1.67311 0.78381,0.48235 1.5676,0.96468 2.3514,1.44702 0.97977,0.52757 1.9595,1.05511 2.93925,1.58267 0.58786,0.24117 1.1757,0.48234 1.76355,0.72351 0.4522,0.13566 0.90439,0.27131 1.35658,0.40697 1.10036,0.31654 2.20067,0.63307 3.301,0.9496 0.6783,0.12059 1.35658,0.24117 2.03487,0.36176 1.10036,0.2261 2.20067,0.45219 3.301,0.67829 1.07021,0.13566 2.14038,0.27131 3.21057,0.40697 2.59262,0.34669 5.18514,0.69336 7.77771,1.04004 1.38675,0.0904 2.77345,0.18092 4.16017,0.27132 1.82388,0.28639 3.64769,0.57277 5.47153,0.85916 1.46212,0.43713 2.92418,0.87424 4.38626,1.31136 0.57279,0.27132 1.14556,0.54263 1.71834,0.81395 0.54264,0.42205 1.08526,0.84409 1.62789,1.26614 0.54264,0.57279 1.08526,1.14555 1.62789,1.71833 0.31654,0.49742 0.63307,0.99482 0.94961,1.49223 0.24117,0.63309 0.48233,1.26614 0.7235,1.89921 0.48235,1.56763 0.96468,3.1352 1.44702,4.7028 0.27132,-0.0904 0.54263,-0.18091 0.81395,-0.27131 0.21102,0.0452 0.42204,0.0904 0.63306,0.13566 0.21103,0.19595 0.42205,0.3919 0.63307,0.58785 0.36176,0.51249 0.72351,1.02497 1.08527,1.53745 0.15073,0.49742 0.30146,0.99483 0.45219,1.49224 0,-0.0904 0,-0.18092 0,-0.27132 -0.0603,0.28639 -0.12058,0.57278 -0.18088,0.85917 0.25625,0.28639 0.51249,0.57277 0.76873,0.85916 -0.0603,0.5125 -0.12058,1.02497 -0.18088,1.53746 0.0904,0.3919 0.18092,0.7838 0.27132,1.1757 0.18088,0.19595 0.36175,0.3919 0.54263,0.58785 -0.0904,2.15549 -0.18092,4.3109 -0.27132,6.46635 -0.0754,0.33161 -0.15069,0.66321 -0.22609,0.99482 -0.81396,0.82904 -1.6279,1.65804 -2.44184,2.48706 -1.52241,1.17572 -3.04477,2.3514 -4.56715,3.5271 -1.73344,0.99484 -3.46681,1.98965 -5.20021,2.98447 -3.36136,1.1908 -6.72259,2.38155 -10.08389,3.57232 -2.75843,0.57279 -5.51675,1.14556 -8.27512,1.71833 -3.34629,0.49743 -6.69245,0.99483 -10.03868,1.49224 -0.16581,0.0452 -0.3316,0.0904 -0.49741,0.13566 0.0151,-0.31654 0.0302,-0.63307 0.0452,-0.94961 -0.0904,-0.64815 -0.18091,-1.29629 -0.27131,-1.94443 -0.36176,0.0452 -0.7235,0.0904 -1.08525,0.13566 -0.81396,0.18088 -1.62789,0.36176 -2.44183,0.54263 0.0151,0.37684 0.0301,0.75366 0.0452,1.13048 -0.0151,0.45221 -0.0301,0.90439 -0.0452,1.35658 -0.0151,0 -0.0301,0 -0.0452,0 -0.75368,0.24117 -1.50733,0.48234 -2.26099,0.72351 -1.55256,0.15073 -3.10505,0.30146 -4.65758,0.45219 -3.04482,0.0904 -6.08953,0.18092 -9.13429,0.27132 -0.0603,-0.24117 -0.12057,-0.48234 -0.18087,-0.72351 0,-0.58786 0,-1.1757 0,-1.76355 -0.43713,-0.0603 -0.87424,-0.12058 -1.31136,-0.18088 -0.81396,0 -1.62789,0 -2.44184,0 -0.0452,0.24118 -0.0904,0.48234 -0.13566,0.72351 -0.0452,0.55772 -0.0904,1.11541 -0.13566,1.67311 -0.18088,0.0151 -0.36175,0.0301 -0.54263,0.0452 -4.71797,-0.31654 -9.43575,-0.63307 -14.15362,-0.9496 -0.0754,-0.16581 -0.1507,-0.33161 -0.2261,-0.49741 -0.0453,-0.1658 -0.0905,-0.3316 -0.13565,-0.4974 -0.0302,-0.24117 -0.0603,-0.48233 -0.0904,-0.7235 -1e-5,-0.52757 -3e-5,-1.05512 -4e-5,-1.58268 0,-0.0301 0,-0.0603 0,-0.0904 -0.46728,-0.15073 -0.93453,-0.30146 -1.4018,-0.45219 -0.76874,-0.0452 -1.53745,-0.0904 -2.30618,-0.13566 -0.0302,0.30146 -0.0603,0.6029 -0.0904,0.90435 -0.0302,0.70845 -0.0603,1.41687 -0.0905,2.1253 -0.19595,-0.0151 -0.3919,-0.0301 -0.58785,-0.0452 -3.13526,-0.39191 -6.27039,-0.78381 -9.40558,-1.17572 0.0301,-0.42205 0.0603,-0.84409 0.0904,-1.26614 -0.0151,-0.36176 -0.0301,-0.72351 -0.0452,-1.08526 1e-5,-0.82904 1e-5,-1.65804 2e-5,-2.48706 -0.0151,-0.0301 -0.0301,-0.0603 -0.0452,-0.0904 -0.18089,-0.27133 -0.36177,-0.54265 -0.54265,-0.81398 -1.20587,-0.36176 -2.41169,-0.72351 -3.617541,-1.08526 -1.416898,-0.30147 -2.83374,-0.60293 -4.250609,-0.90439 -1.281238,-0.25624 -2.562424,-0.51248 -3.843636,-0.76872 -1.447045,-0.24118 -2.894032,-0.48234 -4.341048,-0.72351 -0.693375,0.0754 -1.386723,0.15069 -2.080085,0.22609 -0.738596,0.0452 -1.477162,0.0904 -2.215743,0.13566 -0.497421,0 -0.994823,0 -1.492235,0 -0.422055,0.0302 -0.844093,0.0603 -1.266139,0.0904 -0.01507,0 -0.03015,0 -0.04522,0 -0.391908,0.40699 -0.7838,0.81397 -1.175699,1.22096 -2.98453,3.12019 -5.968941,6.24025 -8.953411,9.36038 -0.256247,-0.0301 -0.512485,-0.0603 -0.768727,-0.0904 -2.547402,-0.0603 -5.094702,-0.12057 -7.642052,-0.18087 -0.01507,-0.27132 -0.03015,-0.54263 -0.04522,-0.81395 -0.03015,-1.46212 -0.06029,-2.92418 -0.09044,-4.38627 -0.286394,-0.13567 -0.572776,-0.27134 -0.859164,-0.40701 -0.88933,-0.0151 -1.778624,-0.0301 -2.667935,-0.0452 -0.06029,0 -0.120587,0 -0.180877,0 0,0.54264 0,1.08525 0,1.62787 -0.09044,1.02499 -0.180876,2.04994 -0.271316,3.07491 -0.09044,0.0754 -0.180875,0.1507 -0.271315,0.2261 -0.226101,-0.0302 -0.678289,-0.0904 -0.678289,-0.0904 0,0 0.180877,0.0452 0.180877,0.0452 0,0 0,0 0,0 0,0 -5.908648,0 -8.862972,0 0,-0.15073 0,-0.30146 0,-0.45219 -0.01507,-0.4522 -0.03015,-0.90439 -0.04522,-1.35658 0.01507,-0.63308 0.03015,-1.26614 0.04522,-1.89921 -0.01507,-0.46727 -0.03015,-0.93453 -0.04522,-1.40179 -0.150734,-0.0452 -0.301462,-0.0904 -0.452193,-0.13566 -0.316541,-0.0904 -0.633069,-0.18088 -0.949604,-0.27132 -0.361761,-0.0151 -0.723508,-0.0301 -1.085262,-0.0452 -0.195954,0 -0.3919,0 -0.58785,0 -0.03015,0.40698 -0.06029,0.81395 -0.09044,1.22092 -0.06029,0.52757 -0.120585,1.05512 -0.180877,1.58268 -0.07537,0.54264 -0.150731,1.08526 -0.226096,1.62789 -0.04522,0.30147 -0.09044,0.60292 -0.135658,0.90438 -0.331615,-0.0301 -0.663216,-0.0603 -0.994824,-0.0904 -1.477191,0 -2.954324,0 -4.431486,0 -2.125346,-0.13568 -4.250607,-0.27135 -6.37591,-0.40703 -0.09044,-0.0301 -0.180877,-0.0603 -0.271316,-0.0904 -2.215787,-0.37685 -4.431486,-0.75368 -6.647229,-1.13052 -1.100357,-0.43713 -2.20067,-0.87424 -3.301004,-1.31136 -0.01507,-0.0151 -0.03015,-0.0301 -0.04522,-0.0452 -0.271321,-1.05514 -0.542631,-2.11024 -0.813946,-3.16536 -0.271321,0.93455 -0.542631,1.86906 -0.813947,2.80359 -0.316541,-0.31654 -0.633069,-0.63307 -0.949604,-0.9496 -0.648155,-0.63308 -1.296285,-1.26614 -1.944427,-1.89921 -0.527569,-0.69338 -1.055116,-1.38672 -1.582674,-2.08009 -0.437128,-0.57278 -0.874239,-1.14555 -1.311358,-1.71833 -0.271321,-0.42205 -0.542631,-0.84409 -0.813946,-1.26614 -0.03015,-0.57278 -0.06029,-1.14555 -0.09044,-1.71833 -0.01507,-2.81872 -0.03015,-5.63733 -0.04522,-8.456 0.07537,-0.34668 0.150731,-0.69336 0.226096,-1.04004 0.135661,-0.48235 0.271315,-0.96467 0.406973,-1.44701 -0.01507,-0.93455 -0.03014,-1.86907 -0.04522,-2.8036 -0.03015,-1.92939 -0.06029,-3.85871 -0.09044,-5.78806 0.07537,-0.64816 0.150731,-1.29629 0.226096,-1.94443 0.165809,-0.43713 0.331611,-0.87424 0.497417,-1.31136 0.165807,-0.19595 0.331607,-0.3919 0.497411,-0.58785 0.226101,-0.18088 0.452193,-0.36175 0.678289,-0.54263 0.226101,-0.0301 0.452192,-0.0603 0.678289,-0.0904 0.03015,-0.4522 0.06029,-0.90438 0.09044,-1.35657 0,-0.60294 0,-1.20585 0,-1.80877 0.04522,-0.81397 0.09044,-1.6279 0.135658,-2.44184 0.07537,-1.02499 0.150731,-2.04994 0.226096,-3.07491 0.135661,-1.02499 0.271316,-2.04994 0.406973,-3.07491 0.07537,-1.00992 0.150731,-2.01979 0.226097,-3.02969 0.120587,-1.04006 0.241169,-2.08008 0.361753,-3.12013 0.07537,-1.02499 0.150731,-2.04994 0.226097,-3.07491 0.09044,-1.05515 0.180875,-2.11026 0.271313,-3.16538 0.135661,-2.04998 0.271316,-4.09988 0.406973,-6.14982 0.03015,-2.03491 0.06029,-4.06973 0.09044,-6.1046 -0.07537,-0.33161 -0.150731,-0.66321 -0.226096,-0.99482 -0.09044,-0.12059 -0.180877,-0.24117 -0.271316,-0.36176 -0.01507,-0.28639 -0.03015,-0.57277 -0.04522,-0.85916 0.06029,-0.34669 0.120585,-0.69336 0.180877,-1.04004 0.01507,-0.0151 0.03015,-0.0301 0.04522,-0.0452 0.211027,-0.31655 0.422046,-0.63309 0.633069,-0.94963 0.09044,-0.0754 0.180877,-0.15073 0.271315,-0.22609 0.316541,-0.0904 0.633069,-0.18088 0.949604,-0.27132 0.105514,-0.0302 0.211023,-0.0603 0.316535,-0.0904 0.256247,0.0452 0.512485,0.0904 0.768727,0.13562 0.376835,0.2261 0.753654,0.45219 1.130481,0.67829 0.557715,0.31654 1.115408,0.63307 1.673112,0.9496 1.477192,0.72353 2.954324,1.44702 4.431486,2.17053 2.89409,1.50734 5.788063,3.01461 8.682095,4.52192 2.592622,1.17572 5.18514,2.3514 7.77771,3.5271 2.562475,0.63308 5.124848,1.26614 7.687272,1.89921 1.748512,0.27132 3.496955,0.54263 5.245432,0.81395 1.296311,0.12058 2.59257,0.24117 3.888855,0.36175 1.356605,-0.0904 2.713155,-0.18088 4.069732,-0.27131 1.688219,-0.33162 3.376371,-0.66322 5.064556,-0.99483 1.477191,-0.48235 2.954324,-0.96468 4.431486,-1.44701 1.055137,-0.63309 2.110231,-1.26614 3.165347,-1.89921 1.02499,-0.90441 2.049939,-1.80877 3.074909,-2.71316 1.537485,-0.96469 3.074908,-1.92935 4.612363,-2.89403 1.748512,-1.02499 3.496955,-2.04994 5.245432,-3.07491 1.175724,-0.54264 2.351401,-1.08526 3.527101,-1.62789 0.663229,-0.4522 1.326431,-0.90439 1.989647,-1.35658 0.150734,-0.30147 0.301461,-0.60292 0.452192,-0.90438 -0.04828,-0.46818 -0.09656,-0.93635 -0.144837,-1.40452 0,0.0107 0,0.0213 0,0.032 0.191853,-0.13857 0.383698,-0.27713 0.575547,-0.4157 0.01066,-0.0107 0.02132,-0.0213 0.03198,-0.032 3.037673,-2.87778 6.075213,-5.75545 9.112823,-8.63318 0.11724,0.0107 0.23448,0.0213 0.35172,0.032 0.12791,0.1812 0.2558,0.36238 0.3837,0.54358 0.11724,0.19185 0.23448,0.38369 0.35172,0.57554"
       inkscape:label="path1" /></g><g
     inkscape:groupmode="layer"
     id="layer3"
     inkscape:label="detalhes"
     style="fill:#ffffff;fill-opacity:1"><path
       style="fill:#ffffff;fill-opacity:1;stroke:#000000;stroke-width:0.264583px;stroke-linecap:butt;stroke-linejoin:miter;stroke-opacity:1"
       d="m 81.530297,130.36708 c 1.175699,-0.75365 2.351402,-1.50731 2.992008,-1.78616 0.640607,-0.27885 0.746118,-0.0829 4.160239,3.70805 3.414121,3.79096 10.13658,11.17662 13.271776,14.72633 3.1352,3.54971 2.68301,3.26332 -0.9346,0.23358 -3.617603,-3.02975 -10.400355,-8.80263 -14.100801,-12.0132 -3.700446,-3.21057 -4.318432,-3.8587 -4.702797,-4.24306 -0.384366,-0.38437 -0.535092,-0.50495 -0.685825,-0.62554"
       id="path2"
       inkscape:path-effect="#path-effect2"
       inkscape:original-d="m 81.530297,130.36708 c 1.175701,-0.75365 2.3514,-1.50731 3.527103,-2.26096 0.105513,0.19595 0.211023,0.3919 0.316534,0.58785 6.722729,7.38596 13.445189,14.77162 20.167786,22.15743 -0.4522,-0.28639 -0.90439,-0.57278 -1.35658,-0.85916 -6.783022,-5.77311 -13.565773,-11.54599 -20.34866,-17.31898 -0.618009,-0.64815 -1.235993,-1.29628 -1.853989,-1.94442 -0.150734,-0.12059 -0.301463,-0.24117 -0.452194,-0.36176"
       inkscape:label="path2" /><path
       style="fill:#ffffff;fill-opacity:1;stroke:#000000;stroke-width:0.264583px;stroke-linecap:butt;stroke-linejoin:miter;stroke-opacity:1"
       d="m 90.363124,125.36281 c 0.180877,-0.31653 0.693356,-0.75365 1.115409,-0.77625 0.422052,-0.0226 0.753657,0.36929 4.024576,4.47678 3.270919,4.10749 9.480901,11.93026 12.390001,15.70606 2.9091,3.77581 2.51721,3.5045 1.65049,2.70562 -0.86671,-0.79889 -2.20819,-2.1253 -3.51202,-3.54218 -1.30383,-1.41689 -2.56995,-2.92416 -5.15502,-5.91621 -2.585071,-2.99205 -6.488922,-7.46867 -8.516253,-9.805 -2.02733,-2.33633 -2.17806,-2.53228 -1.997183,-2.84882 z"
       id="path3"
       inkscape:path-effect="#path-effect3"
       inkscape:original-d="m 90.031516,125.4834 c 0.512485,-0.43712 1.024969,-0.87423 1.537454,-1.31136 0.331613,0.39191 0.663215,0.78381 0.994823,1.1757 6.210234,7.82309 12.420217,15.64586 18.630327,23.46879 -0.39191,-0.27132 -0.7838,-0.54263 -1.1757,-0.81394 -1.34153,-1.32646 -2.68301,-2.65287 -4.02451,-3.9793 -1.26616,-1.50734 -2.53228,-3.01461 -3.79842,-4.52192 -3.904003,-4.47679 -7.807853,-8.95341 -11.711781,-13.43012 -0.150734,-0.19595 -0.301462,-0.3919 -0.452193,-0.58785 z" /><path
       style="fill:#ffffff;fill-opacity:1;stroke:#000000;stroke-width:0.264583px;stroke-linecap:butt;stroke-linejoin:miter;stroke-opacity:1"
       d="m 99.256243,120.19275 c 0.512484,0.84409 1.024957,1.68817 2.193127,3.40651 1.16817,1.71834 2.99197,4.31086 4.31842,6.18748 1.32645,1.87663 2.15546,3.03723 3.41407,4.71789 1.25861,1.68066 2.94676,3.88129 4.09233,5.43384 1.14558,1.55255 1.74848,2.45691 2.23837,3.22565 0.48988,0.76873 0.8667,1.40179 0.52755,1.1757 -0.33914,-0.22609 -1.39423,-1.31133 -3.11258,-3.24823 -1.71834,-1.9369 -4.09984,-4.72536 -6.11965,-7.1597 -2.01982,-2.43433 -3.67782,-4.51437 -5.155,-6.46636 -1.47718,-1.95198 -2.773439,-3.77579 -3.504495,-4.77817 -0.731056,-1.00237 -0.896861,-1.18325 -0.670767,-1.55254 0.226094,-0.36929 0.844094,-0.927 1.205848,-1.11541 0.361754,-0.18841 0.467263,-0.008 0.572777,0.17334"
       id="path4"
       inkscape:path-effect="#path-effect4"
       inkscape:original-d="m 99.256243,120.19275 c 0.512486,0.84409 1.024957,1.68817 1.537457,2.53228 1.82384,2.59257 3.64764,5.18509 5.47152,7.77771 0.82902,1.16063 1.65803,2.32123 2.48706,3.48188 1.68819,2.20067 3.37634,4.4013 5.06456,6.60201 0.60292,0.90439 1.20583,1.80875 1.80877,2.71315 0.37682,0.63308 0.75364,1.26613 1.13048,1.89921 -1.05512,-1.08526 -2.11021,-2.1705 -3.16535,-3.25578 -2.38155,-2.78852 -4.76304,-5.57699 -7.14464,-8.36556 -1.65804,-2.08009 -3.31604,-4.16013 -4.97411,-6.24026 -1.29629,-1.82384 -2.592551,-3.64765 -3.888861,-5.47153 -0.165804,-0.18087 -0.331605,-0.36175 -0.497411,-0.54263 0.617995,-0.5577 1.235992,-1.11541 1.853988,-1.67311 0.105514,0.18088 0.211025,0.36175 0.316537,0.54263" /></g><g
     inkscape:groupmode="layer"
     id="layer4"
     inkscape:label="linha"><path
       style="fill:none;stroke:#ffffff;stroke-width:1.065;stroke-linecap:round;stroke-linejoin:miter;stroke-dasharray:none;stroke-opacity:1"
       d="m 18.268575,162.42753 c 0.964675,0.66321 1.929356,1.32643 2.999554,1.92936 1.070199,0.60292 2.245875,1.14555 3.602469,1.53745 1.356594,0.3919 2.894016,0.63306 4.552075,0.88931 1.658058,0.25624 3.436644,0.52755 5.577047,0.73858 2.140403,0.21102 4.642485,0.36175 6.828098,0.48234 2.185614,0.12058 4.054641,0.21102 6.119677,0.22609 2.065036,0.0151 4.32595,-0.0452 6.436201,-0.0301 2.110251,0.0151 4.069715,0.10551 6.059381,0.25624 1.989667,0.15073 4.00942,0.36175 5.848352,0.61799 1.838932,0.25625 3.496939,0.55771 5.335874,0.96469 1.838935,0.40697 3.85869,0.91945 6.632172,1.64296 2.773482,0.72352 6.300512,1.65804 10.083896,2.68302 3.783383,1.02498 7.822887,2.14036 11.907729,3.22563 4.08485,1.08528 8.2148,2.14037 11.21436,2.89403 2.99956,0.75366 4.86858,1.20585 5.89355,1.44701 1.02497,0.24116 1.20586,0.2713 2.51724,0.39188 1.31138,0.12059 3.75317,0.33162 5.92371,0.40699 2.17054,0.0754 4.06971,0.0151 6.39099,-0.0603 2.32129,-0.0754 5.06453,-0.16581 7.35565,-0.33162 2.29113,-0.1658 4.13001,-0.40696 5.06452,-0.52755 0.93451,-0.12058 0.96471,-0.12058 3.31614,-0.37683 2.35142,-0.25625 7.02398,-0.76872 10.82242,-1.28121 3.79845,-0.51249 6.72257,-1.02497 9.39053,-1.5676 2.66796,-0.54264 5.0796,-1.1154 7.35566,-1.77863 2.27606,-0.66322 4.41639,-1.41686 6.37591,-2.20067 1.95952,-0.78381 3.73811,-1.59774 5.35094,-2.36648 1.61284,-0.76873 3.05982,-1.49222 3.81348,-1.85398 0.75366,-0.36175 0.81394,-0.36175 0.87424,-0.36175"
       id="path6"
       inkscape:path-effect="#path-effect6"
       inkscape:original-d="m 18.268575,162.42753 c 0.964677,0.66321 1.929354,1.32643 2.894031,1.98964 1.175724,0.54264 2.351401,1.08526 3.527101,1.6279 1.537485,0.24117 3.074908,0.48233 4.612362,0.7235 1.778662,0.27132 3.557249,0.54263 5.335871,0.81395 2.502183,0.15073 5.004265,0.30146 7.506396,0.45219 1.869098,0.0904 3.738123,0.18088 5.607187,0.27132 2.261008,-0.0603 4.521922,-0.12059 6.782885,-0.18088 1.959541,0.0904 3.919003,0.18088 5.878502,0.27132 2.019834,0.21102 4.039587,0.42204 6.059379,0.63306 1.658072,0.30147 3.316078,0.60293 4.974116,0.90439 2.019834,0.51249 4.039587,1.02497 6.059379,1.53745 3.527174,0.93455 7.054202,1.86907 10.581304,2.8036 4.039666,1.11543 8.079171,2.23081 12.118762,3.34622 4.1301,1.05514 8.26005,2.11023 12.39007,3.16535 1.8691,0.4522 3.73812,0.90439 5.60719,1.35658 0.18088,0.0301 0.36175,0.0603 0.54263,0.0904 2.44189,0.21104 4.88368,0.42207 7.32551,0.63311 1.89925,-0.0603 3.79842,-0.12059 5.69763,-0.18088 2.74336,-0.0904 5.4866,-0.18088 8.2299,-0.27132 1.83895,-0.24117 3.67783,-0.48234 5.51675,-0.7235 0.0301,0 0.0603,0 0.0904,0 4.67275,-0.5125 9.34531,-1.02497 14.01796,-1.53746 2.92424,-0.51249 5.84836,-1.02497 8.77254,-1.53745 2.41174,-0.57279 4.82338,-1.14556 7.23508,-1.71833 2.14042,-0.75367 4.28075,-1.50731 6.42113,-2.26097 1.77866,-0.81396 3.55725,-1.62789 5.33587,-2.44184 1.44705,-0.72352 2.89403,-1.44701 4.34105,-2.17052 0.0603,0 0.12058,0 0.18088,0" /></g></svg>
