<?xml version="1.0" encoding="UTF-8" standalone="no"?>
<!-- Created with Inkscape (http://www.inkscape.org/) -->

<svg
   width="210mm"
   height="297mm"
   viewBox="0 0 210 297"
   version="1.1"
   id="svg1"
   inkscape:export-filename="bitmap.png"
   inkscape:export-xdpi="96"
   inkscape:export-ydpi="96"
   xmlns:inkscape="http://www.inkscape.org/namespaces/inkscape"
   xmlns:sodipodi="http://sodipodi.sourceforge.net/DTD/sodipodi-0.dtd"
   xmlns="http://www.w3.org/2000/svg"
   xmlns:svg="http://www.w3.org/2000/svg">
  <sodipodi:namedview
     id="namedview1"
     pagecolor="#ffffff"
     bordercolor="#000000"
     borderopacity="0.25"
     inkscape:showpageshadow="2"
     inkscape:pageopacity="0.0"
     inkscape:pagecheckerboard="0"
     inkscape:deskcolor="#d1d1d1"
     inkscape:document-units="mm" />
  <defs
     id="defs1">
    <linearGradient
       id="swatch4"
       inkscape:swatch="solid">
      <stop
         style="stop-color:#000000;stop-opacity:1;"
         offset="0"
         id="stop4" />
    </linearGradient>
    <clipPath
       clipPathUnits="userSpaceOnUse"
       id="clipPath207">
      <path
         id="path208"
         style="fill:#ffffff;fill-opacity:0;stroke:#070707;stroke-width:0;stroke-dasharray:none;stroke-opacity:1"
         d="m -45.843204,159.82864 -70.145866,77.88468 75.602651,68.09058 70.145863,-77.88468 z m -25.391275,40.61078 c 0.07847,0.0771 0.127304,0.27354 0.173947,0.47866 0.01162,0.008 0.02496,0.005 0.03626,0.0146 0.01288,0.0109 0.02593,0.0223 0.0384,0.0346 0.111599,0.10895 0.20438,0.27506 0.258481,0.49986 0.01969,-0.006 0.02614,0.009 0.04387,0.006 0.04206,-0.0367 0.0889,-0.0934 0.142599,-0.17687 10e-4,-0.002 0.0085,-0.0148 0.01645,-0.0283 0.0021,-0.0115 0.0042,-0.0214 0.004,-0.0137 -4e-5,0.003 -4.72e-4,0.006 -6.64e-4,0.008 0.0014,-0.002 6.7e-4,-0.002 0.0023,-0.004 0.0015,-0.002 -0.001,0.004 -0.0029,0.008 -0.0016,0.0188 -0.0048,0.0373 -0.0073,0.056 -0.0093,0.053 -0.01267,0.10707 -0.01208,0.16089 -2.1e-5,0.003 4.62e-4,0.006 4.96e-4,0.009 0.04211,0.0497 0.05356,0.14759 0.01241,0.3283 -0.0042,0.0184 -0.01199,0.0357 -0.01657,0.0539 -0.104552,0.8368 -0.930762,0.90098 -1.152178,0.13414 -0.0536,-0.0128 -0.106801,-0.0272 -0.160504,-0.0395 l -3.52e-4,4e-4 c -0.0035,-6.8e-4 -0.0069,-0.002 -0.01037,-0.002 -5.69e-4,-1.6e-4 -7.2e-4,4.2e-4 -0.0011,4.3e-4 5.82e-4,-0.005 0.0014,-0.0103 0.002,-0.0169 3.9e-5,7.5e-4 3.95e-4,0.006 8.32e-4,0.009 -3.9e-5,-7.5e-4 7.28e-4,-7.7e-4 5.91e-4,-0.003 -6.76e-4,-0.0108 -7.94e-4,-0.0116 -0.0012,-0.0164 -0.0091,-0.0289 -0.01509,-0.0477 -0.02321,-0.087 -0.0064,-0.0308 -0.0062,-0.0317 -0.0089,-0.0504 l -3.9e-5,-7.5e-4 c -0.05184,-0.38047 0.04531,-0.63902 0.191071,-0.80364 0.0094,-0.042 0.02094,-0.0831 0.03561,-0.12371 0.03013,-0.0818 0.06343,-0.16319 0.110553,-0.23703 0.151633,-0.23766 0.252836,-0.27215 0.327329,-0.19897 z m 0.707732,0.84118 c -0.0013,0.003 -0.0025,0.007 -0.0035,0.0101 2.69e-4,0.007 0.0017,-2.8e-4 0.0035,-0.0101 z m -1.330602,0.68977 c 0.0013,0.005 0.003,0.009 0.0044,0.0137 7.11e-4,0.005 -0.0029,-0.008 -0.0043,-0.0122 -2.36e-4,-9.3e-4 2.14e-4,-5.2e-4 -7.8e-5,-0.002 z" />
    </clipPath>
    <clipPath
       clipPathUnits="userSpaceOnUse"
       id="clipPath249">
      <path
         id="path250"
         style="fill:#ffffff;fill-opacity:0;stroke:#070707;stroke-width:0;stroke-dasharray:none;stroke-opacity:1"
         d="m 92.619677,-108.02591 12.083033,23.944899 c 0.0273,-0.0083 0.0541,-0.01706 0.0817,-0.02489 0.16448,-0.04034 0.33207,-0.07592 0.5013,-0.108383 0.087,-0.01089 0.16776,-0.03061 0.24606,-0.0556 0.0133,-0.0044 0.0265,-0.0091 0.0398,-0.01355 -0.0518,-0.06961 -0.0963,-0.14032 -0.13296,-0.21115 -0.22509,-0.434326 -0.1575,-0.872361 0.29569,-1.081769 -8.5e-4,-0.0018 -0.004,-0.0021 -0.005,-0.0038 l 5.1e-4,-4.3e-5 c -0.0285,-0.0564 -0.009,-0.116801 0.0887,-0.124143 0.0687,-0.0052 0.13921,-0.0068 0.21042,-0.0071 -0.0447,-0.02244 -0.08,-0.05284 -0.0972,-0.08682 -0.0315,-0.06233 -0.008,-0.127525 0.10101,-0.133566 0.0616,-0.0034 0.12597,-10e-4 0.18907,-0.0011 0.0672,-7.21e-4 0.1329,-0.0039 0.19861,-0.0079 0.0522,-0.0032 0.10409,-0.0073 0.15591,-0.01141 0.0499,-0.0015 0.0944,-0.0132 0.13988,-0.02267 0.0437,-0.01437 0.0876,-0.02839 0.13347,-0.03945 0.0481,-0.01104 0.0984,-0.01752 0.1493,-0.02347 0.0469,-0.0052 0.0943,-0.0095 0.14171,-0.01388 0.0539,-0.0048 0.10847,-0.0092 0.16248,-0.01381 0.0595,-0.0051 0.11866,-0.0107 0.17807,-0.01575 0.0592,-0.005 0.11824,-0.01007 0.17738,-0.01508 0.0722,-0.0071 0.14493,-0.01293 0.22051,-0.01277 0.0647,0.0015 0.1287,0.0015 0.19186,-7.54e-4 0.0621,-0.002 0.12271,-0.0062 0.18027,-0.01655 0.0559,-0.01078 0.10753,-0.02913 0.162,-0.04246 0.0574,-0.01293 0.11708,-0.02177 0.17739,-0.02944 0.0515,-0.0062 0.10371,-0.01065 0.15582,-0.01569 0.0553,-0.005 0.11072,-0.01002 0.16615,-0.01473 0.0629,-0.0054 0.12583,-0.01068 0.1888,-0.01605 0.0569,-0.0048 0.114,-0.0097 0.17093,-0.01453 l 0.17588,-0.01495 0.18186,-0.01545 0.1893,-0.01609 0.16843,-0.01432 0.0552,-0.0047 c 0.16912,-0.01437 0.27678,0.134 0.21349,0.20849 0.10029,0.04401 0.13974,0.138473 0.0847,0.181168 0.0255,0.04793 0.0518,0.109629 0.0874,0.195883 0.008,0.02051 -0.0105,0.0464 -0.0314,0.07024 0.0478,0.03717 0.0958,0.0738 0.14154,0.114145 0.24481,0.215913 0.4415,0.477203 0.5836,0.746914 0.50041,0.952296 0.0541,0.764885 -0.56827,0.370013 0.0493,0.101389 0.0951,0.202435 0.1311,0.303997 0.0151,0.04629 0.0232,0.0908 0.0338,0.135856 0.007,0.02329 0.0118,0.04644 0.0175,0.06967 0.002,0.0093 0.005,0.01908 0.006,0.02818 0.0215,0.0934 0.0308,0.184747 0.0334,0.274631 0.64341,0.218525 1.08907,0.65373 1.26855,1.081575 0.26464,0.432813 0.25338,0.887089 -0.13195,1.130045 0.21248,0.126467 0.42472,0.254703 0.63753,0.379352 -0.028,0.249399 -0.0467,0.503951 -0.0684,0.756883 0.067,0.06547 0.12825,0.132095 0.18314,0.199707 0.13852,-0.01238 0.27739,-0.02419 0.41377,-0.04055 0.59837,-0.0718 0.97376,0.636276 0.37525,0.707813 -0.14575,0.01744 -0.29443,0.02922 -0.44208,0.04296 0.05,0.324257 -0.0777,0.592288 -0.40337,0.696849 0.0295,0.026 0.0597,0.05079 0.0888,0.07737 0.0767,0.07439 0.15488,0.146573 0.22996,0.22264 0.27116,0.27481 0.52384,0.582673 0.71753,0.89938 0.0521,0.0852 0.0947,0.172105 0.14219,0.258204 0.0344,0.07608 0.0741,0.152591 0.10344,0.228609 0.0648,0.165309 0.13586,0.3795 0.15303,0.546709 l 46.35482,-3.93974 -14.42895,-28.597564 c -0.0771,0.13075 -0.15433,0.26121 -0.23381,0.39003 -0.0559,0.0957 -0.10851,0.1943 -0.15945,0.294 -0.0412,0.0791 -0.0817,0.15838 -0.11179,0.24571 -0.0419,0.10582 -0.0844,0.21145 -0.13479,0.31104 -0.0275,0.057 -0.0569,0.11253 -0.0819,0.17141 -0.0299,0.0786 -0.0608,0.15674 -0.0921,0.23446 -0.0248,0.0659 -0.041,0.13616 -0.0473,0.21332 -0.0119,0.0884 -0.0183,0.18027 -0.0412,0.26243 -0.022,0.0781 -0.0435,0.15635 -0.0777,0.22606 -0.007,0.014 -0.0122,0.0291 -0.0185,0.0434 0.0177,0.0191 0.035,0.0384 0.0532,0.0571 0.0976,0.0956 0.20772,0.17616 0.30485,0.27249 0.03,0.0308 0.0611,0.0602 0.0896,0.0922 0.14765,0.16604 0.26078,0.34677 0.33646,0.53231 0.0144,0.0371 0.0308,0.0748 0.0434,0.11173 0.0575,0.16854 0.0811,0.33017 0.0888,0.48519 0.007,0.20004 8.7e-4,0.39362 -0.005,0.58822 -0.005,0.21583 -0.0108,0.43155 -0.0131,0.64873 -9.4e-4,0.0717 -0.002,0.0566 0.003,0.13372 9.9e-4,0.0209 0.003,0.0418 0.005,0.0629 3.2e-4,0.01 0.006,0.0383 0.002,0.028 -0.14409,-0.33485 -0.005,-0.0469 -0.0646,-0.16912 l 2.1e-4,-6.3e-4 c -0.6356,-1.29422 -0.55822,1.26787 -1.11232,0.21294 -0.018,-0.034 -0.0365,-0.0719 -0.0558,-0.11367 -0.0111,-0.0241 -0.0251,-0.0481 -0.0332,-0.0719 -0.0255,-0.0786 -0.0484,-0.15697 -0.0663,-0.23415 -0.009,-0.0382 -0.0102,-0.0744 -0.0141,-0.11122 -0.0121,-0.11335 -0.0147,-0.22178 -0.0155,-0.33057 0.002,-0.226 0.008,-0.45057 0.0138,-0.67511 0.003,-0.17246 0.0125,-0.34123 0.005,-0.51825 -7.5e-4,-0.009 -0.002,-0.0137 -0.002,-0.0202 -0.0557,-0.0491 -0.11108,-0.0984 -0.16593,-0.14914 -0.13648,-0.13001 -0.26079,-0.27101 -0.38418,-0.41225 -0.16131,-0.18335 -0.28397,-0.3881 -0.348,-0.59113 -0.005,-0.0154 -0.008,-0.0305 -0.0121,-0.0456 -0.10876,-0.0568 -0.20648,-0.1494 -0.25705,-0.24964 -0.0594,-0.11767 -0.0542,-0.24554 0.0742,-0.3376 0.008,-0.006 0.009,-0.0421 0.0147,-0.0509 1.1e-4,0.009 -1.4e-4,0.003 0.003,-0.014 0.004,-0.0223 0.008,-0.0443 0.0135,-0.0657 0.002,-0.007 0.004,-0.0135 0.005,-0.0202 0.0102,-0.0337 0.0162,-0.0702 0.0311,-0.10071 0.0107,-0.0234 0.0224,-0.046 0.0345,-0.0681 0.0104,-0.0203 0.0216,-0.0397 0.0318,-0.0601 10e-4,-0.004 0.003,-0.009 0.005,-0.013 0.002,-0.004 0.003,-0.008 0.005,-0.0123 3.8e-4,-0.002 0.002,-0.007 0.003,-0.008 l -2.9e-4,-5.9e-4 c 0.005,-0.0434 0.0115,-0.0861 0.0179,-0.12888 0.008,-0.0564 0.0185,-0.11103 0.0369,-0.161 0.0209,-0.0706 0.0436,-0.14019 0.0679,-0.2085 0.0327,-0.0919 0.0671,-0.18312 0.10925,-0.2682 0.016,-0.0334 0.031,-0.0674 0.0497,-0.0987 0.005,-0.008 0.0101,-0.0166 0.016,-0.0247 0.001,-0.002 0.005,-0.006 0.004,-0.005 -0.002,0.005 -0.005,0.009 -0.008,0.0139 -0.0729,0.12554 -0.0285,0.18808 0.0655,0.22226 0.002,-0.004 0.003,-0.009 0.005,-0.0136 0.0308,-0.0791 0.0698,-0.1518 0.10557,-0.22724 0.0433,-0.0846 0.0792,-0.17496 0.11496,-0.26512 0.0336,-0.0939 0.0769,-0.18054 0.12083,-0.26681 -0.005,-0.0276 -0.006,-0.0607 -0.004,-0.10127 0.003,-0.0508 0.0129,-0.0977 0.0251,-0.14326 0.0112,-0.0338 0.0225,-0.0674 0.0332,-0.10149 0.009,-0.038 0.0245,-0.0721 0.0423,-0.10406 0.0148,-0.0259 0.0317,-0.0504 0.0491,-0.0742 0.0134,-0.0205 0.0286,-0.0391 0.0411,-0.0603 0.008,-0.0162 0.0161,-0.0324 0.0226,-0.0497 0.0103,-0.0379 0.0223,-0.0745 0.0354,-0.11066 0.008,-0.0201 0.0159,-0.0405 0.0238,-0.0606 0.0705,-0.17939 0.20168,-0.23117 0.33048,-0.20152 0.0953,-0.12145 0.20321,-0.2056 0.32128,-0.23719 l -0.97671,-1.93578 z m 12.776213,25.318754 c -0.002,-0.03584 -10e-4,-0.07109 0.002,-0.106009 -0.0235,-0.0064 -0.0421,-0.01375 -0.0656,-0.02014 z m 39.13239,-22.947564 c -5.3e-4,-0.002 -6e-5,-0.003 -2.8e-4,-0.005 -0.002,-0.008 -0.003,-0.0159 -0.005,-0.0241 -9.8e-4,-0.003 -0.001,-0.0106 -0.004,-0.0104 -0.004,9.5e-4 7e-4,0.009 -1e-4,0.0132 -0.002,-0.005 -0.009,-0.0196 -0.008,-0.0149 0.004,0.0133 0.0103,0.0272 0.0176,0.041 z m 0.26869,-1.12194 c 0.003,0.005 0.0177,0.0189 0.0232,0.0256 0.003,0.004 0.007,0.007 0.01,0.0111 -0.003,-0.003 -0.005,-0.007 -0.007,-0.0102 -0.007,-0.01 -0.0145,-0.022 -0.0241,-0.0273 -0.003,-9.7e-4 -0.002,-7.2e-4 -0.002,8.1e-4 z" />
    </clipPath>
    <clipPath
       clipPathUnits="userSpaceOnUse"
       id="clipPath311">
      <path
         id="path312"
         style="fill:#ffffff;fill-opacity:0;stroke:#000000;stroke-width:0;stroke-dasharray:none;stroke-opacity:1"
         d="m 212.16436,247.18769 -39.78948,-6.42367 7.03683,40.89917 c 0.0788,0.0788 0.1578,0.15735 0.23465,0.2382 0.13424,0.14738 0.25907,0.302 0.38367,0.45628 0.11811,0.15578 0.24642,0.30531 0.36978,0.45771 0.14226,0.17614 0.28661,0.35065 0.42595,0.52866 0.0209,0.0266 0.0399,0.0543 0.0605,0.0811 0.0772,0.0622 0.15545,0.12898 0.2358,0.20535 0.0736,0.0699 0.14755,0.13901 0.22166,0.20831 0.12265,0.12277 0.23897,0.25024 0.34775,0.38441 0.0515,0.0593 0.10148,0.1197 0.15692,0.17584 0.0462,0.0428 0.1011,0.08 0.14933,0.11954 0.0685,0.0562 0.1347,0.11559 0.20031,0.1755 0.1276,0.118 0.25324,0.23807 0.36854,0.36837 0.0907,0.1016 0.18367,0.20128 0.27225,0.30457 0.0195,0.0224 0.0372,0.046 0.0572,0.068 0.0704,0.0775 0.14712,0.14949 0.21845,0.22615 0.0856,0.0916 0.17468,0.17924 0.26992,0.26068 0.0855,0.0774 0.17117,0.15522 0.25365,0.23602 0.04,0.0392 0.0809,0.0774 0.11742,0.11964 1e-4,5.5e-4 -0.002,-6.3e-4 -0.003,-10e-4 -0.004,-0.003 -0.01,-0.009 -0.009,-0.006 0.002,0.008 0.0927,0.0705 0.11473,0.0888 0.0924,0.0679 0.18278,0.13909 0.27366,0.20937 0.12907,0.10242 0.25733,0.20825 0.37127,0.32947 0.0895,0.0932 0.17716,0.18774 0.25602,0.28937 0.0699,0.0836 0.14014,0.1678 0.21347,0.24894 0.11738,0.13212 0.23722,0.26243 0.34212,0.40343 0.0434,0.0593 0.0857,0.11909 0.12861,0.1786 0.0684,0.0569 0.13615,0.11441 0.20601,0.16908 0.0999,0.0768 0.19775,0.15664 0.29223,0.2412 l 5.5e-4,9e-5 c 0.58293,0.52196 0.82332,1.01454 0.81275,1.35304 0.0344,0.17166 0.017,0.31571 -0.0373,0.42817 0.15521,0.41092 -0.0398,0.80647 -0.64067,0.86405 0.362,0.38656 0.54947,0.74306 0.58734,1.02246 l 41.06447,6.63007 -7.98877,-46.43201 -0.005,0.006 c -9.1e-4,9.3e-4 2.7e-4,-0.002 6.3e-4,-0.003 0.002,-0.003 0.002,-0.006 0.004,-0.009 l -0.0154,-0.0895 c -0.0502,0.0762 -0.12132,0.13157 -0.20739,0.16369 -8.4e-4,0.006 -5e-5,0.0121 -6.2e-4,0.0177 -0.0871,0.51048 -0.26845,0.44499 -0.48567,0.17381 0.22937,0.7489 -0.50939,1.1173 -1.64347,0.2045 -0.1832,-0.14745 -0.0896,-0.0717 -0.27932,-0.22706 -0.43737,-0.36134 -0.86495,-0.73779 -1.27664,-1.13166 -0.0905,-0.0872 -0.1814,-0.17333 -0.27109,-0.26138 -0.40648,-0.3987 -0.79495,-0.81496 -1.18595,-1.22819 -0.0668,-0.073 -0.13498,-0.14505 -0.20047,-0.21905 -0.1786,-0.20157 -0.33991,-0.4154 -0.513,-0.62084 -0.18927,-0.22443 -0.37801,-0.44893 -0.56567,-0.67445 -0.0868,-0.10518 -0.1744,-0.21025 -0.26753,-0.31063 -0.15156,-0.16334 -0.29613,-0.33263 -0.41504,-0.51693 -0.0842,-0.12616 -0.16572,-0.25351 -0.24911,-0.38002 z m 6.7321,1.08747 c 0.002,0.004 0.004,0.007 0.007,0.0116 0.0865,0.15221 0.15942,0.3075 0.22683,0.46348 l -0.0774,-0.44984 z m -34.29154,43.41371 c -0.0596,-0.004 -0.12124,-0.01 -0.18649,-0.0191 -0.008,-0.001 -0.0157,-0.004 -0.0234,-0.005 -0.0146,0.0192 -0.0285,0.0386 -0.0446,0.0573 l 0.33326,0.0538 c -0.0126,-0.0133 -0.009,-0.009 -0.0263,-0.0278 -0.0203,-0.0223 -0.0346,-0.0392 -0.0525,-0.0588 z" />
    </clipPath>
  </defs>
  <g
     inkscape:label="Camada 1"
     inkscape:groupmode="layer"
     id="layer1">
    <rect
       style="fill:#000000;stroke:#000000;stroke-width:0.264999"
       id="rect1"
       width="54.986603"
       height="117.93179"
       x="57.593811"
       y="56.125717"
       ry="4.7028012" />
    <rect
       style="fill:#000000;stroke:#000000;stroke-width:0.239909"
       id="rect2"
       width="55.011692"
       height="96.613403"
       x="-70.620667"
       y="184.50957"
       transform="rotate(-42.007386,-4.4979162,11.715216)"
       ry="4.8936114"
       clip-path="url(#clipPath207)" />
    <path
       style="fill:#000000;stroke:#000000;stroke-width:0.187204"
       id="path2"
       sodipodi:type="arc"
       sodipodi:cx="162.96626"
       sodipodi:cy="222.78314"
       sodipodi:rx="26.276285"
       sodipodi:ry="28.542681"
       sodipodi:start="5.4735505"
       sodipodi:end="2.3760002"
       sodipodi:arc-type="slice"
       d="m 181.09067,202.11723 a 26.276285,28.542681 0 0 1 7.32036,27.78951 26.276285,28.542681 0 0 1 -18.77413,20.48401 26.276285,28.542681 0 0 1 -25.6151,-7.82855 l 18.94446,-19.77906 z"
       transform="matrix(0.99684462,0.07937762,-0.07864151,0.99690296,0,0)" />
    <path
       style="fill:#000000;stroke:#000000;stroke-width:0.292067"
       id="path3"
       sodipodi:type="arc"
       sodipodi:cx="-111.24356"
       sodipodi:cy="-137.76991"
       sodipodi:rx="14.902847"
       sodipodi:ry="18.576168"
       sodipodi:start="2.7339725"
       sodipodi:end="2.3760002"
       sodipodi:arc-type="arc"
       d="m -124.92537,-130.40584 a 14.902847,18.576168 0 0 1 6.57479,-23.69184 14.902847,18.576168 0 0 1 19.518468,6.04515 14.902847,18.576168 0 0 1 -3.085918,24.77239 14.902847,18.576168 0 0 1 -20.07007,-1.61715"
       sodipodi:open="true"
       transform="matrix(-0.94284693,-0.33322616,0.23448421,-0.97211993,0,0)" />
    <path
       style="fill:#ffffff;fill-opacity:0;stroke:#ffffff;stroke-width:4.55121;stroke-dasharray:none;stroke-opacity:1"
       id="path4"
       sodipodi:type="arc"
       sodipodi:cx="212.23727"
       sodipodi:cy="278.91812"
       sodipodi:rx="30.58819"
       sodipodi:ry="28.99522"
       sodipodi:start="2.7339725"
       sodipodi:end="4.9221702"
       sodipodi:open="true"
       sodipodi:arc-type="arc"
       d="m 184.15527,290.41257 a 30.58819,28.99522 0 0 1 4.42257,-29.87213 30.58819,28.99522 0 0 1 30.0293,-9.98186"
       transform="matrix(0.98726106,-0.15910875,-0.1698612,0.985468,-8.9958338,0)"
       clip-path="url(#clipPath311)" />
    <path
       style="fill:#ffffff;fill-opacity:0;stroke:#ffffff;stroke-width:4.06165;stroke-dasharray:none;stroke-opacity:1"
       id="path5"
       sodipodi:type="arc"
       sodipodi:cx="138.24135"
       sodipodi:cy="-86.27166"
       sodipodi:rx="30.1311"
       sodipodi:ry="23.443153"
       sodipodi:start="2.7339725"
       sodipodi:end="4.9221702"
       sodipodi:open="true"
       sodipodi:arc-type="arc"
       d="m 110.57898,-76.978194 a 30.1311,23.443153 0 0 1 4.35648,-24.152146 30.1311,23.443153 0 0 1 29.58057,-8.07052"
       transform="matrix(-0.07344717,0.99729911,-0.86417643,-0.50318893,-8.9958338,0)"
       clip-path="url(#clipPath249)" />
    <rect
       style="fill:#ffffff;fill-opacity:1;stroke:#959595;stroke-width:0;stroke-dasharray:none;stroke-opacity:0"
       id="rect5"
       width="47.389767"
       height="3.6175385"
       x="60.990082"
       y="78.004219" />
    <rect
       style="fill:#ffffff;fill-opacity:1;stroke:#959595;stroke-width:0;stroke-dasharray:none;stroke-opacity:0"
       id="rect6"
       width="19.916367"
       height="3.6174338"
       x="55.371292"
       y="-88.32785"
       transform="matrix(-0.01996555,0.99980067,-0.99999378,-0.00352593,0,0)" />
    <rect
       style="fill:#ffffff;fill-opacity:1;stroke:#959595;stroke-width:0;stroke-dasharray:none;stroke-opacity:0"
       id="rect7"
       width="19.916367"
       height="3.6174338"
       x="55.339581"
       y="-97.323059"
       transform="matrix(-0.01996555,0.99980067,-0.99999378,-0.00352593,0,0)" />
    <rect
       style="fill:#ffffff;fill-opacity:1;stroke:#959595;stroke-width:0;stroke-dasharray:none;stroke-opacity:0"
       id="rect8"
       width="19.916367"
       height="3.6174338"
       x="55.306004"
       y="-106.84738"
       transform="matrix(-0.01996555,0.99980067,-0.99999378,-0.00352593,0,0)" />
    <rect
       style="fill:#ffffff;fill-opacity:1;stroke:#959595;stroke-width:0;stroke-dasharray:none;stroke-opacity:0"
       id="rect9"
       width="19.916367"
       height="3.6174338"
       x="55.406734"
       y="-78.274399"
       transform="matrix(-0.01996555,0.99980067,-0.99999378,-0.00352593,0,0)" />
    <rect
       style="fill:#ffffff;fill-opacity:1;stroke:#959595;stroke-width:0;stroke-dasharray:none;stroke-opacity:0"
       id="rect10"
       width="19.916367"
       height="3.6174338"
       x="55.438446"
       y="-69.279198"
       transform="matrix(-0.01996555,0.99980067,-0.99999378,-0.00352593,0,0)" />
  </g>
</svg>
