<?xml version="1.0" encoding="UTF-8" standalone="no"?>
<!-- Created with Inkscape (http://www.inkscape.org/) -->

<svg
   width="210mm"
   height="297mm"
   viewBox="0 0 210 297"
   version="1.1"
   id="svg1"
   xml:space="preserve"
   xmlns:inkscape="http://www.inkscape.org/namespaces/inkscape"
   xmlns:sodipodi="http://sodipodi.sourceforge.net/DTD/sodipodi-0.dtd"
   xmlns="http://www.w3.org/2000/svg"
   xmlns:svg="http://www.w3.org/2000/svg"><sodipodi:namedview
     id="namedview1"
     pagecolor="#ffffff"
     bordercolor="#000000"
     borderopacity="0.25"
     inkscape:showpageshadow="2"
     inkscape:pageopacity="0.0"
     inkscape:pagecheckerboard="0"
     inkscape:deskcolor="#d1d1d1"
     inkscape:document-units="mm" /><defs
     id="defs1"><inkscape:path-effect
       effect="bspline"
       id="path-effect19"
       is_visible="true"
       lpeversion="1.3"
       weight="33.333333"
       steps="2"
       helper_size="0"
       apply_no_weight="true"
       apply_with_weight="true"
       only_selected="false"
       uniform="false" /><inkscape:path-effect
       effect="bspline"
       id="path-effect14"
       is_visible="true"
       lpeversion="1.3"
       weight="33.333333"
       steps="2"
       helper_size="0"
       apply_no_weight="true"
       apply_with_weight="true"
       only_selected="false"
       uniform="false" /><inkscape:path-effect
       effect="bspline"
       id="path-effect6"
       is_visible="true"
       lpeversion="1.3"
       weight="33.333333"
       steps="2"
       helper_size="0"
       apply_no_weight="true"
       apply_with_weight="true"
       only_selected="false"
       uniform="false" /><inkscape:path-effect
       effect="bspline"
       id="path-effect1"
       is_visible="true"
       lpeversion="1.3"
       weight="33.333333"
       steps="2"
       helper_size="0"
       apply_no_weight="true"
       apply_with_weight="true"
       only_selected="false"
       uniform="false" /></defs><g
     inkscape:groupmode="layer"
     id="layer2"
     inkscape:label="mocassin"><path
       style="fill:#000000;fill-opacity:0.0151007;stroke:#000000;stroke-width:0.264583px;stroke-linecap:butt;stroke-linejoin:miter;stroke-opacity:1"
       d="m 183.0475,183.45448 z m -41.55648,8.32034 z m 0,0.0452 z m -92.789893,-3.02967 z m -27.221986,1.53745 c 0.422046,0.1658 0.844093,0.33161 1.266139,0.49741 0,0 1.944427,0.45216 1.944427,0.45216 0.135658,0.13566 0.271312,0.27131 0.761189,0.34667 0.489877,0.0754 1.333951,0.0904 2.260956,0.12058 0.927006,0.0301 1.936881,0.0754 2.924178,0.0754 0.987298,0 1.951955,-0.0452 2.660401,-0.10551 0.708445,-0.0603 1.160619,-0.13566 1.447015,-0.55771 0.286395,-0.42205 0.406977,-1.19076 0.474807,-1.69571 0.06783,-0.50496 0.0829,-0.74612 0.361755,-0.88178 0.278851,-0.13565 0.821475,-0.16579 1.21338,-0.18839 0.391906,-0.0226 0.633066,-0.0377 0.761191,0.15075 0.128124,0.18842 0.143197,0.58032 0.150734,0.97223 0.0075,0.3919 0.0075,0.78379 0.01507,1.13047 0.0075,0.34669 0.02261,0.64814 0.602924,0.91192 0.580315,0.26379 1.725845,0.48988 2.743292,0.62554 1.017446,0.13566 1.906739,0.18088 2.796058,0.15073 0.889319,-0.0301 1.778612,-0.13565 2.471984,-0.25624 0.693372,-0.12059 1.190772,-0.25624 1.514848,-0.60292 0.324076,-0.34668 0.474806,-0.90438 0.580319,-1.38672 0.105513,-0.48235 0.165804,-0.88931 0.489875,-1.0928 0.324071,-0.20349 0.911909,-0.20349 1.213375,-0.20349 0.301466,0 0.316546,0 0.459745,0.0226 0.1432,0.0226 0.414507,0.0678 0.542626,0.39944 0.128119,0.3316 0.113046,0.94958 0.105509,1.39425 -0.0075,0.44466 -0.0075,0.71597 0.211023,0.99483 0.218561,0.27886 0.65567,0.56525 1.71079,0.71598 1.055119,0.15074 2.728197,0.1658 4.054645,0.14319 1.326448,-0.0226 2.306179,-0.0829 3.007087,-0.18088 0.700909,-0.098 1.122946,-0.23363 1.34151,-0.54263 0.218564,-0.309 0.233637,-0.79133 0.248711,-1.23599 0.01507,-0.44466 0.03015,-0.85163 0.128122,-1.05512 0.09797,-0.20349 0.278848,-0.20349 0.655677,-0.20349 0.376829,0 0.949595,0 1.333965,0.0904 0.38437,0.0904 0.580318,0.27131 0.776268,0.45219 0.01507,0.0452 0.03017,0.0905 0.03769,0.36178 0.0075,0.27129 0.0075,0.76869 0.03014,1.16814 0.02261,0.39944 0.06783,0.70089 0.904385,0.82902 0.836557,0.12812 2.464417,0.0829 4.047106,-0.0377 1.582689,-0.12059 3.120113,-0.31654 4.491779,-0.49741 1.371665,-0.18088 2.577488,-0.34668 4.476708,-0.4522 1.899221,-0.10551 4.49174,-0.15073 6.677362,-0.20349 2.185622,-0.0528 3.964209,-0.11306 4.86862,-0.15075 0.904411,-0.0377 0.934525,-0.0527 1.416872,-0.0452 0.482346,0.008 1.41686,0.0377 2.456913,0.0753 1.040053,0.0377 2.185584,0.0829 3.112591,0.0904 0.927008,0.008 1.635437,-0.0226 2.049957,-0.0376 0.414519,-0.0151 0.535101,-0.0151 0.610468,-0.13566 0.07537,-0.12058 0.105512,-0.36174 0.12812,-0.55016 0.0226,-0.18841 0.0377,-0.32407 0.45218,-0.36929 0.41451,-0.0452 1.22844,0 1.74847,0.0452 0.52004,0.0452 0.74613,0.0904 0.86671,0.23363 0.12058,0.14319 0.13564,0.38435 0.13564,0.59538 0,0.21102 -0.0151,0.3919 0.97222,0.55017 0.98729,0.15827 2.9769,0.29392 4.13755,0.36928 1.16065,0.0754 1.49227,0.0904 1.7033,-0.098 0.21103,-0.18841 0.30147,-0.58032 0.36176,-0.8441 0.0603,-0.26377 0.0904,-0.39944 0.43709,-0.4748 0.34668,-0.0754 1.00988,-0.0904 1.43947,-0.1055 0.42959,-0.0151 0.62554,-0.0301 0.75367,0.21856 0.12813,0.2487 0.18843,0.76116 0.23365,1.10783 0.0452,0.34667 0.0754,0.52756 1.59773,0.6406 1.52237,0.11305 4.53693,0.15827 6.21007,0.16581 1.67314,0.008 2.00474,-0.0226 2.17055,-0.26375 0.16581,-0.24116 0.16581,-0.69335 0.18842,-1.04004 0.0226,-0.34669 0.0678,-0.58785 0.47481,-0.71596 0.40698,-0.12812 1.1757,-0.14318 1.62791,-0.15072 0.45221,-0.008 0.58786,-0.008 0.67076,0.20349 0.0829,0.21102 0.11303,0.63305 0.1507,0.99481 0.0377,0.36176 0.0829,0.66321 0.81394,0.81394 0.73105,0.15073 2.14789,0.15073 3.37636,0.1432 1.22847,-0.008 2.26849,-0.0226 3.48941,-0.0603 1.22093,-0.0377 2.62268,-0.098 3.89636,-0.18088 1.27369,-0.0829 2.41922,-0.18841 2.98447,-0.20346 0.56526,-0.0151 0.5502,0.0602 0.55022,-0.0377 1e-5,-0.098 0.0151,-0.36927 0.0302,-0.39942 0.0151,-0.0302 0.0301,0.18087 0.0301,0.18087 0,10e-6 -0.0151,-0.21101 -0.0151,-0.50494 0,-0.29393 0.0151,-0.67075 0.0377,-0.91946 0.0226,-0.2487 0.0527,-0.3693 0.36172,-0.4522 0.30899,-0.0829 0.89685,-0.12811 1.35658,-0.15072 0.45973,-0.0226 0.79133,-0.0226 1.00235,0.22609 0.21103,0.2487 0.30146,0.74612 0.34668,1.0928 0.0452,0.34668 0.0452,0.54263 0.67829,0.59539 0.63307,0.0528 1.89919,-0.0377 3.20302,-0.1658 1.30383,-0.12813 2.64531,-0.29393 4.16017,-0.49742 1.51486,-0.20349 3.20301,-0.44465 4.87614,-0.73104 1.67313,-0.28639 3.33113,-0.61799 4.95904,-0.95714 1.62791,-0.33915 3.22563,-0.68582 4.71035,-1.04758 1.48471,-0.36176 2.85633,-0.73858 4.09988,-1.10033 1.24354,-0.36176 2.35892,-0.70843 3.51202,-1.10787 1.1531,-0.39944 2.34385,-0.85163 3.1955,-1.26614 0.85164,-0.41452 1.36411,-0.79134 1.99719,-1.08526 0.63307,-0.29393 1.38671,-0.50495 1.86906,-0.52003 0.48234,-0.0151 0.69336,0.1658 1.07019,0.19595 0.37683,0.0301 0.91945,-0.0904 1.67311,-0.36929 0.75366,-0.27885 1.71832,-0.71596 2.6001,-1.10787 0.88179,-0.39191 1.68064,-0.73858 2.6604,-1.22846 0.97976,-0.48988 2.14036,-1.12293 3.18795,-1.68818 1.04759,-0.56524 1.98211,-1.06265 2.61519,-1.37165 0.63308,-0.309 0.96468,-0.42959 1.42441,-0.69337 0.45973,-0.26378 1.04757,-0.67074 1.59774,-1.1154 0.55018,-0.44466 1.06265,-0.92699 1.50731,-1.4244 0.44466,-0.49742 0.82149,-1.0099 1.07019,-1.46209 0.24871,-0.4522 0.36929,-0.84409 0.45973,-1.23599 0.0904,-0.39191 0.15074,-0.7838 0.13566,-1.20585 -0.0151,-0.42204 -0.10551,-0.87425 -0.20348,-1.22846 -0.098,-0.35422 -0.20349,-0.61046 -0.12813,-1.00236 0.0754,-0.3919 0.3316,-0.91945 0.54263,-1.4244 0.21103,-0.50496 0.37683,-0.98729 0.49742,-1.49978 0.12058,-0.51249 0.19594,-1.05511 0.18087,-1.71833 -0.0151,-0.66322 -0.12058,-1.447 -0.2487,-2.24589 -0.12812,-0.79888 -0.27885,-1.61281 -0.56524,-2.4117 -0.28639,-0.79888 -0.70843,-1.58267 -1.19831,-2.17053 -0.48988,-0.58786 -1.04757,-0.97975 -1.62036,-1.31136 -0.57278,-0.33162 -1.16061,-0.60293 -1.69571,-0.80641 -0.5351,-0.20349 -1.01743,-0.33915 -1.61283,-0.41451 -0.59539,-0.0754 -1.30381,-0.0904 -2.29864,-0.098 -0.99483,-0.008 -2.27601,-0.007 -3.0523,0.0151 -0.77628,0.0226 -1.04759,0.0678 -1.98212,0.098 -0.93453,0.0301 -2.53224,0.0452 -4.00942,0.0603 -1.47718,0.0151 -2.83373,0.0301 -4.46917,0.0452 -1.63544,0.0151 -3.54969,0.0301 -4.58223,0.0151 -1.03253,-0.0151 -1.18325,-0.0603 -2.00472,-0.15073 -0.82148,-0.0904 -2.31369,-0.2261 -3.76072,-0.36929 -1.44703,-0.1432 -2.8488,-0.29393 -4.0848,-0.43712 -1.23601,-0.1432 -2.30618,-0.27885 -3.43667,-0.44466 -1.13049,-0.1658 -2.32124,-0.36175 -3.6703,-0.63306 -1.34905,-0.27132 -2.85633,-0.61799 -4.07726,-0.927 -1.22093,-0.309 -2.15545,-0.58031 -3.05985,-0.81394 -0.90439,-0.23364 -1.77861,-0.42959 -2.76591,-0.67076 -0.98729,-0.24117 -2.0876,-0.52755 -3.18041,-0.83655 -1.09281,-0.30901 -2.17805,-0.64061 -3.4442,-1.06266 -1.26615,-0.42204 -2.71314,-0.93452 -3.88132,-1.34903 -1.16817,-0.41452 -2.05747,-0.73105 -2.84882,-1.0099 -0.79134,-0.27886 -1.48469,-0.52003 -2.23081,-0.79888 -0.74612,-0.27885 -1.54498,-0.59538 -2.32125,-0.88177 -0.77627,-0.28639 -1.52991,-0.54263 -2.23082,-0.81395 -0.7009,-0.27132 -1.34904,-0.5577 -2.06501,-0.84409 -0.71598,-0.28639 -1.49976,-0.57277 -2.3514,-0.89685 -0.85164,-0.32407 -1.77108,-0.68582 -2.77345,-1.07772 -1.00237,-0.39191 -2.08761,-0.81394 -3.12012,-1.21339 -1.03252,-0.39944 -2.01225,-0.77626 -2.9694,-1.16062 -0.95715,-0.38437 -1.89167,-0.77626 -2.78852,-1.12295 -0.89686,-0.34668 -1.75601,-0.64814 -2.53228,-0.92699 -0.77627,-0.27886 -1.46962,-0.53509 -2.3514,-0.85163 -0.88179,-0.31654 -1.95195,-0.69336 -3.02215,-1.07772 -1.0702,-0.38437 -2.14037,-0.77626 -3.22565,-1.1757 -1.08527,-0.39945 -2.185579,-0.80641 -3.233169,-1.1757 -1.04759,-0.3693 -2.042392,-0.7009 -2.894032,-1.00991 -0.851639,-0.30901 -1.560059,-0.5954 -2.034866,-0.75367 -0.474808,-0.15827 -0.71598,-0.18841 -0.934541,-0.0377 -0.21856,0.15074 -0.414507,0.48234 -0.489873,0.8667 -0.07537,0.38437 -0.03015,0.82148 -0.02261,1.28875 0.0075,0.46727 -0.02261,0.96468 -0.03015,1.42441 -0.0075,0.45973 0.0075,0.88177 0.0075,1.4018 0,0.52002 -0.01507,1.138 -0.01507,1.71832 0,0.58032 0.01507,1.12295 0.05276,1.61283 0.03768,0.48988 0.09797,0.92698 0.211021,1.39425 0.113049,0.46727 0.278851,0.96468 0.459729,1.46209 0.180878,0.49742 0.376827,0.99483 0.572777,1.49224 M 21.479141,190.3278 c -0.331609,-0.18088 -0.663214,-0.36175 -0.972216,-0.55771 -0.309002,-0.19595 -0.595386,-0.40697 -0.851629,-0.64814 -0.256243,-0.24117 -0.482334,-0.51248 -0.663213,-0.81395 -0.180879,-0.30146 -0.316534,-0.63306 -0.406973,-0.89684 -0.09044,-0.26378 -0.135658,-0.45973 -0.301466,-0.64061 -0.165807,-0.18088 -0.45219,-0.34668 -0.896851,-0.58785 -0.444661,-0.24117 -1.047574,-0.5577 -1.688186,-1.02497 -0.640613,-0.46727 -1.31889,-1.08526 -1.793694,-1.76355 -0.474803,-0.6783 -0.746114,-1.41687 -0.889308,-1.99718 -0.143193,-0.58032 -0.158267,-1.00236 -0.09044,-1.37919 0.06783,-0.37683 0.218557,-0.70843 0.143188,-1.11541 -0.07537,-0.40698 -0.376825,-0.88931 -0.693363,-1.37919 -0.316538,-0.48988 -0.648138,-0.98728 -1.009895,-1.5676 -0.361757,-0.58032 -0.753648,-1.24352 -0.926993,-1.55253 -0.173346,-0.309 -0.128137,-0.26379 -0.271324,-0.71598 -0.143188,-0.45219 -0.4747906,-1.40178 -0.6481274,-1.89918 -0.1733369,-0.4974 -0.1884039,-0.5426 -0.3014599,-1.13048 -0.113056,-0.58788 -0.3240755,-1.71834 -0.4446612,-2.33634 -0.1205856,-0.618 -0.1507311,-0.72351 -0.203487,-1.27368 -0.052756,-0.55018 -0.1281195,-1.54498 -0.180875,-2.10269 -0.052755,-0.5577 -0.082903,-0.67829 -0.1055124,-1.27368 -0.022609,-0.5954 -0.037683,-1.66557 -0.015073,-2.69808 0.02261,-1.03252 0.082902,-2.02733 0.1356579,-3.05231 0.052756,-1.02498 0.097975,-2.08007 0.2185611,-3.05229 0.1205865,-0.97222 0.3165335,-1.86152 0.6179995,-2.72069 0.3014661,-0.85918 0.7084297,-1.68818 0.9345259,-2.20067 0.226096,-0.51248 0.271316,-0.70843 0.218558,-1.00236 -0.05276,-0.29393 -0.203485,-0.68582 -0.256241,-0.97975 -0.05276,-0.29392 -0.0075,-0.48987 0.13566,-0.91946 0.143197,-0.42959 0.384361,-1.09279 0.685827,-1.95951 0.301466,-0.86671 0.663211,-1.93687 0.994823,-3.02215 0.331611,-1.08527 0.633065,-2.18558 0.813943,-2.83372 0.180877,-0.64815 0.24117,-0.8441 0.39944,-1.27369 0.158271,-0.42959 0.414508,-1.09279 0.663215,-1.6505 0.248707,-0.5577 0.489874,-1.00989 0.74612,-1.37918 0.256245,-0.3693 0.527553,-0.65568 0.874238,-0.88932 0.346685,-0.23363 0.768722,-0.4145 1.228459,-0.46726 0.459737,-0.0528 0.957133,0.0226 1.349034,0.0829 0.391902,0.0603 0.678282,0.10551 1.258608,0.13565 0.580326,0.0301 1.454545,0.0452 2.509676,0.098 1.05513,0.0528 2.291094,0.14319 3.519563,0.22609 1.22847,0.0829 2.449363,0.15827 3.707978,0.26379 1.258616,0.10551 2.554875,0.24116 3.941612,0.35421 1.386737,0.11305 2.863872,0.20349 4.514392,0.309 1.650521,0.10552 3.474328,0.2261 5.049478,0.33914 1.57515,0.11305 2.901555,0.21856 4.29583,0.35422 1.394274,0.13566 2.856334,0.30146 4.356121,0.48234 1.499787,0.18088 3.037211,0.37683 4.333507,0.54263 1.296295,0.16581 2.351389,0.30146 3.361295,0.43712 1.009907,0.13566 1.974565,0.27131 3.316086,0.46727 1.341521,0.19595 3.059819,0.45219 4.853533,0.72351 1.793715,0.27132 3.662741,0.5577 5.433844,0.85163 1.771104,0.29393 3.444183,0.59538 4.989188,0.82148 1.545005,0.22609 2.961847,0.37682 4.303363,0.56524 1.341517,0.18841 2.60763,0.4145 3.828562,0.61045 1.220932,0.19596 2.396609,0.36176 3.459271,0.51249 1.062661,0.15073 2.012246,0.28639 2.630248,0.36929 0.618003,0.0829 0.904381,0.11303 1.190766,0.14316"
       id="path1"
       inkscape:path-effect="#path-effect1"
       inkscape:original-d="m 183.0475,183.45448 c 0.4522,-0.18088 0.90439,-0.36175 0,0 z m -41.55648,8.32034 c 2e-5,-0.2261 4e-5,-0.45219 0,0 z m 0,0.0452 c 2e-5,-0.24117 4e-5,-0.48234 0,0 z m -92.789893,-3.02967 c 0.572777,0 1.145553,0 0,0 z m -27.221986,1.53745 c 0.422047,0.1658 1.266139,0.49741 1.266139,0.49741 0,0 1.944427,0.45216 1.944427,0.45216 0,0 0.271312,0.27131 0.406973,0.40697 0.844092,0.0151 1.688168,0.0301 2.532278,0.0452 1.009896,0.0453 2.019772,0.0905 3.029689,0.13566 0.964677,-0.0453 1.929335,-0.0905 2.894032,-0.13566 0.452192,-0.0754 0.904376,-0.1507 1.356577,-0.2261 0.120585,-0.76873 0.241167,-1.53744 0.361754,-2.30618 0.01507,-0.24117 0.03015,-0.48233 0.04522,-0.72351 0.542631,-0.0301 1.085251,-0.0603 1.627893,-0.0904 0.241169,-0.0151 0.482333,-0.0301 0.723507,-0.0452 0.01507,0.3919 0.03015,0.7838 0.04522,1.17571 0,0.3919 -1e-6,0.78379 -1e-6,1.1757 0.01507,0.30146 0.03015,0.60291 0.04522,0.90438 1.145555,0.2261 2.291086,0.45219 3.436663,0.67829 0.889312,0.0453 1.778606,0.0905 2.667936,0.13566 0.889311,-0.10551 1.778605,-0.21102 2.667935,-0.31654 0.497412,-0.13566 0.994813,-0.27131 1.492235,-0.40697 0.150731,-0.5577 0.301459,-1.1154 0.452193,-1.67311 0.06029,-0.40698 0.120587,-0.81394 0.180877,-1.22092 0.587849,0 1.175687,0 1.763549,0 0.01507,0 0.03015,0 0.04522,0 0.271316,0.0453 0.542626,0.0905 0.813947,0.13566 -0.01507,0.61799 -0.03015,1.23597 -0.04522,1.85398 0,0.27132 0,0.54263 0,0.81395 0.437119,0.2864 0.874229,0.57279 1.311357,0.85919 1.673112,0.0151 3.34619,0.0301 5.019336,0.0452 0.97975,-0.0603 1.959481,-0.12058 2.939251,-0.18088 0.422046,-0.13566 0.844084,-0.27131 1.266139,-0.40697 0.01507,-0.48234 0.03015,-0.96467 0.04522,-1.44702 0.01507,-0.40697 0.03015,-0.81394 0.04522,-1.22092 0.180877,0 0.36175,0 0.542631,0 0.572777,0 1.145543,0 1.718331,0 0.19595,0.18088 0.58785,0.54263 0.58785,0.54263 0,0 0.03015,0.0905 0.04522,0.13566 0,0.49741 0,0.99481 0,1.49223 0.04522,0.30147 0.09044,0.60292 0.135657,0.90439 1.627893,-0.0453 3.255753,-0.0905 4.883679,-0.13566 1.537454,-0.19595 3.074878,-0.3919 4.612363,-0.58785 1.205846,-0.1658 2.411669,-0.3316 3.617539,-0.49741 2.59257,-0.0453 5.185089,-0.0905 7.777711,-0.13566 1.778623,-0.0603 3.55721,-0.1206 5.335869,-0.1809 0.03015,-0.0151 0.06029,-0.0301 0.09044,-0.0452 0.934531,0.0301 1.869043,0.0603 2.803593,0.0904 1.145554,0.0453 2.291086,0.0905 3.436663,0.13566 0.708441,-0.0301 1.416868,-0.0603 2.125323,-0.0904 0.120585,0 0.241167,0 0.361754,0 0.03015,-0.24117 0.06029,-0.48233 0.09044,-0.72351 0.0151,-0.13565 0.0301,-0.27131 0.0452,-0.40697 0.81395,0.0453 1.62788,0.0905 2.44184,0.13566 0.22609,0.0453 0.45219,0.0905 0.67829,0.13566 0.0151,0.24116 0.0301,0.48232 0.0452,0.72349 -0.0151,0.18088 -0.0301,0.36176 -0.0452,0.54264 1.98964,0.13565 3.97925,0.27131 5.96894,0.40697 0.33161,0.0151 0.66323,0.0301 0.99485,0.0452 0.0904,-0.3919 0.18092,-0.78379 0.27132,-1.1757 0.0301,-0.13566 0.0603,-0.27131 0.0904,-0.40698 0.66322,-0.0151 1.32642,-0.0301 1.98965,-0.0452 0.19595,-0.0151 0.3919,-0.0301 0.58785,-0.0452 0.0603,0.51246 0.12062,1.02492 0.18092,1.53739 0.0301,0.18088 0.0603,0.36175 0.0904,0.54263 3.01461,0.0453 6.02917,0.0905 9.04385,0.13566 0.3316,-0.0301 0.6632,-0.0603 0.99482,-0.0904 0,-0.45219 0,-0.90438 0,-1.35658 0.0453,-0.24117 0.0905,-0.48233 0.13566,-0.7235 0.76874,-0.0151 1.53746,-0.0301 2.30622,-0.0452 0.13566,0 0.27131,0 0.40697,0 0.0301,0.42204 0.0603,0.84407 0.0904,1.26612 0.0453,0.30146 0.0905,0.60291 0.13566,0.90438 1.41687,0 2.83371,0 4.25061,0 1.04004,-0.0151 2.08006,-0.0301 3.12012,-0.0452 1.40179,-0.0603 2.80354,-0.12058 4.20535,-0.18088 1.14556,-0.10551 2.29109,-0.21102 3.43667,-0.31653 -0.0151,0.0754 -0.0301,0.1507 -0.0452,0.2261 0.0151,-0.27132 0.0302,-0.54263 0.0453,-0.81395 0.0151,0.21102 0.0301,0.42204 0.0452,0.63307 -0.0151,-0.21102 -0.0301,-0.42204 -0.0452,-0.63307 0.0151,-0.37683 0.0301,-0.75365 0.0452,-1.13048 0.0301,-0.12059 0.0603,-0.24117 0.0904,-0.36176 0.58785,-0.0451 1.17569,-0.0905 1.76355,-0.13565 0.33161,0 0.66321,0 0.99482,0 0.0904,0.49741 0.18091,0.99481 0.27131,1.49223 0,0.19595 0,0.3919 0,0.58785 1.26614,-0.0904 2.53226,-0.18091 3.79842,-0.27131 1.3415,-0.16581 2.68298,-0.33161 4.02451,-0.49742 1.68819,-0.24117 3.37634,-0.48233 5.06456,-0.7235 1.65804,-0.33161 3.31604,-0.66321 4.97412,-0.99483 1.59774,-0.34668 3.19546,-0.69335 4.79324,-1.04004 1.37165,-0.37683 2.74327,-0.75365 4.11495,-1.13048 1.11541,-0.34668 2.23079,-0.69336 3.34622,-1.04004 1.19077,-0.4522 2.38152,-0.90438 3.57232,-1.35658 0.51249,-0.37683 1.02496,-0.75365 1.53746,-1.13048 0.75365,-0.21102 1.50729,-0.42204 2.26096,-0.63307 0.21102,0.18088 0.42204,0.36175 0.63307,0.54263 0.54263,-0.12058 1.08525,-0.24116 1.62789,-0.36175 0.96468,-0.43712 1.92934,-0.87423 2.89403,-1.31136 0.79888,-0.34668 1.59773,-0.69336 2.39662,-1.04005 1.16063,-0.63306 2.32123,-1.26612 3.48188,-1.8992 0.93453,-0.49741 1.86905,-0.99482 2.8036,-1.49224 0.33161,-0.12058 0.66321,-0.24117 0.99482,-0.36175 0.58785,-0.40698 1.17569,-0.81394 1.76355,-1.22092 0.51249,-0.48234 1.02496,-0.96467 1.53746,-1.44702 0.37682,-0.51248 0.75364,-1.02496 1.13048,-1.53745 0.12058,-0.3919 0.24116,-0.78379 0.36175,-1.1757 0.0603,-0.3919 0.12058,-0.78379 0.18088,-1.1757 -0.0904,-0.45219 -0.18092,-0.90438 -0.27132,-1.35658 -0.10551,-0.25624 -0.21102,-0.51248 -0.31653,-0.76873 0.25624,-0.52755 0.51247,-1.0551 0.76872,-1.58267 0.16581,-0.48234 0.33161,-0.96467 0.49742,-1.44702 0.0754,-0.54263 0.15069,-1.08525 0.22609,-1.62789 -0.10551,-0.7838 -0.21102,-1.56758 -0.31653,-2.3514 -0.15073,-0.81395 -0.30146,-1.62788 -0.45219,-2.44184 -0.42205,-0.78381 -0.84409,-1.5676 -1.26614,-2.35142 -0.55771,-0.3919 -1.1154,-0.78379 -1.67312,-1.1757 -0.58785,-0.27132 -1.17568,-0.54263 -1.76355,-0.81395 -0.48233,-0.13565 -0.96466,-0.27131 -1.44701,-0.40697 -0.70844,-0.0151 -1.41686,-0.0301 -2.12531,-0.0452 -1.28121,2e-5 -2.56239,4e-5 -3.84363,6e-5 -0.27132,0.0453 -0.54263,0.0905 -0.81395,0.13566 -1.59775,0.0151 -3.19546,0.0301 -4.79324,0.0452 -1.35658,0.0151 -2.71313,0.0301 -4.06973,0.0452 -1.91428,0.0151 -3.82853,0.0301 -5.74284,0.0452 -0.15074,-0.0453 -0.30146,-0.0905 -0.4522,-0.13566 -1.49223,-0.13566 -2.98444,-0.27131 -4.4767,-0.40698 -1.4018,-0.15073 -2.80357,-0.30145 -4.20539,-0.45219 -1.07019,-0.13566 -2.14036,-0.27131 -3.21057,-0.40697 -1.19077,-0.19595 -2.38152,-0.3919 -3.57232,-0.58785 -1.50731,-0.34668 -3.01459,-0.69336 -4.52192,-1.04004 -0.93453,-0.27132 -1.86905,-0.54263 -2.8036,-0.81395 -0.87424,-0.19595 -1.74846,-0.3919 -2.62271,-0.58785 -1.10034,-0.28639 -2.20065,-0.57277 -3.30101,-0.85917 -1.08526,-0.3316 -2.1705,-0.6632 -3.25578,-0.99482 -1.44702,-0.51248 -2.89401,-1.02496 -4.34105,-1.53745 -0.88931,-0.31654 -1.77861,-0.63307 -2.66794,-0.94961 -0.69336,-0.24117 -1.38671,-0.48233 -2.08008,-0.72351 -0.79887,-0.31653 -1.59773,-0.63306 -2.39662,-0.9496 -0.75365,-0.25624 -1.50729,-0.51248 -2.26096,-0.76873 -0.64814,-0.28639 -1.29628,-0.57277 -1.94443,-0.85916 -0.7838,-0.28639 -1.56758,-0.57278 -2.3514,-0.85917 -0.91946,-0.36175 -1.8389,-0.7235 -2.75838,-1.08526 -1.08526,-0.42205 -2.1705,-0.84408 -3.25578,-1.26614 -0.97975,-0.37683 -1.95948,-0.75365 -2.93925,-1.13048 -0.93453,-0.3919 -1.86905,-0.78379 -2.8036,-1.1757 -0.85916,-0.30146 -1.71831,-0.60292 -2.57749,-0.90439 -0.69336,-0.25624 -1.38671,-0.51247 -2.08009,-0.76872 -1.07019,-0.37683 -2.14035,-0.75365 -3.21056,-1.13048 -1.07019,-0.3919 -2.14036,-0.7838 -3.21057,-1.1757 -1.10034,-0.40698 -2.200649,-0.81394 -3.301006,-1.22092 -0.994823,-0.33161 -1.989626,-0.66321 -2.98447,-0.99483 -0.708434,-0.2864 -1.416855,-0.57279 -2.125304,-0.8592 -0.241169,-0.0301 -0.482333,-0.0603 -0.723507,-0.0904 -0.19595,0.33161 -0.391896,0.66321 -0.58785,0.99482 0.04522,0.43712 0.09044,0.87423 0.135657,1.31136 -0.03015,0.49741 -0.06029,0.99482 -0.09044,1.49224 0.01507,0.42204 0.03015,0.84408 0.04522,1.26613 -0.01507,0.618 -0.03015,1.23598 -0.04522,1.85399 0.01507,0.54263 0.03015,1.08526 0.04522,1.6279 0.06029,0.43712 0.120587,0.87422 0.180877,1.31135 0.165804,0.49741 0.331602,0.99482 0.497411,1.49224 0.195951,0.49741 0.391899,0.99482 0.587849,1.49223 M 21.479141,190.3278 c -0.331608,-0.18088 -0.663215,-0.36175 -0.994823,-0.54263 -0.286394,-0.21103 -0.572777,-0.42205 -0.859166,-0.63307 -0.2261,-0.27132 -0.452192,-0.54263 -0.678288,-0.81395 -0.135661,-0.33161 -0.271316,-0.66321 -0.406974,-0.99482 -0.04522,-0.19595 -0.09044,-0.3919 -0.135657,-0.58785 -0.286395,-0.16581 -0.572777,-0.33161 -0.859166,-0.49741 -0.602935,-0.31654 -1.205847,-0.63307 -1.80877,-0.9496 -0.678302,-0.61801 -1.356577,-1.236 -2.034866,-1.85399 -0.271321,-0.7386 -0.542631,-1.47717 -0.813946,-2.21575 -0.01507,-0.42205 -0.03015,-0.84409 -0.04522,-1.26614 0.150733,-0.33161 0.301461,-0.66321 0.452192,-0.99482 -0.301468,-0.48235 -0.602923,-0.96468 -0.904385,-1.44701 -0.331614,-0.49743 -0.663215,-0.99483 -0.994823,-1.49224 -0.391908,-0.66323 -0.7838,-1.32643 -1.1757,-1.98965 0.04522,0.0452 0.09044,0.0904 0.135658,0.13566 -0.331614,-0.94962 -0.6632155,-1.89921 -0.9948233,-2.84881 -0.015073,-0.0452 -0.030146,-0.0904 -0.045219,-0.13566 -0.2110274,-1.1305 -0.4220465,-2.26096 -0.6330697,-3.39144 -0.030147,-0.10552 -0.060293,-0.21103 -0.090439,-0.31654 -0.075367,-0.99484 -0.1507305,-1.98964 -0.2260957,-2.98447 -0.030147,-0.12058 -0.060292,-0.24117 -0.090438,-0.36175 -0.015073,-1.07021 -0.030146,-2.14038 -0.04522,-3.21057 0.060293,-0.99484 0.1205847,-1.98965 0.180877,-2.98447 0.04522,-1.05514 0.090439,-2.11023 0.135658,-3.16534 0.195954,-0.88933 0.3919001,-1.77863 0.5878502,-2.66794 0.4069813,-0.82904 0.8139463,-1.65804 1.2209195,-2.48706 0.04522,-0.19595 0.09044,-0.3919 0.135658,-0.58785 -0.150734,-0.39191 -0.301462,-0.7838 -0.452193,-1.1757 0.04522,-0.19595 0.09044,-0.3919 0.135658,-0.58785 0.241174,-0.66323 0.482339,-1.32643 0.723508,-1.98965 0.361761,-1.07021 0.723508,-2.14037 1.085262,-3.21056 0.301468,-1.10036 0.602923,-2.20067 0.904385,-3.30101 0.06029,-0.19595 0.120584,-0.3919 0.180877,-0.58785 0.256247,-0.66323 0.512485,-1.32643 0.768727,-1.98964 0.241174,-0.4522 0.482339,-0.90439 0.723508,-1.35658 0.271321,-0.2864 0.542631,-0.57278 0.813946,-0.85917 0.422055,-0.18088 0.844093,-0.36175 1.266139,-0.54263 0.497422,0.0754 0.994823,0.15073 1.492235,0.2261 0.286394,0.0452 0.572777,0.0904 0.859166,0.13566 0.874256,0.0151 1.748477,0.0301 2.622716,0.0452 1.236017,0.0905 2.471985,0.18088 3.707978,0.27132 1.220944,0.0754 2.441839,0.15073 3.662759,0.2261 1.296311,0.13566 2.59257,0.27131 3.888855,0.40697 1.477192,0.0904 2.954324,0.18088 4.431486,0.27132 1.823879,0.12058 3.647686,0.24116 5.471529,0.36175 1.326457,0.10551 2.652862,0.21102 3.979293,0.31653 1.462118,0.16581 2.924178,0.33161 4.386267,0.49742 1.537485,0.19595 3.074909,0.3919 4.612363,0.58785 1.055137,0.13566 2.110231,0.27131 3.165347,0.40697 0.964697,0.13566 1.929355,0.27131 2.894032,0.40697 1.718365,0.25625 3.436662,0.51249 5.154994,0.76873 1.869099,0.28639 3.738124,0.57278 5.607186,0.85917 1.673146,0.30146 3.346224,0.60292 5.019336,0.90438 1.416898,0.15073 2.83374,0.30146 4.250609,0.45219 1.266164,0.2261 2.532278,0.45219 3.798417,0.67829 1.175724,0.16581 2.351401,0.33161 3.527101,0.49741 0.949623,0.13566 1.899208,0.27132 2.848812,0.40698 0.286394,0.0302 0.572776,0.0603 0.859164,0.0904"
       inkscape:label="path1"
       transform="translate(0.52916667)" /><path
       style="fill:#000000;fill-opacity:0.0151007;stroke:#000000;stroke-width:0.264583px;stroke-linecap:butt;stroke-linejoin:miter;stroke-opacity:1"
       d="m 183.0475,183.45448 z m -41.55648,8.32034 z m 0,0.0452 z m -92.789893,-3.02967 z m -27.221986,1.53745 c 0.422046,0.1658 0.844093,0.33161 1.266139,0.49741 0,0 1.944427,0.45216 1.944427,0.45216 0.135658,0.13566 0.271312,0.27131 0.761189,0.34667 0.489877,0.0754 1.333951,0.0904 2.260956,0.12058 0.927006,0.0301 1.936881,0.0754 2.924178,0.0754 0.987298,0 1.951955,-0.0452 2.660401,-0.10551 0.708445,-0.0603 1.160619,-0.13566 1.447015,-0.55771 0.286395,-0.42205 0.406977,-1.19076 0.474807,-1.69571 0.06783,-0.50496 0.0829,-0.74612 0.361755,-0.88178 0.278851,-0.13565 0.821475,-0.16579 1.21338,-0.18839 0.391906,-0.0226 0.633066,-0.0377 0.761191,0.15075 0.128124,0.18842 0.143197,0.58032 0.150734,0.97223 0.0075,0.3919 0.0075,0.78379 0.01507,1.13047 0.0075,0.34669 0.02261,0.64814 0.602924,0.91192 0.580315,0.26379 1.725845,0.48988 2.743292,0.62554 1.017446,0.13566 1.906739,0.18088 2.796058,0.15073 0.889319,-0.0301 1.778612,-0.13565 2.471984,-0.25624 0.693372,-0.12059 1.190772,-0.25624 1.514848,-0.60292 0.324076,-0.34668 0.474806,-0.90438 0.580319,-1.38672 0.105513,-0.48235 0.165804,-0.88931 0.489875,-1.0928 0.324071,-0.20349 0.911909,-0.20349 1.213375,-0.20349 0.301466,0 0.316546,0 0.459745,0.0226 0.1432,0.0226 0.414507,0.0678 0.542626,0.39944 0.128119,0.3316 0.113046,0.94958 0.105509,1.39425 -0.0075,0.44466 -0.0075,0.71597 0.211023,0.99483 0.218561,0.27886 0.65567,0.56525 1.71079,0.71598 1.055119,0.15074 2.728197,0.1658 4.054645,0.14319 1.326448,-0.0226 2.306179,-0.0829 3.007087,-0.18088 0.700909,-0.098 1.122946,-0.23363 1.34151,-0.54263 0.218564,-0.309 0.233637,-0.79133 0.248711,-1.23599 0.01507,-0.44466 0.03015,-0.85163 0.128122,-1.05512 0.09797,-0.20349 0.278848,-0.20349 0.655677,-0.20349 0.376829,0 0.949595,0 1.333965,0.0904 0.38437,0.0904 0.580318,0.27131 0.776268,0.45219 0.01507,0.0452 0.03017,0.0905 0.03769,0.36178 0.0075,0.27129 0.0075,0.76869 0.03014,1.16814 0.02261,0.39944 0.06783,0.70089 0.904385,0.82902 0.836557,0.12812 2.464417,0.0829 4.047106,-0.0377 1.582689,-0.12059 3.120113,-0.31654 4.491779,-0.49741 1.371665,-0.18088 2.577488,-0.34668 4.476708,-0.4522 1.899221,-0.10551 4.49174,-0.15073 6.677362,-0.20349 2.185622,-0.0528 3.964209,-0.11306 4.86862,-0.15075 0.904411,-0.0377 0.934525,-0.0527 1.416872,-0.0452 0.482346,0.008 1.41686,0.0377 2.456913,0.0753 1.040053,0.0377 2.185584,0.0829 3.112591,0.0904 0.927008,0.008 1.635437,-0.0226 2.049957,-0.0376 0.414519,-0.0151 0.535101,-0.0151 0.610468,-0.13566 0.07537,-0.12058 0.105512,-0.36174 0.12812,-0.55016 0.0226,-0.18841 0.0377,-0.32407 0.45218,-0.36929 0.41451,-0.0452 1.22844,0 1.74847,0.0452 0.52004,0.0452 0.74613,0.0904 0.86671,0.23363 0.12058,0.14319 0.13564,0.38435 0.13564,0.59538 0,0.21102 -0.0151,0.3919 0.97222,0.55017 0.98729,0.15827 2.9769,0.29392 4.13755,0.36928 1.16065,0.0754 1.49227,0.0904 1.7033,-0.098 0.21103,-0.18841 0.30147,-0.58032 0.36176,-0.8441 0.0603,-0.26377 0.0904,-0.39944 0.43709,-0.4748 0.34668,-0.0754 1.00988,-0.0904 1.43947,-0.1055 0.42959,-0.0151 0.62554,-0.0301 0.75367,0.21856 0.12813,0.2487 0.18843,0.76116 0.23365,1.10783 0.0452,0.34667 0.0754,0.52756 1.59773,0.6406 1.52237,0.11305 4.53693,0.15827 6.21007,0.16581 1.67314,0.008 2.00474,-0.0226 2.17055,-0.26375 0.16581,-0.24116 0.16581,-0.69335 0.18842,-1.04004 0.0226,-0.34669 0.0678,-0.58785 0.47481,-0.71596 0.40698,-0.12812 1.1757,-0.14318 1.62791,-0.15072 0.45221,-0.008 0.58786,-0.008 0.67076,0.20349 0.0829,0.21102 0.11303,0.63305 0.1507,0.99481 0.0377,0.36176 0.0829,0.66321 0.81394,0.81394 0.73105,0.15073 2.14789,0.15073 3.37636,0.1432 1.22847,-0.008 2.26849,-0.0226 3.48941,-0.0603 1.22093,-0.0377 2.62268,-0.098 3.89636,-0.18088 1.27369,-0.0829 2.41922,-0.18841 2.98447,-0.20346 0.56526,-0.0151 0.5502,0.0602 0.55022,-0.0377 1e-5,-0.098 0.0151,-0.36927 0.0302,-0.39942 0.0151,-0.0302 0.0301,0.18087 0.0301,0.18087 0,10e-6 -0.0151,-0.21101 -0.0151,-0.50494 0,-0.29393 0.0151,-0.67075 0.0377,-0.91946 0.0226,-0.2487 0.0527,-0.3693 0.36172,-0.4522 0.30899,-0.0829 0.89685,-0.12811 1.35658,-0.15072 0.45973,-0.0226 0.79133,-0.0226 1.00235,0.22609 0.21103,0.2487 0.30146,0.74612 0.34668,1.0928 0.0452,0.34668 0.0452,0.54263 0.67829,0.59539 0.63307,0.0528 1.89919,-0.0377 3.20302,-0.1658 1.30383,-0.12813 2.64531,-0.29393 4.16017,-0.49742 1.51486,-0.20349 3.20301,-0.44465 4.87614,-0.73104 1.67313,-0.28639 3.33113,-0.61799 4.95904,-0.95714 1.62791,-0.33915 3.22563,-0.68582 4.71035,-1.04758 1.48471,-0.36176 2.85633,-0.73858 4.09988,-1.10033 1.24354,-0.36176 2.35892,-0.70843 3.51202,-1.10787 1.1531,-0.39944 2.34385,-0.85163 3.1955,-1.26614 0.85164,-0.41452 1.36411,-0.79134 1.99719,-1.08526 0.63307,-0.29393 1.38671,-0.50495 1.86906,-0.52003 0.48234,-0.0151 0.69336,0.1658 1.07019,0.19595 0.37683,0.0301 0.91945,-0.0904 1.67311,-0.36929 0.75366,-0.27885 1.71832,-0.71596 2.6001,-1.10787 0.88179,-0.39191 1.68064,-0.73858 2.6604,-1.22846 0.97976,-0.48988 2.14036,-1.12293 3.18795,-1.68818 1.04759,-0.56524 1.98211,-1.06265 2.61519,-1.37165 0.63308,-0.309 0.96468,-0.42959 1.42441,-0.69337 0.45973,-0.26378 1.04757,-0.67074 1.59774,-1.1154 0.55018,-0.44466 1.06265,-0.92699 1.50731,-1.4244 0.44466,-0.49742 0.82149,-1.0099 1.07019,-1.46209 0.24871,-0.4522 0.36929,-0.84409 0.45973,-1.23599 0.0904,-0.39191 0.15074,-0.7838 0.13566,-1.20585 -0.0151,-0.42204 -0.10551,-0.87425 -0.20348,-1.22846 -0.098,-0.35422 -0.20349,-0.61046 -0.12813,-1.00236 0.0754,-0.3919 0.3316,-0.91945 0.54263,-1.4244 0.21103,-0.50496 0.37683,-0.98729 0.49742,-1.49978 0.12058,-0.51249 0.19594,-1.05511 0.18087,-1.71833 -0.0151,-0.66322 -0.12058,-1.447 -0.2487,-2.24589 -0.12812,-0.79888 -0.27885,-1.61281 -0.56524,-2.4117 -0.28639,-0.79888 -0.70843,-1.58267 -1.19831,-2.17053 -0.48988,-0.58786 -1.04757,-0.97975 -1.62036,-1.31136 -0.57278,-0.33162 -1.16061,-0.60293 -1.69571,-0.80641 -0.5351,-0.20349 -1.01743,-0.33915 -1.61283,-0.41451 -0.59539,-0.0754 -1.30381,-0.0904 -2.29864,-0.098 -0.99483,-0.008 -2.27601,-0.007 -3.0523,0.0151 -0.77628,0.0226 -1.04759,0.0678 -1.98212,0.098 -0.93453,0.0301 -2.53224,0.0452 -4.00942,0.0603 -1.47718,0.0151 -2.83373,0.0301 -4.46917,0.0452 -1.63544,0.0151 -3.54969,0.0301 -4.58223,0.0151 -1.03253,-0.0151 -1.18325,-0.0603 -2.00472,-0.15073 -0.82148,-0.0904 -2.31369,-0.2261 -3.76072,-0.36929 -1.44703,-0.1432 -2.8488,-0.29393 -4.0848,-0.43712 -1.23601,-0.1432 -2.30618,-0.27885 -3.43667,-0.44466 -1.13049,-0.1658 -2.32124,-0.36175 -3.6703,-0.63306 -1.34905,-0.27132 -2.85633,-0.61799 -4.07726,-0.927 -1.22093,-0.309 -2.15545,-0.58031 -3.05985,-0.81394 -0.90439,-0.23364 -1.77861,-0.42959 -2.76591,-0.67076 -0.98729,-0.24117 -2.0876,-0.52755 -3.18041,-0.83655 -1.09281,-0.30901 -2.17805,-0.64061 -3.4442,-1.06266 -1.26615,-0.42204 -2.71314,-0.93452 -3.88132,-1.34903 -1.16817,-0.41452 -2.05747,-0.73105 -2.84882,-1.0099 -0.79134,-0.27886 -1.48469,-0.52003 -2.23081,-0.79888 -0.74612,-0.27885 -1.54498,-0.59538 -2.32125,-0.88177 -0.77627,-0.28639 -1.52991,-0.54263 -2.23082,-0.81395 -0.7009,-0.27132 -1.34904,-0.5577 -2.06501,-0.84409 -0.71598,-0.28639 -1.49976,-0.57277 -2.3514,-0.89685 -0.85164,-0.32407 -1.77108,-0.68582 -2.77345,-1.07772 -1.00237,-0.39191 -2.08761,-0.81394 -3.12012,-1.21339 -1.03252,-0.39944 -2.01225,-0.77626 -2.9694,-1.16062 -0.95715,-0.38437 -1.89167,-0.77626 -2.78852,-1.12295 -0.89686,-0.34668 -1.75601,-0.64814 -2.53228,-0.92699 -0.77627,-0.27886 -1.46962,-0.53509 -2.3514,-0.85163 -0.88179,-0.31654 -1.95195,-0.69336 -3.02215,-1.07772 -1.0702,-0.38437 -2.14037,-0.77626 -3.22565,-1.1757 -1.08527,-0.39945 -2.185579,-0.80641 -3.233169,-1.1757 -1.04759,-0.3693 -2.042392,-0.7009 -2.894032,-1.00991 -0.851639,-0.30901 -1.560059,-0.5954 -2.034866,-0.75367 -0.474808,-0.15827 -0.71598,-0.18841 -0.934541,-0.0377 -0.21856,0.15074 -0.414507,0.48234 -0.489873,0.8667 -0.07537,0.38437 -0.03015,0.82148 -0.02261,1.28875 0.0075,0.46727 -0.02261,0.96468 -0.03015,1.42441 -0.0075,0.45973 0.0075,0.88177 0.0075,1.4018 0,0.52002 -0.01507,1.138 -0.01507,1.71832 0,0.58032 0.01507,1.12295 0.05276,1.61283 0.03768,0.48988 0.09797,0.92698 0.211021,1.39425 0.113049,0.46727 0.278851,0.96468 0.459729,1.46209 0.180878,0.49742 0.376827,0.99483 0.572777,1.49224 M 21.479141,190.3278 c -0.331609,-0.18088 -0.663214,-0.36175 -0.972216,-0.55771 -0.309002,-0.19595 -0.595386,-0.40697 -0.851629,-0.64814 -0.256243,-0.24117 -0.482334,-0.51248 -0.663213,-0.81395 -0.180879,-0.30146 -0.316534,-0.63306 -0.406973,-0.89684 -0.09044,-0.26378 -0.135658,-0.45973 -0.301466,-0.64061 -0.165807,-0.18088 -0.45219,-0.34668 -0.896851,-0.58785 -0.444661,-0.24117 -1.047574,-0.5577 -1.688186,-1.02497 -0.640613,-0.46727 -1.31889,-1.08526 -1.793694,-1.76355 -0.474803,-0.6783 -0.746114,-1.41687 -0.889308,-1.99718 -0.143193,-0.58032 -0.158267,-1.00236 -0.09044,-1.37919 0.06783,-0.37683 0.218557,-0.70843 0.143188,-1.11541 -0.07537,-0.40698 -0.376825,-0.88931 -0.693363,-1.37919 -0.316538,-0.48988 -0.648138,-0.98728 -1.009895,-1.5676 -0.361757,-0.58032 -0.753648,-1.24352 -0.926993,-1.55253 -0.173346,-0.309 -0.128137,-0.26379 -0.271324,-0.71598 -0.143188,-0.45219 -0.4747906,-1.40178 -0.6481274,-1.89918 -0.1733369,-0.4974 -0.1884039,-0.5426 -0.3014599,-1.13048 -0.113056,-0.58788 -0.3240755,-1.71834 -0.4446612,-2.33634 -0.1205856,-0.618 -0.1507311,-0.72351 -0.203487,-1.27368 -0.052756,-0.55018 -0.1281195,-1.54498 -0.180875,-2.10269 -0.052755,-0.5577 -0.082903,-0.67829 -0.1055124,-1.27368 -0.022609,-0.5954 -0.037683,-1.66557 -0.015073,-2.69808 0.02261,-1.03252 0.082902,-2.02733 0.1356579,-3.05231 0.052756,-1.02498 0.097975,-2.08007 0.2185611,-3.05229 0.1205865,-0.97222 0.3165335,-1.86152 0.6179995,-2.72069 0.3014661,-0.85918 0.7084297,-1.68818 0.9345259,-2.20067 0.226096,-0.51248 0.271316,-0.70843 0.218558,-1.00236 -0.05276,-0.29393 -0.203485,-0.68582 -0.256241,-0.97975 -0.05276,-0.29392 -0.0075,-0.48987 0.13566,-0.91946 0.143197,-0.42959 0.384361,-1.09279 0.685827,-1.95951 0.301466,-0.86671 0.663211,-1.93687 0.994823,-3.02215 0.331611,-1.08527 0.633065,-2.18558 0.813943,-2.83372 0.180877,-0.64815 0.24117,-0.8441 0.39944,-1.27369 0.158271,-0.42959 0.414508,-1.09279 0.663215,-1.6505 0.248707,-0.5577 0.489874,-1.00989 0.74612,-1.37918 0.256245,-0.3693 0.527553,-0.65568 0.874238,-0.88932 0.346685,-0.23363 0.768722,-0.4145 1.228459,-0.46726 0.459737,-0.0528 0.957133,0.0226 1.349034,0.0829 0.391902,0.0603 0.678282,0.10551 1.258608,0.13565 0.580326,0.0301 1.454545,0.0452 2.509676,0.098 1.05513,0.0528 2.291094,0.14319 3.519563,0.22609 1.22847,0.0829 2.449363,0.15827 3.707978,0.26379 1.258616,0.10551 2.554875,0.24116 3.941612,0.35421 1.386737,0.11305 2.863872,0.20349 4.514392,0.309 1.650521,0.10552 3.474328,0.2261 5.049478,0.33914 1.57515,0.11305 2.901555,0.21856 4.29583,0.35422 1.394274,0.13566 2.856334,0.30146 4.356121,0.48234 1.499787,0.18088 3.037211,0.37683 4.333507,0.54263 1.296295,0.16581 2.351389,0.30146 3.361295,0.43712 1.009907,0.13566 1.974565,0.27131 3.316086,0.46727 1.341521,0.19595 3.059819,0.45219 4.853533,0.72351 1.793715,0.27132 3.662741,0.5577 5.433844,0.85163 1.771104,0.29393 3.444183,0.59538 4.989188,0.82148 1.545005,0.22609 2.961847,0.37682 4.303363,0.56524 1.341517,0.18841 2.60763,0.4145 3.828562,0.61045 1.220932,0.19596 2.396609,0.36176 3.459271,0.51249 1.062661,0.15073 2.012246,0.28639 2.630248,0.36929 0.618003,0.0829 0.904381,0.11303 1.190766,0.14316"
       id="path5"
       inkscape:path-effect="#path-effect6"
       inkscape:original-d="m 183.0475,183.45448 c 0.4522,-0.18088 0.90439,-0.36175 0,0 z m -41.55648,8.32034 c 2e-5,-0.2261 4e-5,-0.45219 0,0 z m 0,0.0452 c 2e-5,-0.24117 4e-5,-0.48234 0,0 z m -92.789893,-3.02967 c 0.572777,0 1.145553,0 0,0 z m -27.221986,1.53745 c 0.422047,0.1658 1.266139,0.49741 1.266139,0.49741 0,0 1.944427,0.45216 1.944427,0.45216 0,0 0.271312,0.27131 0.406973,0.40697 0.844092,0.0151 1.688168,0.0301 2.532278,0.0452 1.009896,0.0453 2.019772,0.0905 3.029689,0.13566 0.964677,-0.0453 1.929335,-0.0905 2.894032,-0.13566 0.452192,-0.0754 0.904376,-0.1507 1.356577,-0.2261 0.120585,-0.76873 0.241167,-1.53744 0.361754,-2.30618 0.01507,-0.24117 0.03015,-0.48233 0.04522,-0.72351 0.542631,-0.0301 1.085251,-0.0603 1.627893,-0.0904 0.241169,-0.0151 0.482333,-0.0301 0.723507,-0.0452 0.01507,0.3919 0.03015,0.7838 0.04522,1.17571 0,0.3919 -1e-6,0.78379 -1e-6,1.1757 0.01507,0.30146 0.03015,0.60291 0.04522,0.90438 1.145555,0.2261 2.291086,0.45219 3.436663,0.67829 0.889312,0.0453 1.778606,0.0905 2.667936,0.13566 0.889311,-0.10551 1.778605,-0.21102 2.667935,-0.31654 0.497412,-0.13566 0.994813,-0.27131 1.492235,-0.40697 0.150731,-0.5577 0.301459,-1.1154 0.452193,-1.67311 0.06029,-0.40698 0.120587,-0.81394 0.180877,-1.22092 0.587849,0 1.175687,0 1.763549,0 0.01507,0 0.03015,0 0.04522,0 0.271316,0.0453 0.542626,0.0905 0.813947,0.13566 -0.01507,0.61799 -0.03015,1.23597 -0.04522,1.85398 0,0.27132 0,0.54263 0,0.81395 0.437119,0.2864 0.874229,0.57279 1.311357,0.85919 1.673112,0.0151 3.34619,0.0301 5.019336,0.0452 0.97975,-0.0603 1.959481,-0.12058 2.939251,-0.18088 0.422046,-0.13566 0.844084,-0.27131 1.266139,-0.40697 0.01507,-0.48234 0.03015,-0.96467 0.04522,-1.44702 0.01507,-0.40697 0.03015,-0.81394 0.04522,-1.22092 0.180877,0 0.36175,0 0.542631,0 0.572777,0 1.145543,0 1.718331,0 0.19595,0.18088 0.58785,0.54263 0.58785,0.54263 0,0 0.03015,0.0905 0.04522,0.13566 0,0.49741 0,0.99481 0,1.49223 0.04522,0.30147 0.09044,0.60292 0.135657,0.90439 1.627893,-0.0453 3.255753,-0.0905 4.883679,-0.13566 1.537454,-0.19595 3.074878,-0.3919 4.612363,-0.58785 1.205846,-0.1658 2.411669,-0.3316 3.617539,-0.49741 2.59257,-0.0453 5.185089,-0.0905 7.777711,-0.13566 1.778623,-0.0603 3.55721,-0.1206 5.335869,-0.1809 0.03015,-0.0151 0.06029,-0.0301 0.09044,-0.0452 0.934531,0.0301 1.869043,0.0603 2.803593,0.0904 1.145554,0.0453 2.291086,0.0905 3.436663,0.13566 0.708441,-0.0301 1.416868,-0.0603 2.125323,-0.0904 0.120585,0 0.241167,0 0.361754,0 0.03015,-0.24117 0.06029,-0.48233 0.09044,-0.72351 0.0151,-0.13565 0.0301,-0.27131 0.0452,-0.40697 0.81395,0.0453 1.62788,0.0905 2.44184,0.13566 0.22609,0.0453 0.45219,0.0905 0.67829,0.13566 0.0151,0.24116 0.0301,0.48232 0.0452,0.72349 -0.0151,0.18088 -0.0301,0.36176 -0.0452,0.54264 1.98964,0.13565 3.97925,0.27131 5.96894,0.40697 0.33161,0.0151 0.66323,0.0301 0.99485,0.0452 0.0904,-0.3919 0.18092,-0.78379 0.27132,-1.1757 0.0301,-0.13566 0.0603,-0.27131 0.0904,-0.40698 0.66322,-0.0151 1.32642,-0.0301 1.98965,-0.0452 0.19595,-0.0151 0.3919,-0.0301 0.58785,-0.0452 0.0603,0.51246 0.12062,1.02492 0.18092,1.53739 0.0301,0.18088 0.0603,0.36175 0.0904,0.54263 3.01461,0.0453 6.02917,0.0905 9.04385,0.13566 0.3316,-0.0301 0.6632,-0.0603 0.99482,-0.0904 0,-0.45219 0,-0.90438 0,-1.35658 0.0453,-0.24117 0.0905,-0.48233 0.13566,-0.7235 0.76874,-0.0151 1.53746,-0.0301 2.30622,-0.0452 0.13566,0 0.27131,0 0.40697,0 0.0301,0.42204 0.0603,0.84407 0.0904,1.26612 0.0453,0.30146 0.0905,0.60291 0.13566,0.90438 1.41687,0 2.83371,0 4.25061,0 1.04004,-0.0151 2.08006,-0.0301 3.12012,-0.0452 1.40179,-0.0603 2.80354,-0.12058 4.20535,-0.18088 1.14556,-0.10551 2.29109,-0.21102 3.43667,-0.31653 -0.0151,0.0754 -0.0301,0.1507 -0.0452,0.2261 0.0151,-0.27132 0.0302,-0.54263 0.0453,-0.81395 0.0151,0.21102 0.0301,0.42204 0.0452,0.63307 -0.0151,-0.21102 -0.0301,-0.42204 -0.0452,-0.63307 0.0151,-0.37683 0.0301,-0.75365 0.0452,-1.13048 0.0301,-0.12059 0.0603,-0.24117 0.0904,-0.36176 0.58785,-0.0451 1.17569,-0.0905 1.76355,-0.13565 0.33161,0 0.66321,0 0.99482,0 0.0904,0.49741 0.18091,0.99481 0.27131,1.49223 0,0.19595 0,0.3919 0,0.58785 1.26614,-0.0904 2.53226,-0.18091 3.79842,-0.27131 1.3415,-0.16581 2.68298,-0.33161 4.02451,-0.49742 1.68819,-0.24117 3.37634,-0.48233 5.06456,-0.7235 1.65804,-0.33161 3.31604,-0.66321 4.97412,-0.99483 1.59774,-0.34668 3.19546,-0.69335 4.79324,-1.04004 1.37165,-0.37683 2.74327,-0.75365 4.11495,-1.13048 1.11541,-0.34668 2.23079,-0.69336 3.34622,-1.04004 1.19077,-0.4522 2.38152,-0.90438 3.57232,-1.35658 0.51249,-0.37683 1.02496,-0.75365 1.53746,-1.13048 0.75365,-0.21102 1.50729,-0.42204 2.26096,-0.63307 0.21102,0.18088 0.42204,0.36175 0.63307,0.54263 0.54263,-0.12058 1.08525,-0.24116 1.62789,-0.36175 0.96468,-0.43712 1.92934,-0.87423 2.89403,-1.31136 0.79888,-0.34668 1.59773,-0.69336 2.39662,-1.04005 1.16063,-0.63306 2.32123,-1.26612 3.48188,-1.8992 0.93453,-0.49741 1.86905,-0.99482 2.8036,-1.49224 0.33161,-0.12058 0.66321,-0.24117 0.99482,-0.36175 0.58785,-0.40698 1.17569,-0.81394 1.76355,-1.22092 0.51249,-0.48234 1.02496,-0.96467 1.53746,-1.44702 0.37682,-0.51248 0.75364,-1.02496 1.13048,-1.53745 0.12058,-0.3919 0.24116,-0.78379 0.36175,-1.1757 0.0603,-0.3919 0.12058,-0.78379 0.18088,-1.1757 -0.0904,-0.45219 -0.18092,-0.90438 -0.27132,-1.35658 -0.10551,-0.25624 -0.21102,-0.51248 -0.31653,-0.76873 0.25624,-0.52755 0.51247,-1.0551 0.76872,-1.58267 0.16581,-0.48234 0.33161,-0.96467 0.49742,-1.44702 0.0754,-0.54263 0.15069,-1.08525 0.22609,-1.62789 -0.10551,-0.7838 -0.21102,-1.56758 -0.31653,-2.3514 -0.15073,-0.81395 -0.30146,-1.62788 -0.45219,-2.44184 -0.42205,-0.78381 -0.84409,-1.5676 -1.26614,-2.35142 -0.55771,-0.3919 -1.1154,-0.78379 -1.67312,-1.1757 -0.58785,-0.27132 -1.17568,-0.54263 -1.76355,-0.81395 -0.48233,-0.13565 -0.96466,-0.27131 -1.44701,-0.40697 -0.70844,-0.0151 -1.41686,-0.0301 -2.12531,-0.0452 -1.28121,2e-5 -2.56239,4e-5 -3.84363,6e-5 -0.27132,0.0453 -0.54263,0.0905 -0.81395,0.13566 -1.59775,0.0151 -3.19546,0.0301 -4.79324,0.0452 -1.35658,0.0151 -2.71313,0.0301 -4.06973,0.0452 -1.91428,0.0151 -3.82853,0.0301 -5.74284,0.0452 -0.15074,-0.0453 -0.30146,-0.0905 -0.4522,-0.13566 -1.49223,-0.13566 -2.98444,-0.27131 -4.4767,-0.40698 -1.4018,-0.15073 -2.80357,-0.30145 -4.20539,-0.45219 -1.07019,-0.13566 -2.14036,-0.27131 -3.21057,-0.40697 -1.19077,-0.19595 -2.38152,-0.3919 -3.57232,-0.58785 -1.50731,-0.34668 -3.01459,-0.69336 -4.52192,-1.04004 -0.93453,-0.27132 -1.86905,-0.54263 -2.8036,-0.81395 -0.87424,-0.19595 -1.74846,-0.3919 -2.62271,-0.58785 -1.10034,-0.28639 -2.20065,-0.57277 -3.30101,-0.85917 -1.08526,-0.3316 -2.1705,-0.6632 -3.25578,-0.99482 -1.44702,-0.51248 -2.89401,-1.02496 -4.34105,-1.53745 -0.88931,-0.31654 -1.77861,-0.63307 -2.66794,-0.94961 -0.69336,-0.24117 -1.38671,-0.48233 -2.08008,-0.72351 -0.79887,-0.31653 -1.59773,-0.63306 -2.39662,-0.9496 -0.75365,-0.25624 -1.50729,-0.51248 -2.26096,-0.76873 -0.64814,-0.28639 -1.29628,-0.57277 -1.94443,-0.85916 -0.7838,-0.28639 -1.56758,-0.57278 -2.3514,-0.85917 -0.91946,-0.36175 -1.8389,-0.7235 -2.75838,-1.08526 -1.08526,-0.42205 -2.1705,-0.84408 -3.25578,-1.26614 -0.97975,-0.37683 -1.95948,-0.75365 -2.93925,-1.13048 -0.93453,-0.3919 -1.86905,-0.78379 -2.8036,-1.1757 -0.85916,-0.30146 -1.71831,-0.60292 -2.57749,-0.90439 -0.69336,-0.25624 -1.38671,-0.51247 -2.08009,-0.76872 -1.07019,-0.37683 -2.14035,-0.75365 -3.21056,-1.13048 -1.07019,-0.3919 -2.14036,-0.7838 -3.21057,-1.1757 -1.10034,-0.40698 -2.200649,-0.81394 -3.301006,-1.22092 -0.994823,-0.33161 -1.989626,-0.66321 -2.98447,-0.99483 -0.708434,-0.2864 -1.416855,-0.57279 -2.125304,-0.8592 -0.241169,-0.0301 -0.482333,-0.0603 -0.723507,-0.0904 -0.19595,0.33161 -0.391896,0.66321 -0.58785,0.99482 0.04522,0.43712 0.09044,0.87423 0.135657,1.31136 -0.03015,0.49741 -0.06029,0.99482 -0.09044,1.49224 0.01507,0.42204 0.03015,0.84408 0.04522,1.26613 -0.01507,0.618 -0.03015,1.23598 -0.04522,1.85399 0.01507,0.54263 0.03015,1.08526 0.04522,1.6279 0.06029,0.43712 0.120587,0.87422 0.180877,1.31135 0.165804,0.49741 0.331602,0.99482 0.497411,1.49224 0.195951,0.49741 0.391899,0.99482 0.587849,1.49223 M 21.479141,190.3278 c -0.331608,-0.18088 -0.663215,-0.36175 -0.994823,-0.54263 -0.286394,-0.21103 -0.572777,-0.42205 -0.859166,-0.63307 -0.2261,-0.27132 -0.452192,-0.54263 -0.678288,-0.81395 -0.135661,-0.33161 -0.271316,-0.66321 -0.406974,-0.99482 -0.04522,-0.19595 -0.09044,-0.3919 -0.135657,-0.58785 -0.286395,-0.16581 -0.572777,-0.33161 -0.859166,-0.49741 -0.602935,-0.31654 -1.205847,-0.63307 -1.80877,-0.9496 -0.678302,-0.61801 -1.356577,-1.236 -2.034866,-1.85399 -0.271321,-0.7386 -0.542631,-1.47717 -0.813946,-2.21575 -0.01507,-0.42205 -0.03015,-0.84409 -0.04522,-1.26614 0.150733,-0.33161 0.301461,-0.66321 0.452192,-0.99482 -0.301468,-0.48235 -0.602923,-0.96468 -0.904385,-1.44701 -0.331614,-0.49743 -0.663215,-0.99483 -0.994823,-1.49224 -0.391908,-0.66323 -0.7838,-1.32643 -1.1757,-1.98965 0.04522,0.0452 0.09044,0.0904 0.135658,0.13566 -0.331614,-0.94962 -0.6632155,-1.89921 -0.9948233,-2.84881 -0.015073,-0.0452 -0.030146,-0.0904 -0.045219,-0.13566 -0.2110274,-1.1305 -0.4220465,-2.26096 -0.6330697,-3.39144 -0.030147,-0.10552 -0.060293,-0.21103 -0.090439,-0.31654 -0.075367,-0.99484 -0.1507305,-1.98964 -0.2260957,-2.98447 -0.030147,-0.12058 -0.060292,-0.24117 -0.090438,-0.36175 -0.015073,-1.07021 -0.030146,-2.14038 -0.04522,-3.21057 0.060293,-0.99484 0.1205847,-1.98965 0.180877,-2.98447 0.04522,-1.05514 0.090439,-2.11023 0.135658,-3.16534 0.195954,-0.88933 0.3919001,-1.77863 0.5878502,-2.66794 0.4069813,-0.82904 0.8139463,-1.65804 1.2209195,-2.48706 0.04522,-0.19595 0.09044,-0.3919 0.135658,-0.58785 -0.150734,-0.39191 -0.301462,-0.7838 -0.452193,-1.1757 0.04522,-0.19595 0.09044,-0.3919 0.135658,-0.58785 0.241174,-0.66323 0.482339,-1.32643 0.723508,-1.98965 0.361761,-1.07021 0.723508,-2.14037 1.085262,-3.21056 0.301468,-1.10036 0.602923,-2.20067 0.904385,-3.30101 0.06029,-0.19595 0.120584,-0.3919 0.180877,-0.58785 0.256247,-0.66323 0.512485,-1.32643 0.768727,-1.98964 0.241174,-0.4522 0.482339,-0.90439 0.723508,-1.35658 0.271321,-0.2864 0.542631,-0.57278 0.813946,-0.85917 0.422055,-0.18088 0.844093,-0.36175 1.266139,-0.54263 0.497422,0.0754 0.994823,0.15073 1.492235,0.2261 0.286394,0.0452 0.572777,0.0904 0.859166,0.13566 0.874256,0.0151 1.748477,0.0301 2.622716,0.0452 1.236017,0.0905 2.471985,0.18088 3.707978,0.27132 1.220944,0.0754 2.441839,0.15073 3.662759,0.2261 1.296311,0.13566 2.59257,0.27131 3.888855,0.40697 1.477192,0.0904 2.954324,0.18088 4.431486,0.27132 1.823879,0.12058 3.647686,0.24116 5.471529,0.36175 1.326457,0.10551 2.652862,0.21102 3.979293,0.31653 1.462118,0.16581 2.924178,0.33161 4.386267,0.49742 1.537485,0.19595 3.074909,0.3919 4.612363,0.58785 1.055137,0.13566 2.110231,0.27131 3.165347,0.40697 0.964697,0.13566 1.929355,0.27131 2.894032,0.40697 1.718365,0.25625 3.436662,0.51249 5.154994,0.76873 1.869099,0.28639 3.738124,0.57278 5.607186,0.85917 1.673146,0.30146 3.346224,0.60292 5.019336,0.90438 1.416898,0.15073 2.83374,0.30146 4.250609,0.45219 1.266164,0.2261 2.532278,0.45219 3.798417,0.67829 1.175724,0.16581 2.351401,0.33161 3.527101,0.49741 0.949623,0.13566 1.899208,0.27132 2.848812,0.40698 0.286394,0.0302 0.572776,0.0603 0.859164,0.0904"
       inkscape:label="path1"
       transform="translate(0.52916667)" /><path
       style="fill:#000000;fill-opacity:1;stroke:#000000;stroke-width:0.264583px;stroke-linecap:butt;stroke-linejoin:miter;stroke-opacity:1"
       d="m 183.0475,183.45448 z m -41.55648,8.32034 z m 0,0.0452 z m -92.789893,-3.02967 z m -27.221986,1.53745 c 0.422046,0.1658 0.844093,0.33161 1.266139,0.49741 0,0 1.944427,0.45216 1.944427,0.45216 0.135658,0.13566 0.271312,0.27131 0.761189,0.34667 0.489877,0.0754 1.333951,0.0904 2.260956,0.12058 0.927006,0.0301 1.936881,0.0754 2.924178,0.0754 0.987298,0 1.951955,-0.0452 2.660401,-0.10551 0.708445,-0.0603 1.160619,-0.13566 1.447015,-0.55771 0.286395,-0.42205 0.406977,-1.19076 0.474807,-1.69571 0.06783,-0.50496 0.0829,-0.74612 0.361755,-0.88178 0.278851,-0.13565 0.821475,-0.16579 1.21338,-0.18839 0.391906,-0.0226 0.633066,-0.0377 0.761191,0.15075 0.128124,0.18842 0.143197,0.58032 0.150734,0.97223 0.0075,0.3919 0.0075,0.78379 0.01507,1.13047 0.0075,0.34669 0.02261,0.64814 0.602924,0.91192 0.580315,0.26379 1.725845,0.48988 2.743292,0.62554 1.017446,0.13566 1.906739,0.18088 2.796058,0.15073 0.889319,-0.0301 1.778612,-0.13565 2.471984,-0.25624 0.693372,-0.12059 1.190772,-0.25624 1.514848,-0.60292 0.324076,-0.34668 0.474806,-0.90438 0.580319,-1.38672 0.105513,-0.48235 0.165804,-0.88931 0.489875,-1.0928 0.324071,-0.20349 0.911909,-0.20349 1.213375,-0.20349 0.301466,0 0.316546,0 0.459745,0.0226 0.1432,0.0226 0.414507,0.0678 0.542626,0.39944 0.128119,0.3316 0.113046,0.94958 0.105509,1.39425 -0.0075,0.44466 -0.0075,0.71597 0.211023,0.99483 0.218561,0.27886 0.65567,0.56525 1.71079,0.71598 1.055119,0.15074 2.728197,0.1658 4.054645,0.14319 1.326448,-0.0226 2.306179,-0.0829 3.007087,-0.18088 0.700909,-0.098 1.122946,-0.23363 1.34151,-0.54263 0.218564,-0.309 0.233637,-0.79133 0.248711,-1.23599 0.01507,-0.44466 0.03015,-0.85163 0.128122,-1.05512 0.09797,-0.20349 0.278848,-0.20349 0.655677,-0.20349 0.376829,0 0.949595,0 1.333965,0.0904 0.38437,0.0904 0.580318,0.27131 0.776268,0.45219 0.01507,0.0452 0.03017,0.0905 0.03769,0.36178 0.0075,0.27129 0.0075,0.76869 0.03014,1.16814 0.02261,0.39944 0.06783,0.70089 0.904385,0.82902 0.836557,0.12812 2.464417,0.0829 4.047106,-0.0377 1.582689,-0.12059 3.120113,-0.31654 4.491779,-0.49741 1.371665,-0.18088 2.577488,-0.34668 4.476708,-0.4522 1.899221,-0.10551 4.49174,-0.15073 6.677362,-0.20349 2.185622,-0.0528 3.964209,-0.11306 4.86862,-0.15075 0.904411,-0.0377 0.934525,-0.0527 1.416872,-0.0452 0.482346,0.008 1.41686,0.0377 2.456913,0.0753 1.040053,0.0377 2.185584,0.0829 3.112591,0.0904 0.927008,0.008 1.635437,-0.0226 2.049957,-0.0376 0.414519,-0.0151 0.535101,-0.0151 0.610468,-0.13566 0.07537,-0.12058 0.105512,-0.36174 0.12812,-0.55016 0.0226,-0.18841 0.0377,-0.32407 0.45218,-0.36929 0.41451,-0.0452 1.22844,0 1.74847,0.0452 0.52004,0.0452 0.74613,0.0904 0.86671,0.23363 0.12058,0.14319 0.13564,0.38435 0.13564,0.59538 0,0.21102 -0.0151,0.3919 0.97222,0.55017 0.98729,0.15827 2.9769,0.29392 4.13755,0.36928 1.16065,0.0754 1.49227,0.0904 1.7033,-0.098 0.21103,-0.18841 0.30147,-0.58032 0.36176,-0.8441 0.0603,-0.26377 0.0904,-0.39944 0.43709,-0.4748 0.34668,-0.0754 1.00988,-0.0904 1.43947,-0.1055 0.42959,-0.0151 0.62554,-0.0301 0.75367,0.21856 0.12813,0.2487 0.18843,0.76116 0.23365,1.10783 0.0452,0.34667 0.0754,0.52756 1.59773,0.6406 1.52237,0.11305 4.53693,0.15827 6.21007,0.16581 1.67314,0.008 2.00474,-0.0226 2.17055,-0.26375 0.16581,-0.24116 0.16581,-0.69335 0.18842,-1.04004 0.0226,-0.34669 0.0678,-0.58785 0.47481,-0.71596 0.40698,-0.12812 1.1757,-0.14318 1.62791,-0.15072 0.45221,-0.008 0.58786,-0.008 0.67076,0.20349 0.0829,0.21102 0.11303,0.63305 0.1507,0.99481 0.0377,0.36176 0.0829,0.66321 0.81394,0.81394 0.73105,0.15073 2.14789,0.15073 3.37636,0.1432 1.22847,-0.008 2.26849,-0.0226 3.48941,-0.0603 1.22093,-0.0377 2.62268,-0.098 3.89636,-0.18088 1.27369,-0.0829 2.41922,-0.18841 2.98447,-0.20346 0.56526,-0.0151 0.5502,0.0602 0.55022,-0.0377 1e-5,-0.098 0.0151,-0.36927 0.0302,-0.39942 0.0151,-0.0302 0.0301,0.18087 0.0301,0.18087 0,10e-6 -0.0151,-0.21101 -0.0151,-0.50494 0,-0.29393 0.0151,-0.67075 0.0377,-0.91946 0.0226,-0.2487 0.0527,-0.3693 0.36172,-0.4522 0.30899,-0.0829 0.89685,-0.12811 1.35658,-0.15072 0.45973,-0.0226 0.79133,-0.0226 1.00235,0.22609 0.21103,0.2487 0.30146,0.74612 0.34668,1.0928 0.0452,0.34668 0.0452,0.54263 0.67829,0.59539 0.63307,0.0528 1.89919,-0.0377 3.20302,-0.1658 1.30383,-0.12813 2.64531,-0.29393 4.16017,-0.49742 1.51486,-0.20349 3.20301,-0.44465 4.87614,-0.73104 1.67313,-0.28639 3.33113,-0.61799 4.95904,-0.95714 1.62791,-0.33915 3.22563,-0.68582 4.71035,-1.04758 1.48471,-0.36176 2.85633,-0.73858 4.09988,-1.10033 1.24354,-0.36176 2.35892,-0.70843 3.51202,-1.10787 1.1531,-0.39944 2.34385,-0.85163 3.1955,-1.26614 0.85164,-0.41452 1.36411,-0.79134 1.99719,-1.08526 0.63307,-0.29393 1.38671,-0.50495 1.86906,-0.52003 0.48234,-0.0151 0.69336,0.1658 1.07019,0.19595 0.37683,0.0301 0.91945,-0.0904 1.67311,-0.36929 0.75366,-0.27885 1.71832,-0.71596 2.6001,-1.10787 0.88179,-0.39191 1.68064,-0.73858 2.6604,-1.22846 0.97976,-0.48988 2.14036,-1.12293 3.18795,-1.68818 1.04759,-0.56524 1.98211,-1.06265 2.61519,-1.37165 0.63308,-0.309 0.96468,-0.42959 1.42441,-0.69337 0.45973,-0.26378 1.04757,-0.67074 1.59774,-1.1154 0.55018,-0.44466 1.06265,-0.92699 1.50731,-1.4244 0.44466,-0.49742 0.82149,-1.0099 1.07019,-1.46209 0.24871,-0.4522 0.36929,-0.84409 0.45973,-1.23599 0.0904,-0.39191 0.15074,-0.7838 0.13566,-1.20585 -0.0151,-0.42204 -0.10551,-0.87425 -0.20348,-1.22846 -0.098,-0.35422 -0.20349,-0.61046 -0.12813,-1.00236 0.0754,-0.3919 0.3316,-0.91945 0.54263,-1.4244 0.21103,-0.50496 0.37683,-0.98729 0.49742,-1.49978 0.12058,-0.51249 0.19594,-1.05511 0.18087,-1.71833 -0.0151,-0.66322 -0.12058,-1.447 -0.2487,-2.24589 -0.12812,-0.79888 -0.27885,-1.61281 -0.56524,-2.4117 -0.28639,-0.79888 -0.70843,-1.58267 -1.19831,-2.17053 -0.48988,-0.58786 -1.04757,-0.97975 -1.62036,-1.31136 -0.57278,-0.33162 -1.16061,-0.60293 -1.69571,-0.80641 -0.5351,-0.20349 -1.01743,-0.33915 -1.61283,-0.41451 -0.59539,-0.0754 -1.30381,-0.0904 -2.29864,-0.098 -0.99483,-0.008 -2.27601,-0.007 -3.0523,0.0151 -0.77628,0.0226 -1.04759,0.0678 -1.98212,0.098 -0.93453,0.0301 -2.53224,0.0452 -4.00942,0.0603 -1.47718,0.0151 -2.83373,0.0301 -4.46917,0.0452 -1.63544,0.0151 -3.54969,0.0301 -4.58223,0.0151 -1.03253,-0.0151 -1.18325,-0.0603 -2.00472,-0.15073 -0.82148,-0.0904 -2.31369,-0.2261 -3.76072,-0.36929 -1.44703,-0.1432 -2.8488,-0.29393 -4.0848,-0.43712 -1.23601,-0.1432 -2.30618,-0.27885 -3.43667,-0.44466 -1.13049,-0.1658 -2.32124,-0.36175 -3.6703,-0.63306 -1.34905,-0.27132 -2.85633,-0.61799 -4.07726,-0.927 -1.22093,-0.309 -2.15545,-0.58031 -3.05985,-0.81394 -0.90439,-0.23364 -1.77861,-0.42959 -2.76591,-0.67076 -0.98729,-0.24117 -2.0876,-0.52755 -3.18041,-0.83655 -1.09281,-0.30901 -2.17805,-0.64061 -3.4442,-1.06266 -1.26615,-0.42204 -2.71314,-0.93452 -3.88132,-1.34903 -1.16817,-0.41452 -2.05747,-0.73105 -2.84882,-1.0099 -0.79134,-0.27886 -1.48469,-0.52003 -2.23081,-0.79888 -0.74612,-0.27885 -1.54498,-0.59538 -2.32125,-0.88177 -0.77627,-0.28639 -1.52991,-0.54263 -2.23082,-0.81395 -0.7009,-0.27132 -1.34904,-0.5577 -2.06501,-0.84409 -0.71598,-0.28639 -1.49976,-0.57277 -2.3514,-0.89685 -0.85164,-0.32407 -1.77108,-0.68582 -2.77345,-1.07772 -1.00237,-0.39191 -2.08761,-0.81394 -3.12012,-1.21339 -1.03252,-0.39944 -2.01225,-0.77626 -2.9694,-1.16062 -0.95715,-0.38437 -1.89167,-0.77626 -2.78852,-1.12295 -0.89686,-0.34668 -1.75601,-0.64814 -2.53228,-0.92699 -0.77627,-0.27886 -1.46962,-0.53509 -2.3514,-0.85163 -0.88179,-0.31654 -1.95195,-0.69336 -3.02215,-1.07772 -1.0702,-0.38437 -2.14037,-0.77626 -3.22565,-1.1757 -1.08527,-0.39945 -2.185579,-0.80641 -3.233169,-1.1757 -1.04759,-0.3693 -2.042392,-0.7009 -2.894032,-1.00991 -0.851639,-0.30901 -1.560059,-0.5954 -2.034866,-0.75367 -0.474808,-0.15827 -0.71598,-0.18841 -0.934541,-0.0377 -0.21856,0.15074 -0.414507,0.48234 -0.489873,0.8667 -0.07537,0.38437 -0.03015,0.82148 -0.02261,1.28875 0.0075,0.46727 -0.02261,0.96468 -0.03015,1.42441 -0.0075,0.45973 0.0075,0.88177 0.0075,1.4018 0,0.52002 -0.01507,1.138 -0.01507,1.71832 0,0.58032 0.01507,1.12295 0.05276,1.61283 0.03768,0.48988 0.09797,0.92698 0.211021,1.39425 0.113049,0.46727 0.278851,0.96468 0.459729,1.46209 0.180878,0.49742 0.376827,0.99483 0.572777,1.49224 M 21.479141,190.3278 c -0.331609,-0.18088 -0.663214,-0.36175 -0.972216,-0.55771 -0.309002,-0.19595 -0.595386,-0.40697 -0.851629,-0.64814 -0.256243,-0.24117 -0.482334,-0.51248 -0.663213,-0.81395 -0.180879,-0.30146 -0.316534,-0.63306 -0.406973,-0.89684 -0.09044,-0.26378 -0.135658,-0.45973 -0.301466,-0.64061 -0.165807,-0.18088 -0.45219,-0.34668 -0.896851,-0.58785 -0.444661,-0.24117 -1.047574,-0.5577 -1.688186,-1.02497 -0.640613,-0.46727 -1.31889,-1.08526 -1.793694,-1.76355 -0.474803,-0.6783 -0.746114,-1.41687 -0.889308,-1.99718 -0.143193,-0.58032 -0.158267,-1.00236 -0.09044,-1.37919 0.06783,-0.37683 0.218557,-0.70843 0.143188,-1.11541 -0.07537,-0.40698 -0.376825,-0.88931 -0.693363,-1.37919 -0.316538,-0.48988 -0.648138,-0.98728 -1.009895,-1.5676 -0.361757,-0.58032 -0.753648,-1.24352 -0.926993,-1.55253 -0.173346,-0.309 -0.128137,-0.26379 -0.271324,-0.71598 -0.143188,-0.45219 -0.4747906,-1.40178 -0.6481274,-1.89918 -0.1733369,-0.4974 -0.1884039,-0.5426 -0.3014599,-1.13048 -0.113056,-0.58788 -0.3240755,-1.71834 -0.4446612,-2.33634 -0.1205856,-0.618 -0.1507311,-0.72351 -0.203487,-1.27368 -0.052756,-0.55018 -0.1281195,-1.54498 -0.180875,-2.10269 -0.052755,-0.5577 -0.082903,-0.67829 -0.1055124,-1.27368 -0.022609,-0.5954 -0.037683,-1.66557 -0.015073,-2.69808 0.02261,-1.03252 0.082902,-2.02733 0.1356579,-3.05231 0.052756,-1.02498 0.097975,-2.08007 0.2185611,-3.05229 0.1205865,-0.97222 0.3165335,-1.86152 0.6179995,-2.72069 0.3014661,-0.85918 0.7084297,-1.68818 0.9345259,-2.20067 0.226096,-0.51248 0.271316,-0.70843 0.218558,-1.00236 -0.05276,-0.29393 -0.203485,-0.68582 -0.256241,-0.97975 -0.05276,-0.29392 -0.0075,-0.48987 0.13566,-0.91946 0.143197,-0.42959 0.384361,-1.09279 0.685827,-1.95951 0.301466,-0.86671 0.663211,-1.93687 0.994823,-3.02215 0.331611,-1.08527 0.633065,-2.18558 0.813943,-2.83372 0.180877,-0.64815 0.24117,-0.8441 0.39944,-1.27369 0.158271,-0.42959 0.414508,-1.09279 0.663215,-1.6505 0.248707,-0.5577 0.489874,-1.00989 0.74612,-1.37918 0.256245,-0.3693 0.527553,-0.65568 0.874238,-0.88932 0.346685,-0.23363 0.768722,-0.4145 1.228459,-0.46726 0.459737,-0.0528 0.957133,0.0226 1.349034,0.0829 0.391902,0.0603 0.678282,0.10551 1.258608,0.13565 0.580326,0.0301 1.454545,0.0452 2.509676,0.098 1.05513,0.0528 2.291094,0.14319 3.519563,0.22609 1.22847,0.0829 2.449363,0.15827 3.707978,0.26379 1.258616,0.10551 2.554875,0.24116 3.941612,0.35421 1.386737,0.11305 2.863872,0.20349 4.514392,0.309 1.650521,0.10552 3.474328,0.2261 5.049478,0.33914 1.57515,0.11305 2.901555,0.21856 4.29583,0.35422 1.394274,0.13566 2.856334,0.30146 4.356121,0.48234 1.499787,0.18088 3.037211,0.37683 4.333507,0.54263 1.296295,0.16581 2.351389,0.30146 3.361295,0.43712 1.009907,0.13566 1.974565,0.27131 3.316086,0.46727 1.341521,0.19595 3.059819,0.45219 4.853533,0.72351 1.793715,0.27132 3.662741,0.5577 5.433844,0.85163 1.771104,0.29393 3.444183,0.59538 4.989188,0.82148 1.545005,0.22609 2.961847,0.37682 4.303363,0.56524 1.341517,0.18841 2.60763,0.4145 3.828562,0.61045 1.220932,0.19596 2.396609,0.36176 3.459271,0.51249 1.062661,0.15073 2.012246,0.28639 2.630248,0.36929 0.618003,0.0829 0.904381,0.11303 1.190766,0.14316"
       id="path13"
       inkscape:path-effect="#path-effect14"
       inkscape:original-d="m 183.0475,183.45448 c 0.4522,-0.18088 0.90439,-0.36175 0,0 z m -41.55648,8.32034 c 2e-5,-0.2261 4e-5,-0.45219 0,0 z m 0,0.0452 c 2e-5,-0.24117 4e-5,-0.48234 0,0 z m -92.789893,-3.02967 c 0.572777,0 1.145553,0 0,0 z m -27.221986,1.53745 c 0.422047,0.1658 1.266139,0.49741 1.266139,0.49741 0,0 1.944427,0.45216 1.944427,0.45216 0,0 0.271312,0.27131 0.406973,0.40697 0.844092,0.0151 1.688168,0.0301 2.532278,0.0452 1.009896,0.0453 2.019772,0.0905 3.029689,0.13566 0.964677,-0.0453 1.929335,-0.0905 2.894032,-0.13566 0.452192,-0.0754 0.904376,-0.1507 1.356577,-0.2261 0.120585,-0.76873 0.241167,-1.53744 0.361754,-2.30618 0.01507,-0.24117 0.03015,-0.48233 0.04522,-0.72351 0.542631,-0.0301 1.085251,-0.0603 1.627893,-0.0904 0.241169,-0.0151 0.482333,-0.0301 0.723507,-0.0452 0.01507,0.3919 0.03015,0.7838 0.04522,1.17571 0,0.3919 -1e-6,0.78379 -1e-6,1.1757 0.01507,0.30146 0.03015,0.60291 0.04522,0.90438 1.145555,0.2261 2.291086,0.45219 3.436663,0.67829 0.889312,0.0453 1.778606,0.0905 2.667936,0.13566 0.889311,-0.10551 1.778605,-0.21102 2.667935,-0.31654 0.497412,-0.13566 0.994813,-0.27131 1.492235,-0.40697 0.150731,-0.5577 0.301459,-1.1154 0.452193,-1.67311 0.06029,-0.40698 0.120587,-0.81394 0.180877,-1.22092 0.587849,0 1.175687,0 1.763549,0 0.01507,0 0.03015,0 0.04522,0 0.271316,0.0453 0.542626,0.0905 0.813947,0.13566 -0.01507,0.61799 -0.03015,1.23597 -0.04522,1.85398 0,0.27132 0,0.54263 0,0.81395 0.437119,0.2864 0.874229,0.57279 1.311357,0.85919 1.673112,0.0151 3.34619,0.0301 5.019336,0.0452 0.97975,-0.0603 1.959481,-0.12058 2.939251,-0.18088 0.422046,-0.13566 0.844084,-0.27131 1.266139,-0.40697 0.01507,-0.48234 0.03015,-0.96467 0.04522,-1.44702 0.01507,-0.40697 0.03015,-0.81394 0.04522,-1.22092 0.180877,0 0.36175,0 0.542631,0 0.572777,0 1.145543,0 1.718331,0 0.19595,0.18088 0.58785,0.54263 0.58785,0.54263 0,0 0.03015,0.0905 0.04522,0.13566 0,0.49741 0,0.99481 0,1.49223 0.04522,0.30147 0.09044,0.60292 0.135657,0.90439 1.627893,-0.0453 3.255753,-0.0905 4.883679,-0.13566 1.537454,-0.19595 3.074878,-0.3919 4.612363,-0.58785 1.205846,-0.1658 2.411669,-0.3316 3.617539,-0.49741 2.59257,-0.0453 5.185089,-0.0905 7.777711,-0.13566 1.778623,-0.0603 3.55721,-0.1206 5.335869,-0.1809 0.03015,-0.0151 0.06029,-0.0301 0.09044,-0.0452 0.934531,0.0301 1.869043,0.0603 2.803593,0.0904 1.145554,0.0453 2.291086,0.0905 3.436663,0.13566 0.708441,-0.0301 1.416868,-0.0603 2.125323,-0.0904 0.120585,0 0.241167,0 0.361754,0 0.03015,-0.24117 0.06029,-0.48233 0.09044,-0.72351 0.0151,-0.13565 0.0301,-0.27131 0.0452,-0.40697 0.81395,0.0453 1.62788,0.0905 2.44184,0.13566 0.22609,0.0453 0.45219,0.0905 0.67829,0.13566 0.0151,0.24116 0.0301,0.48232 0.0452,0.72349 -0.0151,0.18088 -0.0301,0.36176 -0.0452,0.54264 1.98964,0.13565 3.97925,0.27131 5.96894,0.40697 0.33161,0.0151 0.66323,0.0301 0.99485,0.0452 0.0904,-0.3919 0.18092,-0.78379 0.27132,-1.1757 0.0301,-0.13566 0.0603,-0.27131 0.0904,-0.40698 0.66322,-0.0151 1.32642,-0.0301 1.98965,-0.0452 0.19595,-0.0151 0.3919,-0.0301 0.58785,-0.0452 0.0603,0.51246 0.12062,1.02492 0.18092,1.53739 0.0301,0.18088 0.0603,0.36175 0.0904,0.54263 3.01461,0.0453 6.02917,0.0905 9.04385,0.13566 0.3316,-0.0301 0.6632,-0.0603 0.99482,-0.0904 0,-0.45219 0,-0.90438 0,-1.35658 0.0453,-0.24117 0.0905,-0.48233 0.13566,-0.7235 0.76874,-0.0151 1.53746,-0.0301 2.30622,-0.0452 0.13566,0 0.27131,0 0.40697,0 0.0301,0.42204 0.0603,0.84407 0.0904,1.26612 0.0453,0.30146 0.0905,0.60291 0.13566,0.90438 1.41687,0 2.83371,0 4.25061,0 1.04004,-0.0151 2.08006,-0.0301 3.12012,-0.0452 1.40179,-0.0603 2.80354,-0.12058 4.20535,-0.18088 1.14556,-0.10551 2.29109,-0.21102 3.43667,-0.31653 -0.0151,0.0754 -0.0301,0.1507 -0.0452,0.2261 0.0151,-0.27132 0.0302,-0.54263 0.0453,-0.81395 0.0151,0.21102 0.0301,0.42204 0.0452,0.63307 -0.0151,-0.21102 -0.0301,-0.42204 -0.0452,-0.63307 0.0151,-0.37683 0.0301,-0.75365 0.0452,-1.13048 0.0301,-0.12059 0.0603,-0.24117 0.0904,-0.36176 0.58785,-0.0451 1.17569,-0.0905 1.76355,-0.13565 0.33161,0 0.66321,0 0.99482,0 0.0904,0.49741 0.18091,0.99481 0.27131,1.49223 0,0.19595 0,0.3919 0,0.58785 1.26614,-0.0904 2.53226,-0.18091 3.79842,-0.27131 1.3415,-0.16581 2.68298,-0.33161 4.02451,-0.49742 1.68819,-0.24117 3.37634,-0.48233 5.06456,-0.7235 1.65804,-0.33161 3.31604,-0.66321 4.97412,-0.99483 1.59774,-0.34668 3.19546,-0.69335 4.79324,-1.04004 1.37165,-0.37683 2.74327,-0.75365 4.11495,-1.13048 1.11541,-0.34668 2.23079,-0.69336 3.34622,-1.04004 1.19077,-0.4522 2.38152,-0.90438 3.57232,-1.35658 0.51249,-0.37683 1.02496,-0.75365 1.53746,-1.13048 0.75365,-0.21102 1.50729,-0.42204 2.26096,-0.63307 0.21102,0.18088 0.42204,0.36175 0.63307,0.54263 0.54263,-0.12058 1.08525,-0.24116 1.62789,-0.36175 0.96468,-0.43712 1.92934,-0.87423 2.89403,-1.31136 0.79888,-0.34668 1.59773,-0.69336 2.39662,-1.04005 1.16063,-0.63306 2.32123,-1.26612 3.48188,-1.8992 0.93453,-0.49741 1.86905,-0.99482 2.8036,-1.49224 0.33161,-0.12058 0.66321,-0.24117 0.99482,-0.36175 0.58785,-0.40698 1.17569,-0.81394 1.76355,-1.22092 0.51249,-0.48234 1.02496,-0.96467 1.53746,-1.44702 0.37682,-0.51248 0.75364,-1.02496 1.13048,-1.53745 0.12058,-0.3919 0.24116,-0.78379 0.36175,-1.1757 0.0603,-0.3919 0.12058,-0.78379 0.18088,-1.1757 -0.0904,-0.45219 -0.18092,-0.90438 -0.27132,-1.35658 -0.10551,-0.25624 -0.21102,-0.51248 -0.31653,-0.76873 0.25624,-0.52755 0.51247,-1.0551 0.76872,-1.58267 0.16581,-0.48234 0.33161,-0.96467 0.49742,-1.44702 0.0754,-0.54263 0.15069,-1.08525 0.22609,-1.62789 -0.10551,-0.7838 -0.21102,-1.56758 -0.31653,-2.3514 -0.15073,-0.81395 -0.30146,-1.62788 -0.45219,-2.44184 -0.42205,-0.78381 -0.84409,-1.5676 -1.26614,-2.35142 -0.55771,-0.3919 -1.1154,-0.78379 -1.67312,-1.1757 -0.58785,-0.27132 -1.17568,-0.54263 -1.76355,-0.81395 -0.48233,-0.13565 -0.96466,-0.27131 -1.44701,-0.40697 -0.70844,-0.0151 -1.41686,-0.0301 -2.12531,-0.0452 -1.28121,2e-5 -2.56239,4e-5 -3.84363,6e-5 -0.27132,0.0453 -0.54263,0.0905 -0.81395,0.13566 -1.59775,0.0151 -3.19546,0.0301 -4.79324,0.0452 -1.35658,0.0151 -2.71313,0.0301 -4.06973,0.0452 -1.91428,0.0151 -3.82853,0.0301 -5.74284,0.0452 -0.15074,-0.0453 -0.30146,-0.0905 -0.4522,-0.13566 -1.49223,-0.13566 -2.98444,-0.27131 -4.4767,-0.40698 -1.4018,-0.15073 -2.80357,-0.30145 -4.20539,-0.45219 -1.07019,-0.13566 -2.14036,-0.27131 -3.21057,-0.40697 -1.19077,-0.19595 -2.38152,-0.3919 -3.57232,-0.58785 -1.50731,-0.34668 -3.01459,-0.69336 -4.52192,-1.04004 -0.93453,-0.27132 -1.86905,-0.54263 -2.8036,-0.81395 -0.87424,-0.19595 -1.74846,-0.3919 -2.62271,-0.58785 -1.10034,-0.28639 -2.20065,-0.57277 -3.30101,-0.85917 -1.08526,-0.3316 -2.1705,-0.6632 -3.25578,-0.99482 -1.44702,-0.51248 -2.89401,-1.02496 -4.34105,-1.53745 -0.88931,-0.31654 -1.77861,-0.63307 -2.66794,-0.94961 -0.69336,-0.24117 -1.38671,-0.48233 -2.08008,-0.72351 -0.79887,-0.31653 -1.59773,-0.63306 -2.39662,-0.9496 -0.75365,-0.25624 -1.50729,-0.51248 -2.26096,-0.76873 -0.64814,-0.28639 -1.29628,-0.57277 -1.94443,-0.85916 -0.7838,-0.28639 -1.56758,-0.57278 -2.3514,-0.85917 -0.91946,-0.36175 -1.8389,-0.7235 -2.75838,-1.08526 -1.08526,-0.42205 -2.1705,-0.84408 -3.25578,-1.26614 -0.97975,-0.37683 -1.95948,-0.75365 -2.93925,-1.13048 -0.93453,-0.3919 -1.86905,-0.78379 -2.8036,-1.1757 -0.85916,-0.30146 -1.71831,-0.60292 -2.57749,-0.90439 -0.69336,-0.25624 -1.38671,-0.51247 -2.08009,-0.76872 -1.07019,-0.37683 -2.14035,-0.75365 -3.21056,-1.13048 -1.07019,-0.3919 -2.14036,-0.7838 -3.21057,-1.1757 -1.10034,-0.40698 -2.200649,-0.81394 -3.301006,-1.22092 -0.994823,-0.33161 -1.989626,-0.66321 -2.98447,-0.99483 -0.708434,-0.2864 -1.416855,-0.57279 -2.125304,-0.8592 -0.241169,-0.0301 -0.482333,-0.0603 -0.723507,-0.0904 -0.19595,0.33161 -0.391896,0.66321 -0.58785,0.99482 0.04522,0.43712 0.09044,0.87423 0.135657,1.31136 -0.03015,0.49741 -0.06029,0.99482 -0.09044,1.49224 0.01507,0.42204 0.03015,0.84408 0.04522,1.26613 -0.01507,0.618 -0.03015,1.23598 -0.04522,1.85399 0.01507,0.54263 0.03015,1.08526 0.04522,1.6279 0.06029,0.43712 0.120587,0.87422 0.180877,1.31135 0.165804,0.49741 0.331602,0.99482 0.497411,1.49224 0.195951,0.49741 0.391899,0.99482 0.587849,1.49223 M 21.479141,190.3278 c -0.331608,-0.18088 -0.663215,-0.36175 -0.994823,-0.54263 -0.286394,-0.21103 -0.572777,-0.42205 -0.859166,-0.63307 -0.2261,-0.27132 -0.452192,-0.54263 -0.678288,-0.81395 -0.135661,-0.33161 -0.271316,-0.66321 -0.406974,-0.99482 -0.04522,-0.19595 -0.09044,-0.3919 -0.135657,-0.58785 -0.286395,-0.16581 -0.572777,-0.33161 -0.859166,-0.49741 -0.602935,-0.31654 -1.205847,-0.63307 -1.80877,-0.9496 -0.678302,-0.61801 -1.356577,-1.236 -2.034866,-1.85399 -0.271321,-0.7386 -0.542631,-1.47717 -0.813946,-2.21575 -0.01507,-0.42205 -0.03015,-0.84409 -0.04522,-1.26614 0.150733,-0.33161 0.301461,-0.66321 0.452192,-0.99482 -0.301468,-0.48235 -0.602923,-0.96468 -0.904385,-1.44701 -0.331614,-0.49743 -0.663215,-0.99483 -0.994823,-1.49224 -0.391908,-0.66323 -0.7838,-1.32643 -1.1757,-1.98965 0.04522,0.0452 0.09044,0.0904 0.135658,0.13566 -0.331614,-0.94962 -0.6632155,-1.89921 -0.9948233,-2.84881 -0.015073,-0.0452 -0.030146,-0.0904 -0.045219,-0.13566 -0.2110274,-1.1305 -0.4220465,-2.26096 -0.6330697,-3.39144 -0.030147,-0.10552 -0.060293,-0.21103 -0.090439,-0.31654 -0.075367,-0.99484 -0.1507305,-1.98964 -0.2260957,-2.98447 -0.030147,-0.12058 -0.060292,-0.24117 -0.090438,-0.36175 -0.015073,-1.07021 -0.030146,-2.14038 -0.04522,-3.21057 0.060293,-0.99484 0.1205847,-1.98965 0.180877,-2.98447 0.04522,-1.05514 0.090439,-2.11023 0.135658,-3.16534 0.195954,-0.88933 0.3919001,-1.77863 0.5878502,-2.66794 0.4069813,-0.82904 0.8139463,-1.65804 1.2209195,-2.48706 0.04522,-0.19595 0.09044,-0.3919 0.135658,-0.58785 -0.150734,-0.39191 -0.301462,-0.7838 -0.452193,-1.1757 0.04522,-0.19595 0.09044,-0.3919 0.135658,-0.58785 0.241174,-0.66323 0.482339,-1.32643 0.723508,-1.98965 0.361761,-1.07021 0.723508,-2.14037 1.085262,-3.21056 0.301468,-1.10036 0.602923,-2.20067 0.904385,-3.30101 0.06029,-0.19595 0.120584,-0.3919 0.180877,-0.58785 0.256247,-0.66323 0.512485,-1.32643 0.768727,-1.98964 0.241174,-0.4522 0.482339,-0.90439 0.723508,-1.35658 0.271321,-0.2864 0.542631,-0.57278 0.813946,-0.85917 0.422055,-0.18088 0.844093,-0.36175 1.266139,-0.54263 0.497422,0.0754 0.994823,0.15073 1.492235,0.2261 0.286394,0.0452 0.572777,0.0904 0.859166,0.13566 0.874256,0.0151 1.748477,0.0301 2.622716,0.0452 1.236017,0.0905 2.471985,0.18088 3.707978,0.27132 1.220944,0.0754 2.441839,0.15073 3.662759,0.2261 1.296311,0.13566 2.59257,0.27131 3.888855,0.40697 1.477192,0.0904 2.954324,0.18088 4.431486,0.27132 1.823879,0.12058 3.647686,0.24116 5.471529,0.36175 1.326457,0.10551 2.652862,0.21102 3.979293,0.31653 1.462118,0.16581 2.924178,0.33161 4.386267,0.49742 1.537485,0.19595 3.074909,0.3919 4.612363,0.58785 1.055137,0.13566 2.110231,0.27131 3.165347,0.40697 0.964697,0.13566 1.929355,0.27131 2.894032,0.40697 1.718365,0.25625 3.436662,0.51249 5.154994,0.76873 1.869099,0.28639 3.738124,0.57278 5.607186,0.85917 1.673146,0.30146 3.346224,0.60292 5.019336,0.90438 1.416898,0.15073 2.83374,0.30146 4.250609,0.45219 1.266164,0.2261 2.532278,0.45219 3.798417,0.67829 1.175724,0.16581 2.351401,0.33161 3.527101,0.49741 0.949623,0.13566 1.899208,0.27132 2.848812,0.40698 0.286394,0.0302 0.572776,0.0603 0.859164,0.0904"
       inkscape:label="path1"
       transform="translate(0.43872818)" /></g><g
     inkscape:groupmode="layer"
     id="layer4"
     inkscape:label="furo"><path
       style="fill:#ffffff;fill-opacity:1;stroke:#000000;stroke-width:0.264583px;stroke-linecap:butt;stroke-linejoin:miter;stroke-opacity:1"
       d="m 93.174668,144.3344 c 0.341065,0.3837 0.68213,0.7674 1.087148,1.19374 0.405019,0.42633 0.873977,0.89529 1.385578,1.40689 0.511602,0.5116 1.065822,1.06582 1.566767,1.53479 0.500945,0.46897 0.948584,0.85266 1.417552,1.24702 0.468968,0.39436 0.959236,0.79936 1.577427,1.25767 0.61819,0.45832 1.36425,0.9699 1.97177,1.36426 0.60753,0.39436 1.07649,0.67147 1.55611,0.98057 0.47963,0.30909 0.9699,0.65015 1.4815,1.03385 0.51161,0.3837 1.04451,0.81002 1.39624,1.12977 0.35173,0.31976 0.52226,0.53292 0.61817,0.74609 0.0959,0.21316 0.11722,0.42632 -0.28781,0.47961 -0.40503,0.0533 -1.23636,-0.0533 -2.20627,-0.26646 -0.96992,-0.21316 -2.07835,-0.5329 -3.51724,-0.92726 -1.438886,-0.39437 -3.208122,-0.86332 -4.007494,-1.08714 -0.799372,-0.22382 -0.628835,-0.20248 -6.213882,-1.42821 -5.585047,-1.22573 -16.925213,-3.69841 -22.627398,-4.96677 -5.702185,-1.26836 -5.766109,-1.33228 -8.153611,-1.93981 -2.387502,-0.60754 -7.098367,-1.75861 -11.649496,-2.87774 -4.551129,-1.11913 -8.942252,-2.20625 -12.3849,-3.02694 -3.442648,-0.82069 -5.936635,-1.37491 -8.249503,-1.93981 -2.312868,-0.56489 -4.444481,-1.14043 -4.572361,-1.31096 -0.127881,-0.17053 1.747939,0.064 3.634473,0.18119 1.886534,0.11724 3.783669,0.11724 5.90469,0.18119 2.121021,0.064 4.465795,0.19185 6.768006,0.36239 2.302211,0.17053 4.561721,0.38369 6.789323,0.60752 2.227602,0.22382 4.423163,0.4583 6.885252,0.75674 2.46209,0.29843 5.190554,0.66081 7.620663,1.00187 2.43011,0.34107 4.561722,0.66081 6.107182,0.8953 1.54546,0.23448 2.504685,0.38369 4.146084,0.62884 1.641398,0.24514 3.964857,0.5862 6.544189,0.92727 2.579332,0.34106 5.414376,0.68212 7.780533,0.94858 2.366157,0.26646 4.263292,0.45831 5.457027,0.59687 1.193735,0.13856 1.684001,0.22382 2.174281,0.30908"
       id="path19"
       inkscape:path-effect="#path-effect19"
       inkscape:original-d="m 93.174668,144.3344 c 0.341065,0.3837 0.68213,0.7674 1.023194,1.1511 0.468974,0.46897 0.937929,0.93793 1.406893,1.40689 0.554241,0.55424 1.108461,1.10846 1.662692,1.66269 0.447656,0.38371 0.895294,0.7674 1.342943,1.15109 0.490288,0.40503 0.980561,0.81003 1.47084,1.21505 0.7461,0.5116 1.49216,1.02319 2.23824,1.53479 0.46897,0.27712 0.93793,0.55423 1.40689,0.83135 0.49029,0.34107 0.98056,0.68213 1.47084,1.02319 0.53293,0.42634 1.06583,0.85266 1.59875,1.279 0.17053,0.21317 0.34107,0.42633 0.5116,0.63949 0.0213,0.21317 0.0426,0.42633 0.0639,0.6395 -0.83136,-0.10659 -1.66269,-0.21317 -2.49403,-0.31975 -1.10849,-0.31975 -2.21692,-0.6395 -3.32539,-0.95924 -1.769305,-0.46898 -3.538543,-0.93793 -5.307818,-1.4069 0.170536,0.0213 0.341065,0.0427 0.511598,0.064 -11.340622,-2.47279 -22.68079,-4.94547 -34.021184,-7.41821 -0.06395,-0.064 -0.127899,-0.1279 -0.191849,-0.19185 -4.711053,-1.15112 -9.421918,-2.30219 -14.132877,-3.45328 -4.391299,-1.08717 -8.782422,-2.17429 -13.173632,-3.26143 -2.494087,-0.55424 -4.988074,-1.10846 -7.482111,-1.66269 -2.131699,-0.57556 -4.263312,-1.1511 -6.394967,-1.72665 1.875894,0.23449 3.751714,0.46897 5.62757,0.70345 1.897212,0 3.794347,0 5.691521,0 2.344868,0.1279 4.689642,0.2558 7.034464,0.3837 2.2596,0.21317 4.51911,0.42633 6.778665,0.6395 2.195649,0.23448 4.39121,0.46896 6.586816,0.70344 2.728573,0.36239 5.457038,0.72476 8.185557,1.08715 2.131699,0.31975 4.263312,0.63949 6.394967,0.95924 0.959264,0.14922 1.91849,0.29843 2.877735,0.44765 2.323551,0.34107 4.64701,0.68213 6.970514,1.02319 2.835159,0.34108 5.670204,0.68213 8.505306,1.0232 1.897212,0.19185 3.794347,0.3837 5.691521,0.57555 0.49029,0.0853 0.980561,0.17053 1.470842,0.25579" /></g><g
     inkscape:groupmode="layer"
     id="layer3"
     inkscape:label="costura"><rect
       style="fill:#ffffff;fill-opacity:1;stroke:#ffffff;stroke-width:0;stroke-linecap:square;stroke-linejoin:round"
       id="rect2"
       width="3.3914433"
       height="1.4017966"
       x="163.74547"
       y="121.6022"
       ry="0.70089829"
       rx="0.13565773"
       transform="rotate(15.632424)" /><rect
       style="fill:#ffffff;fill-opacity:1;stroke:#ffffff;stroke-width:0;stroke-linecap:square;stroke-linejoin:round"
       id="rect3"
       width="3.3914433"
       height="1.4017966"
       x="148.79002"
       y="144.54976"
       ry="0.70089829"
       rx="0.13565773"
       transform="rotate(7.3582451)" /><rect
       style="fill:#ffffff;fill-opacity:1;stroke:#ffffff;stroke-width:0;stroke-linecap:square;stroke-linejoin:round"
       id="rect4"
       width="3.3914433"
       height="1.4017966"
       x="146.0007"
       y="151.7021"
       ry="0.70089829"
       rx="0.13565773"
       transform="rotate(4.6423189)" /><rect
       style="fill:#ffffff;fill-opacity:1;stroke:#ffffff;stroke-width:0;stroke-linecap:square;stroke-linejoin:round"
       id="rect5"
       width="3.3914433"
       height="1.4017966"
       x="150.26302"
       y="151.88689"
       ry="0.70089829"
       rx="0.13565773"
       transform="rotate(4.6423189)" /><rect
       style="fill:#ffffff;fill-opacity:1;stroke:#ffffff;stroke-width:0;stroke-linecap:square;stroke-linejoin:round"
       id="rect6"
       width="3.3914433"
       height="1.4017966"
       x="154.52533"
       y="152.07167"
       ry="0.70089829"
       rx="0.13565773"
       transform="rotate(4.6423189)" /><rect
       style="fill:#ffffff;fill-opacity:1;stroke:#ffffff;stroke-width:0;stroke-linecap:square;stroke-linejoin:round"
       id="rect7"
       width="3.3914433"
       height="1.4017966"
       x="158.78764"
       y="152.25645"
       ry="0.70089829"
       rx="0.13565773"
       transform="rotate(4.6423189)" /><rect
       style="fill:#ffffff;fill-opacity:1;stroke:#ffffff;stroke-width:0;stroke-linecap:square;stroke-linejoin:round"
       id="rect8"
       width="3.3914433"
       height="1.4017966"
       x="163.04996"
       y="152.44124"
       ry="0.70089829"
       rx="0.13565773"
       transform="rotate(4.6423189)" /><rect
       style="fill:#ffffff;fill-opacity:1;stroke:#ffffff;stroke-width:0;stroke-linecap:square;stroke-linejoin:round"
       id="rect9"
       width="3.3914433"
       height="1.4017966"
       x="160.39204"
       y="159.89383"
       ry="0.70089829"
       rx="0.13565773"
       transform="rotate(2.0284374)" /><rect
       style="fill:#ffffff;fill-opacity:1;stroke:#ffffff;stroke-width:0;stroke-linecap:square;stroke-linejoin:round"
       id="rect10"
       width="3.3914433"
       height="1.4017966"
       x="164.62276"
       y="159.74405"
       ry="0.70089829"
       rx="0.13565773"
       transform="rotate(2.0284374)" /><rect
       style="fill:#ffffff;fill-opacity:1;stroke:#ffffff;stroke-width:0;stroke-linecap:square;stroke-linejoin:round"
       id="rect11"
       width="3.3914433"
       height="1.4017966"
       x="168.85347"
       y="159.59427"
       ry="0.70089829"
       rx="0.13565773"
       transform="rotate(2.0284374)" /><rect
       style="fill:#ffffff;fill-opacity:1;stroke:#ffffff;stroke-width:0;stroke-linecap:square;stroke-linejoin:round"
       id="rect12"
       width="3.3914433"
       height="1.4017966"
       x="173.08418"
       y="159.44449"
       ry="0.70089829"
       rx="0.13565773"
       transform="rotate(2.0284374)" /><rect
       style="fill:#ffffff;fill-opacity:1;stroke:#ffffff;stroke-width:0;stroke-linecap:square;stroke-linejoin:round"
       id="rect13"
       width="3.3914433"
       height="1.4017966"
       x="165.89697"
       y="171.21794"
       ry="0.70089829"
       rx="0.13565773"
       transform="rotate(-1.9119831)" /><rect
       style="fill:#ffffff;fill-opacity:1;stroke:#ffffff;stroke-width:0;stroke-linecap:square;stroke-linejoin:round"
       id="rect14"
       width="3.3914433"
       height="1.4017966"
       x="162.383"
       y="178.54201"
       ry="0.70089829"
       rx="0.13565773"
       transform="rotate(-4.3953471)" /><rect
       style="fill:#ffffff;fill-opacity:1;stroke:#ffffff;stroke-width:0;stroke-linecap:square;stroke-linejoin:round"
       id="rect15"
       width="3.3914433"
       height="1.4017966"
       x="166.58646"
       y="178.50232"
       ry="0.70089829"
       rx="0.13565773"
       transform="rotate(-4.3953471)" /><rect
       style="fill:#ffffff;fill-opacity:1;stroke:#ffffff;stroke-width:0;stroke-linecap:square;stroke-linejoin:round"
       id="rect16"
       width="3.3914433"
       height="1.4017966"
       x="156.45395"
       y="191.13495"
       ry="0.70089829"
       rx="0.13565773"
       transform="rotate(-8.8409562)" /><rect
       style="fill:#ffffff;fill-opacity:1;stroke:#ffffff;stroke-width:0;stroke-linecap:square;stroke-linejoin:round"
       id="rect17"
       width="3.3914433"
       height="1.4017966"
       x="146.98291"
       y="201.75623"
       ry="0.70089829"
       rx="0.13565773"
       transform="rotate(-12.820639)" /><rect
       style="fill:#ffffff;fill-opacity:1;stroke:#ffffff;stroke-width:0;stroke-linecap:square;stroke-linejoin:round"
       id="rect18"
       width="3.3914433"
       height="1.4017966"
       x="126.06817"
       y="218.16876"
       ry="0.70089829"
       rx="0.13565773"
       transform="rotate(-19.600391)" /><rect
       style="fill:#ffffff;fill-opacity:1;stroke:#ffffff;stroke-width:0;stroke-linecap:square;stroke-linejoin:round"
       id="rect19"
       width="3.3914433"
       height="1.4017966"
       x="130.09026"
       y="217.91589"
       ry="0.70089829"
       rx="0.13565773"
       transform="rotate(-19.600391)" /></g></svg>
