<?xml version="1.0" encoding="UTF-8" standalone="no"?>
<!-- Created with Inkscape (http://www.inkscape.org/) -->

<svg
   width="210mm"
   height="297mm"
   viewBox="0 0 210 297"
   version="1.1"
   id="svg1"
   xml:space="preserve"
   xmlns:inkscape="http://www.inkscape.org/namespaces/inkscape"
   xmlns:sodipodi="http://sodipodi.sourceforge.net/DTD/sodipodi-0.dtd"
   xmlns="http://www.w3.org/2000/svg"
   xmlns:svg="http://www.w3.org/2000/svg"><sodipodi:namedview
     id="namedview1"
     pagecolor="#ffffff"
     bordercolor="#000000"
     borderopacity="0.25"
     inkscape:showpageshadow="2"
     inkscape:pageopacity="0.0"
     inkscape:pagecheckerboard="0"
     inkscape:deskcolor="#d1d1d1"
     inkscape:document-units="mm" /><defs
     id="defs1"><inkscape:path-effect
       effect="bspline"
       id="path-effect11"
       is_visible="true"
       lpeversion="1.3"
       weight="33.333333"
       steps="2"
       helper_size="0"
       apply_no_weight="true"
       apply_with_weight="true"
       only_selected="false"
       uniform="false" /><inkscape:path-effect
       effect="bspline"
       id="path-effect10"
       is_visible="true"
       lpeversion="1.3"
       weight="33.333333"
       steps="2"
       helper_size="0"
       apply_no_weight="true"
       apply_with_weight="true"
       only_selected="false"
       uniform="false" /><inkscape:path-effect
       effect="bspline"
       id="path-effect9"
       is_visible="true"
       lpeversion="1.3"
       weight="33.333333"
       steps="2"
       helper_size="0"
       apply_no_weight="true"
       apply_with_weight="true"
       only_selected="false"
       uniform="false" /><inkscape:path-effect
       effect="bspline"
       id="path-effect4"
       is_visible="true"
       lpeversion="1.3"
       weight="33.333333"
       steps="2"
       helper_size="0"
       apply_no_weight="true"
       apply_with_weight="true"
       only_selected="false"
       uniform="false" /></defs><g
     inkscape:groupmode="layer"
     id="layer5"
     inkscape:label="linha 1"><g
       inkscape:groupmode="layer"
       id="layer3"
       inkscape:label="oxford"><path
         style="fill:#000000;fill-opacity:0.99;stroke:#000000;stroke-width:0.265;stroke-linecap:round;stroke-linejoin:bevel;stroke-dasharray:none;stroke-opacity:1;paint-order:normal"
         d="m 96.3082,133.27111 c 1.449526,0.59686 2.899054,1.19373 4.30596,1.87586 1.4069,0.68214 2.77114,1.44952 4.46582,2.34483 1.69469,0.8953 3.71972,1.91847 5.73416,3.0376 2.01443,1.11914 4.01815,2.33416 6.00061,3.51724 1.98246,1.18308 3.94354,2.33415 5.75547,3.46394 1.81192,1.12979 3.47458,2.23823 5.23321,3.37868 1.75864,1.14044 3.61314,2.31283 5.47836,3.32538 1.86522,1.01254 3.74103,1.86519 5.48901,2.60061 1.74797,0.73543 3.368,1.3536 5.2119,1.91849 1.8439,0.5649 3.91157,1.07648 6.2351,1.43887 2.32353,0.36238 4.90278,0.57554 7.36486,0.81003 2.46209,0.23448 4.80687,0.49027 7.61003,0.67146 2.80316,0.1812 6.06453,0.28778 8.72912,0.40502 2.66459,0.11724 4.73225,0.24514 6.68274,0.3837 1.95048,0.13856 3.78366,0.28777 5.44637,0.5116 1.66271,0.22383 3.15484,0.52225 3.91156,0.66082 0.75673,0.13856 0.77813,0.11716 1.38565,0.31969 0.60752,0.20253 1.8012,0.62887 2.86703,1.1085 1.06583,0.47964 2.00374,1.01254 2.79246,1.53481 0.78872,0.52226 1.4282,1.03384 1.98244,1.59873 0.55423,0.5649 1.02319,1.18307 1.38557,1.72665 0.36238,0.54357 0.61818,1.01253 0.78872,1.51348 0.17053,0.50094 0.25579,1.03384 0.66081,1.5561 0.40503,0.52227 1.12978,1.03385 1.59874,1.39624 0.46897,0.36238 0.68213,0.57554 0.68213,0.57554 0,0 -0.21317,-0.21317 -0.14921,-0.13856 0.064,0.0746 0.40501,0.43699 0.54356,0.83135 0.13856,0.39437 0.0746,0.82069 0,1.14045 -0.0746,0.31975 -0.15987,0.5329 0.0533,0.84199 0.21317,0.30909 0.72476,0.7141 1.02319,1.03386 0.29844,0.31975 0.3837,0.55422 0.39435,0.89529 0.0107,0.34108 -0.0533,0.78871 -0.2025,1.19373 -0.14922,0.40501 -0.3837,0.76739 -1.03386,1.26834 -0.65017,0.50094 -1.71598,1.14043 -2.68589,1.63071 -0.96991,0.49028 -1.84387,0.83134 -3.37869,1.36426 -1.53481,0.53292 -3.73037,1.25767 -5.73415,1.87585 -2.00377,0.61819 -3.81564,1.12978 -5.926,1.71599 -2.11037,0.58622 -4.51909,1.24702 -6.86393,1.83323 -2.34485,0.58621 -4.62567,1.09779 -7.08776,1.64137 -2.46209,0.54358 -5.10529,1.11911 -7.6633,1.64137 -2.55801,0.52226 -5.03069,0.99122 -7.69529,1.43887 -2.66459,0.44765 -5.52095,0.87397 -9.01691,1.24701 -3.49596,0.37305 -7.63129,0.69279 -11.13789,0.86333 -3.5066,0.17054 -6.38428,0.19188 -9.13414,0.19188 -2.74986,0 -5.37174,-0.0213 -8.45202,-0.12793 -3.08028,-0.10659 -6.61876,-0.29844 -10.21064,-0.86334 -3.59187,-0.56489 -7.23693,-1.5028 -10.370489,-2.35547 -3.13356,-0.85267 -5.755444,-1.62005 -8.526626,-2.33416 -2.771183,-0.71412 -5.691493,-1.37492 -8.96362,-2.00376 -3.272128,-0.62885 -6.89587,-1.2257 -9.699016,-1.62006 -2.803147,-0.39435 -4.785547,-0.5862 -5.989937,-0.68212 -1.20439,-0.0959 -1.630713,-0.0959 -1.929146,0.27712 -0.298433,0.37304 -0.468963,1.11911 -0.810032,2.67524 -0.34107,1.55613 -0.852659,3.92223 -1.172403,5.08398 -0.319744,1.16175 -0.447661,1.11911 -5.872827,0.99121 -5.425165,-0.1279 -16.147179,-0.34106 -21.476318,-0.44764 -5.329139,-0.10658 -5.26519,-0.10658 -6.74672,-0.21317 -1.481531,-0.10658 -4.508422,-0.31974 -7.087746,-0.56489 -2.579325,-0.24514 -4.710938,-0.52225 -6.213764,-0.84201 -1.502827,-0.31975 -2.376787,-0.68212 -3.2188,-1.30031 -0.842012,-0.61819 -1.652024,-1.49215 -2.0996729,-2.17428 -0.4476487,-0.68214 -0.5329132,-1.17241 -0.5329124,-2.11035 7e-7,-0.93794 0.085265,-2.32349 0.1705323,-3.83698 0.085267,-1.51349 0.170532,-3.15484 0.2451406,-4.76425 0.074609,-1.60942 0.1385567,-3.18681 0.2238242,-4.11408 0.085268,-0.92728 0.1918489,-1.20439 0.4583092,-1.52414 0.266461,-0.31975 0.692781,-0.68212 1.151095,-0.90595 0.458315,-0.22383 0.94858,-0.30909 1.172405,-0.43699 0.223824,-0.1279 0.181191,-0.29843 0.04263,-0.65016 -0.138561,-0.35173 -0.373036,-0.88463 -0.628838,-1.60941 -0.255802,-0.72477 -0.532912,-1.64136 -0.746078,-2.54732 -0.213167,-0.90596 -0.36238,-1.80124 -0.436989,-2.68589 -0.07461,-0.88465 -0.07461,-1.7586 10e-7,-3.11222 0.07461,-1.35362 0.223823,-3.18681 0.468967,-4.81754 0.245144,-1.63073 0.586202,-3.05891 1.00188,-4.55108 0.415677,-1.49218 0.905948,-3.04826 1.481502,-4.71097 0.575554,-1.66271 1.236355,-3.43195 2.121001,-5.15861 0.884647,-1.72665 1.993087,-3.41063 2.813779,-4.27395 0.820692,-0.86332 1.3536,-0.90595 2.611295,-0.67146 1.257694,0.23449 3.240094,0.74607 5.648894,1.28965 2.4088,0.54358 5.243844,1.11911 7.919098,1.6094 2.675253,0.49028 5.190558,0.89529 7.652644,1.23635 2.462086,0.34107 4.870808,0.61818 6.544166,0.76741 1.673359,0.14922 2.611271,0.17056 3.783695,0.18122 1.172425,0.0106 2.579289,0.0106 3.325366,-4e-5 0.746078,-0.0107 0.831332,-0.032 0.884624,-0.0533 0.05329,-0.0213 0.07464,-0.0427 0.820725,-0.1386 0.746087,-0.0959 2.2169,-0.26641 3.751708,-0.5968 1.534808,-0.3304 3.133518,-0.82067 4.956104,-1.50281 1.822587,-0.68214 3.868934,-1.5561 6.075221,-2.5047 2.206287,-0.94859 4.572379,-1.97177 6.768005,-2.82444 2.195626,-0.85266 4.220657,-1.53478 5.766118,-1.99309 1.545461,-0.45831 2.611268,-0.69279 3.197474,-0.81003 0.586206,-0.11724 0.692786,-0.11724 1.257685,-0.18119 0.564899,-0.064 1.588074,-0.19185 2.515352,-0.2558 0.927279,-0.064 1.758608,-0.064 2.451401,0.0426 0.692794,0.10658 1.247011,0.31974 1.801242,0.53291"
         id="path3"
         inkscape:path-effect="#path-effect4"
         inkscape:original-d="m 96.3082,133.27111 c 1.449527,0.59686 2.899053,1.19373 4.34858,1.79059 1.36428,0.76741 2.72852,1.53479 4.09278,2.30219 2.02511,1.02321 4.05014,2.04639 6.07522,3.06958 2.00379,1.21507 4.00751,2.43009 6.01127,3.64513 1.96116,1.15112 3.92224,2.30219 5.88336,3.45328 1.66273,1.10849 3.32539,2.21693 4.98808,3.32539 1.85458,1.17243 3.70908,2.34482 5.56362,3.51723 1.8759,0.85268 3.75171,1.70533 5.62757,2.55799 1.62009,0.61819 3.24012,1.23636 4.86018,1.85454 2.06774,0.51161 4.13541,1.02319 6.20311,1.53479 2.57936,0.21317 5.15861,0.42633 7.73791,0.6395 2.34487,0.2558 4.68965,0.51159 7.03447,0.76739 3.2615,0.10659 6.52287,0.21317 9.7843,0.31975 2.06775,0.1279 4.13541,0.2558 6.20312,0.3837 1.83326,0.14922 3.66644,0.29843 5.49967,0.44765 1.49219,0.29844 2.98432,0.59686 4.47647,0.89529 0.0213,-0.0213 0.0427,-0.0427 0.064,-0.064 1.19374,0.42636 2.38742,0.8527 3.58114,1.27905 0.93794,0.53292 1.87585,1.06582 2.81378,1.59874 0.63951,0.51161 1.27899,1.02319 1.91849,1.53479 0.46897,0.61819 0.93793,1.23636 1.40689,1.85454 0.2558,0.46897 0.5116,0.93793 0.7674,1.40689 0.0853,0.53293 0.17053,1.06583 0.2558,1.59875 0.72478,0.5116 1.44953,1.02319 2.17429,1.53479 0.21317,0.21317 0.42633,0.42633 0.63949,0.63949 -0.21317,-0.21316 -0.42633,-0.42633 -0.63949,-0.63949 0.34107,0.36239 0.68213,0.72476 1.02319,1.08714 -0.064,0.42634 -0.1279,0.85267 -0.19185,1.279 -0.0853,0.21317 -0.17053,0.42633 -0.2558,0.63949 0.51161,0.40502 1.0232,0.81003 1.5348,1.21505 0.0853,0.23448 0.17053,0.46896 0.25579,0.70344 -0.064,0.44766 -0.1279,0.8953 -0.19184,1.34295 -0.23449,0.36238 -0.46897,0.72476 -0.70345,1.08714 -1.06585,0.63951 -2.13166,1.27899 -3.19748,1.91849 -0.874,0.34107 -1.74796,0.68213 -2.62194,1.02319 -2.19565,0.72478 -4.39121,1.44953 -6.58682,2.17429 -1.81194,0.51161 -3.62381,1.0232 -5.43572,1.5348 -2.40882,0.66082 -4.81754,1.32162 -7.22631,1.98244 -2.28092,0.5116 -4.56174,1.02319 -6.84262,1.53479 -2.6433,0.57556 -5.2865,1.15109 -7.92975,1.72664 -2.47277,0.46897 -4.94545,0.93793 -7.41817,1.40689 -2.85647,0.42634 -5.71283,0.85266 -8.56925,1.27899 -4.1355,0.31976 -8.27083,0.6395 -12.40624,0.95925 -2.87779,0.0213 -5.75547,0.0426 -8.6332,0.064 -2.62199,-0.0213 -5.24387,-0.0427 -7.86581,-0.064 -3.53862,-0.19185 -7.0771,-0.3837 -10.61565,-0.57555 -3.6452,-0.93795 -7.29026,-1.87585 -10.935391,-2.81378 -2.621989,-0.76741 -5.243873,-1.53479 -7.865809,-2.30219 -2.920427,-0.66083 -5.840737,-1.32163 -8.761105,-1.98244 -3.623887,-0.59688 -7.247629,-1.19373 -10.871444,-1.79059 -1.982479,-0.19185 -3.964879,-0.3837 -5.947319,-0.57555 -0.42634,0 -0.852663,0 -1.278994,0 -0.170536,0.74609 -0.341065,1.49216 -0.511597,2.23824 -0.511608,2.36618 -1.023195,4.73228 -1.534792,7.09841 -0.127902,-0.0426 -0.255799,-0.0853 -0.383698,-0.1279 -10.722442,-0.21317 -21.444456,-0.42633 -32.166684,-0.63949 0.06395,0 0.127899,0 0.191849,0 -3.027011,-0.21317 -6.053902,-0.42633 -9.080853,-0.6395 -2.131698,-0.27712 -4.263311,-0.55423 -6.394967,-0.83135 -0.873996,-0.36239 -1.747957,-0.72476 -2.621936,-1.08714 -0.810045,-0.874 -1.620058,-1.74796 -2.4300876,-2.62194 -0.085268,-0.49029 -0.1705325,-0.98056 -0.2557987,-1.47084 0.085268,-1.3856 0.1705325,-2.77115 0.2557987,-4.15673 0.085268,-1.6414 0.1705325,-3.28275 0.2557987,-4.92412 0.063951,-1.57746 0.1278993,-3.15485 0.191849,-4.73228 0.1065849,-0.27712 0.2131655,-0.55423 0.3197483,-0.83134 0.4263396,-0.36239 0.8526626,-0.72476 1.2789936,-1.08715 0.49029,-0.0853 0.980561,-0.17053 1.470842,-0.2558 -0.04263,-0.17053 -0.08527,-0.34106 -0.127899,-0.51159 -0.234487,-0.53293 -0.468964,-1.06583 -0.703446,-1.59875 -0.277121,-0.91663 -0.554231,-1.83322 -0.831346,-2.74983 -0.149219,-0.89531 -0.298432,-1.79059 -0.447648,-2.68589 0,-0.874 0,-1.74795 0,-2.62193 0.149219,-1.83326 0.298432,-3.66645 0.447648,-5.49967 0.341072,-1.42824 0.68213,-2.85642 1.023195,-4.28463 0.49029,-1.55614 0.980561,-3.11222 1.470842,-4.66833 0.660826,-1.76931 1.321627,-3.53855 1.98244,-5.30782 1.108483,-1.68404 2.216921,-3.36802 3.325382,-5.05203 0.532925,-0.0426 1.065828,-0.0853 1.598742,-0.12789 1.98248,0.5116 3.964879,1.02319 5.947319,1.53479 2.835159,0.57556 5.670204,1.15109 8.505306,1.72664 2.515404,0.40502 5.030708,0.81003 7.546061,1.21504 2.40882,0.27712 4.817542,0.55423 7.226313,0.83135 0.937947,0.0213 1.875857,0.0427 2.813786,0.064 1.406921,-2e-5 2.813785,-3e-5 4.220678,-5e-5 0.08527,-0.0213 0.170532,-0.0426 0.255798,-0.064 0.02132,-0.0213 0.04263,-0.0427 0.06395,-0.064 1.470872,-0.1705 2.941685,-0.341 4.412527,-0.5115 1.598774,-0.49029 3.197484,-0.98056 4.796225,-1.47084 2.046431,-0.874 4.092779,-1.74796 6.139169,-2.62194 2.366185,-1.02321 4.732275,-2.04639 7.098413,-3.06958 2.025113,-0.68215 4.050146,-1.36426 6.075219,-2.04639 1.065849,-0.23449 2.131655,-0.46897 3.197483,-0.70345 0.106585,0 0.213165,0 0.319748,0 1.023215,-0.1279 2.04639,-0.2558 3.069585,-0.3837 0.831362,0 1.662691,0 2.494037,0 0.554241,0.21317 1.108459,0.42633 1.662689,0.6395"
         transform="translate(-0.0959245,-0.15987417)" /></g><path
       style="fill:none;stroke:#ffffff;stroke-width:1.165;stroke-linecap:butt;stroke-linejoin:miter;stroke-dasharray:none;stroke-opacity:1"
       d="m 13.79187,174.22975 c 0.43712,0.18088 0.874237,0.36175 1.605292,0.64061 0.731055,0.27885 1.756004,0.65567 3.014621,1.04758 1.258618,0.3919 2.750825,0.79887 4.243074,1.16062 1.492249,0.36176 2.984454,0.67829 4.559608,0.91946 1.575154,0.24118 3.23316,0.40698 4.936436,0.56524 1.703275,0.15827 3.451718,0.309 4.981649,0.3919 1.529931,0.0829 2.841263,0.098 5.388651,0.21101 2.547389,0.11305 6.330657,0.32407 9.503566,0.55017 3.172909,0.2261 5.735282,0.46727 8.0038,0.70845 2.268518,0.24117 4.243053,0.48234 6.044303,0.73858 1.801249,0.25625 3.42911,0.52756 5.124849,0.82148 1.695738,0.29393 3.459253,0.61046 5.652413,1.00237 2.193161,0.3919 4.815825,0.85916 7.280296,1.31889 2.464472,0.45973 4.770608,0.91192 7.024055,1.37919 2.253448,0.46727 4.454074,0.9496 6.911015,1.4847 2.456942,0.5351 5.170042,1.12294 7.483772,1.5676 2.31374,0.44466 4.22798,0.74611 6.45882,0.99482 2.23084,0.2487 4.77814,0.44465 7.15218,0.57277 2.37403,0.12812 4.57466,0.18842 6.71506,0.21103 2.14039,0.0226 4.22044,0.008 6.63969,-0.0904 2.41926,-0.098 5.17758,-0.27886 7.4461,-0.4522 2.26851,-0.17335 4.0471,-0.33915 6.94118,-0.71598 2.89407,-0.37683 6.90343,-0.96467 10.21953,-1.50731 3.3161,-0.54263 5.93877,-1.04004 9.08155,-1.68819 3.14277,-0.64815 6.80545,-1.44701 10.19693,-2.29111 3.39147,-0.8441 6.51154,-1.73339 9.28501,-2.57749 2.77347,-0.8441 5.20019,-1.64296 7.18231,-2.39662 1.98213,-0.75366 3.51955,-1.46208 5.057,-2.17052"
       id="path9"
       inkscape:path-effect="#path-effect9"
       inkscape:original-d="m 13.79187,174.22975 c 0.437119,0.18088 0.874238,0.36175 1.311358,0.54263 1.02499,0.37683 2.049939,0.75365 3.074908,1.13048 1.492265,0.40698 2.984471,0.81395 4.476706,1.22092 1.492265,0.31654 2.98447,0.63307 4.476705,0.94961 1.658072,0.16581 3.316078,0.33161 4.974117,0.49741 1.748512,0.15073 3.496955,0.30146 5.245432,0.45219 1.311385,0.0151 2.622716,0.0302 3.934075,0.0452 3.783419,0.21103 7.566687,0.42205 11.35003,0.63307 2.562475,0.24118 5.124848,0.48235 7.687272,0.72353 1.974613,0.24117 3.949147,0.48234 5.923721,0.72351 1.627925,0.27132 3.255785,0.54263 4.883678,0.81394 1.763586,0.31654 3.527101,0.63307 5.290652,0.94961 2.622769,0.46727 5.245432,0.93453 7.868148,1.40179 2.306228,0.4522 4.612363,0.90439 6.918545,1.35658 2.200714,0.48235 4.40134,0.96468 6.60201,1.44702 2.713213,0.58786 5.426313,1.1757 8.139463,1.76355 1.91432,0.30146 3.82856,0.60292 5.74284,0.90438 2.5474,0.19595 5.0947,0.3919 7.64206,0.58785 2.20071,0.0603 4.40134,0.12059 6.60201,0.18088 2.08012,-0.0151 4.16017,-0.0301 6.24025,-0.0452 2.75843,-0.18089 5.51675,-0.36177 8.27512,-0.54265 1.77866,-0.16581 3.55725,-0.33161 5.33588,-0.49741 4.00952,-0.58786 8.01888,-1.1757 12.02831,-1.76355 2.62277,-0.49743 5.24544,-0.99483 7.86815,-1.49224 3.66284,-0.79889 7.32552,-1.59775 10.98828,-2.39662 3.12019,-0.88933 6.24026,-1.77862 9.36038,-2.66793 2.42682,-0.79889 4.85354,-1.59775 7.2803,-2.39662 1.53749,-0.70845 3.07491,-1.41687 4.61236,-2.12531" /></g><g
     inkscape:groupmode="layer"
     id="layer6"
     inkscape:label="linha 2"><path
       style="fill:none;stroke:#ffffff;stroke-width:1.165;stroke-linecap:butt;stroke-linejoin:miter;stroke-dasharray:none;stroke-opacity:1"
       d="m 63.310171,177.52428 c 0.596862,-0.53291 1.19373,-1.06583 1.843892,-1.6627 0.650162,-0.59687 1.353594,-1.25767 2.142313,-1.96112 0.788719,-0.70345 1.662684,-1.44952 2.515354,-2.13166 0.85267,-0.68213 1.684,-1.3003 2.515355,-1.89717 0.831354,-0.59687 1.662681,-1.1724 2.526011,-1.64137 0.863331,-0.46897 1.758608,-0.83134 2.696547,-1.12977 0.937938,-0.29844 1.91848,-0.53292 3.154855,-0.66083 1.236375,-0.1279 2.728504,-0.14924 4.210019,-0.13858 1.481515,0.0107 2.952329,0.0533 4.295284,0.12793 1.342955,0.0746 2.557974,0.1812 4.039494,0.26646 1.481519,0.0853 3.229439,0.14922 5.734167,0.26646 2.504728,0.11724 5.766098,0.28777 8.100268,0.37304 2.33418,0.0853 3.74105,0.0853 5.22256,0.0639 1.48152,-0.0213 3.0376,-0.0639 4.55109,-0.10657 1.51349,-0.0426 2.9843,-0.0853 4.19936,-0.17053 1.21505,-0.0853 2.17427,-0.21317 3.00563,-0.35173 0.83135,-0.13856 1.53478,-0.28777 2.24889,-0.47962 0.71411,-0.19186 1.43886,-0.42633 2.1956,-0.74609 0.75675,-0.31975 1.54545,-0.72476 2.20627,-1.11912 0.66082,-0.39436 1.19372,-0.77804 1.84388,-1.27899 0.65017,-0.50094 1.41755,-1.11911 1.97178,-1.56677 0.55424,-0.44765 0.89529,-0.72475 1.17241,-1.02319 0.27712,-0.29843 0.49028,-0.61818 0.63949,-0.99123 0.14922,-0.37305 0.23448,-0.79936 0.27712,-1.19372 0.0426,-0.39436 0.0426,-0.75673 0.032,-1.03385 -0.0107,-0.27712 -0.032,-0.46895 -0.0371,-0.57109 -0.005,-0.10214 0.006,-0.1145 0.0172,-0.12692"
       id="path10"
       inkscape:path-effect="#path-effect10"
       inkscape:original-d="m 63.310171,177.52428 c 0.596864,-0.53291 1.193729,-1.06583 1.790592,-1.59874 0.703461,-0.66083 1.406892,-1.32163 2.110338,-1.98244 0.873997,-0.74609 1.747959,-1.49216 2.621938,-2.23824 0.831362,-0.61819 1.662691,-1.23636 2.494037,-1.85454 0.831362,-0.57556 1.662691,-1.15109 2.494037,-1.72664 0.895313,-0.36239 1.790591,-0.72476 2.685886,-1.08714 0.980582,-0.23449 1.961123,-0.46897 2.941685,-0.70345 1.492189,-0.0213 2.984318,-0.0427 4.476477,-0.064 1.470872,0.0426 2.941685,0.0853 4.412527,0.12795 1.215068,0.10658 2.430087,0.21317 3.645131,0.31975 1.747993,0.064 3.495915,0.1279 5.243873,0.19185 3.261498,0.17053 6.522868,0.34106 9.784298,0.51159 1.40692,0 2.81379,0 4.22068,0 1.55614,-0.0426 3.11222,-0.0853 4.66833,-0.12789 1.47087,-0.0426 2.94168,-0.0853 4.41252,-0.1279 0.95927,-0.12791 1.91849,-0.2558 2.87774,-0.3837 0.70346,-0.14922 1.40689,-0.29843 2.11034,-0.44765 0.72477,-0.23449 1.44952,-0.46896 2.17429,-0.70345 0.78872,-0.40502 1.57742,-0.81003 2.36613,-1.21504 0.53293,-0.38371 1.06583,-0.76739 1.59875,-1.15109 0.76741,-0.61819 1.53479,-1.23636 2.30218,-1.85454 0.34108,-0.27713 0.68213,-0.55423 1.0232,-0.83135 0.21317,-0.31975 0.42633,-0.6395 0.63949,-0.95925 0.0853,-0.42634 0.17054,-0.85266 0.2558,-1.27899 0,-0.36239 0,-0.72476 0,-1.08714 -0.0213,-0.19186 -0.0426,-0.3837 -0.064,-0.57555 0.0112,-0.0124 0.0223,-0.0248 0.0335,-0.0372" /></g><g
     inkscape:groupmode="layer"
     id="layer7"
     inkscape:label="linha 3"><path
       style="fill:none;stroke:#ffffff;stroke-width:1.565;stroke-linecap:round;stroke-linejoin:bevel;stroke-dasharray:none;stroke-opacity:1;paint-order:markers fill stroke"
       d="m 153.6071,161.79266 c 0.31975,0.46896 0.6395,0.93793 0.96991,1.54546 0.33041,0.60753 0.67147,1.35359 0.98056,2.09968 0.30909,0.74609 0.5862,1.49215 0.83135,2.35548 0.24514,0.86333 0.4583,1.84388 0.6395,2.81379 0.18119,0.96991 0.3304,1.92914 0.44764,2.8351 0.11725,0.90596 0.20251,1.75861 0.24514,2.58997 0.0426,0.83135 0.0426,1.64136 0.032,2.5793 -0.0107,0.93794 -0.032,2.00374 -0.0853,3.06958 -0.0533,1.06584 -0.13856,2.13165 -0.22385,2.63257 -0.0853,0.50092 -0.17051,0.437 -0.25577,0.37306"
       id="path11"
       inkscape:path-effect="#path-effect11"
       inkscape:original-d="m 153.6071,161.79266 c 0.31975,0.46896 0.6395,0.93793 0.95925,1.40689 0.34107,0.7461 0.68213,1.49216 1.02319,2.23824 0.27712,0.7461 0.55423,1.49216 0.83135,2.23824 0.21317,0.98058 0.42633,1.96113 0.6395,2.94169 0.14922,0.95926 0.29843,1.91849 0.44765,2.87773 0.0853,0.85268 0.17053,1.70533 0.25579,2.55799 0,0.81005 0,1.62006 0,2.43009 -0.0213,1.06585 -0.0426,2.13165 -0.064,3.19748 -0.0853,1.06585 -0.17053,2.13166 -0.25579,3.19748 -0.0853,-0.064 -0.17054,-0.1279 -0.2558,-0.19184"
       inkscape:label="path11" /></g><g
     inkscape:groupmode="layer"
     id="layer4"
     inkscape:label="cadarço"><rect
       style="fill:#ffffff;fill-opacity:0.997179;stroke:#ffffff;stroke-width:0;stroke-linecap:square;stroke-linejoin:round"
       id="rect5"
       width="1.5182573"
       height="4.5639577"
       x="158.96434"
       y="95.397362"
       rx="0.13145754"
       ry="0"
       transform="matrix(0.93997873,0.34123305,-0.51915699,0.8546789,0,0)" /><rect
       style="fill:#ffffff;fill-opacity:0.997179;stroke:#ffffff;stroke-width:0;stroke-linecap:square;stroke-linejoin:round"
       id="rect6"
       width="1.4985504"
       height="4.1784554"
       x="172.94165"
       y="104.01383"
       rx="0.12975124"
       ry="0"
       transform="matrix(0.95233994,0.30503874,-0.5670542,0.82368048,0,0)" /><rect
       style="fill:#ffffff;fill-opacity:0.997179;stroke:#ffffff;stroke-width:0;stroke-linecap:square;stroke-linejoin:round"
       id="rect7"
       width="1.5032665"
       height="4.273407"
       x="178.90018"
       y="103.24075"
       rx="0.13015957"
       ry="0"
       transform="matrix(0.94935228,0.31421371,-0.55445466,0.83221393,0,0)" /><rect
       style="fill:#ffffff;fill-opacity:0.997179;stroke:#ffffff;stroke-width:0;stroke-linecap:square;stroke-linejoin:round"
       id="rect8"
       width="1.4917358"
       height="4.0378571"
       x="192.709"
       y="111.47916"
       rx="0.12916119"
       ry="0"
       transform="matrix(0.95669052,0.29110692,-0.58679901,0.80973262,0,0)" /><rect
       style="fill:#ffffff;fill-opacity:0.997179;stroke:#ffffff;stroke-width:0;stroke-linecap:square;stroke-linejoin:round"
       id="rect9"
       width="1.5044712"
       height="4.2973733"
       x="194.61038"
       y="106.60795"
       rx="0.13026388"
       ry="0"
       transform="matrix(0.94859208,0.31650129,-0.55136251,0.83426577,0,0)" /></g></svg>
