<?xml version="1.0" encoding="UTF-8" standalone="no"?>
<!-- Created with Inkscape (http://www.inkscape.org/) -->

<svg
   width="210mm"
   height="297mm"
   viewBox="0 0 210 297"
   version="1.1"
   id="svg1"
   xml:space="preserve"
   xmlns:inkscape="http://www.inkscape.org/namespaces/inkscape"
   xmlns:sodipodi="http://sodipodi.sourceforge.net/DTD/sodipodi-0.dtd"
   xmlns="http://www.w3.org/2000/svg"
   xmlns:svg="http://www.w3.org/2000/svg"><sodipodi:namedview
     id="namedview1"
     pagecolor="#ffffff"
     bordercolor="#000000"
     borderopacity="0.25"
     inkscape:showpageshadow="2"
     inkscape:pageopacity="0.0"
     inkscape:pagecheckerboard="0"
     inkscape:deskcolor="#d1d1d1"
     inkscape:document-units="mm" /><defs
     id="defs1"><inkscape:path-effect
       effect="bspline"
       id="path-effect1"
       is_visible="true"
       lpeversion="1.3"
       weight="33.333333"
       steps="2"
       helper_size="0"
       apply_no_weight="true"
       apply_with_weight="true"
       only_selected="false"
       uniform="false" /></defs><g
     inkscape:groupmode="layer"
     id="layer2"
     inkscape:label="sola"><path
       style="fill:#000000;fill-opacity:1;stroke:#000000;stroke-width:0.264583px;stroke-linecap:butt;stroke-linejoin:miter;stroke-opacity:1"
       d="m 116.3039,101.7433 c 1.23599,0.0904 2.47198,0.18087 3.91902,0.40697 1.44703,0.22611 3.10503,0.58785 4.85352,1.22093 1.7485,0.63308 3.58738,1.53745 5.50169,2.62272 1.9143,1.08528 3.9039,2.35139 5.48659,3.51202 1.58268,1.16064 2.75836,2.21574 3.82856,3.39145 1.0702,1.17572 2.03486,2.47198 3.07491,4.09989 1.04005,1.62791 2.15544,3.58737 3.18042,5.9388 1.02498,2.35143 1.95949,5.09467 2.71315,7.80786 0.75366,2.71318 1.32642,5.39613 1.62788,8.456 0.30145,3.05987 0.33159,6.49647 0.31651,9.1795 -0.0151,2.68302 -0.0754,4.61234 -0.15074,6.55678 -0.0754,1.94445 -0.1658,3.90391 -0.31654,6.34578 -0.15073,2.44187 -0.36175,5.36599 -0.64814,8.36556 -0.28639,2.99958 -0.64814,6.07442 -0.90439,8.7876 -0.25624,2.71318 -0.40697,5.06453 -0.54263,7.47625 -0.13566,2.41172 -0.25624,4.88365 -0.31653,6.9939 -0.0603,2.11025 -0.0603,3.8587 -0.0452,5.96895 0.0151,2.11026 0.0452,4.58219 0.0603,7.20494 0.0151,2.62274 0.0151,5.39613 0,7.92843 -0.0151,2.5323 -0.0452,4.82337 -0.0753,6.8884 -0.0301,2.06503 -0.0603,3.90391 -0.19592,6.08953 -0.13565,2.18562 -0.37682,4.71785 -0.61799,6.7678 -0.24117,2.04996 -0.48234,3.61753 -0.87425,5.21529 -0.3919,1.59776 -0.93452,3.22562 -1.5676,4.62743 -0.63307,1.40181 -1.35656,2.57749 -2.08008,3.58739 -0.72351,1.00991 -1.44701,1.85398 -2.30619,2.60764 -0.85917,0.75366 -1.85398,1.41686 -2.89403,2.00472 -1.04005,0.58786 -2.12529,1.10033 -3.08997,1.47716 -0.96469,0.37683 -1.80877,0.61799 -2.8036,0.84409 -0.99484,0.2261 -2.14037,0.43712 -3.39145,0.51248 -1.25108,0.0754 -2.60763,0.0151 -4.05466,-0.24117 -1.44703,-0.25625 -2.98445,-0.70843 -4.52192,-1.26614 -1.53747,-0.55771 -3.0749,-1.22091 -4.41641,-1.98965 -1.34152,-0.76873 -2.48705,-1.64296 -3.42159,-2.53228 -0.93453,-0.88932 -1.65803,-1.79369 -2.2911,-2.7433 -0.63307,-0.94961 -1.1757,-1.94442 -1.62789,-3.04477 -0.4522,-1.10034 -0.81395,-2.30616 -1.08526,-3.55724 -0.27132,-1.25108 -0.45219,-2.54734 -0.54263,-4.2657 -0.0904,-1.71835 -0.0904,-3.85868 -0.0754,-5.78805 0.0151,-1.92937 0.0452,-3.64767 0.12056,-5.18514 0.0754,-1.53746 0.19596,-2.89401 0.37685,-4.85354 0.18089,-1.95953 0.42205,-4.5219 0.66322,-7.02405 0.24117,-2.50216 0.48234,-4.94395 0.64814,-7.41596 0.16581,-2.47201 0.25624,-4.97409 0.30146,-7.43103 0.0452,-2.45694 0.0452,-4.86858 -0.10551,-7.31044 -0.15074,-2.44187 -0.45219,-4.9138 -0.7838,-7.00898 -0.33161,-2.09517 -0.69336,-3.81347 -1.22092,-5.80314 -0.52757,-1.98967 -1.22092,-4.25059 -1.88414,-6.39099 -0.66322,-2.14039 -1.29628,-4.16015 -1.94443,-6.19504 -0.64815,-2.03488 -1.31135,-4.08478 -1.97457,-6.21011 -0.663219,-2.12532 -1.326423,-4.32595 -1.899206,-6.82811 -0.572782,-2.50216 -1.05511,-5.30569 -1.371647,-7.71741 -0.316537,-2.41171 -0.467264,-4.43146 -0.58785,-6.48142 -0.120586,-2.04996 -0.211022,-4.13 -0.120581,-6.34577 0.09044,-2.21577 0.361751,-4.56712 0.663217,-6.75274 0.301465,-2.18562 0.633066,-4.20537 1.009897,-5.92371 0.376831,-1.71835 0.798869,-3.13519 1.341505,-4.47671 0.542636,-1.34151 1.205835,-2.60763 2.004725,-3.79841 0.79888,-1.19079 1.73339,-2.30617 2.72822,-3.27086 0.99484,-0.96468 2.04994,-1.77862 3.18043,-2.44183 1.13049,-0.66322 2.33631,-1.1757 3.48188,-1.59775 1.14557,-0.42205 2.23081,-0.75365 3.16534,-0.90439 0.93454,-0.15074 1.71833,-0.1206 2.50213,-0.0905 0,0 0,0 0,0"
       id="path1"
       inkscape:path-effect="#path-effect1"
       inkscape:original-d="m 116.3039,101.7433 c 1.23599,0.0904 2.47198,0.18088 3.70797,0.27131 1.65808,0.36177 3.31608,0.72351 4.97412,1.08527 1.83895,0.9044 3.67783,1.80877 5.51675,2.71315 1.98969,1.26617 3.97929,2.53228 5.96894,3.79842 1.17572,1.05513 2.3514,2.11023 3.5271,3.16534 0.9647,1.29632 1.92935,2.59258 2.89403,3.88886 1.11543,1.95954 2.23082,3.919 3.34623,5.8785 0.93455,2.74336 1.86906,5.4866 2.80359,8.2299 0.57279,2.68307 1.14555,5.36602 1.71833,8.04903 0.0301,3.43673 0.0603,6.87333 0.0904,10.30999 -0.0603,1.92939 -0.12059,3.85871 -0.18088,5.78806 -0.0904,1.95954 -0.18087,3.919 -0.27131,5.8785 -0.21103,2.92424 -0.42205,5.84836 -0.63307,8.77254 -0.36176,3.07497 -0.72351,6.14981 -1.08527,9.22472 -0.15073,2.35145 -0.30146,4.7028 -0.45219,7.0542 -0.12058,2.47204 -0.24117,4.94397 -0.36175,7.41596 0,1.74851 0,3.49696 0,5.24543 0.0301,2.47204 0.0603,4.94397 0.0904,7.41596 0,2.7735 0,5.54689 0,8.32034 -0.0301,2.29115 -0.0603,4.58222 -0.0904,6.87332 -0.0301,1.83896 -0.0603,3.67784 -0.0904,5.51675 -0.24117,2.53233 -0.48234,5.06456 -0.72351,7.59684 -0.24117,1.56763 -0.48234,3.1352 -0.72351,4.7028 -0.54264,1.62792 -1.08526,3.25578 -1.62789,4.88367 -0.72352,1.17573 -1.44701,2.35141 -2.17052,3.52711 -0.72352,0.84411 -1.44702,1.68818 -2.17053,2.53227 -0.99484,0.66323 -1.98964,1.32644 -2.98447,1.98965 -1.08528,0.5125 -2.17052,1.02497 -3.25578,1.53746 -0.84411,0.24117 -1.68819,0.48233 -2.53228,0.7235 -1.14558,0.21103 -2.29111,0.42205 -3.43666,0.63307 -1.35661,-0.0603 -2.71316,-0.12058 -4.06973,-0.18088 -1.53749,-0.4522 -3.07491,-0.90438 -4.61237,-1.35657 -1.53748,-0.66323 -3.07491,-1.32643 -4.61236,-1.98965 -1.14558,-0.87425 -2.29111,-1.74848 -3.43666,-2.62271 -0.72352,-0.90441 -1.44702,-1.80878 -2.17052,-2.71316 -0.54265,-0.99484 -1.08527,-1.98965 -1.6279,-2.98447 -0.36176,-1.20587 -0.72351,-2.41169 -1.08526,-3.61754 -0.18088,-1.29631 -0.36176,-2.59257 -0.54263,-3.88885 0,-2.14043 0,-4.28076 0,-6.42114 0.0301,-1.71836 0.0603,-3.43666 0.0904,-5.15499 0.1206,-1.3566 0.24119,-2.71315 0.36179,-4.06973 0.24118,-2.56248 0.48234,-5.12485 0.72351,-7.68727 0.24117,-2.44189 0.48234,-4.88368 0.72351,-7.32552 0.0904,-2.50218 0.18088,-5.00426 0.27131,-7.50639 0,-2.41175 0,-4.82339 0,-7.23508 -0.30146,-2.47204 -0.60292,-4.94397 -0.90438,-7.41596 -0.36176,-1.71836 -0.72351,-3.43666 -1.08526,-5.15499 -0.69338,-2.26101 -1.38673,-4.52193 -2.08009,-6.78289 -0.63308,-2.01983 -1.26614,-4.03959 -1.89921,-6.05938 -0.66323,-2.04998 -1.32643,-4.09988 -1.98964,-6.14982 -0.663232,-2.20071 -1.326433,-4.40134 -1.98965,-6.60201 -0.482348,-2.80365 -0.964677,-5.60718 -1.447016,-8.41078 -0.150734,-2.01983 -0.301462,-4.03958 -0.452192,-6.05937 -0.09044,-2.08013 -0.180877,-4.16017 -0.271316,-6.24026 0.271321,-2.35145 0.542631,-4.7028 0.813947,-7.0542 0.331614,-2.01984 0.663215,-4.03959 0.994823,-6.05938 0.422055,-1.4169 0.844093,-2.83374 1.266139,-4.25061 0.663229,-1.26616 1.326425,-2.53228 1.989645,-3.79842 0.93455,-1.11543 1.86906,-2.23081 2.80359,-3.34622 1.05514,-0.81396 2.11024,-1.62789 3.16535,-2.44184 1.20587,-0.51249 2.41169,-1.02497 3.61754,-1.53745 1.08529,-0.33162 2.17053,-0.66322 3.25579,-0.99483 0.78381,0.0301 1.5676,0.0603 2.3514,0.0904 0,0 0,0 0,0"
       transform="matrix(1.5559798,0.96502281,-0.87047199,1.4035283,62.669137,-225.82921)" /></g></svg>
