<?xml version="1.0" encoding="UTF-8" standalone="no"?>
<!-- Created with Inkscape (http://www.inkscape.org/) -->

<svg
   width="210mm"
   height="297mm"
   viewBox="0 0 210 297"
   version="1.1"
   id="svg1"
   xml:space="preserve"
   xmlns:inkscape="http://www.inkscape.org/namespaces/inkscape"
   xmlns:sodipodi="http://sodipodi.sourceforge.net/DTD/sodipodi-0.dtd"
   xmlns="http://www.w3.org/2000/svg"
   xmlns:svg="http://www.w3.org/2000/svg"><sodipodi:namedview
     id="namedview1"
     pagecolor="#ffffff"
     bordercolor="#000000"
     borderopacity="0.25"
     inkscape:showpageshadow="2"
     inkscape:pageopacity="0.0"
     inkscape:pagecheckerboard="0"
     inkscape:deskcolor="#d1d1d1"
     inkscape:document-units="mm" /><defs
     id="defs1"><inkscape:path-effect
       effect="bspline"
       id="path-effect1"
       is_visible="true"
       lpeversion="1.3"
       weight="33.333333"
       steps="2"
       helper_size="0"
       apply_no_weight="true"
       apply_with_weight="true"
       only_selected="false"
       uniform="false" /></defs><g
     inkscape:groupmode="layer"
     id="layer2"
     inkscape:label="rasteirinha"><path
       style="fill:#000000;fill-opacity:1;stroke:#000000;stroke-width:0.264583px;stroke-linecap:butt;stroke-linejoin:miter;stroke-opacity:1"
       d="m 16.550243,158.80999 c 0.648147,-0.0754 1.296285,-0.15073 2.019801,-0.21856 0.723516,-0.0678 1.522374,-0.12813 2.562429,-0.18088 1.040055,-0.0528 2.321241,-0.098 3.368829,-0.12812 1.047589,-0.0301 1.861517,-0.0452 2.630252,-0.0527 0.768735,-0.008 1.492228,-0.008 2.396624,0 0.904396,0.008 1.989636,0.0226 3.037225,0.0377 1.047589,0.0151 2.057466,0.0301 2.976932,0.0452 0.919467,0.0151 1.748468,0.0301 2.735767,0.0527 0.987298,0.0226 2.132831,0.0527 3.067368,0.0829 0.934537,0.0301 1.658033,0.0603 2.471988,0.0904 0.813954,0.0301 1.718323,0.0603 2.607643,0.0829 0.889321,0.0226 1.76354,0.0377 2.713155,0.0527 0.949615,0.0151 1.974564,0.0301 2.939249,0.0527 0.964686,0.0226 1.869055,0.0527 3.089989,0.0904 1.220934,0.0377 2.758358,0.0829 4.190314,0.11308 1.431957,0.0302 2.758361,0.0453 4.047122,0.0679 1.28876,0.0226 2.539803,0.0528 3.692903,0.0829 1.153101,0.0301 2.208197,0.0603 3.059832,0.0979 0.851635,0.0377 1.499762,0.0829 1.982106,0.10551 0.482343,0.0226 0.798871,0.0226 0.964668,0.008 0.165797,-0.0151 0.180899,-0.0452 0.331625,-0.15074 0.150727,-0.10549 0.437109,-0.28636 1.153093,-0.7461 0.715985,-0.45974 1.861514,-1.1983 2.441821,-1.58264 0.580306,-0.38435 0.595408,-0.41453 0.550172,-0.44466 -0.04523,-0.0301 -0.150737,-0.0602 -0.580322,-0.33156 -0.429585,-0.27131 -1.183228,-0.78379 -1.846449,-1.21337 -0.663221,-0.42959 -1.235988,-0.77627 -1.695719,-1.07773 -0.45973,-0.30146 -0.806407,-0.5577 -2.230839,-1.42442 -1.424433,-0.86671 -3.926513,-2.34385 -7.777736,-4.7405 -3.851223,-2.39665 -9.051336,-5.71266 -13.286905,-8.3354 -4.235568,-2.62274 -7.506358,-4.55205 -10.581296,-6.38345 -3.074939,-1.8314 -5.95384,-3.56477 -8.252502,-4.83091 -2.298661,-1.26615 -4.016959,-2.06501 -5.177591,-2.65286 -1.160632,-0.58785 -1.763543,-0.96467 -2.004705,-1.19077 -0.241162,-0.22611 -0.120595,-0.30146 0.113043,-0.48988 0.233638,-0.18842 0.58031,-0.48987 0.904385,-0.76119 0.324075,-0.27132 0.625529,-0.51248 0.904383,-0.72351 0.278855,-0.21102 0.53509,-0.39189 0.723503,-0.50494 0.188412,-0.11305 0.308988,-0.15827 0.429581,-0.21103 0.120593,-0.0528 0.241171,-0.11305 0.346685,-0.14319 0.105513,-0.0302 0.19595,-0.0302 0.32407,-0.0452 0.12812,-0.0151 0.293933,-0.0452 0.497417,-0.0377 0.203485,0.008 0.444646,0.0528 0.738578,0.15827 0.293932,0.10552 0.640606,0.27132 1.077732,0.44466 0.437125,0.17334 0.96467,0.35422 1.394255,0.52003 0.429586,0.1658 0.761188,0.31653 1.175702,0.51248 0.414514,0.19595 0.911917,0.43712 1.454553,0.70844 0.542636,0.27131 1.130477,0.57277 1.801236,0.92699 0.670759,0.35422 1.4244,0.76119 2.208208,1.18324 0.783808,0.42205 1.597738,0.85916 2.351398,1.28875 0.75366,0.42958 1.447008,0.85162 2.208209,1.30382 0.7612,0.4522 1.5902,0.93452 2.276031,1.32643 0.685832,0.3919 1.228453,0.69336 2.215752,1.25861 0.987299,0.56524 2.419216,1.39425 3.579853,2.09515 1.160637,0.70091 2.049928,1.27367 3.082447,1.91429 1.032519,0.64061 2.208197,1.34903 3.444203,2.11023 1.236006,0.76119 2.532266,1.57513 3.640145,2.26849 1.10788,0.69337 2.027322,1.26614 2.999546,1.86906 0.972224,0.60293 1.99717,1.23599 2.871416,1.7937 0.874246,0.55771 1.597739,1.04004 2.336327,1.51485 0.738588,0.4748 1.492229,0.94206 2.185597,1.37164 0.693368,0.42958 1.326424,0.82146 1.921817,1.20582 0.595393,0.38437 1.153085,0.76119 1.793698,1.1757 0.640613,0.41452 1.364106,0.8667 2.102694,1.34151 0.738588,0.4748 1.49223,0.97221 2.313721,1.50731 0.821492,0.5351 1.710784,1.10786 2.15544,1.37165 0.444657,0.26379 0.444657,0.21859 0.738587,0.008 0.29393,-0.21104 0.881769,-0.58786 1.560067,-1.12296 0.678299,-0.53511 1.447008,-1.22845 2.456918,-2.14038 1.00991,-0.91194 2.26095,-2.0424 3.692908,-3.32362 1.431957,-1.28123 3.044743,-2.71314 4.506846,-4.03205 1.462104,-1.31891 2.773434,-2.52473 4.047121,-3.72305 1.273687,-1.19832 2.509662,-2.38907 3.504492,-3.30854 0.99483,-0.91946 1.74847,-1.56759 2.64533,-2.32125 0.89685,-0.75366 1.93688,-1.61282 2.93171,-2.37401 0.99483,-0.7612 1.94442,-1.4244 2.66039,-1.88414 0.71598,-0.45973 1.19831,-0.71596 1.59022,-0.87423 0.3919,-0.15827 0.69335,-0.21856 0.92699,-0.2487 0.23363,-0.0302 0.39943,-0.0302 0.5763,-0.008 0.17688,0.022 0.36483,0.066 0.53816,0.13384 0.17334,0.0678 0.33209,0.15947 0.51697,0.28066 0.18488,0.12119 0.39589,0.27192 0.62199,0.44526 0.2261,0.17335 0.46726,0.36929 0.68582,0.55771 0.21857,0.18841 0.41451,0.36929 0.5351,0.49741 0.12059,0.12813 0.16579,0.20347 0.13565,0.37682 -0.0301,0.17335 -0.13565,0.44466 -0.3316,0.76874 -0.19596,0.32407 -0.48234,0.70089 -0.82903,1.08526 -0.34668,0.38437 -0.75364,0.77626 -1.33396,1.36412 -0.58033,0.58785 -1.33397,1.37164 -2.1027,2.10269 -0.76874,0.73105 -1.55252,1.40933 -2.2685,2.04241 -0.71598,0.63307 -1.36411,1.22091 -2.05748,1.84645 -0.69336,0.62554 -1.43193,1.28874 -2.13284,1.88413 -0.7009,0.59539 -1.3641,1.12294 -2.08762,1.71833 -0.72351,0.5954 -1.5073,1.2586 -2.08008,1.77108 -0.57278,0.51249 -0.93453,0.87424 -1.59775,1.45456 -0.663223,0.58033 -1.627882,1.37918 -2.419226,2.03487 -0.791344,0.65568 -1.409326,1.16815 -1.98211,1.66557 -0.572784,0.49742 -1.100331,0.97975 -1.710797,1.49978 -0.610466,0.52002 -1.303813,1.07771 -1.899207,1.55252 -0.595393,0.47481 -1.092794,0.8667 -1.582674,1.28121 -0.489881,0.41452 -0.972209,0.85163 -1.477161,1.26614 -0.504951,0.41451 -1.032502,0.80641 -0.964667,1.20585 0.06784,0.39944 0.731035,0.8064 1.213379,1.12294 0.482343,0.31654 0.7838,0.54263 1.085266,0.76873 0.301465,0.22609 0.60292,0.45219 0.987286,0.7235 0.384366,0.27132 0.851622,0.58785 1.198305,0.82902 0.346682,0.24117 0.572778,0.40698 1.364128,0.52003 0.791349,0.11304 2.1479,0.17334 3.542173,0.21855 1.394274,0.0452 2.82619,0.0754 4.408885,0.0829 1.58269,0.008 3.31606,-0.008 5.02687,-0.0151 1.71081,-0.008 3.39896,-0.008 6.27796,-0.0452 2.879,-0.0377 6.94865,-0.11305 10.13663,-0.15827 3.18798,-0.0452 5.49411,-0.0603 7.56668,-0.0829 2.07257,-0.0226 3.91145,-0.0527 5.30572,-0.0678 1.39427,-0.0151 2.34385,-0.0151 4.22048,-0.0151 1.87663,0 4.68017,0 6.78288,-0.0151 2.1027,-0.0151 3.50447,-0.0453 4.71786,-0.0528 1.2134,-0.008 2.23835,0.008 3.04477,0.015 0.80641,0.008 1.39424,0.008 1.71832,-10e-6 0.32409,-0.008 0.38435,-0.0226 0.6406,-0.48986 0.25625,-0.46727 0.70844,-1.38671 1.19832,-2.32879 0.48988,-0.94208 1.01743,-1.90674 1.45455,-2.73577 0.43712,-0.82902 0.7838,-1.52237 1.23599,-2.28356 0.4522,-0.7612 1.00989,-1.59021 1.47716,-2.29111 0.46727,-0.7009 0.84409,-1.27367 1.16817,-1.65803 0.32407,-0.38437 0.59538,-0.58031 0.83656,-0.73857 0.24117,-0.15827 0.45218,-0.27885 0.76872,-0.36175 0.31654,-0.0829 0.73858,-0.12812 1.1757,-0.098 0.43712,0.0301 0.88931,0.13566 1.31136,0.29393 0.42205,0.15826 0.81394,0.36928 1.07771,0.52 0.26377,0.15073 0.39945,0.24118 0.46727,0.36177 0.0678,0.12058 0.0678,0.27131 0.0301,0.4748 -0.0377,0.2035 -0.11305,0.45973 -0.21856,0.74612 -0.10551,0.28639 -0.24117,0.60292 -0.41451,0.97222 -0.17335,0.36929 -0.38436,0.79132 -0.59538,1.21338 -0.21103,0.42205 -0.42205,0.84408 -0.63307,1.24353 -0.21103,0.39944 -0.42205,0.77626 -0.64815,1.19077 -0.22609,0.41451 -0.46726,0.8667 -0.5954,1.10034 -0.12813,0.23365 -0.14313,0.24865 -0.28634,0.48231 -0.14322,0.23365 -0.41453,0.68584 -0.64064,1.03252 -0.2261,0.34669 -0.40698,0.58786 -0.55771,0.85164 -0.15073,0.26378 -0.27131,0.55016 -0.4748,1.01743 -0.20349,0.46728 -0.48987,1.11541 -0.63307,1.43193 -0.14319,0.31652 -0.14319,0.30152 0.43713,0.31658 0.58033,0.0151 1.74094,0.0603 2.87143,0.1055 1.13049,0.0452 2.2308,0.0904 3.26332,0.12811 1.03252,0.0377 1.99717,0.0678 2.86388,0.0904 0.86671,0.0226 1.63543,0.0377 2.7207,0.0603 1.08528,0.0226 2.48704,0.0527 4.08481,0.12057 1.59776,0.0678 3.39142,0.17337 4.86106,0.27136 1.46964,0.098 2.61517,0.18843 3.6703,0.30148 1.05512,0.11305 2.01978,0.2487 2.90156,0.39944 0.88179,0.15073 1.68064,0.31653 2.32125,0.45219 0.64061,0.13566 1.12294,0.24117 1.69572,0.40698 0.57279,0.1658 1.23599,0.39189 1.9369,0.67075 0.70091,0.27885 1.43947,0.61045 1.98964,0.89684 0.55017,0.2864 0.91192,0.52756 1.29629,0.78381 0.38437,0.25625 0.79133,0.52755 1.1154,0.82148 0.32408,0.29393 0.56524,0.61046 0.70089,0.87424 0.13565,0.26378 0.16579,0.4748 0.16579,0.72351 0,0.2487 -0.0301,0.53509 -0.15072,0.81395 -0.12058,0.27885 -0.3316,0.55016 -0.54263,0.87424 -0.21102,0.32407 -0.42204,0.70089 -0.65567,1.04757 -0.23363,0.34668 -0.48987,0.66321 -1.07019,0.88931 -0.58032,0.2261 -1.48469,0.36175 -2.77346,0.48234 -1.28877,0.12059 -2.96185,0.2261 -4.80079,0.33915 -1.83893,0.11305 -3.84361,0.23363 -5.41876,0.3316 -1.57514,0.098 -2.72067,0.17334 -4.28829,0.27886 -1.56762,0.10551 -3.55723,0.24116 -5.2605,0.3316 -1.70328,0.0904 -3.12012,0.13566 -5.08718,0.18842 -1.96706,0.0528 -4.48422,0.11304 -6.33068,0.12058 -1.84646,0.008 -3.02214,-0.0377 -3.90392,-0.0603 -0.88178,-0.0226 -1.46962,-0.0226 -1.77109,-0.0226 -0.30148,0 -0.31648,0 -1.00988,0.0678 -0.69339,0.0678 -2.06502,0.20348 -2.8639,0.28638 -0.79888,0.0829 -1.02497,0.11303 -1.66559,0.12809 -0.64061,0.0151 -1.6957,0.0151 -2.69807,-0.0151 -1.00237,-0.0301 -1.95196,-0.0904 -3.15029,-0.15071 -1.19832,-0.0603 -2.6453,-0.12058 -4.29583,-0.15826 -1.65052,-0.0377 -3.50447,-0.0527 -5.2002,-0.0829 -1.69574,-0.0301 -3.23316,-0.0754 -4.5596,-0.12057 -1.32645,-0.0452 -2.44183,-0.0904 -4.01699,-0.1432 -1.57516,-0.0527 -3.60998,-0.11305 -5.69009,-0.20349 -2.08011,-0.0904 -4.20537,-0.21102 -6.08952,-0.33914 -1.88415,-0.12813 -3.52708,-0.26379 -4.63496,-0.34669 -1.10788,-0.0829 -1.68064,-0.11304 -2.81114,-0.0829 -1.1305,0.0301 -2.81865,0.12057 -3.67029,0.16579 -0.85165,0.0452 -0.86665,0.0452 -1.3867,0.0226 -0.52005,-0.0226 -1.545,-0.0678 -2.74333,-0.12059 -1.19833,-0.0528 -2.56995,-0.11304 -3.66276,-0.24116 -1.092802,-0.12812 -1.906731,-0.32407 -2.909103,-0.45973 -1.002373,-0.13566 -2.193121,-0.21102 -3.225635,-0.27132 -1.032515,-0.0603 -1.906735,-0.10551 -3.172891,-0.15073 -1.266156,-0.0452 -2.924162,-0.0904 -4.597292,-0.1432 -1.673129,-0.0528 -3.36128,-0.11304 -5.147459,-0.17333 -1.786179,-0.0603 -3.670277,-0.12059 -5.117303,-0.1432 -1.447025,-0.0226 -2.456902,-0.008 -3.466808,0.0226 -1.009906,0.0301 -2.019781,0.0754 -2.841274,0.13565 -0.821492,0.0603 -1.454544,0.13566 -1.967033,0.17334 -0.512489,0.0377 -0.904381,0.0377 -1.266139,0.0301 -0.361758,-0.008 -0.693356,-0.0226 -1.017433,-0.0377 -0.324076,-0.0151 -0.6406,-0.0301 -0.994822,-0.0603 -0.354221,-0.0301 -0.74611,-0.0754 -1.100334,-0.12812 -0.354223,-0.0528 -0.670751,-0.11305 -1.115412,-0.20349 -0.444662,-0.0904 -1.017428,-0.21102 -1.29628,0 -0.278851,0.21103 -0.263778,0.75365 -0.256242,1.35658 0.0075,0.60293 0.0075,1.26613 -0.01507,1.62034 -0.0226,0.35422 -0.06782,0.39943 -4.77072,0.48234 -4.702903,0.0829 -14.063099,0.20349 -21.908702,0.27132 -7.845602,0.0678 -14.17617,0.0829 -18.260993,0.008 -4.084824,-0.0754 -5.9237026,-0.24116 -6.8883809,-0.49741 -0.9646782,-0.25624 -1.0551134,-0.60291 -1.1530904,-0.99482 -0.097977,-0.39191 -0.2034862,-0.82902 -0.3014623,-1.27368 -0.097976,-0.44466 -0.1884125,-0.89684 -0.3014627,-1.33396 -0.1130502,-0.43713 -0.2487028,-0.85916 -0.3542158,-1.26614 -0.105513,-0.40698 -0.1808765,-0.79887 -0.2562419,-1.19077 m 0,0 c -0.2713171,-0.31654 -0.5426293,-0.63307 -0.7235082,-0.927 -0.1808789,-0.29393 -0.2713162,-0.56524 -0.3240798,-0.70844 -0.052764,-0.14319 -0.067803,-0.15823 -0.067812,-0.28636 -8.2e-6,-0.12813 0.015064,-0.3693 0.1281151,-0.61801 0.1130506,-0.24872 0.3240655,-0.50495 0.5878487,-0.77627 0.2637831,-0.27132 0.580311,-0.5577 0.9646793,-0.85917 0.3843682,-0.30146 0.8365514,-0.61799 1.2510641,-0.88177 0.4145127,-0.26379 0.7913369,-0.47481 1.3189014,-0.73105 0.5275649,-0.25625 1.2058389,-0.5577 1.7786199,-0.80641 0.572781,-0.2487 1.040038,-0.44465 1.514845,-0.63307 0.474807,-0.18841 0.957135,-0.36928 1.567602,-0.5577 0.610467,-0.18841 1.349034,-0.38436 2.087615,-0.58031 0,0 0,0 0,0"
       id="path1"
       inkscape:path-effect="#path-effect1"
       inkscape:original-d="m 16.550243,158.80999 c 0.648143,-0.0754 1.296285,-0.15073 1.944428,-0.2261 0.798889,-0.0603 1.597747,-0.12059 2.39662,-0.18088 1.281238,-0.0452 2.562424,-0.0904 3.843636,-0.13565 0.813963,-0.0151 1.627893,-0.0301 2.441839,-0.0452 0.723523,0 1.447016,0 2.170524,0 1.085284,0.0151 2.170524,0.0301 3.255786,0.0452 1.009916,0.0151 2.019793,0.0301 3.029689,0.0452 0.829036,0.0151 1.658039,0.0301 2.487058,0.0452 1.145578,0.0301 2.291109,0.0603 3.436663,0.0904 0.723522,0.0301 1.447016,0.0603 2.170524,0.0904 0.904403,0.0301 1.80877,0.0603 2.713155,0.0904 0.874256,0.0151 1.748477,0.0301 2.622716,0.0452 1.02499,0.0151 2.049939,0.0301 3.074908,0.0452 0.904403,0.0301 1.80877,0.0603 2.713155,0.0904 1.537485,0.0452 3.074909,0.0904 4.612363,0.13566 1.326458,0.0151 2.652862,0.0303 3.979294,0.0454 1.25109,0.0301 2.502131,0.0603 3.753197,0.0904 1.055137,0.0301 2.110231,0.0603 3.165347,0.0904 0.648156,0.0452 1.296285,0.0904 1.944428,0.13566 0.316541,0 0.633069,0 0.949604,0 0.01507,-0.0301 0.03015,-0.0603 0.04522,-0.0904 0.286394,-0.18088 0.572777,-0.36175 0.859166,-0.54263 1.145577,-0.7386 2.291108,-1.47716 3.436662,-2.21574 0.01507,-0.0301 0.03015,-0.0603 0.04522,-0.0904 -0.105513,-0.0302 -0.211023,-0.0603 -0.316534,-0.0904 -0.75367,-0.51249 -1.50731,-1.02497 -2.260964,-1.53745 -0.572789,-0.34669 -1.145555,-0.69337 -1.718332,-1.04005 -0.346688,-0.25624 -0.693362,-0.51248 -1.040042,-0.76872 -2.502182,-1.4772 -5.004264,-2.95433 -7.506395,-4.43149 -5.200317,-3.31614 -10.400426,-6.63216 -15.60064,-9.94823 -3.270924,-1.9294 -6.541717,-3.85871 -9.812576,-5.78807 -2.879016,-1.73344 -5.757917,-3.46681 -8.636875,-5.20021 -1.718366,-0.79889 -3.436663,-1.59775 -5.154994,-2.39662 -0.602936,-0.37683 -1.205847,-0.75365 -1.80877,-1.13048 0.120587,-0.0754 0.241169,-0.15073 0.361754,-0.2261 0.346688,-0.30147 0.693362,-0.60292 1.040042,-0.90438 0.301468,-0.24118 0.602924,-0.48234 0.904385,-0.72351 0.256248,-0.18088 0.512485,-0.36175 0.768727,-0.54263 0.120588,-0.0452 0.24117,-0.0904 0.361754,-0.13566 0.120587,-0.0603 0.24117,-0.12058 0.361754,-0.18088 0.09044,0 0.180877,0 0.271316,0 0.165807,-0.0301 0.331608,-0.0603 0.497412,-0.0904 0.241174,0.0452 0.482338,0.0904 0.723507,0.13565 0.346688,0.16581 0.693362,0.33161 1.040043,0.49741 0.527569,0.18089 1.055116,0.36176 1.582674,0.54264 0.331614,0.15073 0.663215,0.30146 0.994823,0.45219 0.497422,0.24117 0.994823,0.48234 1.492235,0.72351 0.587862,0.30146 1.175701,0.60292 1.763551,0.90438 0.753669,0.40698 1.507308,0.81395 2.260962,1.22092 0.813963,0.43713 1.627893,0.87424 2.441839,1.31136 0.693376,0.42205 1.386724,0.84409 2.080085,1.26614 0.829036,0.48235 1.658039,0.96467 2.487059,1.44701 0.542642,0.30147 1.085262,0.60293 1.627893,0.90439 1.431971,0.82903 2.863885,1.65804 4.295828,2.48706 0.88933,0.57279 1.778624,1.14555 2.667935,1.71833 1.175724,0.70845 2.351401,1.41687 3.527102,2.1253 1.29631,0.81397 2.59257,1.6279 3.888855,2.44184 0.919476,0.57279 1.838916,1.14556 2.758374,1.71833 1.02499,0.63309 2.049939,1.26614 3.074908,1.89921 0.723523,0.48235 1.447016,0.96468 2.170524,1.44702 0.753669,0.46727 1.507308,0.93453 2.260962,1.40179 0.633082,0.3919 1.266139,0.78378 1.899208,1.17567 0.557716,0.37684 1.115409,0.75366 1.673113,1.13049 0.723522,0.4522 1.447015,0.90438 2.170523,1.35657 0.753669,0.49742 1.507308,0.99483 2.260963,1.49224 0.889329,0.57279 1.778623,1.14555 2.667935,1.71833 0,-0.0452 0,-0.0904 0,-0.13566 0.587862,-0.37683 1.1757,-0.75365 1.763551,-1.13048 0.768742,-0.69338 1.537454,-1.38672 2.306181,-2.08008 1.251091,-1.13051 2.502132,-2.26097 3.753197,-3.39145 1.612852,-1.43197 3.22564,-2.86388 4.83846,-4.29583 1.311384,-1.20587 2.622716,-2.41169 3.934074,-3.61754 1.236017,-1.19079 2.471989,-2.38154 3.707979,-3.57232 0.75367,-0.64815 1.50731,-1.29628 2.26096,-1.94442 1.04006,-0.85919 2.08009,-1.71834 3.12013,-2.5775 0.94962,-0.66323 1.89921,-1.32643 2.84881,-1.98965 0.48235,-0.25625 0.96468,-0.51248 1.44702,-0.76872 0.30147,-0.0603 0.60292,-0.12059 0.90438,-0.18088 0.16581,0 0.33161,0 0.49741,0 0.18795,0.044 0.3759,0.088 0.56384,0.13203 0.17475,0.0639 0.32548,0.16943 0.47621,0.27494 0.21102,0.15074 0.42204,0.30146 0.63307,0.45219 0.24117,0.19596 0.48233,0.3919 0.7235,0.58785 0.19596,0.18088 0.3919,0.36176 0.58785,0.54263 0.0452,0.0754 0.0904,0.15074 0.13566,0.2261 -0.10551,0.27132 -0.21102,0.54263 -0.31653,0.81395 -0.2864,0.37683 -0.57278,0.75365 -0.85917,1.13048 -0.40698,0.39191 -0.81394,0.7838 -1.22092,1.1757 -0.75367,0.78381 -1.50731,1.5676 -2.26096,2.3514 -0.78382,0.6783 -1.5676,1.35658 -2.3514,2.03487 -0.64816,0.58786 -1.29629,1.1757 -1.94443,1.76355 -0.73859,0.66323 -1.47716,1.32643 -2.21574,1.98964 -0.66323,0.52757 -1.32643,1.05512 -1.98965,1.58268 -0.78381,0.66323 -1.5676,1.32643 -2.3514,1.98964 -0.36176,0.36176 -0.72351,0.72351 -1.08526,1.08527 -0.964698,0.79888 -1.929355,1.59774 -2.894033,2.39662 -0.618008,0.51249 -1.235992,1.02496 -1.853989,1.53745 -0.527568,0.48235 -1.055115,0.96468 -1.582673,1.44702 -0.693376,0.55771 -1.386724,1.1154 -2.080086,1.67311 -0.497421,0.39191 -0.994823,0.7838 -1.492235,1.1757 -0.482348,0.43713 -0.964677,0.87424 -1.447016,1.31136 -0.527568,0.3919 -1.055115,0.7838 -1.582673,1.1757 0.663229,0.40698 1.326431,0.81394 1.989647,1.22092 0.301467,0.2261 0.602923,0.45219 0.904385,0.67828 0.301467,0.22611 0.602923,0.4522 0.904384,0.67829 0.467275,0.31654 0.934532,0.63307 1.401797,0.94961 0.226101,0.1658 0.452193,0.33161 0.678289,0.49741 1.356604,0.0603 2.713155,0.12058 4.069732,0.18088 1.431971,0.0301 2.863885,0.0603 4.295831,0.0904 1.73344,-0.0151 3.46681,-0.0301 5.20021,-0.0452 1.68822,0 3.37637,0 5.06456,0 4.06981,-0.0754 8.13946,-0.15073 12.20919,-0.2261 2.30623,-0.0151 4.61236,-0.0301 6.91855,-0.0452 1.83895,-0.0301 3.67783,-0.0603 5.51674,-0.0904 0.94963,0 1.89921,0 2.84882,0 2.80365,0 5.60719,0 8.41078,0 1.40182,-0.0302 2.80359,-0.0603 4.20539,-0.0905 1.02499,0.0151 2.04994,0.0302 3.0749,0.0452 0.58787,0 1.1757,0 1.76356,0 0.0603,-0.0151 0.12058,-0.0301 0.18087,-0.0452 0.4522,-0.91947 0.90439,-1.83891 1.35658,-2.75837 0.52757,-0.9647 1.05512,-1.92936 1.58267,-2.89403 0.34669,-0.69338 0.69336,-1.38673 1.04005,-2.08009 0.55771,-0.82903 1.1154,-1.65804 1.67311,-2.48706 0.37683,-0.57278 0.75365,-1.14555 1.13048,-1.71833 0.27132,-0.19595 0.54263,-0.39189 0.81395,-0.58783 0.21103,-0.12059 0.42204,-0.24117 0.63306,-0.36175 0.42206,-0.0452 0.8441,-0.0904 1.26614,-0.13566 0.4522,0.10551 0.90439,0.21102 1.35658,0.31654 0.39191,0.21102 0.7838,0.42204 1.1757,0.63306 0.13566,0.0904 0.27132,0.18088 0.40697,0.27132 0,0.15073 0,0.30146 0,0.45219 -0.0754,0.25625 -0.15073,0.51249 -0.22609,0.76873 -0.13566,0.31654 -0.27132,0.63307 -0.40698,0.9496 -0.21103,0.42206 -0.42204,0.84409 -0.63306,1.26614 -0.21103,0.42206 -0.42205,0.84409 -0.63307,1.26614 -0.21103,0.37684 -0.42205,0.75366 -0.63307,1.13048 -0.24118,0.4522 -0.48234,0.90439 -0.72351,1.35658 -0.0151,0.0151 -0.0301,0.0301 -0.0452,0.0452 -0.27133,0.45221 -0.54264,0.9044 -0.81397,1.3566 -0.18088,0.24117 -0.36175,0.48234 -0.54263,0.7235 -0.12058,0.2864 -0.24117,0.57278 -0.36175,0.85917 -0.28639,0.64816 -0.57278,1.29629 -0.85917,1.94443 0,-0.0151 0,-0.0301 0,-0.0452 1.16065,0.0452 2.32126,0.0904 3.48188,0.13566 1.10036,0.0452 2.20067,0.0904 3.30101,0.13565 0.9647,0.0301 1.92935,0.0603 2.89403,0.0904 0.76874,0.0151 1.53746,0.0301 2.30618,0.0452 1.40183,0.0301 2.80359,0.0603 4.20539,0.0904 1.79373,0.10554 3.58739,0.21108 5.38109,0.31661 1.14558,0.0905 2.29111,0.18088 3.43666,0.27132 0.9647,0.13566 1.92936,0.27131 2.89404,0.40697 0.79889,0.16581 1.59774,0.33161 2.39662,0.49742 0.48234,0.10551 0.96467,0.21102 1.44701,0.31653 0.66323,0.2261 1.32643,0.45219 1.98965,0.67829 0.7386,0.33161 1.47716,0.66321 2.21574,0.99482 0.36176,0.24118 0.72351,0.48234 1.08526,0.72351 0.40699,0.27132 0.81395,0.54263 1.22092,0.81395 0.24118,0.31654 0.48234,0.63307 0.72351,0.9496 0.0301,0.21103 0.0603,0.42205 0.0904,0.63307 -0.0301,0.28639 -0.0603,0.57278 -0.0904,0.85917 -0.21103,0.27132 -0.42205,0.54263 -0.63307,0.81394 -0.21103,0.37684 -0.42204,0.75366 -0.63307,1.13048 -0.25624,0.31654 -0.51248,0.63307 -0.76872,0.94961 -0.9044,0.13566 -1.80877,0.27131 -2.71316,0.40697 -1.67315,0.10551 -3.34623,0.21103 -5.01934,0.31654 -2.00476,0.12059 -4.00944,0.24117 -6.01415,0.36175 -1.14558,0.0754 -2.29111,0.15073 -3.43667,0.2261 -1.98968,0.13566 -3.97929,0.27131 -5.96894,0.40697 -1.4169,0.0452 -2.83374,0.0904 -4.25061,0.13566 -2.51725,0.0603 -5.03441,0.12058 -7.55161,0.18087 -1.17572,-0.0452 -2.3514,-0.0904 -3.5271,-0.13565 -0.58786,0 -1.1757,0 -1.76355,0 -0.0151,0 -0.0301,0 -0.0452,0 -1.37169,0.13566 -2.74332,0.27131 -4.11497,0.40697 -0.2261,0.0302 -0.4522,0.0603 -0.67829,0.0904 -1.05514,0 -2.11023,0 -3.16535,0 -0.94962,-0.0603 -1.89921,-0.12056 -2.84881,-0.18084 -1.44705,-0.0603 -2.89403,-0.12059 -4.34105,-0.18088 -1.85403,-0.0151 -3.70798,-0.0301 -5.56197,-0.0452 -1.53748,-0.0452 -3.0749,-0.0904 -4.61236,-0.13565 -1.11543,-0.0452 -2.23081,-0.0904 -3.34622,-0.13566 -2.03491,-0.0603 -4.06973,-0.12059 -6.1046,-0.18088 -2.12535,-0.12059 -4.25061,-0.24117 -6.37591,-0.36175 -1.643,-0.13567 -3.28593,-0.27133 -4.9289,-0.407 -0.57279,-0.0301 -1.14555,-0.0603 -1.71833,-0.0904 -1.68822,0.0904 -3.37637,0.18085 -5.06456,0.27128 -0.0151,0 -0.0301,0 -0.0452,0 -1.025,-0.0452 -2.04995,-0.0904 -3.07493,-0.13566 -1.37168,-0.0603 -2.7433,-0.12058 -4.114948,-0.18087 -0.813963,-0.19596 -1.627893,-0.3919 -2.441839,-0.58785 -1.190797,-0.0754 -2.381547,-0.15073 -3.572321,-0.2261 -0.874256,-0.0452 -1.748477,-0.0904 -2.622716,-0.13566 -1.658072,-0.0452 -3.316078,-0.0904 -4.974117,-0.13566 -1.688219,-0.0603 -3.37637,-0.12058 -5.064555,-0.18087 -1.884173,-0.0603 -3.768271,-0.12059 -5.652406,-0.18088 -1.009916,0.0151 -2.019793,0.0301 -3.029689,0.0452 -1.009917,0.0452 -2.019793,0.0904 -3.02969,0.13566 -0.633082,0.0754 -1.266138,0.15073 -1.899208,0.22609 -0.391908,0 -0.7838,0 -1.1757,0 -0.331615,-0.0151 -0.663216,-0.0301 -0.994824,-0.0452 -0.316541,-0.0151 -0.633069,-0.0301 -0.949604,-0.0452 -0.391908,-0.0452 -0.7838,-0.0904 -1.1757,-0.13566 -0.316541,-0.0603 -0.633069,-0.12059 -0.949604,-0.18088 -0.572789,-0.12059 -1.145554,-0.24118 -1.718332,-0.36176 0.01507,0.54264 0.03015,1.08526 0.04522,1.62789 0,0.66323 0,1.32643 0,1.98965 -0.04522,0.0452 -0.09044,0.0904 -0.135658,0.13565 -9.360571,0.12059 -18.720767,0.24117 -28.081151,0.36176 -6.330821,0.0151 -12.661389,0.0301 -18.992083,0.0452 -1.838953,-0.1658 -3.6778319,-0.33159 -5.5167479,-0.49739 -0.09044,-0.34669 -0.180877,-0.69336 -0.2713155,-1.04005 -0.1055136,-0.43713 -0.2110231,-0.87424 -0.3165347,-1.31136 -0.09044,-0.4522 -0.180877,-0.90438 -0.2713155,-1.35657 -0.1356604,-0.42206 -0.2713154,-0.84409 -0.4069732,-1.26614 -0.075367,-0.39191 -0.1507308,-0.7838 -0.2260962,-1.1757 m 0,0 c -0.2713155,-0.31654 -0.5426309,-0.63307 -0.8139464,-0.94961 -0.09044,-0.27132 -0.180877,-0.54263 -0.2713155,-0.81394 -0.015073,-0.0151 -0.030146,-0.0301 -0.045219,-0.0452 0.015073,-0.24118 0.030146,-0.48235 0.045219,-0.72353 0.2110274,-0.25625 0.4220463,-0.51248 0.6330695,-0.76873 0.316541,-0.28639 0.6330694,-0.57277 0.9496041,-0.85916 0.4522015,-0.31654 0.9043849,-0.63307 1.3565774,-0.94961 0.3768345,-0.21102 0.7536541,-0.42205 1.1304811,-0.63307 0.6783018,-0.30147 1.3565778,-0.60292 2.0348658,-0.90438 0.467275,-0.19595 0.934531,-0.3919 1.401797,-0.58785 0.482348,-0.18088 0.964677,-0.36175 1.447016,-0.54263 0.738595,-0.19595 1.477161,-0.3919 2.215742,-0.58785 0,0 0,0 0,0" /></g></svg>
