<?xml version="1.0" encoding="UTF-8" standalone="no"?>
<!-- Created with Inkscape (http://www.inkscape.org/) -->

<svg
   width="210mm"
   height="297mm"
   viewBox="0 0 210 297"
   version="1.1"
   id="svg1"
   xml:space="preserve"
   xmlns:inkscape="http://www.inkscape.org/namespaces/inkscape"
   xmlns:sodipodi="http://sodipodi.sourceforge.net/DTD/sodipodi-0.dtd"
   xmlns="http://www.w3.org/2000/svg"
   xmlns:svg="http://www.w3.org/2000/svg"><sodipodi:namedview
     id="namedview1"
     pagecolor="#ffffff"
     bordercolor="#000000"
     borderopacity="0.25"
     inkscape:showpageshadow="2"
     inkscape:pageopacity="0.0"
     inkscape:pagecheckerboard="0"
     inkscape:deskcolor="#d1d1d1"
     inkscape:document-units="mm" /><defs
     id="defs1"><inkscape:path-effect
       effect="bspline"
       id="path-effect1"
       is_visible="true"
       lpeversion="1.3"
       weight="33.333333"
       steps="2"
       helper_size="0"
       apply_no_weight="true"
       apply_with_weight="true"
       only_selected="false"
       uniform="false" /></defs><g
     inkscape:groupmode="layer"
     id="layer2"
     inkscape:label="salto alto"><path
       style="fill:#000000;fill-opacity:1;stroke:#000000;stroke-width:0.264583px;stroke-linecap:butt;stroke-linejoin:miter;stroke-opacity:1"
       d="m 141.84036,161.92056 c 1.40689,0.29843 2.81379,0.59687 4.3486,1.15111 1.53481,0.55423 3.19747,1.36424 4.88149,2.11033 1.68403,0.74609 3.38932,1.4282 5.05203,2.08902 1.6627,0.66082 3.28273,1.3003 5.17993,1.96112 1.89719,0.66082 4.07143,1.34294 6.09653,1.93981 2.02509,0.59687 3.90091,1.10846 5.96864,1.66269 2.06772,0.55424 4.32723,1.15109 6.22442,1.64138 1.89719,0.49028 3.43195,0.87397 4.90281,1.32162 1.47085,0.44766 2.87772,0.95924 4.3699,1.44953 1.49217,0.49028 3.06956,0.95924 4.58305,1.47084 1.51349,0.5116 2.96299,1.06583 4.15672,1.70533 1.19374,0.6395 2.13165,1.36425 2.87774,2.08902 0.74608,0.72477 1.3003,1.44952 1.74795,2.17429 0.44765,0.72477 0.78871,1.44952 0.98056,2.02507 0.19185,0.57555 0.23449,1.00187 -0.14922,1.59875 -0.38371,0.59687 -1.19372,1.36425 -2.13166,1.9398 -0.93794,0.57555 -2.00375,0.95924 -3.15485,1.38558 -1.15111,0.42633 -2.38745,0.89529 -4.02885,1.59874 -1.64139,0.70346 -3.68773,1.64136 -6.0539,2.55798 -2.36616,0.91663 -5.052,1.81191 -8.82508,3.04828 -3.77307,1.23638 -8.63315,2.81377 -12.12909,3.87961 -3.49594,1.06583 -5.62755,1.62005 -8.20688,2.1956 -2.57933,0.57555 -5.60623,1.17241 -7.95106,1.55611 -2.34484,0.3837 -4.0075,0.55423 -6.52289,0.93793 -2.51538,0.3837 -5.88333,0.98056 -8.88899,1.51347 -3.00566,0.53292 -5.64886,1.00188 -8.24951,1.34294 -2.60064,0.34107 -5.15858,0.55423 -7.0984,0.61818 -1.93982,0.064 -3.26142,-0.0213 -4.54043,-0.14921 -1.279,-0.12791 -2.51534,-0.29844 -4.07146,-0.72477 -1.55613,-0.42634 -3.43195,-1.10846 -5.07334,-1.7906 -1.64139,-0.68213 -3.04825,-1.36425 -4.60438,-2.4514 -1.556122,-1.08716 -3.261414,-2.57929 -4.710953,-4.00752 -1.449538,-1.42822 -2.643241,-2.79245 -3.943564,-4.45516 -1.300324,-1.66271 -2.707191,-3.6238 -3.858292,-5.4144 -1.151102,-1.79061 -2.046381,-3.41064 -3.090903,-5.28652 -1.044522,-1.87587 -2.238229,-4.00749 -3.55987,-6.26707 -1.321642,-2.25958 -2.771135,-4.64698 -4.007505,-6.67207 -1.236371,-2.02509 -2.259546,-3.68775 -3.304067,-5.17992 -1.044522,-1.49217 -2.110328,-2.81377 -3.218801,-4.242 -1.108472,-1.42822 -2.259542,-2.96298 -3.346698,-4.26331 -1.087157,-1.30032 -2.110329,-2.36612 -3.218802,-3.45328 -1.108473,-1.08715 -2.302177,-2.19559 -3.431966,-3.15484 -1.12979,-0.95926 -2.195594,-1.76927 -3.517236,-2.68589 -1.321641,-0.91662 -2.899038,-1.9398 -4.66833,-2.94169 -1.769293,-1.00188 -3.730379,-1.98243 -5.393083,-2.81378 -1.662704,-0.83135 -3.026937,-1.51347 -4.241991,-2.08902 -1.215054,-0.57555 -2.280862,-1.04451 -3.240115,-1.40689 -0.959253,-0.36238 -1.811899,-0.61818 -2.600619,-0.81003 -0.788719,-0.19185 -1.513469,-0.31974 -2.238241,-0.34106 -0.724771,-0.0213 -1.449516,0.064 -2.025067,0.2558 -0.575552,0.19185 -1.001876,0.49028 -1.406892,0.98056 -0.405017,0.49029 -0.788709,1.17241 -1.044509,2.02508 -0.255799,0.85267 -0.383697,1.87585 -0.447647,2.85642 -0.06395,0.98057 -0.06395,1.91848 2e-6,2.89905 0.06395,0.98057 0.191848,2.00375 0.341066,3.30407 0.149217,1.30033 0.319745,2.87772 0.426329,4.79623 0.106583,1.91852 0.149216,4.17803 0.2558,6.09654 0.106585,1.9185 0.277113,3.49589 0.426331,5.07334 0.149217,1.57744 0.277114,3.15483 0.383697,4.68964 0.106584,1.5348 0.191849,3.02693 0.341067,4.98808 0.149218,1.96115 0.362379,4.39119 0.55423,6.6934 0.191851,2.30221 0.362379,4.47645 0.511597,6.35232 0.149217,1.87588 0.277114,3.45327 0.36238,4.79622 0.08527,1.34296 0.127899,2.4514 0.277117,3.90094 0.149218,1.44954 0.405012,3.2401 0.468966,4.11408 0.06395,0.87398 -0.06396,0.83134 -1.279026,0.76739 -1.215062,-0.064 -3.517203,-0.14921 -4.689614,-0.40502 -1.172411,-0.2558 -1.215043,-0.68212 -1.193726,-1.59875 0.02132,-0.91662 0.106582,-2.32349 0.06395,-3.58118 -0.04263,-1.25768 -0.213164,-2.36612 -0.426332,-4.26332 -0.213168,-1.8972 -0.468961,-4.58303 -0.724762,-7.80187 -0.255802,-3.21884 -0.511596,-6.97048 -0.852665,-10.46643 -0.341069,-3.49594 -0.767393,-6.736 -1.257678,-10.72224 -0.490286,-3.98624 -1.044505,-8.71842 -1.620058,-12.59807 -0.575554,-3.87964 -1.172405,-6.90653 -1.684007,-9.50717 -0.511601,-2.60064 -0.937924,-4.77489 -1.406893,-6.67208 -0.46897,-1.89719 -0.980556,-3.51721 -1.811913,-5.56363 -0.831358,-2.04641 -1.982429,-4.51908 -2.835097,-6.75734 -0.852669,-2.23826 -1.406889,-4.24198 -1.747955,-6.03258 -0.341065,-1.79061 -0.468961,-3.368 -0.447643,-5.03071 0.02132,-1.66271 0.191847,-3.41063 0.44765,-5.11597 0.255802,-1.70535 0.596858,-3.368 1.044512,-4.90281 0.447654,-1.53481 1.001872,-2.94167 2.025083,-5.115989 1.02321,-2.174319 2.515339,-5.115945 3.773026,-7.162346 1.257687,-2.046401 2.280861,-3.197472 3.176164,-4.32726 0.895303,-1.129789 1.662684,-2.238228 2.579307,-3.495919 0.916622,-1.257691 1.982428,-2.664555 2.899048,-3.815658 0.91662,-1.151103 1.684,-2.046381 2.280868,-2.899051 0.596868,-0.85267 1.02319,-1.662683 1.364258,-2.323502 0.341068,-0.660818 0.596861,-1.172406 1.065832,-1.620057 0.468971,-0.447652 1.151087,-0.831342 1.79059,-1.044508 0.639503,-0.213166 1.236354,-0.255798 1.961126,0.106591 0.724771,0.362389 1.577416,1.12977 2.451404,1.85454 0.873988,0.72477 1.769265,1.406886 2.856423,2.259558 1.087157,0.852673 2.366125,1.875847 3.645131,2.941686 1.279006,1.065839 2.557974,2.174278 4.092784,3.623821 1.53481,1.449544 3.325365,3.240099 5.030705,4.902806 1.705341,1.662706 3.325367,3.197468 5.222562,4.945445 1.897195,1.747977 4.071441,3.709061 5.819411,5.499668 1.747971,1.790607 3.069572,3.410635 4.561747,5.371785 1.492174,1.96114 3.154832,4.26328 4.455153,6.09652 1.300321,1.83324 2.238229,3.19747 3.325386,4.79623 1.087157,1.59876 2.323494,3.43195 3.538548,5.37177 1.215055,1.93983 2.408759,3.98618 3.431962,5.88337 1.023203,1.89719 1.875847,3.64511 2.856422,5.56362 0.980574,1.91852 2.089012,4.0075 3.218801,5.90469 1.129789,1.89719 2.280861,3.60248 3.623818,5.52099 1.342958,1.91851 2.877717,4.05012 4.32726,5.71283 1.44954,1.6627 2.81377,2.8564 4.17804,4.02883 1.36428,1.17242 2.72851,2.32349 4.49781,3.47459 1.76929,1.15111 3.94354,2.30219 5.39307,3.06958 1.44953,0.7674 2.17428,1.15109 3.41066,1.57743 1.23638,0.42633 2.9843,0.89529 4.47647,1.23635 1.49217,0.34107 2.72851,0.55423 4.1141,0.68213 1.38559,0.1279 2.92035,0.17054 4.54043,0.1279 1.62007,-0.0426 3.32536,-0.17053 4.68963,-0.29843 1.36427,-0.1279 2.38745,-0.2558 3.36802,-0.31975 0.98057,-0.064 1.91847,-0.064 2.8564,-0.064 0,0 0,0 0,0"
       id="path1"
       inkscape:path-effect="#path-effect1"
       inkscape:original-d="m 141.84036,161.92056 c 1.40689,0.29843 2.81379,0.59686 4.22068,0.8953 1.66273,0.81004 3.32539,1.62005 4.98808,2.43008 1.70536,0.68215 3.41065,1.36426 5.11597,2.04639 1.62009,0.63951 3.24012,1.279 4.86018,1.91849 2.17433,0.68215 4.34857,1.36426 6.52286,2.04639 1.8759,0.51161 3.75172,1.0232 5.62757,1.53479 2.2596,0.59688 4.51911,1.19373 6.77867,1.7906 1.53482,0.3837 3.06958,0.76739 4.60437,1.15109 1.40692,0.51161 2.81379,1.02319 4.22068,1.53479 1.57746,0.46898 3.15485,0.93793 4.73228,1.40689 1.44955,0.55425 2.89905,1.10847 4.34857,1.6627 0.93795,0.72477 1.87586,1.44952 2.81379,2.17428 0.55424,0.72478 1.10846,1.44953 1.66269,2.17429 0.34107,0.72478 0.68213,1.44953 1.0232,2.17429 0.0426,0.42634 0.0853,0.85266 0.1279,1.27899 -0.81005,0.76742 -1.62006,1.5348 -2.43009,2.30219 -1.06585,0.38371 -2.13166,0.7674 -3.19749,1.1511 -1.23638,0.46897 -2.47272,0.93793 -3.70908,1.40689 -2.04643,0.93795 -4.09277,1.87586 -6.13916,2.81378 -2.68594,0.89532 -5.37178,1.7906 -8.05766,2.68589 -4.86027,1.57746 -9.72035,3.15485 -14.58053,4.73228 -2.1317,0.55424 -4.26331,1.10846 -6.39496,1.66269 -3.02701,0.59687 -6.05391,1.19372 -9.08086,1.79059 -1.66272,0.17053 -3.32538,0.34107 -4.98807,0.5116 -3.36808,0.59688 -6.73603,1.19373 -10.10405,1.79059 -2.6433,0.46897 -5.2865,0.93793 -7.92976,1.40689 -2.55803,0.21317 -5.11597,0.42633 -7.67396,0.6395 -1.32165,-0.0853 -2.64325,-0.17053 -3.96488,-0.2558 -1.23638,-0.17054 -2.47272,-0.34106 -3.70908,-0.5116 -1.87589,-0.68214 -3.75171,-1.36426 -5.62757,-2.04639 -1.40692,-0.68214 -2.81378,-1.36426 -4.22068,-2.04639 -1.705354,-1.49218 -3.410645,-2.98431 -5.115969,-4.47647 -1.193751,-1.36429 -2.387455,-2.72852 -3.581182,-4.09278 -1.406921,-1.96116 -2.813785,-3.92225 -4.220678,-5.88337 -0.895313,-1.62009 -1.790591,-3.24012 -2.685886,-4.86018 -1.193751,-2.13169 -2.387454,-4.26331 -3.581182,-6.39496 -1.449554,-2.38751 -2.899051,-4.77491 -4.348577,-7.16237 -1.023215,-1.66272 -2.046389,-3.32538 -3.069584,-4.98807 -1.065849,-1.32165 -2.131656,-2.64325 -3.197484,-3.96488 -1.151117,-1.53482 -2.302188,-3.06958 -3.453282,-4.60438 -1.023215,-1.06585 -2.046389,-2.13165 -3.069584,-3.19748 -1.193751,-1.10848 -2.387454,-2.21692 -3.581181,-3.32538 -1.06585,-0.81005 -2.131656,-1.62006 -3.197484,-2.43009 -1.577457,-1.02321 -3.15485,-2.04639 -4.732275,-3.06958 -1.961163,-0.98058 -3.922247,-1.96113 -5.88337,-2.94169 -1.364287,-0.68214 -2.728519,-1.36426 -4.092779,-2.04639 -1.065849,-0.46897 -2.131655,-0.93793 -3.197483,-1.40689 -0.85268,-0.2558 -1.705325,-0.5116 -2.557987,-0.7674 -0.724777,-0.1279 -1.449526,-0.2558 -2.174289,-0.38369 -0.724777,0.0853 -1.449526,0.17053 -2.174289,0.25579 -0.426339,0.29844 -0.852662,0.59687 -1.278993,0.8953 -0.383706,0.68214 -0.767396,1.36426 -1.151094,2.04639 -0.127902,1.02321 -0.255799,2.04639 -0.383698,3.06958 0,0.93795 0,1.87586 0,2.81379 0.127902,1.02321 0.255799,2.04639 0.383698,3.06958 0.170536,1.57746 0.341065,3.15485 0.511597,4.73228 0.04263,2.2596 0.08527,4.51911 0.1279,6.77866 0.170536,1.57746 0.341065,3.15485 0.511597,4.73228 0.127902,1.57746 0.255799,3.15485 0.383698,4.73227 0.08527,1.49219 0.170532,2.98432 0.255799,4.47648 0.21317,2.43014 0.426331,4.86018 0.639496,7.29026 0.170536,2.17434 0.341065,4.34858 0.511598,6.52287 0.127902,1.57746 0.255798,3.15485 0.383698,4.73227 0.04263,1.10849 0.08527,2.21693 0.127899,3.32539 0.255804,1.79062 0.511597,3.58118 0.767396,5.37177 -0.127902,-0.0426 -0.255799,-0.0853 -0.383698,-0.1279 -2.302234,-0.0853 -4.604376,-0.17053 -6.906564,-0.2558 -0.04263,-0.42634 -0.08527,-0.85266 -0.127899,-1.27899 0.08527,-1.40692 0.170532,-2.81379 0.255798,-4.22068 -0.170536,-1.10848 -0.341065,-2.21692 -0.511597,-3.32538 -0.255804,-2.68594 -0.511598,-5.37177 -0.767396,-8.05766 -0.255804,-3.75179 -0.511598,-7.50343 -0.767396,-11.25514 -0.42634,-3.24018 -0.852662,-6.48024 -1.278994,-9.72035 -0.554241,-4.73237 -1.108461,-9.46455 -1.662691,-14.19683 -0.596876,-3.02701 -1.193727,-6.0539 -1.790591,-9.08085 -0.426339,-2.17433 -0.852662,-4.34858 -1.278993,-6.52287 -0.511608,-1.62009 -1.023195,-3.24011 -1.534792,-4.86017 -1.151117,-2.47277 -2.302188,-4.94544 -3.453282,-7.41816 -0.554242,-2.0038 -1.108461,-4.00752 -1.662692,-6.01127 -0.127902,-1.57746 -0.255798,-3.15485 -0.383698,-4.73228 0.170536,-1.74799 0.341065,-3.49591 0.511598,-5.24387 0.341071,-1.66273 0.682129,-3.32538 1.023194,-4.98808 0.554242,-1.40692 1.108461,-2.81378 1.662692,-4.220674 1.492188,-2.941744 2.984318,-5.88337 4.476477,-8.825055 1.023215,-1.151117 2.046389,-2.302188 3.069584,-3.453282 0.767411,-1.108483 1.534792,-2.216922 2.302188,-3.325383 1.065849,-1.406921 2.131655,-2.813785 3.197483,-4.220678 0.767412,-0.895313 1.534792,-1.790591 2.302188,-2.685886 0.42634,-0.810045 0.852663,-1.620058 1.278994,-2.430088 0.255804,-0.511607 0.511597,-1.023195 0.767396,-1.534792 0.682143,-0.383706 1.364259,-0.767396 2.046389,-1.151094 0.596876,-0.04263 1.193727,-0.08527 1.790591,-0.127899 0.852679,0.767411 1.705324,1.534792 2.557987,2.302188 0.895313,0.682144 1.79059,1.36426 2.685886,2.04639 1.279019,1.023215 2.557987,2.046389 3.83698,3.069584 1.279019,1.108483 2.557987,2.216922 3.83698,3.325382 1.790627,1.790627 3.581182,3.581182 5.371772,5.371773 1.620091,1.534822 3.240117,3.069584 4.860175,4.604376 2.174332,1.961162 4.348578,3.922246 6.522867,5.883369 1.321652,1.620091 2.643253,3.240119 3.964879,4.860179 1.662725,2.30223 3.325383,4.60437 4.988074,6.90656 0.937947,1.36429 1.875857,2.72852 2.813786,4.09278 1.236385,1.83326 2.47272,3.66645 3.70908,5.49967 1.193752,2.04643 2.387455,4.09278 3.581182,6.13917 0.852679,1.74799 1.705324,3.49591 2.557987,5.24387 1.108483,2.08907 2.216922,4.17805 3.325383,6.26707 1.151117,1.70536 2.302188,3.41065 3.453282,5.11597 1.534822,2.1317 3.069584,4.26331 4.604375,6.39497 1.36429,1.19375 2.72852,2.38745 4.09278,3.58118 1.36429,1.15112 2.72852,2.30219 4.09278,3.45328 2.17433,1.15112 4.34858,2.30219 6.52286,3.45329 0.72478,0.3837 1.44953,0.76739 2.17429,1.15109 1.748,0.46897 3.49592,0.93793 5.24388,1.40689 1.23638,0.21317 2.47272,0.42633 3.70908,0.6395 1.53482,0.0426 3.06958,0.0853 4.60437,0.1279 1.70536,-0.1279 3.41065,-0.2558 5.11598,-0.3837 1.02321,-0.1279 2.04639,-0.2558 3.06958,-0.3837 0.93795,0 1.87585,0 2.81378,0 0,0 0,0 0,0" /></g></svg>
