<?xml version="1.0" encoding="UTF-8" standalone="no"?>
<!-- Created with Inkscape (http://www.inkscape.org/) -->

<svg
   width="210mm"
   height="297mm"
   viewBox="0 0 210 297"
   version="1.1"
   id="svg1"
   xml:space="preserve"
   xmlns:inkscape="http://www.inkscape.org/namespaces/inkscape"
   xmlns:sodipodi="http://sodipodi.sourceforge.net/DTD/sodipodi-0.dtd"
   xmlns="http://www.w3.org/2000/svg"
   xmlns:svg="http://www.w3.org/2000/svg"><sodipodi:namedview
     id="namedview1"
     pagecolor="#ffffff"
     bordercolor="#000000"
     borderopacity="0.25"
     inkscape:showpageshadow="2"
     inkscape:pageopacity="0.0"
     inkscape:pagecheckerboard="0"
     inkscape:deskcolor="#d1d1d1"
     inkscape:document-units="mm" /><defs
     id="defs1"><inkscape:path-effect
       effect="bspline"
       id="path-effect1"
       is_visible="true"
       lpeversion="1.3"
       weight="33.333333"
       steps="2"
       helper_size="0"
       apply_no_weight="true"
       apply_with_weight="true"
       only_selected="false"
       uniform="false" /></defs><g
     inkscape:groupmode="layer"
     id="layer2"
     inkscape:label="sandália"><path
       style="fill:#000000;fill-opacity:1;stroke:#000000;stroke-width:0.264583px;stroke-linecap:butt;stroke-linejoin:miter;stroke-opacity:1"
       d="m 170.23402,148.74693 c 2.00376,-0.0853 4.00751,-0.17053 5.75548,-0.3837 1.74797,-0.21317 3.2401,-0.55423 4.64701,-0.78872 1.40691,-0.23448 2.72851,-0.36237 4.13541,-0.57554 1.40691,-0.21317 2.89904,-0.5116 4.4978,-0.78871 1.59876,-0.27712 3.30405,-0.53291 4.81754,-0.61818 1.51349,-0.0853 2.83509,0 3.85829,0.0639 1.0232,0.064 1.74795,0.10659 2.28087,0.21317 0.53291,0.10658 0.87397,0.27711 1.15109,0.5116 0.27711,0.23448 0.49027,0.53291 0.76739,0.93792 0.27712,0.40502 0.61818,0.91661 0.85267,1.36426 0.23448,0.44765 0.36238,0.83135 0.40501,1.19373 0.0426,0.36239 0,0.70344 -0.064,1.08715 -0.064,0.38371 -0.14921,0.81002 -0.23448,1.25768 -0.0853,0.44766 -0.17053,0.9166 -0.064,1.15108 0.10659,0.23448 0.40501,0.23448 0.51159,0.34107 0.10658,0.10659 0.0213,0.31975 -0.0213,0.74609 -0.0426,0.42633 -0.0426,1.06582 -0.10658,1.51347 -0.064,0.44764 -0.19185,0.70344 -0.31975,0.98056 -0.1279,0.27711 -0.2558,0.57554 -0.17053,0.76739 0.0853,0.19185 0.38369,0.27711 0.53291,0.40502 0.14922,0.1279 0.14922,0.29843 0.21317,0.7674 0.064,0.46897 0.19184,1.23635 0.23447,1.85453 0.0426,0.61819 0,1.08714 -0.10658,1.59875 -0.10658,0.5116 -0.27711,1.06582 -0.25579,1.49216 0.0213,0.42633 0.23447,0.72475 0.29842,1.15109 0.064,0.42634 -0.0213,0.98056 -0.29843,1.74796 -0.27712,0.76741 -0.74608,1.74795 -1.19373,2.43009 -0.44765,0.68213 -0.87397,1.06582 -1.19372,1.34294 -0.31975,0.27711 -0.53291,0.44764 -0.85266,0.44764 -0.31976,0 -0.74608,-0.17053 -1.68402,0.21318 -0.93794,0.3837 -2.38744,1.32161 -3.09088,1.74794 -0.70345,0.42632 -0.66082,0.34106 -0.91662,0.19184 -0.25581,-0.14921 -0.81003,-0.36237 -1.91851,-0.0426 -1.10847,0.31976 -2.77113,1.1724 -3.83696,1.42819 -1.06584,0.2558 -1.53479,-0.0853 -2.68591,0.17055 -1.15111,0.25581 -2.98429,1.10845 -4.07144,1.40688 -1.08715,0.29843 -1.42821,0.0426 -2.49405,0.25581 -1.06585,0.21317 -2.8564,0.89529 -4.0075,1.0445 -1.1511,0.14921 -1.66269,-0.23448 -2.79249,-0.12789 -1.12979,0.10659 -2.87771,0.70344 -4.09276,0.83134 -1.21505,0.1279 -1.89717,-0.21316 -2.64326,-0.25579 -0.74608,-0.0426 -1.5561,0.21316 -2.55799,0.38369 -1.00189,0.17054 -2.19559,0.2558 -2.77114,0.23449 -0.57555,-0.0213 -0.53291,-0.14923 -1.12979,-1e-5 -0.59687,0.14923 -1.83321,0.57555 -3.06958,0.66081 -1.23637,0.0853 -2.47271,-0.17052 -4.07147,-0.0213 -1.59876,0.14922 -3.55985,0.70344 -4.71095,0.83134 -1.15109,0.12789 -1.49215,-0.17054 -2.6859,-0.19185 -1.19374,-0.0213 -3.24009,0.23448 -4.41251,0.21316 -1.17241,-0.0213 -1.47084,-0.31975 -2.66458,-0.29843 -1.19375,0.0213 -3.28273,0.36238 -4.62568,0.3837 -1.34295,0.0213 -1.9398,-0.27711 -3.26145,-0.29843 -1.32165,-0.0213 -3.368,0.23448 -4.49778,0.27711 -1.12977,0.0426 -1.34294,-0.1279 -1.47083,-0.29843 -0.1279,-0.17052 -0.17054,-0.34107 -1.30034,-0.2558 -1.1298,0.0853 -3.34667,0.42633 -4.64699,0.40501 -1.30031,-0.0213 -1.684,-0.40501 -2.92038,-0.44764 -1.23638,-0.0426 -3.32537,0.2558 -4.45515,0.21316 -1.12978,-0.0426 -1.30031,-0.42633 -2.558,-0.42632 -1.2577,0 -3.60248,0.38369 -4.79621,0.46896 -1.19372,0.0853 -1.23636,-0.12791 -2.34484,-0.1279 -1.10848,0 -3.282726,0.21316 -4.497771,0.14921 -1.215046,-0.0639 -1.47084,-0.40501 -2.813808,-0.38369 -1.342968,0.0213 -3.773007,0.40501 -5.009368,0.51159 -1.23636,0.10658 -1.278993,-0.064 -2.302207,0.0213 -1.023214,0.0853 -3.02693,0.42633 -4.220662,0.40501 -1.193732,-0.0213 -1.577421,-0.40501 -2.856436,-0.49027 -1.279016,-0.0853 -3.453261,0.12789 -4.710942,0.0426 -1.25768,-0.0853 -1.598737,-0.46896 -2.813802,-0.36237 -1.215065,0.10659 -3.304044,0.70344 -4.519093,0.61817 -1.21505,-0.0853 -1.556107,-0.85266 -2.813804,-0.85265 -1.257697,1e-5 -3.431942,0.76739 -4.561721,0.87397 -1.12978,0.10657 -1.215044,-0.44765 -2.494062,-0.46896 -1.279018,-0.0213 -3.751689,0.49028 -5.030683,0.44764 -1.278995,-0.0426 -1.364259,-0.63949 -2.664593,-0.68212 -1.300335,-0.0426 -3.815638,0.46896 -5.201218,0.40501 -1.385579,-0.064 -1.641375,-0.70345 -2.941706,-0.72476 -1.300332,-0.0213 -3.645105,0.57555 -4.924103,0.63949 -1.278998,0.0639 -1.492158,-0.40501 -2.877759,-0.405 -1.385601,0 -3.943536,0.46896 -5.201213,0.405 -1.257676,-0.064 -1.215044,-0.66081 -2.536697,-0.68212 -1.321654,-0.0213 -4.007486,0.53291 -5.414381,0.51159 -1.406895,-0.0213 -1.534791,-0.61818 -2.877759,-0.61817 -1.342967,0 -3.900905,0.59686 -5.158581,0.81002 -1.257676,0.21316 -1.215043,0.0426 -1.257678,-0.27712 -0.04263,-0.31975 -0.170532,-0.78871 -1.023209,-0.72475 -0.8526766,0.064 -2.430073,0.66081 -3.2827358,0.19183 -0.8526629,-0.46898 -0.9805594,-2.00374 -0.9592413,-3.4746 0.021318,-1.47086 0.1918469,-2.87772 0.2771132,-3.79433 0.085266,-0.91662 0.085266,-1.34295 -0.063953,-1.87587 -0.149219,-0.53292 -0.4476433,-1.1724 -0.4050067,-2.1743 0.042637,-1.00189 0.4263264,-2.36612 0.4689559,-3.15483 0.04263,-0.78872 -0.2557967,-1.00188 -0.3197441,-1.59875 -0.063948,-0.59687 0.1065826,-1.57742 -0.085272,-2.51536 -0.1918546,-0.93793 -0.746076,-1.83321 -0.8739717,-2.70719 -0.1278956,-0.87399 0.1705313,-1.72664 0.5542333,-2.43009 0.3837019,-0.70345 0.8526573,-1.25767 1.6413815,-1.66269 0.7887242,-0.40502 1.8971619,-0.66081 3.4319744,-0.74608 1.534812,-0.0853 3.495895,0 5.606256,0.0426 2.110362,0.0426 4.369872,0.0426 7.247642,0.0853 2.877771,0.0426 6.373615,0.1279 9.528494,0.21317 3.154879,0.0853 5.968608,0.17053 8.697153,0.21317 2.728546,0.0426 5.371746,0.0426 7.247615,0 1.875869,-0.0426 2.984307,-0.1279 4.647019,-1.96116 1.662712,-1.83326 3.879589,-5.41437 4.902784,-7.29023 1.023196,-1.87586 0.852665,-2.04639 0.04262,-2.51536 -0.810043,-0.46897 -2.259544,-1.23636 -3.815668,-1.91849 -1.556124,-0.68214 -3.218782,-1.27899 -4.625686,-1.89717 -1.406904,-0.61819 -2.557978,-1.25767 -3.858302,-1.87586 -1.300324,-0.61819 -2.749819,-1.21504 -4.19936,-1.81191 -1.449541,-0.59687 -2.899037,-1.19372 -4.348578,-1.89717 -1.449541,-0.70346 -2.899035,-1.51347 -4.114089,-1.76927 -1.215054,-0.25579 -2.195595,0.0426 -3.453287,-0.0853 -1.257693,-0.1279 -2.792454,-0.68212 -4.497797,-1.40689 -1.705343,-0.72477 -3.581164,-1.62005 -5.265186,-2.34481 -1.684023,-0.72477 -3.176152,-1.27899 -3.900915,-1.70532 -0.724762,-0.42634 -0.682129,-0.72477 -0.575545,-1.19374 0.106584,-0.46897 0.277112,-1.10845 0.468964,-1.70532 0.191851,-0.59687 0.405013,-1.15109 0.554229,-3.24015 0.149217,-2.08906 0.234482,-5.7128 0.468968,-7.52471 0.234486,-1.81191 0.618176,-1.81191 1.300316,-1.57742 0.682141,0.23449 1.66268,0.70344 2.408767,0.59685 0.746086,-0.10659 1.257671,-0.7887 1.854541,-1.00186 0.596869,-0.21317 1.278989,0.0426 2.216928,0.36238 0.93794,0.31975 2.131643,0.70344 3.68777,1.19373 1.556127,0.49028 3.474581,1.08714 4.988066,1.57742 1.513486,0.49028 2.621925,0.87397 3.474593,1.23636 0.852668,0.36238 1.44952,0.70344 1.811903,1.21505 0.362383,0.5116 0.490281,1.19372 0.831351,1.64137 0.341071,0.44765 0.895291,0.66081 5.691607,2.51538 4.796315,1.85458 13.834352,5.35042 18.332146,7.03443 4.497794,1.68401 4.455161,1.55611 4.838866,0.98055 0.383705,-0.57555 1.193722,-1.59873 1.961123,-2.60061 0.767402,-1.00189 1.492154,-1.98244 4.305987,-6.13924 2.813833,-4.1568 7.716544,-11.48955 10.359801,-15.34785 2.643257,-3.8583 3.026947,-4.24199 3.495916,-4.668326 0.46897,-0.426335 1.02319,-0.895291 1.492158,-1.001871 0.468968,-0.10658 0.852658,0.149214 1.44953,0.554234 0.596872,0.40502 1.406884,0.959239 2.195604,1.513475 0.788721,0.554237 1.556102,1.108458 2.515358,1.662698 0.959256,0.55423 2.110328,1.10845 3.282749,1.76927 1.17242,0.66082 2.36613,1.42821 3.58118,2.08902 1.21506,0.66082 2.45139,1.21504 3.55987,1.74796 1.10847,0.53292 2.08901,1.0445 3.13353,1.62006 1.04452,0.57555 2.15296,1.21503 3.00563,1.70532 0.85267,0.49028 1.44952,0.83134 1.64137,1.4069 0.19184,0.57555 -0.0213,1.38557 -0.53292,2.40878 -0.51161,1.0232 -1.32162,2.25953 -2.25956,3.77303 -0.93794,1.51349 -2.00375,3.30405 -3.00563,4.92412 -1.00189,1.62007 -1.9398,3.06957 -2.85642,4.51911 -0.91663,1.44954 -1.81191,2.89904 -2.60063,4.24199 -0.78872,1.34296 -1.47083,2.57929 -2.15297,3.75171 -0.68213,1.17243 -1.36424,2.28086 -2.067695,3.41065 -0.703454,1.12979 -1.428202,2.28086 -1.918486,3.0909 -0.490285,0.81003 -0.746081,1.27899 -0.255788,1.85454 0.490293,0.57555 1.72663,1.25767 2.941689,2.08902 1.21505,0.83136 2.40876,1.8119 3.53855,2.74984 1.12978,0.93794 2.19559,1.83321 3.21879,2.55798 1.02321,0.72477 2.00375,1.27899 3.06959,1.66269 1.06584,0.3837 2.21691,0.59686 3.45329,0.74608 1.23637,0.14922 2.55797,0.23448 3.83697,0.2558 1.27901,0.0213 2.51534,-0.0213 3.92225,-0.0426 1.40691,-0.0213 2.9843,-0.0213 4.62569,0 1.6414,0.0213 3.34669,0.064 4.77491,-0.0213 1.42822,-0.0853 2.57929,-0.29843 3.368,-0.5116 0.78872,-0.21317 1.21505,-0.42633 1.76928,-1.10847 0.55424,-0.68214 1.23636,-1.83321 1.74796,-2.963 0.5116,-1.12979 0.85266,-2.23823 1.23636,-3.38934 0.3837,-1.1511 0.81003,-2.34481 1.38558,-3.87962 0.57556,-1.53481 1.3003,-3.41063 1.85454,-5.0307 0.55423,-1.62007 0.93792,-2.9843 1.32162,-4.30594 0.3837,-1.32164 0.76739,-2.60061 1.12978,-3.62381 0.36238,-1.0232 0.70344,-1.79058 1.08714,-2.30218 0.38371,-0.5116 0.81003,-0.7674 1.49217,-0.74608 0.68214,0.0213 1.62005,0.31975 2.43008,0.55423 0.81004,0.23449 1.49216,0.40502 2.64327,0.70345 1.15111,0.29844 2.77113,0.72476 4.19936,1.08714 1.42822,0.36239 2.66455,0.66081 3.98619,0.87398 1.32164,0.21316 2.72851,0.34106 4.1141,0.46896 1.38559,0.1279 2.74982,0.2558 3.85829,0.3837 1.10847,0.1279 1.96111,0.2558 2.55798,0.5116 0.59687,0.2558 0.93793,0.63949 1.10846,1.1511 0.17053,0.5116 0.17053,1.15109 0.10658,1.85454 -0.064,0.70345 -0.19185,1.47083 -0.31975,2.25955 -0.1279,0.78873 -0.2558,1.59874 -0.44765,2.60063 -0.19185,1.00189 -0.44764,2.19559 -0.57554,3.26143 -0.1279,1.06584 -0.1279,2.00375 -0.17053,2.92037 -0.0426,0.91662 -0.1279,1.8119 -0.19185,2.60061 -0.064,0.78872 -0.10659,1.47084 -0.14922,2.15297"
       id="path1"
       inkscape:path-effect="#path-effect1"
       inkscape:original-d="m 170.23402,148.74693 c 2.00376,-0.0853 4.00751,-0.17053 6.01127,-0.2558 1.49218,-0.34107 2.98431,-0.68213 4.47647,-1.0232 1.32166,-0.12789 2.64326,-0.25579 3.96488,-0.38369 1.49219,-0.29844 2.98432,-0.59687 4.47648,-0.8953 1.70536,-0.2558 3.41065,-0.51159 5.11597,-0.76739 1.32166,0.0853 2.64326,0.17053 3.96488,0.2558 0.72478,0.0426 1.44953,0.0853 2.17429,0.1279 0.34107,0.17053 0.68213,0.34106 1.02319,0.51159 0.21318,0.29844 0.42634,0.59686 0.6395,0.8953 0.34107,0.5116 0.68213,1.02319 1.0232,1.53479 0.1279,0.3837 0.2558,0.7674 0.3837,1.15109 -0.0426,0.34108 -0.0853,0.68213 -0.1279,1.0232 -0.0853,0.42634 -0.17054,0.85266 -0.2558,1.27899 -0.0853,0.46898 -0.17054,0.93793 -0.2558,1.40689 0.29844,0 0.59686,0 0.89529,0 -0.0853,0.21317 -0.17053,0.42634 -0.25579,0.6395 0,0.63951 0,1.279 0,1.91849 -0.12791,0.2558 -0.2558,0.5116 -0.3837,0.7674 -0.12791,0.29843 -0.2558,0.59686 -0.3837,0.89529 0.29844,0.0853 0.59686,0.17053 0.8953,0.2558 0,0.17054 0,0.34107 0,0.5116 0.1279,0.76741 0.25579,1.53479 0.38369,2.30219 -0.0426,0.46897 -0.0853,0.93792 -0.1279,1.40689 -0.17053,0.55424 -0.34106,1.10846 -0.51159,1.66269 0.21317,0.29844 0.42633,0.59686 0.63949,0.8953 -0.0853,0.55424 -0.17053,1.10846 -0.2558,1.66269 -0.46897,0.98058 -0.93793,1.96112 -1.40689,2.94168 -0.42634,0.38371 -0.85266,0.7674 -1.27899,1.1511 -0.21317,0.17053 -0.42633,0.34106 -0.6395,0.5116 -0.42634,-0.17054 -0.85266,-0.34107 -1.27899,-0.5116 -1.44955,0.93795 -2.89905,1.87585 -4.34858,2.81378 0.0426,-0.0853 0.0853,-0.17053 0.1279,-0.2558 -0.55424,-0.21317 -1.10846,-0.42633 -1.66269,-0.63949 -1.66272,0.85268 -3.32538,1.70532 -4.98807,2.55798 -0.46898,-0.34107 -0.93793,-0.68213 -1.4069,-1.02319 -1.83326,0.85268 -3.66644,1.70532 -5.49967,2.55799 -0.34107,-0.25581 -0.68213,-0.5116 -1.02319,-0.7674 -1.79063,0.68214 -3.58118,1.36426 -5.37177,2.04639 -0.51161,-0.38371 -1.0232,-0.7674 -1.5348,-1.15109 -1.74799,0.59687 -3.49591,1.19372 -5.24387,1.79059 -0.68214,-0.34107 -1.36426,-0.68213 -2.04639,-1.0232 -0.81004,0.25581 -1.62006,0.5116 -2.43009,0.7674 -1.19375,0.0853 -2.38745,0.17053 -3.58118,0.2558 0.0426,-0.12791 0.0853,-0.2558 0.1279,-0.3837 -1.23638,0.42634 -2.47272,0.85266 -3.70908,1.27899 -1.23638,-0.2558 -2.47272,-0.5116 -3.70908,-0.76739 -1.96116,0.55424 -3.92225,1.10846 -5.88337,1.66269 -0.34107,-0.29844 -0.68213,-0.59687 -1.02319,-0.8953 -2.04643,0.25581 -4.09278,0.5116 -6.13917,0.7674 -0.29844,-0.29844 -0.59687,-0.59687 -0.8953,-0.8953 -2.08906,0.34107 -4.17804,0.68213 -6.26707,1.0232 -0.59687,-0.29844 -1.19372,-0.59687 -1.79059,-0.8953 -2.04643,0.25581 -4.09278,0.5116 -6.13916,0.7674 -0.21317,-0.17054 -0.42634,-0.34107 -0.6395,-0.5116 -0.0426,-0.17053 -0.0853,-0.34106 -0.1279,-0.5116 -2.21697,0.34108 -4.43384,0.68213 -6.65077,1.0232 -0.3837,-0.38371 -0.76739,-0.7674 -1.15109,-1.1511 -2.08906,0.29844 -4.17805,0.59687 -6.26707,0.8953 -0.17053,-0.38371 -0.34106,-0.7674 -0.5116,-1.15109 -2.34486,0.3837 -4.68964,0.76739 -7.03446,1.15109 -0.0426,-0.21317 -0.0853,-0.42633 -0.1279,-0.6395 -2.17433,0.21317 -4.348576,0.42633 -6.522865,0.6395 -0.255803,-0.34107 -0.511597,-0.68213 -0.767396,-1.0232 -2.430136,0.38371 -4.860175,0.7674 -7.290262,1.1511 -0.04263,-0.17054 -0.08527,-0.34107 -0.127899,-0.5116 -2.003797,0.34107 -4.007513,0.68213 -6.011269,1.0232 -0.383706,-0.38371 -0.767396,-0.7674 -1.151094,-1.1511 -2.174333,0.21317 -4.348578,0.42633 -6.522867,0.6395 -0.341071,-0.38371 -0.682129,-0.7674 -1.023194,-1.1511 -2.089065,0.59688 -4.178045,1.19373 -6.267068,1.7906 -0.341072,-0.76742 -0.68213,-1.5348 -1.023195,-2.30219 -2.174332,0.76741 -4.348577,1.53479 -6.522866,2.30219 -0.08527,-0.55425 -0.170532,-1.10847 -0.255799,-1.6627 -2.47277,0.51161 -4.945441,1.0232 -7.418161,1.5348 -0.08527,-0.59688 -0.170533,-1.19373 -0.255799,-1.79059 -2.515404,0.5116 -5.030707,1.02319 -7.546061,1.53479 -0.255804,-0.63951 -0.511597,-1.279 -0.767396,-1.91849 -2.344868,0.59687 -4.689642,1.19372 -7.034463,1.79059 -0.21317,-0.46898 -0.426332,-0.93793 -0.639497,-1.40689 -2.558038,0.46897 -5.115974,0.93792 -7.673961,1.40689 0.04263,-0.59688 0.08527,-1.19373 0.1279,-1.79059 -2.68594,0.55424 -5.371772,1.10846 -8.057659,1.66269 -0.127901,-0.59688 -0.255798,-1.19373 -0.383698,-1.79059 -2.558037,0.59687 -5.115973,1.19373 -7.67396,1.79059 0.04263,-0.17054 0.08527,-0.34107 0.127899,-0.5116 -0.127902,-0.46897 -0.255798,-0.93793 -0.383698,-1.40689 -1.5774563,0.59687 -3.1548499,1.19373 -4.7322751,1.79059 -0.1279019,-1.53482 -0.2557986,-3.06958 -0.383698,-4.60438 0.1705359,-1.40692 0.3410649,-2.81378 0.5115974,-4.22067 0,-0.42634 0,-0.85267 0,-1.279 -0.2984378,-0.63951 -0.5968636,-1.27899 -0.8952954,-1.91849 0.3837057,-1.36429 0.767396,-2.72852 1.1510941,-4.09278 -0.2984378,-0.21317 -0.5968636,-0.42633 -0.8952954,-0.63949 0.1705359,-0.98058 0.3410649,-1.96113 0.5115973,-2.94169 -0.5542415,-0.89531 -1.1084609,-1.79059 -1.6626914,-2.68588 0.2984378,-0.85268 0.5968636,-1.70533 0.8952954,-2.55799 0.4689736,-0.55424 0.9379285,-1.10846 1.4068927,-1.66269 1.1084831,-0.25581 2.2169219,-0.5116 3.3253824,-0.7674 1.961163,0.0853 3.922247,0.17053 5.88337,0.2558 2.2596,0 4.51911,0 6.778665,0 3.495985,0.0853 6.99183,0.17053 10.487746,0.2558 2.813841,0.0853 5.627571,0.17053 8.441356,0.2558 2.643306,0 5.286506,0 7.929759,0 1.108483,-0.0853 2.216922,-0.17054 3.325383,-0.2558 2.216966,-3.58125 4.433844,-7.16236 6.650766,-10.74355 -0.170536,-0.17053 -0.341065,-0.34106 -0.511598,-0.51159 -1.449555,-0.76741 -2.899052,-1.5348 -4.348577,-2.30219 -1.662725,-0.59688 -3.325383,-1.19373 -4.988075,-1.79059 -1.151117,-0.63951 -2.302188,-1.279 -3.453282,-1.91849 -1.449555,-0.59688 -2.899051,-1.19373 -4.348577,-1.79059 -1.449555,-0.59688 -2.899052,-1.19373 -4.348578,-1.79059 -1.449555,-0.81005 -2.899051,-1.62006 -4.348577,-2.43009 -0.980581,0.29844 -1.961123,0.59686 -2.941685,0.89529 -1.534823,-0.55424 -3.069584,-1.10846 -4.604376,-1.66269 -1.875895,-0.89531 -3.751714,-1.79059 -5.627571,-2.68588 -1.492189,-0.55424 -2.984318,-1.10846 -4.476477,-1.66269 0.04263,-0.29844 0.08527,-0.59687 0.127899,-0.8953 0.170536,-0.63951 0.341065,-1.27899 0.511598,-1.91849 0.21317,-0.55424 0.426331,-1.10846 0.639496,-1.66269 0.08527,-3.62389 0.170533,-7.24763 0.255799,-10.87145 0.383706,0 0.767396,0 1.151094,0 0.980581,0.46898 1.961123,0.93793 2.941685,1.4069 0.511607,-0.68215 1.023195,-1.36426 1.534792,-2.04639 0.682143,0.2558 1.36426,0.5116 2.046389,0.76739 1.193751,0.38371 2.387455,0.7674 3.581182,1.1511 1.918528,0.59687 3.83698,1.19373 5.75547,1.79059 1.108483,0.3837 2.216922,0.76739 3.325383,1.15109 0.596875,0.34107 1.193727,0.68213 1.790591,1.0232 0.127902,0.68214 0.255798,1.36426 0.383698,2.04639 0.554241,0.21317 1.108461,0.42633 1.662691,0.63949 9.038401,3.49599 18.07644,6.99183 27.11466,10.48775 -0.04263,-0.1279 -0.08527,-0.2558 -0.127899,-0.3837 0.810045,-1.02321 1.620058,-2.04639 2.430087,-3.06958 0.724777,-0.98058 1.449526,-1.96113 2.174289,-2.94169 4.902906,-7.33304 9.805616,-14.66579 14.708424,-21.998684 0.383705,-0.383706 0.767396,-0.767396 1.151094,-1.151094 0.554241,-0.468973 1.108461,-0.937928 1.662691,-1.406893 0.383706,0.255804 0.767396,0.511598 1.151094,0.767396 0.810046,0.554242 1.620058,1.108461 2.430088,1.662692 0.767411,0.554241 1.534792,1.108463 2.302188,1.662693 1.151117,0.55424 2.302188,1.10846 3.453279,1.66269 1.19375,0.76741 2.38746,1.53479 3.58118,2.30219 1.23639,0.55424 2.47272,1.10846 3.70909,1.66269 0.98058,0.51161 1.96112,1.02319 2.94168,1.53479 1.10848,0.63951 2.21692,1.27899 3.32538,1.91849 0.59688,0.34107 1.19373,0.68213 1.79059,1.0232 -0.21317,0.81004 -0.42633,1.62006 -0.63949,2.43008 -0.81005,1.23639 -1.62006,2.47272 -2.43009,3.70908 -1.06585,1.79063 -2.13166,3.58119 -3.19748,5.37178 -0.93795,1.44955 -1.87586,2.89905 -2.81379,4.34857 -0.89531,1.44956 -1.79059,2.89906 -2.68589,4.34858 -0.68214,1.23639 -1.36426,2.47272 -2.04639,3.70908 -0.68214,1.10849 -1.36425,2.21692 -2.046384,3.32539 -0.724778,1.15111 -1.449526,2.30218 -2.174289,3.45328 -0.255804,0.46897 -0.511598,0.93793 -0.767396,1.40689 1.236385,0.68214 2.47272,1.36426 3.709079,2.04639 1.19375,0.98058 2.38746,1.96112 3.58118,2.94168 1.06585,0.89532 2.13166,1.79059 3.19749,2.68589 0.98058,0.55424 1.96112,1.10846 2.94168,1.66269 1.15112,0.21317 2.30219,0.42633 3.45328,0.6395 1.32166,0.0853 2.64326,0.17053 3.96488,0.2558 1.23639,-0.0426 2.47272,-0.0853 3.70908,-0.1279 1.57746,0 3.15485,0 4.73228,0 1.70536,0.0426 3.41065,0.0853 5.11597,0.1279 1.15112,-0.21317 2.30219,-0.42633 3.45328,-0.6395 0.42634,-0.21317 0.85267,-0.42633 1.279,-0.6395 0.68214,-1.15111 1.36426,-2.30218 2.04639,-3.45328 0.34107,-1.10848 0.68213,-2.21692 1.02319,-3.32538 0.42634,-1.19375 0.85266,-2.38746 1.279,-3.58118 0.72477,-1.8759 1.44952,-3.75172 2.17428,-5.62757 0.38371,-1.36429 0.7674,-2.72852 1.1511,-4.09278 0.3837,-1.27902 0.76739,-2.55799 1.15109,-3.83698 0.34107,-0.76741 0.68213,-1.53479 1.0232,-2.30219 0.42634,-0.2558 0.85266,-0.5116 1.27899,-0.7674 0.93795,0.29844 1.87586,0.59687 2.81379,0.8953 0.68214,0.17053 1.36426,0.34106 2.04639,0.5116 1.62009,0.42634 3.24011,0.85266 4.86017,1.27899 1.23639,0.29844 2.47272,0.59686 3.70908,0.89529 1.40692,0.12791 2.81379,0.2558 4.22068,0.3837 1.36429,0.1279 2.72852,0.2558 4.09278,0.3837 0.85268,0.1279 1.70532,0.2558 2.55799,0.3837 0.34107,0.3837 0.68213,0.76739 1.02319,1.15109 0,0.63951 0,1.279 0,1.91849 -0.1279,0.76741 -0.2558,1.53479 -0.3837,2.30219 -0.1279,0.81005 -0.2558,1.62006 -0.3837,2.43009 -0.2558,1.19375 -0.51159,2.38745 -0.76739,3.58118 0,0.93795 0,1.87586 0,2.81379 -0.0853,0.89531 -0.17053,1.79059 -0.2558,2.68588 -0.0426,0.68214 -0.0853,1.36426 -0.1279,2.04639" /></g></svg>
