<?xml version="1.0" encoding="UTF-8" standalone="no"?>
<!-- Created with Inkscape (http://www.inkscape.org/) -->

<svg
   width="210mm"
   height="297mm"
   viewBox="0 0 210 297"
   version="1.1"
   id="svg1"
   xml:space="preserve"
   xmlns:inkscape="http://www.inkscape.org/namespaces/inkscape"
   xmlns:sodipodi="http://sodipodi.sourceforge.net/DTD/sodipodi-0.dtd"
   xmlns="http://www.w3.org/2000/svg"
   xmlns:svg="http://www.w3.org/2000/svg"><sodipodi:namedview
     id="namedview1"
     pagecolor="#ffffff"
     bordercolor="#000000"
     borderopacity="0.25"
     inkscape:showpageshadow="2"
     inkscape:pageopacity="0.0"
     inkscape:pagecheckerboard="0"
     inkscape:deskcolor="#d1d1d1"
     inkscape:document-units="mm" /><defs
     id="defs1"><inkscape:path-effect
       effect="bspline"
       id="path-effect2"
       is_visible="true"
       lpeversion="1.3"
       weight="33.333333"
       steps="2"
       helper_size="0"
       apply_no_weight="true"
       apply_with_weight="true"
       only_selected="false"
       uniform="false" /><inkscape:path-effect
       effect="bspline"
       id="path-effect1"
       is_visible="true"
       lpeversion="1.3"
       weight="33.333333"
       steps="2"
       helper_size="0"
       apply_no_weight="true"
       apply_with_weight="true"
       only_selected="false"
       uniform="false" /></defs><g
     inkscape:groupmode="layer"
     id="layer2"
     inkscape:label="sapatilha"
     style="opacity:1"><path
       style="fill:#000000;fill-opacity:1;stroke:#000000;stroke-width:0.264583px;stroke-linecap:butt;stroke-linejoin:miter;stroke-opacity:1"
       d="m 10.02944,178.80328 c -0.01066,-0.064 -0.031975,-0.19185 -0.031975,-0.19185 0,0 0.021316,0.1279 0.031975,0.19185 z m 2.760494,-47.77041 c 0.746079,-0.1279 1.492159,-0.2558 2.174294,-0.29843 0.682135,-0.0426 1.300306,0 1.865199,0.0959 0.564893,0.0959 1.076482,0.24514 1.758619,0.37304 0.682137,0.12791 1.534783,0.23449 2.355478,0.38371 0.820695,0.14921 1.609392,0.34106 4.465859,1.07649 2.856468,0.73544 7.780493,2.01441 10.807457,2.77115 3.026963,0.75673 4.156716,0.99121 5.552967,1.27899 1.396251,0.28777 3.058911,0.62883 4.881497,1.04451 1.822585,0.41568 3.804986,0.90595 5.81942,1.38558 2.014433,0.47962 4.060784,0.94858 6.394973,1.46018 2.334189,0.5116 4.956073,1.06582 7.034452,1.49215 2.078378,0.42634 3.613142,0.72477 5.393095,1.05518 1.779952,0.33041 3.804982,0.69278 6.096538,1.12978 2.291557,0.43699 4.849493,0.94858 7.247627,1.41755 2.398133,0.46897 4.636327,0.89529 7.023808,1.33228 2.387482,0.437 4.924098,0.88463 7.503426,1.27899 2.579327,0.39436 5.201217,0.73542 7.471447,1.03386 2.27023,0.29843 4.18869,0.55422 5.60625,0.72476 1.41755,0.17053 2.33415,0.25579 3.48526,0.36238 1.1511,0.10658 2.53665,0.23448 3.78368,0.33041 1.24703,0.0959 2.35547,0.15987 3.37867,0.2025 1.02321,0.0426 1.96112,0.0639 2.61128,0.0426 0.65015,-0.0213 1.01253,-0.0853 1.92915,-0.1812 0.91663,-0.0959 2.38745,-0.22382 4.07148,-0.40501 1.68402,-0.1812 3.58116,-0.41568 4.5724,-0.56491 0.99124,-0.14923 1.07646,-0.21314 1.67333,-0.36235 0.59688,-0.14921 1.70532,-0.38367 2.77116,-0.6821 1.06584,-0.29843 2.08901,-0.6608 2.99498,-1.03384 0.90596,-0.37305 1.69465,-0.75674 2.58996,-1.16176 0.8953,-0.40502 1.89716,-0.83134 2.93102,-1.32163 1.03387,-0.49028 2.09968,-1.0445 2.86708,-1.38557 0.7674,-0.34106 1.23635,-0.46896 1.89717,-0.56489 0.66083,-0.0959 1.51347,-0.15987 2.3768,-0.0426 0.86333,0.11724 1.73729,0.41567 2.84576,0.78871 1.10848,0.37304 2.4514,0.82068 3.63447,1.32163 1.18308,0.50094 2.20626,1.05516 3.26144,1.5561 1.05518,0.50095 2.1423,0.94858 2.97365,1.26833 0.83135,0.31975 1.40689,0.5116 2.28088,0.74609 0.87399,0.23448 2.04638,0.51159 3.63448,0.95925 1.5881,0.44765 3.59182,1.06582 5.20123,1.5561 1.60942,0.49029 2.82443,0.85266 4.16739,1.26833 1.34296,0.41568 2.81377,0.88464 4.05014,1.24702 1.23637,0.36238 2.23823,0.61818 2.97365,0.81003 0.73543,0.19185 1.20439,0.31975 1.95048,0.57555 0.74609,0.2558 1.76926,0.63949 2.58996,0.95924 0.82069,0.31975 1.43886,0.57555 1.99309,0.86333 0.55424,0.28777 1.04451,0.60751 1.55611,0.93792 0.5116,0.33041 1.04451,0.67147 1.47084,1.05518 0.42634,0.3837 0.74608,0.81002 1.01254,1.20438 0.26646,0.39436 0.47962,0.75673 0.63949,1.11912 0.15988,0.36238 0.26646,0.72476 0.29843,1.10846 0.032,0.3837 -0.0107,0.78871 -0.0853,1.12978 -0.0746,0.34106 -0.18118,0.61817 -0.27711,0.86332 -0.0959,0.24515 -0.18119,0.4583 -0.18118,0.73542 0,0.27713 0.0853,0.61818 0.13856,1.00188 0.0533,0.3837 0.0746,0.81002 0.0213,1.2257 -0.0533,0.41568 -0.18117,0.82068 -0.33039,1.18307 -0.14922,0.36238 -0.31975,0.68212 -0.61818,1.16175 -0.29844,0.47963 -0.72477,1.11911 -1.18308,1.69467 -0.45831,0.57555 -0.94858,1.08714 -1.49216,1.6094 -0.54357,0.52226 -1.14042,1.05516 -1.84388,1.63071 -0.70345,0.57556 -1.51347,1.19373 -2.31285,1.77994 -0.79937,0.58621 -1.58807,1.14043 -2.28086,1.58808 -0.6928,0.44765 -1.28965,0.78871 -1.91849,1.17241 -0.62885,0.3837 -1.28965,0.81003 -1.7373,1.08714 -0.44765,0.27712 -0.68213,0.40501 -1.12978,0.61818 -0.44766,0.21317 -1.10846,0.5116 -1.89718,0.85267 -0.78872,0.34106 -1.70531,0.72475 -2.7605,1.0978 -1.05518,0.37304 -2.24888,0.73542 -3.08023,0.95924 -0.83136,0.22383 -1.30031,0.30909 -2.25957,0.53292 -0.95925,0.22383 -2.40875,0.5862 -3.82632,0.99122 -1.41756,0.40501 -2.80311,0.85265 -4.47648,1.30031 -1.67337,0.44765 -3.63445,0.89529 -5.70218,1.28965 -2.06773,0.39436 -4.24197,0.73542 -6.38431,1.06583 -2.14233,0.33041 -4.25263,0.65015 -6.34167,0.83134 -2.08905,0.18119 -4.15671,0.22383 -6.46959,0.29843 -2.31287,0.0746 -4.8708,0.18119 -7.0451,0.24515 -2.17431,0.064 -3.96487,0.0853 -5.61692,0.11727 -1.65205,0.032 -3.16549,0.0746 -4.45515,0.064 -1.28967,-0.0107 -2.35547,-0.0746 -3.6558,-0.17053 -1.30032,-0.0959 -2.83508,-0.22382 -4.09277,-0.30909 -1.25769,-0.0853 -2.23823,-0.1279 -3.30407,-0.24514 -1.06584,-0.11724 -2.21691,-0.30909 -3.50657,-0.55424 -1.28967,-0.24514 -2.71785,-0.54357 -4.1141,-0.76739 -1.39625,-0.22383 -2.76048,-0.37304 -4.16739,-0.55423 -1.4069,-0.18119 -2.8564,-0.39435 -4.38055,-0.60752 -1.524151,-0.21317 -3.122861,-0.42633 -4.657667,-0.6395 -1.534807,-0.21317 -3.00562,-0.42633 -4.444502,-0.60752 -1.438881,-0.18119 -2.845746,-0.3304 -4.700309,-0.50094 -1.854564,-0.17053 -4.156706,-0.36238 -6.320356,-0.54357 -2.16365,-0.1812 -4.188683,-0.35173 -6.192459,-0.54358 -2.003776,-0.19185 -3.986177,-0.40501 -5.606248,-0.56488 -1.620071,-0.15988 -2.877722,-0.26646 -3.9329,-0.3837 -1.055179,-0.11724 -1.907824,-0.24514 -2.685894,-0.35173 -0.778071,-0.1066 -1.481517,-0.19188 -2.078394,-0.12793 -0.596878,0.0639 -1.087148,0.2771 -1.67336,0.49027 -0.586213,0.21317 -1.268328,0.42633 -2.110343,0.70345 -0.842014,0.27712 -1.843873,0.61818 -3.090906,1.03385 -1.247033,0.41568 -2.739162,0.90595 -3.911581,1.25768 -1.17242,0.35172 -2.025064,0.56488 -3.058929,0.73542 -1.033866,0.17053 -2.248885,0.29843 -3.61316,0.43699 -1.364275,0.13856 -2.87772,0.28777 -4.583064,0.40501 -1.705345,0.11725 -3.602479,0.20251 -5.105307,0.24514 -1.502828,0.0426 -2.611267,0.0426 -3.858299,0.032 -1.247033,-0.0106 -2.632581,-0.0319 -3.751709,-0.0959 -1.119129,-0.064 -1.971773,-0.17053 -2.85642,-0.30909 -0.884647,-0.13856 -1.80124,-0.30909 -2.79247,-0.5649 -0.991231,-0.25581 -2.057037,-0.59688 -2.87773,-0.98059 -0.820694,-0.38371 -1.396229,-0.81003 -1.822563,-1.38558 -0.426334,-0.57556 -0.703441,-1.3003 -0.873975,-1.90783 -0.170534,-0.60753 -0.234482,-1.0978 -0.436994,-1.42821 -0.202511,-0.33041 -0.543565,-0.50094 -0.916611,-0.72476 -0.373045,-0.22383 -0.778053,-0.50094 -1.10846,-0.81003 -0.330408,-0.30909 -0.586202,-0.65015 -0.735419,-1.00188 -0.1492172,-0.35173 -0.1918491,-0.7141 -0.2131657,-1.05517 -0.021316,-0.34107 -0.021316,-0.66081 -0.2344865,-1.14044 -0.2131699,-0.47963 -0.6394907,-1.11911 -0.9166077,-1.67335 -0.2771169,-0.55423 -0.4050152,-1.02319 -0.50094,-1.25767 -0.095925,-0.23448 -0.1598731,-0.23448 -0.3197502,-0.52226 -0.1598771,-0.28778 -0.4156687,-0.86331 -0.7354222,-1.55611 -0.3197535,-0.6928 -0.7034424,-1.50281 -1.0018765,-2.36614 -0.2984341,-0.86333 -0.511595,-1.77992 -0.7034459,-2.7072 -0.1918508,-0.92728 -0.3623796,-1.86519 -0.5115969,-2.80313 -0.1492173,-0.93794 -0.2771139,-1.87585 -0.3730389,-2.67523 -0.095925,-0.79937 -0.1598736,-1.46017 -0.1811899,-2.1956 -0.021316,-0.73543 -1e-7,-1.54544 0.021317,-2.27021 0.021317,-0.72477 0.042633,-1.36425 0.085267,-2.09968 0.042634,-0.73543 0.1065818,-1.56676 0.2451419,-2.41943 0.13856,-0.85268 0.3517207,-1.72664 0.5648881,-2.56865 0.2131673,-0.84201 0.4263285,-1.65202 0.6608142,-2.46206 0.2344856,-0.81004 0.4902781,-1.62005 0.7887124,-2.5047 0.2984343,-0.88464 0.6394931,-1.84387 0.9485855,-2.62193 0.3090923,-0.77806 0.5862015,-1.37491 0.7247604,-1.684 0.1385589,-0.30908 0.1385589,-0.33048 0.2877783,-0.68219 0.1492194,-0.35172 0.4476454,-1.03382 0.7673957,-1.71595 0.3197504,-0.68212 0.6608095,-1.36424 0.9166095,-1.97177 0.2558,-0.60752 0.426328,-1.14042 0.575546,-1.66268 0.149217,-0.52226 0.277115,-1.03385 0.341065,-1.36426 0.06395,-0.33041 0.06395,-0.47962 0.06395,-0.47962 0,0 0,0.14921 -0.01066,0.0639 -0.01066,-0.0853 -0.03198,-0.40501 -0.04263,-0.68212 -0.01066,-0.27712 -0.01066,-0.5116 0.06395,-0.69279 0.07461,-0.18119 0.223823,-0.30909 0.458304,-0.40501 0.23448,-0.0959 0.554232,-0.15988 0.87398,-0.22383"
       id="path1"
       inkscape:path-effect="#path-effect1"
       inkscape:original-d="m 10.040098,178.86723 c -0.02132,-0.1279 -0.042633,-0.2558 -0.06395,-0.3837 0.021317,0.1279 0.06395,0.3837 0.06395,0.3837 z m 2.749836,-47.83436 c 0.746079,-0.1279 1.492159,-0.2558 2.238238,-0.3837 0.618193,0.0426 1.23636,0.0853 1.854541,0.1279 0.511607,0.14922 1.023194,0.29844 1.534792,0.44765 0.852679,0.10658 1.705324,0.21317 2.557986,0.31975 0.788729,0.19185 1.577425,0.3837 2.366138,0.57555 4.924224,1.27901 9.848249,2.55798 14.772372,3.83698 1.129803,0.23448 2.259555,0.46896 3.389334,0.70344 1.662724,0.34107 3.325384,0.68213 4.988073,1.0232 1.982481,0.49029 3.964882,0.98056 5.94732,1.47084 2.04643,0.46897 4.092779,0.93793 6.139169,1.40689 2.621989,0.55424 5.243873,1.10846 7.865809,1.66269 1.534821,0.29844 3.069584,0.59687 4.604377,0.8953 2.025113,0.36239 4.050143,0.72476 6.075217,1.08714 2.558039,0.51161 5.115975,1.0232 7.673961,1.5348 2.238283,0.42633 4.476475,0.85266 6.714715,1.27899 2.536722,0.44766 5.07334,0.89529 7.610009,1.34294 2.621985,0.34107 5.243875,0.68213 7.865815,1.0232 1.91852,0.2558 3.83698,0.51159 5.75547,0.76739 0.91662,0.0853 1.83322,0.17054 2.74983,0.2558 1.3856,0.1279 2.77115,0.2558 4.15673,0.3837 1.10848,0.064 2.21692,0.1279 3.32538,0.19185 0.93795,0.0213 1.87586,0.0426 2.81379,0.0639 0.36239,-0.0639 0.72476,-0.1279 1.08714,-0.19185 1.47087,-0.1279 2.94169,-0.2558 4.41253,-0.3837 1.89721,-0.23449 3.79435,-0.46896 5.69152,-0.70345 0.0853,-0.064 0.17053,-0.12789 0.2558,-0.19184 1.10848,-0.23447 2.21692,-0.46893 3.32538,-0.7034 1.02322,-0.36239 2.04639,-0.72476 3.06959,-1.08714 0.78873,-0.38371 1.57742,-0.7674 2.36614,-1.1511 1.00189,-0.42634 2.00375,-0.85266 3.00563,-1.27899 1.06585,-0.55424 2.13166,-1.10846 3.19748,-1.66269 0.46898,-0.1279 0.93793,-0.2558 1.4069,-0.3837 0.85268,-0.0639 1.70532,-0.1279 2.55798,-0.19185 0.874,0.29844 1.74796,0.59686 2.62194,0.8953 1.34297,0.44765 2.68589,0.89529 4.02883,1.34294 1.02321,0.55424 2.04639,1.10846 3.06958,1.66269 1.08717,0.44766 2.17429,0.8953 3.26144,1.34294 0.57555,0.19186 1.15109,0.3837 1.72664,0.57555 1.17243,0.27712 2.34482,0.55423 3.51723,0.83135 2.00379,0.61819 4.00751,1.23636 6.01127,1.85454 1.21507,0.36238 2.43008,0.72476 3.64513,1.08714 1.47087,0.46897 2.94168,0.93793 4.41253,1.40689 1.00189,0.25581 2.00375,0.5116 3.00563,0.7674 0.46897,0.1279 0.93793,0.2558 1.40689,0.3837 1.02322,0.3837 2.04639,0.76739 3.06959,1.15109 0.61819,0.25581 1.23636,0.5116 1.85454,0.7674 0.49029,0.31975 0.98056,0.63949 1.47084,0.95924 0.53292,0.34107 1.06583,0.68213 1.59874,1.0232 0.31976,0.42634 0.6395,0.85266 0.95925,1.27899 0.21317,0.36239 0.42633,0.72476 0.63949,1.08714 0.10659,0.36239 0.21317,0.72477 0.31975,1.08715 -0.0426,0.40502 -0.0853,0.81003 -0.1279,1.21504 -0.10658,0.27712 -0.21316,0.55423 -0.31975,0.83135 -0.0853,0.21317 -0.17053,0.42633 -0.25579,0.6395 0.0853,0.34107 0.17053,0.68213 0.25579,1.02319 0.0213,0.42634 0.0426,0.85266 0.064,1.27899 -0.1279,0.40503 -0.2558,0.81003 -0.38369,1.21505 -0.17054,0.31975 -0.34107,0.63949 -0.5116,0.95924 -0.42634,0.63951 -0.85266,1.279 -1.279,1.91849 -0.49029,0.51161 -0.98056,1.0232 -1.47084,1.53479 -0.59687,0.53293 -1.19372,1.06583 -1.79059,1.59875 -0.81004,0.61819 -1.62006,1.23636 -2.43009,1.85454 -0.78872,0.55424 -1.57742,1.10846 -2.36613,1.66269 -0.59688,0.34107 -1.19373,0.68213 -1.79059,1.02319 -0.66083,0.42634 -1.32163,0.85266 -1.98244,1.279 -0.23449,0.1279 -0.46897,0.25579 -0.70345,0.38369 -0.66083,0.29844 -1.32163,0.59687 -1.98244,0.8953 -0.91663,0.38371 -1.83322,0.7674 -2.74984,1.15109 -1.19375,0.36239 -2.38745,0.72477 -3.58118,1.08715 -0.46897,0.0853 -0.93793,0.17053 -1.40689,0.2558 -1.44955,0.36239 -2.89905,0.72476 -4.34858,1.08714 -1.3856,0.44766 -2.77115,0.8953 -4.15673,1.34294 -1.96116,0.44766 -3.92224,0.8953 -5.88337,1.34295 -2.17433,0.34107 -4.34857,0.68213 -6.52286,1.02319 -2.11038,0.31976 -4.22068,0.6395 -6.33102,0.95925 -2.06775,0.0426 -4.13541,0.0853 -6.20312,0.1279 -2.55804,0.10658 -5.11597,0.21316 -7.67396,0.31974 -1.79062,0.0213 -3.58118,0.0426 -5.37177,0.064 -1.51351,0.0426 -3.02695,0.0853 -4.54043,0.1279 -1.06585,-0.0639 -2.13165,-0.1279 -3.19748,-0.19185 -1.53482,-0.1279 -3.06958,-0.25579 -4.60438,-0.38369 -0.98058,-0.0426 -1.96112,-0.0853 -2.94168,-0.1279 -1.15112,-0.19186 -2.30219,-0.3837 -3.45328,-0.57555 -1.42824,-0.29844 -2.85642,-0.59686 -4.28463,-0.8953 -1.36429,-0.14921 -2.72852,-0.29843 -4.09278,-0.44764 -1.44955,-0.21317 -2.89905,-0.42633 -4.34858,-0.6395 -1.598771,-0.21317 -3.197481,-0.42633 -4.796222,-0.6395 -1.470872,-0.21317 -2.941685,-0.42633 -4.412527,-0.63949 -1.406921,-0.14922 -2.813786,-0.29843 -4.220679,-0.44765 -2.302234,-0.19185 -4.604376,-0.3837 -6.906564,-0.57555 -2.025113,-0.17053 -4.050146,-0.34106 -6.075219,-0.5116 -1.982479,-0.21316 -3.964879,-0.42633 -5.947319,-0.63949 -1.257702,-0.10659 -2.515353,-0.21317 -3.77303,-0.31975 -0.85268,-0.1279 -1.705325,-0.2558 -2.557987,-0.3837 -0.703477,-0.0853 -1.406926,-0.17056 -2.110389,-0.25585 -0.490291,0.21317 -0.980562,0.42633 -1.470843,0.6395 -0.682143,0.21317 -1.364259,0.42633 -2.046389,0.6395 -1.001898,0.34107 -2.003756,0.68213 -3.005634,1.02319 -1.492189,0.49029 -2.984318,0.98056 -4.476477,1.47084 -0.85268,0.21317 -1.705325,0.42633 -2.557987,0.6395 -1.215068,0.1279 -2.430087,0.2558 -3.645131,0.3837 -1.513506,0.14922 -3.026951,0.29843 -4.540427,0.44765 -1.897211,0.0853 -3.794347,0.17053 -5.69152,0.25579 -1.108483,0 -2.216922,0 -3.325383,0 -1.385604,-0.0213 -2.771152,-0.0426 -4.156729,-0.0639 -0.852679,-0.10659 -1.705324,-0.21317 -2.557986,-0.31975 -0.916631,-0.17054 -1.833224,-0.34107 -2.749836,-0.5116 -1.065849,-0.34109 -2.131656,-0.68216 -3.197484,-1.02324 -0.575558,-0.42634 -1.151094,-0.85266 -1.726641,-1.27899 -0.277121,-0.72478 -0.55423,-1.44952 -0.831345,-2.17429 -0.06395,-0.49029 -0.1279,-0.98056 -0.191849,-1.47084 -0.341072,-0.17054 -0.68213,-0.34106 -1.023195,-0.5116 -0.405023,-0.27712 -0.810029,-0.55423 -1.215044,-0.83134 -0.255804,-0.34107 -0.511597,-0.68213 -0.767396,-1.0232 -0.042634,-0.36239 -0.085266,-0.72476 -0.1278992,-1.08714 0,-0.31976 0,-0.6395 0,-0.95925 -0.4263397,-0.63951 -0.8526623,-1.27899 -1.2789934,-1.91849 -0.1279019,-0.46897 -0.2557987,-0.93793 -0.383698,-1.40689 -0.063951,0 -0.1278994,0 -0.1918491,0 -0.2558038,-0.57556 -0.5115973,-1.15109 -0.767396,-1.72664 -0.3837057,-0.81005 -0.767396,-1.62006 -1.151094,-2.43009 -0.2131699,-0.91663 -0.4263312,-1.83322 -0.6394967,-2.74983 -0.1705359,-0.93795 -0.3410649,-1.87586 -0.5115974,-2.81379 -0.1279019,-0.93795 -0.2557987,-1.87586 -0.383698,-2.81379 -0.063951,-0.66082 -0.1278993,-1.32162 -0.191849,-1.98243 0.021317,-0.81005 0.042633,-1.62006 0.06395,-2.43009 0.021317,-0.63951 0.042633,-1.27899 0.06395,-1.91849 0.063951,-0.83136 0.1278989,-1.66269 0.1918483,-2.49404 0.2131698,-0.874 0.4263311,-1.74796 0.6394967,-2.62194 0.2131698,-0.81004 0.4263311,-1.62005 0.6394967,-2.43008 0.2558038,-0.81005 0.5115974,-1.62006 0.7673961,-2.43009 0.3410717,-0.95926 0.6821298,-1.91849 1.0231947,-2.87774 0.2771207,-0.59687 0.5542304,-1.19372 0.8313457,-1.79059 0,-0.0213 0,-0.0427 0,-0.064 0.2984377,-0.68213 0.5968635,-1.36423 0.8952953,-2.04634 0.3410717,-0.68214 0.6821303,-1.36426 1.0231943,-2.04639 0.170536,-0.53292 0.341065,-1.06582 0.511598,-1.59874 0.127902,-0.5116 0.255799,-1.02319 0.383698,-1.53479 0,-0.14922 0,-0.29843 0,-0.44765 0,0.14922 0,0.29843 0,0.44765 -0.02132,-0.31975 -0.04263,-0.6395 -0.06395,-0.95924 0,-0.23449 0,-0.46897 0,-0.70345 0.149219,-0.1279 0.298432,-0.2558 0.447648,-0.3837 0.319755,-0.0639 0.639497,-0.1279 0.959245,-0.19185" /><path
       style="fill:#ffffff;fill-opacity:1;stroke:#ffffff;stroke-width:0;stroke-linejoin:round;stroke-dasharray:none;stroke-opacity:1"
       id="path5"
       sodipodi:type="arc"
       sodipodi:cx="199.89168"
       sodipodi:cy="167.10207"
       sodipodi:rx="0.21479142"
       sodipodi:ry="0.48045447"
       sodipodi:start="2.7339725"
       sodipodi:end="0.40260919"
       sodipodi:open="true"
       sodipodi:arc-type="arc"
       d="m 199.69448,167.29253 a 0.21479142,0.48045447 0 0 1 0.0653,-0.56968 0.21479142,0.48045447 0 0 1 0.26292,-0.001 0.21479142,0.48045447 0 0 1 0.0666,0.56895" /></g><g
     inkscape:groupmode="layer"
     id="layer3"
     inkscape:label="sola"><path
       style="fill:none;stroke:#ffffff;stroke-width:2.065;stroke-linecap:butt;stroke-linejoin:miter;stroke-dasharray:none;stroke-opacity:1"
       d="m 13.023142,177.44032 c 2.471986,-0.18088 4.943971,-0.36176 7.295394,-0.48235 2.351423,-0.12058 4.582194,-0.18087 6.511565,-0.21101 1.929371,-0.0301 3.557231,-0.0301 5.335874,-0.0603 1.778643,-0.0301 3.707958,-0.0904 6.11968,-0.0904 2.411722,0 5.305697,0.0603 7.868143,0.33162 2.562447,0.27132 4.793216,0.75364 7.295376,1.32643 2.50216,0.57278 5.27555,1.23598 7.928437,1.68818 2.652888,0.45219 5.185118,0.69336 8.229915,1.02497 3.044796,0.33162 6.601974,0.75365 10.521018,1.1757 3.919044,0.42205 8.199714,0.84409 12.239338,1.26614 4.039625,0.42205 7.837968,0.84408 11.365098,1.26613 3.52713,0.42205 6.78285,0.84409 9.97838,1.236 3.19552,0.3919 6.33066,0.75365 9.28501,0.93452 2.95435,0.18088 5.72775,0.18088 8.19975,0.0904 2.47201,-0.0904 4.64249,-0.27131 7.05421,-0.42204 2.41172,-0.15074 5.06453,-0.27132 7.95859,-0.4522 2.89406,-0.18087 6.0292,-0.42204 8.98355,-0.7838 2.95435,-0.36176 5.72775,-0.84408 8.53137,-1.44702 2.80362,-0.60293 5.6373,-1.32642 8.6218,-2.29111 2.98451,-0.96469 6.11964,-2.17051 8.74238,-3.34622 2.62274,-1.17571 4.73293,-2.32125 6.75274,-3.40652 2.01981,-1.08527 3.94913,-2.11022 5.63733,-3.07491 1.6882,-0.96468 3.13518,-1.86905 4.31089,-2.683 1.17571,-0.81395 2.08008,-1.53745 2.53178,-1.8812 0.45169,-0.34376 0.45069,-0.30766 0.44969,-0.27167"
       id="path2"
       inkscape:path-effect="#path-effect2"
       inkscape:original-d="m 13.023142,177.44032 c 2.471986,-0.18088 4.943971,-0.36176 7.415956,-0.54264 2.230861,-0.0603 4.461632,-0.12058 6.692449,-0.18087 1.627925,0 3.255785,0 4.883679,0 1.929392,-0.0603 3.858707,-0.12059 5.788062,-0.18088 2.894089,0.0603 5.788064,0.12058 8.682095,0.18088 2.230861,0.48235 4.461632,0.96467 6.692448,1.44701 2.773503,0.66323 5.546894,1.32643 8.320341,1.98965 2.532327,0.24117 5.064557,0.48234 7.596833,0.72351 3.557318,0.42205 7.114495,0.84409 10.671741,1.26614 4.280842,0.42205 8.561512,0.84409 12.842267,1.26613 3.798493,0.42206 7.596837,0.8441 11.395247,1.26614 3.25585,0.42206 6.51157,0.8441 9.76736,1.26614 3.13526,0.36176 6.2704,0.72351 9.4056,1.08526 2.7735,0 5.5469,0 8.32034,0 2.17057,-0.18088 4.34105,-0.36175 6.51157,-0.54263 2.65292,-0.12058 5.30573,-0.24117 7.95859,-0.36175 3.13526,-0.24117 6.2704,-0.48234 9.4056,-0.72351 2.7735,-0.48235 5.5469,-0.96468 8.32034,-1.44701 2.8338,-0.72353 5.66748,-1.44702 8.50122,-2.17053 3.13527,-1.20587 6.2704,-2.41169 9.40561,-3.61754 2.11027,-1.14557 4.22046,-2.29111 6.33069,-3.43666 1.92939,-1.02499 3.85871,-2.04994 5.78806,-3.07491 1.44705,-0.9044 2.89403,-1.80877 4.34105,-2.71315 0.9044,-0.72352 1.80877,-1.44702 2.71316,-2.17053 -0.001,0.036 -0.002,0.0721 -0.003,0.10809" /><path
       style="fill:#ffffff;fill-opacity:1;stroke:#ffffff;stroke-width:0;stroke-linejoin:round;stroke-dasharray:none;stroke-opacity:1"
       id="path4"
       sodipodi:type="arc"
       sodipodi:cx="129.20004"
       sodipodi:cy="-287.06647"
       sodipodi:rx="1.2201008"
       sodipodi:ry="1.3050532"
       sodipodi:start="2.7339725"
       sodipodi:end="0.40260919"
       sodipodi:open="true"
       sodipodi:arc-type="arc"
       d="m 128.07991,-286.54911 a 1.2201008,1.3050532 0 0 1 0.37097,-1.54742 1.2201008,1.3050532 0 0 1 1.49349,-0.004 1.2201008,1.3050532 0 0 1 0.37822,1.54542"
       transform="matrix(-0.6134339,0.78974607,-0.97396108,-0.22671526,0,0)" /><path
       style="fill:#ffffff;fill-opacity:1;stroke:#ffffff;stroke-width:0;stroke-linejoin:round;stroke-dasharray:none;stroke-opacity:1"
       id="path6"
       sodipodi:type="arc"
       sodipodi:cx="-177.97313"
       sodipodi:cy="1.1728439"
       sodipodi:rx="1.0342681"
       sodipodi:ry="0.79356658"
       sodipodi:start="3.1264799"
       sodipodi:end="6.2680483"
       sodipodi:open="true"
       sodipodi:arc-type="arc"
       d="m -179.00728,1.1848365 a 1.0342681,0.79356658 0 0 1 1.01851,-0.80546838 1.0342681,0.79356658 0 0 1 1.04979,0.78146408"
       transform="matrix(-0.0667253,-0.99777138,0.99303291,-0.11783735,0,0)" /></g></svg>
