<?xml version="1.0" encoding="UTF-8" standalone="no"?>
<!-- Created with Inkscape (http://www.inkscape.org/) -->

<svg
   width="210mm"
   height="297mm"
   viewBox="0 0 210 297"
   version="1.1"
   id="svg1"
   xml:space="preserve"
   inkscape:export-filename="sapato social.png"
   inkscape:export-xdpi="96"
   inkscape:export-ydpi="96"
   xmlns:inkscape="http://www.inkscape.org/namespaces/inkscape"
   xmlns:sodipodi="http://sodipodi.sourceforge.net/DTD/sodipodi-0.dtd"
   xmlns="http://www.w3.org/2000/svg"
   xmlns:svg="http://www.w3.org/2000/svg"><sodipodi:namedview
     id="namedview1"
     pagecolor="#ffffff"
     bordercolor="#000000"
     borderopacity="0.25"
     inkscape:showpageshadow="2"
     inkscape:pageopacity="0.0"
     inkscape:pagecheckerboard="0"
     inkscape:deskcolor="#d1d1d1"
     inkscape:document-units="mm"><inkscape:page
       x="0"
       y="0"
       width="210"
       height="297"
       id="page2"
       margin="0"
       bleed="0" /></sodipodi:namedview><defs
     id="defs1"><inkscape:path-effect
       effect="bspline"
       id="path-effect1"
       is_visible="true"
       lpeversion="1.3"
       weight="33.333333"
       steps="2"
       helper_size="0"
       apply_no_weight="true"
       apply_with_weight="true"
       only_selected="false"
       uniform="false" /></defs><g
     inkscape:groupmode="layer"
     id="layer2"
     inkscape:label="sapato social"><path
       style="fill:#000000;fill-opacity:1;stroke:#000000;stroke-width:0.264583px;stroke-linecap:butt;stroke-linejoin:miter;stroke-opacity:1"
       d="m 18.922699,125.46494 c 0.725461,0.1527 2.016104,0.54748 3.716739,1.1093 1.700636,0.56182 3.811176,1.29064 6.286204,2.12577 2.475028,0.83513 5.314388,1.77652 7.842555,2.49777 2.528167,0.72124 4.744994,1.22231 6.172298,1.51081 1.427305,0.28849 2.065025,0.36442 3.272175,0.44034 1.20715,0.0759 2.983649,0.15184 4.775385,0.15184 1.791735,0 3.598602,-0.0759 5.534589,-0.26572 1.935986,-0.18981 4.000976,-0.49349 6.00529,-0.93383 2.004313,-0.44034 3.947831,-1.01733 5.595314,-1.64747 1.647483,-0.63014 2.998838,-1.31341 4.19839,-1.98911 1.199552,-0.6757 2.247227,-1.34378 3.067171,-2.10299 0.819944,-0.75921 1.41211,-1.6095 2.16373,-2.76351 0.751621,-1.154 1.662645,-2.61164 2.345931,-3.65935 0.683287,-1.0477 1.1388,-1.68542 1.693024,-2.36112 0.554223,-0.67569 1.207126,-1.38933 1.776531,-1.96633 0.569405,-0.57699 1.055286,-1.01732 1.381746,-1.23749 0.326459,-0.22017 0.493481,-0.22017 0.652916,-0.15943 0.159435,0.0607 0.311272,0.18221 0.49348,0.34164 0.182208,0.15943 0.394781,0.35682 0.660505,0.59218 0.265724,0.23535 0.584586,0.50866 1.017337,0.78197 0.432751,0.27332 0.979366,0.54663 1.313416,0.68328 0.33405,0.13666 0.45552,0.13666 0.599769,0.0911 0.144249,-0.0456 0.311273,-0.13666 0.523853,-0.26572 0.212579,-0.12907 0.470703,-0.29609 0.706062,-0.40238 0.235358,-0.10629 0.447921,-0.15184 0.759198,-0.17461 0.311278,-0.0228 0.721239,-0.0228 1.153987,0.008 0.432747,0.0304 0.888264,0.0911 1.358975,0.22017 0.470711,0.12907 0.956588,0.32646 1.548774,0.59977 0.592186,0.27332 1.290635,0.62255 2.072624,1.04011 0.781989,0.41757 1.647462,0.90345 2.391483,1.34379 0.74403,0.44034 1.36656,0.83512 2.12577,1.35897 0.75921,0.52386 1.65506,1.17676 2.61926,1.86005 0.96419,0.68329 1.99669,1.39692 2.77867,1.92077 0.78198,0.52386 1.31342,0.8579 1.95116,1.28306 0.63773,0.42516 1.38173,0.9414 2.13335,1.44248 0.75162,0.50108 1.51081,0.98696 2.22447,1.46526 0.71365,0.47831 1.38173,0.949 2.22446,1.67025 0.84272,0.72126 1.86004,1.69302 2.6648,2.43705 0.80476,0.74402 1.39692,1.26026 2.10299,1.90559 0.70607,0.64533 1.52599,1.4197 1.94356,1.8145 0.41757,0.39479 0.43267,0.40989 0.91858,0.75915 0.48592,0.34925 1.44251,1.03254 2.47505,1.70065 1.03253,0.66812 2.14094,1.32102 3.27217,1.98153 1.13122,0.66051 2.28519,1.3286 3.5227,1.98152 1.23751,0.65292 2.5585,1.29064 4.06173,1.93597 1.50324,0.64532 3.18864,1.29823 4.70706,1.78412 1.51842,0.48589 2.86977,0.80475 4.23635,1.10084 1.36658,0.29609 2.7483,0.5694 4.07692,0.81234 1.32861,0.24295 2.60405,0.45552 3.81879,0.63773 1.21473,0.18221 2.36869,0.33405 3.73527,0.51626 1.36658,0.18221 2.94569,0.39478 4.14524,0.54663 1.19955,0.15184 2.01947,0.24294 3.26458,0.3796 1.24511,0.13666 2.91532,0.31886 4.51725,0.42515 1.60193,0.10629 3.13549,0.13665 4.45652,0.16702 1.32102,0.0304 2.42943,0.0607 3.48473,0.10629 1.05531,0.0455 2.05743,0.10628 3.15069,0.20498 1.09327,0.0987 2.2776,0.23535 3.29494,0.37201 1.01734,0.13666 1.86763,0.27331 3.12792,0.53145 1.2603,0.25813 2.93051,0.63773 4.25153,0.949 1.32102,0.31128 2.29278,0.55422 3.02921,0.75921 0.73643,0.20498 1.2375,0.37201 1.72339,0.56181 0.4859,0.1898 0.95659,0.40237 1.3362,0.64532 0.3796,0.24295 0.66809,0.51626 0.93382,0.79716 0.26572,0.28091 0.50866,0.5694 0.72883,0.91864 0.22017,0.34924 0.41756,0.7592 0.58458,1.22991 0.16703,0.47071 0.30368,1.00214 0.40997,1.5184 0.10629,0.51627 0.18221,1.01733 0.24295,1.47285 0.0607,0.45552 0.10629,0.86549 0.13665,1.13122 0.0304,0.26572 0.0455,0.38719 0.19737,0.46311 0.15184,0.0759 0.44035,0.10628 0.63016,0.14425 0.18982,0.038 0.28091,0.0835 0.3796,0.1898 0.0987,0.10629 0.20499,0.27331 0.31128,0.57699 0.10629,0.30369 0.21258,0.74402 0.2809,1.13122 0.0683,0.38719 0.0987,0.72123 0.12906,1.16916 0.0304,0.44794 0.0607,1.00974 0.038,1.36656 -0.0228,0.35682 -0.0987,0.50867 -0.20498,0.6757 -0.10629,0.16703 -0.24294,0.34923 -0.44793,0.50866 -0.20499,0.15944 -0.47829,0.29609 -0.87308,0.50867 -0.39479,0.21258 -0.91104,0.50107 -1.6247,0.85031 -0.71366,0.34924 -1.62469,0.7592 -2.58129,1.1464 -0.95661,0.38719 -1.95873,0.7516 -2.74071,1.0401 -0.78199,0.2885 -1.34379,0.50107 -2.3004,0.81235 -0.95661,0.31128 -2.30796,0.72124 -3.52269,1.07807 -1.21474,0.35683 -2.29279,0.6605 -3.39364,0.97178 -1.10085,0.31127 -2.22445,0.63013 -3.32531,0.91863 -1.10085,0.2885 -2.1789,0.54662 -3.29493,0.81994 -1.11604,0.27331 -2.27001,0.5618 -3.40123,0.83512 -1.13122,0.27331 -2.23964,0.53144 -3.84917,0.92623 -1.60953,0.39479 -3.72007,0.92622 -6.08121,1.47285 -2.36115,0.54663 -4.97275,1.10843 -7.12891,1.54118 -2.15615,0.43275 -3.85673,0.73643 -6.30139,1.13122 -2.44466,0.39479 -5.63325,0.88066 -8.34363,1.28304 -2.71037,0.40238 -4.94238,0.72124 -7.18205,1.00974 -2.23967,0.2885 -4.48687,0.54663 -6.89357,0.79717 -2.40669,0.25054 -4.97275,0.49348 -7.12131,0.61495 -2.14856,0.12147 -3.8795,0.12147 -5.37515,0.0683 -1.49564,-0.0531 -2.75589,-0.15943 -4.04655,-0.31128 -1.29065,-0.15184 -2.61164,-0.34923 -4.12247,-0.57699 -1.51083,-0.22777 -3.21141,-0.48589 -5.01074,-0.80476 -1.79932,-0.31887 -3.697292,-0.69846 -5.382737,-1.0401 -1.685444,-0.34165 -3.158268,-0.64533 -5.397945,-1.09326 -2.239677,-0.44794 -5.246057,-1.0401 -7.759038,-1.5184 -2.51298,-0.4783 -4.532418,-0.84271 -6.331744,-1.08566 -1.799326,-0.24295 -3.378435,-0.36442 -4.190781,-0.42515 -0.812346,-0.0607 -0.857896,-0.0607 -1.252691,-0.0759 -0.394795,-0.0152 -1.138797,-0.0456 -2.376314,-0.12147 -1.237518,-0.0759 -2.968465,-0.1974 -3.84914,-0.15943 -0.880675,0.038 -0.911041,0.23535 -0.933816,0.43274 -0.02277,0.19739 -0.03796,0.39478 -0.06833,0.73643 -0.03037,0.34165 -0.07592,0.82753 -0.189801,1.89042 -0.113882,1.0629 -0.296087,2.70275 -0.478299,3.61379 -0.182211,0.91105 -0.364422,1.09326 -0.364419,1.09325 4e-6,0 0.182209,-0.1822 0.1898,-0.18979 0.0076,-0.008 -0.159433,0.15943 -0.364416,0.26572 -0.204982,0.10628 -0.447931,0.15184 -0.781987,0.19739 -0.334057,0.0456 -0.759197,0.0911 -1.229908,0.10629 -0.470711,0.0152 -0.986959,3e-5 -1.465261,0.008 -0.478302,0.008 -0.918627,0.038 -1.624696,0.0532 -0.706069,0.0152 -1.677829,0.0152 -6.096466,0.0228 -4.418637,0.008 -12.283817,0.0228 -17.681775,-0.008 -5.397958,-0.0304 -8.328422,-0.1063 -11.615805,-0.37962 -3.287383,-0.27332 -6.931482,-0.74401 -8.852267,-1.03251 -1.920785,-0.2885 -2.118173,-0.39478 -2.307975,-0.51625 -0.189802,-0.12147 -0.37201,-0.25813 -0.531443,-0.53904 -0.159434,-0.28091 -0.296086,-0.70605 -0.379598,-3.26461 -0.08351,-2.55856 -0.113877,-7.25034 -0.03796,-9.6646 0.07592,-2.41427 0.258124,-2.55092 0.379586,-2.64202 0.121462,-0.0911 0.182219,-0.13666 0.258133,-0.1898 0.07591,-0.0531 0.167034,-0.11389 0.280914,-0.1974 0.113879,-0.0835 0.250534,-0.1898 0.258125,-0.43275 0.0076,-0.24295 -0.113879,-0.62254 -0.258129,-1.07807 -0.144249,-0.45552 -0.311273,-0.98696 -0.409969,-1.4197 -0.0987,-0.43275 -0.129068,-0.7668 -0.151843,-0.94142 -0.02278,-0.17462 -0.03796,-0.18982 -0.113883,-0.53147 -0.07592,-0.34165 -0.212572,-1.00972 -0.303676,-1.67022 -0.0911,-0.66051 -0.136655,-1.31341 -0.182208,-1.93596 -0.04555,-0.62255 -0.0911,-1.21472 -0.151841,-1.97393 -0.06074,-0.75921 -0.136655,-1.68542 -0.167024,-2.55851 -0.03037,-0.87309 -0.01519,-1.69301 -0.0076,-2.55851 0.0076,-0.8655 0.0076,-1.77653 0.04555,-2.79387 0.03796,-1.01734 0.113881,-2.14094 0.235356,-3.28735 0.121474,-1.14641 0.288494,-2.31555 0.485889,-3.41641 0.197395,-1.10085 0.425153,-2.13335 0.600418,-2.97389 0.175266,-0.84054 0.298031,-1.48908 0.477522,-2.22673 0.17949,-0.73765 0.415696,-1.56437 0.630433,-2.35352 0.214736,-0.78916 0.407994,-1.54072 0.644206,-2.36746 0.236211,-0.82674 0.515359,-1.7286 0.762306,-2.49629 0.246948,-0.76768 0.46168,-1.40114 0.671049,-1.95408 0.209368,-0.55295 0.413363,-1.02536 0.644204,-1.52999 0.230842,-0.50463 0.488518,-1.04146 0.724728,-1.51388 0.236209,-0.47242 0.450941,-0.88041 0.638449,-1.12911 0.187508,-0.2487 0.347786,-0.33811 1.073248,-0.18542 z"
       id="path1"
       inkscape:path-effect="#path-effect1"
       inkscape:original-d="m 18.357515,125.22285 c 1.290644,0.39479 2.581289,0.78957 3.871933,1.18436 2.110625,0.72885 4.221165,1.45767 6.331748,2.1865 2.839474,0.94143 5.678834,1.88282 8.518253,2.82423 2.216914,0.50109 4.433741,1.00215 6.650611,1.50322 0.637743,0.0759 1.275461,0.15184 1.913192,0.22777 1.776569,0.0759 3.553067,0.15184 5.329601,0.22776 1.806938,-0.0759 3.613804,-0.15184 5.420705,-0.22776 2.065072,-0.30369 4.130062,-0.60737 6.195092,-0.91105 1.943598,-0.577 3.887117,-1.15398 5.830675,-1.73098 1.351408,-0.68329 2.702761,-1.36656 4.054141,-2.04984 1.047721,-0.66812 2.095399,-1.3362 3.143099,-2.0043 0.592189,-0.85032 1.184355,-1.70061 1.776533,-2.55092 0.911061,-1.4577 1.822086,-2.91534 2.733129,-4.37301 0.455531,-0.63774 0.911043,-1.27546 1.366565,-1.91319 0.652927,-0.71366 1.305828,-1.4273 1.958742,-2.14095 0.485899,-0.44034 0.971779,-0.88067 1.457669,-1.32101 0.167027,0 0.334049,0 0.501073,0 0.151844,0.12148 0.303681,0.24295 0.455522,0.36442 0.212581,0.19739 0.425153,0.39478 0.63773,0.59218 0.318871,0.27331 0.63773,0.54662 0.956595,0.81993 0.546637,0.27332 1.093251,0.54663 1.639877,0.81994 0.121475,0 0.242945,0 0.364417,0 0.167028,-0.0911 0.334049,-0.18221 0.501074,-0.27331 0.258134,-0.16703 0.516258,-0.33405 0.774386,-0.50107 0.212581,-0.0456 0.425154,-0.0911 0.637731,-0.13666 0.409977,0 0.819938,0 1.229907,0 0.455531,0.0607 0.911043,0.12147 1.366565,0.18221 0.485899,0.1974 0.971779,0.39478 1.457669,0.59218 0.69848,0.34924 1.396932,0.69846 2.095398,1.0477 0.865509,0.4859 1.730982,0.97178 2.596473,1.45767 0.62256,0.39479 1.24509,0.78957 1.86764,1.18435 0.89587,0.65293 1.79172,1.30583 2.68757,1.95874 1.03254,0.71367 2.06504,1.4273 3.09755,2.14095 0.53145,0.33406 1.06289,0.6681 1.59433,1.00215 0.74403,0.51627 1.48803,1.03252 2.23205,1.54877 0.75922,0.4859 1.51841,0.97178 2.27761,1.45767 0.66811,0.47072 1.33619,0.94141 2.00429,1.41212 1.01735,0.9718 2.03467,1.94356 3.052,2.91534 0.59219,0.51627 1.18435,1.03251 1.77653,1.54877 0.81996,0.7744 1.63988,1.54877 2.45982,2.32316 0.0152,0.0152 0.0303,0.0303 0.0455,0.0455 0.95663,0.68331 1.91322,1.3666 2.86983,2.0499 1.10846,0.65293 2.21687,1.30583 3.32531,1.95874 1.15401,0.66811 2.30798,1.3362 3.46196,2.0043 1.32104,0.63774 2.64203,1.27546 3.96304,1.91319 1.68546,0.65292 3.37086,1.30583 5.05629,1.95874 1.35141,0.31887 2.70276,0.63773 4.05414,0.95659 1.38178,0.27332 2.7635,0.54663 4.14525,0.81994 1.27548,0.21258 2.55092,0.42516 3.82638,0.63773 1.15401,0.15185 2.30797,0.30368 3.46196,0.45552 1.57917,0.21258 3.15828,0.42516 4.73742,0.63773 0.81996,0.0911 1.63988,0.18221 2.45982,0.27332 1.67028,0.18221 3.34049,0.36441 5.01073,0.54662 1.53362,0.0304 3.06718,0.0607 4.60077,0.0911 1.10846,0.0304 2.21687,0.0607 3.32531,0.0911 1.00217,0.0607 2.00429,0.12147 3.00644,0.18221 1.18438,0.13666 2.36871,0.27331 3.55307,0.40997 0.85032,0.13666 1.70061,0.27331 2.55092,0.40997 1.67028,0.37961 3.34049,0.75921 5.01073,1.13881 0.9718,0.24295 1.94356,0.48589 2.91534,0.72884 0.50108,0.16702 1.00215,0.33404 1.50322,0.50107 0.47072,0.21258 0.94141,0.42515 1.41212,0.63773 0.2885,0.27332 0.57699,0.54663 0.86549,0.81994 0.24295,0.2885 0.48589,0.57699 0.72883,0.86549 0.1974,0.40998 0.39479,0.81994 0.59218,1.22991 0.13666,0.53145 0.27331,1.06288 0.40997,1.59432 0.0759,0.50109 0.15184,1.00215 0.22776,1.50322 0.0455,0.40998 0.0911,0.81994 0.13666,1.22991 0.0152,0.12148 0.0303,0.24295 0.0455,0.36442 0.28852,0.0304 0.57703,0.0607 0.86554,0.0911 0.0911,0.0456 0.18221,0.0911 0.27331,0.13666 0.10629,0.16703 0.21258,0.33405 0.31887,0.50107 0.10629,0.44035 0.21258,0.88068 0.31886,1.32101 0.0304,0.33406 0.0607,0.6681 0.0911,1.00215 0.0304,0.56182 0.0607,1.12362 0.0911,1.68543 -0.0759,0.15184 -0.15183,0.30368 -0.22775,0.45552 -0.13666,0.18222 -0.27331,0.36442 -0.40997,0.54663 -0.27332,0.13666 -0.54662,0.27331 -0.81994,0.40997 -0.51626,0.2885 -1.03251,0.57699 -1.54877,0.86549 -0.91106,0.40998 -1.82209,0.81994 -2.73313,1.22991 -1.00217,0.36442 -2.00429,0.72883 -3.00644,1.09325 -0.56182,0.21258 -1.12362,0.42515 -1.68543,0.63773 -1.35141,0.40998 -2.70276,0.81994 -4.05414,1.22991 -1.07809,0.30368 -2.15614,0.60736 -3.2342,0.91104 -1.12364,0.31887 -2.24724,0.63773 -3.37086,0.95659 -1.07809,0.25814 -2.15614,0.51626 -3.2342,0.77439 -1.15401,0.2885 -2.30798,0.57699 -3.46197,0.86549 -1.10845,0.25814 -2.21687,0.51626 -3.3253,0.77439 -2.11063,0.53145 -4.22117,1.06288 -6.33175,1.59432 -2.61171,0.56182 -5.22331,1.12362 -7.83497,1.68543 -1.70065,0.30369 -3.40123,0.60737 -5.10184,0.91105 -3.18871,0.4859 -6.3773,0.97178 -9.56595,1.45766 -2.2321,0.31888 -4.46411,0.63773 -6.69617,0.9566 -2.24728,0.25813 -4.49448,0.51626 -6.74172,0.77439 -2.56615,0.24295 -5.13221,0.48589 -7.69831,0.72883 -1.73102,0 -3.46196,0 -5.19294,0 -1.26031,-0.10629 -2.52056,-0.21258 -3.78083,-0.31886 -1.32104,-0.1974 -2.64203,-0.39479 -3.96304,-0.59218 -1.70065,-0.25814 -3.40123,-0.51626 -5.10184,-0.77439 -1.89804,-0.37961 -3.796012,-0.7592 -5.694018,-1.1388 -1.472883,-0.30369 -2.945706,-0.60737 -4.418559,-0.91105 -3.006502,-0.59219 -6.012883,-1.18435 -9.019325,-1.77653 -2.019519,-0.36442 -4.038957,-0.72883 -6.058435,-1.09325 -1.579173,-0.12148 -3.158282,-0.24295 -4.737424,-0.36442 -0.04555,0 -0.0911,0 -0.136656,0 -0.744033,-0.0304 -1.488037,-0.0607 -2.232055,-0.0911 -1.731016,-0.12148 -3.461963,-0.24295 -5.192945,-0.36442 -0.03037,0.1974 -0.06074,0.39479 -0.0911,0.59218 -0.01518,0.19739 -0.03037,0.39478 -0.04555,0.59218 -0.04555,0.4859 -0.0911,0.97178 -0.136656,1.45766 -0.182212,1.63991 -0.364417,3.27976 -0.546626,4.91964 -0.182214,0.18221 -0.364422,0.36442 -0.546633,0.54662 0.182215,-0.18221 0.364422,-0.36441 0.546633,-0.54662 -0.16703,0.16703 -0.334054,0.33405 -0.50108,0.50107 -0.24295,0.0455 -0.48589,0.0911 -0.728835,0.13666 -0.425162,0.0456 -0.850307,0.0911 -1.27546,0.13665 -0.516268,-0.0152 -1.032515,-0.0304 -1.548773,-0.0455 -0.440346,0.0304 -0.880675,0.0607 -1.321012,0.0911 -0.971799,0 -1.943559,0 -2.915338,0 -7.865495,0.0152 -15.730675,0.0303 -23.596012,0.0455 -2.93058,-0.0759 -5.861043,-0.15184 -8.791564,-0.22776 -3.644245,-0.47072 -7.288344,-0.94141 -10.932516,-1.41212 -0.197396,-0.10629 -0.394785,-0.21257 -0.592178,-0.31885 -0.182212,-0.13666 -0.364417,-0.27332 -0.546625,-0.40997 -0.13666,-0.42517 -0.273313,-0.85031 -0.40997,-1.27546 -0.03037,-4.69197 -0.06073,-9.38375 -0.0911,-14.07562 0.182211,-0.13666 0.364415,-0.27331 0.546622,-0.40997 0.06074,-0.0455 0.121472,-0.0911 0.182208,-0.13665 0.09111,-0.0607 0.182209,-0.12148 0.273313,-0.18221 0.136659,-0.10629 0.273313,-0.21258 0.40997,-0.31887 -0.121475,-0.37961 -0.242945,-0.7592 -0.364418,-1.1388 -0.167027,-0.53145 -0.334049,-1.06289 -0.501073,-1.59433 -0.03037,-0.33405 -0.06074,-0.6681 -0.09111,-1.00214 -0.01518,-0.0152 -0.03037,-0.0304 -0.04555,-0.0456 -0.136658,-0.6681 -0.273311,-1.33617 -0.409966,-2.00425 -0.04555,-0.65293 -0.0911,-1.30583 -0.136656,-1.95874 -0.04555,-0.59219 -0.09111,-1.18436 -0.136657,-1.77654 -0.07592,-0.92624 -0.15184,-1.85245 -0.227761,-2.77868 0.01519,-0.81995 0.03037,-1.63987 0.04555,-2.45981 0,-0.91106 0,-1.82209 0,-2.73313 0.07592,-1.12364 0.151842,-2.24724 0.227763,-3.37086 0.167028,-1.1692 0.334049,-2.33834 0.501074,-3.50752 0.227765,-1.03253 0.455521,-2.06503 0.683282,-3.09754 0.122771,-0.64857 0.245537,-1.29711 0.368305,-1.94567 0.236213,-0.82674 0.472417,-1.65346 0.708625,-2.48018 0.193266,-0.75159 0.386523,-1.50315 0.579785,-2.25472 0.279161,-0.90191 0.55831,-1.80377 0.837466,-2.70566 0.214739,-0.63348 0.429469,-1.26694 0.644204,-1.9004 0.204002,-0.47243 0.407997,-0.94484 0.611995,-1.41725 0.257687,-0.53685 0.515363,-1.07368 0.773045,-1.61052 0.214739,-0.408 0.42947,-0.81599 0.644205,-1.22399 0.160282,-0.0894 0.320557,-0.17881 0.480836,-0.26821 z"
       inkscape:label="path1" /></g></svg>
